<svg xmlns="http://www.w3.org/2000/svg" xmlns:xlink="http://www.w3.org/1999/xlink" xmlns:inkscape="http://www.inkscape.org/namespaces/inkscape" version="1.1" width="772" height="397" viewBox="0 0 772 397">
<defs>
<clipPath id="clip_0">
<path transform="matrix(1,0,0,-1,0,397)" d="M0 .1272717H771.9273V396.99998H0Z"/>
</clipPath>
<clipPath id="clip_1">
<path transform="matrix(1,0,0,-1,0,397)" d="M0 1.436363H771.0545V396.56367H0Z"/>
</clipPath>
<clipPath id="clip_2">
<path transform="matrix(1,0,0,-1,0,397)" d="M11.12727 46.38182H760.8V355.9818H11.12727Z"/>
</clipPath>
<clipPath id="clip_3">
<path transform="matrix(1,0,0,-1,0,397)" d="M11.12727 46.38182H760.8V355.9818H11.12727Z"/>
</clipPath>
<clipPath id="clip_4">
<path transform="matrix(1,0,0,-1,0,397)" d="M11.12727 46.38182H760.8V355.9818H11.12727Z"/>
</clipPath>
<clipPath id="clip_5">
<path transform="matrix(1,0,0,-1,0,397)" d="M11.12727 46.38182H760.8V355.9818H11.12727Z"/>
</clipPath>
<clipPath id="clip_6">
<path transform="matrix(1,0,0,-1,0,397)" d="M11.12727 46.38182H760.8V355.9818H11.12727Z"/>
</clipPath>
<clipPath id="clip_7">
<path transform="matrix(1,0,0,-1,0,397)" d="M0 1.436363H771.0545V396.56367H0Z"/>
</clipPath>
<clipPath id="clip_8">
<path transform="matrix(1,0,0,-1,0,397)" d="M0 1.436363H771.0545V396.56367H0Z"/>
</clipPath>
<clipPath id="clip_9">
<path transform="matrix(1,0,0,-1,0,397)" d="M0 1.436363H771.0545V396.56367H0Z"/>
</clipPath>
<clipPath id="clip_10">
<path transform="matrix(1,0,0,-1,0,397)" d="M0 1.436363H771.0545V396.56367H0Z"/>
</clipPath>
<clipPath id="clip_11">
<path transform="matrix(1,0,0,-1,0,397)" d="M0 1.436363H771.0545V396.56367H0Z"/>
</clipPath>
<clipPath id="clip_12">
<path transform="matrix(1,0,0,-1,0,397)" d="M0 1.436363H771.0545V396.56367H0Z"/>
</clipPath>
<clipPath id="clip_13">
<path transform="matrix(1,0,0,-1,0,397)" d="M0 1.436363H771.0545V396.56367H0Z"/>
</clipPath>
<clipPath id="clip_14">
<path transform="matrix(1,0,0,-1,0,397)" d="M0 1.436363H771.0545V396.56367H0Z"/>
</clipPath>
<clipPath id="clip_15">
<path transform="matrix(1,0,0,-1,0,397)" d="M0 1.436363H771.0545V396.56367H0Z"/>
</clipPath>
<clipPath id="clip_16">
<path transform="matrix(1,0,0,-1,0,397)" d="M0 1.436363H771.0545V396.56367H0Z"/>
</clipPath>
<clipPath id="clip_17">
<path transform="matrix(1,0,0,-1,0,397)" d="M0 1.436363H771.0545V396.56367H0Z"/>
</clipPath>
<clipPath id="clip_18">
<path transform="matrix(1,0,0,-1,0,397)" d="M0 1.436363H771.0545V396.56367H0Z"/>
</clipPath>
<clipPath id="clip_19">
<path transform="matrix(1,0,0,-1,0,397)" d="M0 1.436363H771.0545V396.56367H0Z"/>
</clipPath>
<clipPath id="clip_20">
<path transform="matrix(1,0,0,-1,0,397)" d="M0 1.436363H771.0545V396.56367H0Z"/>
</clipPath>
<clipPath id="clip_21">
<path transform="matrix(1,0,0,-1,0,397)" d="M0 1.436363H771.0545V396.56367H0Z"/>
</clipPath>
<clipPath id="clip_22">
<path transform="matrix(1,0,0,-1,0,397)" d="M0 1.436363H771.0545V396.56367H0Z"/>
</clipPath>
<clipPath id="clip_23">
<path transform="matrix(1,0,0,-1,0,397)" d="M0 1.436363H771.0545V396.56367H0Z"/>
</clipPath>
<clipPath id="clip_24">
<path transform="matrix(1,0,0,-1,0,397)" d="M0 1.436363H771.0545V396.56367H0Z"/>
</clipPath>
<clipPath id="clip_25">
<path transform="matrix(1,0,0,-1,0,397)" d="M0 1.436363H771.0545V396.56367H0Z"/>
</clipPath>
<clipPath id="clip_26">
<path transform="matrix(1,0,0,-1,0,397)" d="M0 1.436363H771.0545V396.56367H0Z"/>
</clipPath>
<clipPath id="clip_27">
<path transform="matrix(1,0,0,-1,0,397)" d="M0 1.436363H771.0545V396.56367H0Z"/>
</clipPath>
<clipPath id="clip_28">
<path transform="matrix(1,0,0,-1,0,397)" d="M0 1.436363H771.0545V396.56367H0Z"/>
</clipPath>
<clipPath id="clip_29">
<path transform="matrix(1,0,0,-1,0,397)" d="M0 1.436363H771.0545V396.56367H0Z"/>
</clipPath>
<clipPath id="clip_30">
<path transform="matrix(1,0,0,-1,0,397)" d="M0 1.436363H771.0545V396.56367H0Z"/>
</clipPath>
<clipPath id="clip_31">
<path transform="matrix(1,0,0,-1,0,397)" d="M0 1.436363H771.0545V396.56367H0Z"/>
</clipPath>
<clipPath id="clip_32">
<path transform="matrix(1,0,0,-1,0,397)" d="M0 1.436363H771.0545V396.56367H0Z"/>
</clipPath>
<clipPath id="clip_33">
<path transform="matrix(1,0,0,-1,0,397)" d="M0 1.436363H771.0545V396.56367H0Z"/>
</clipPath>
<clipPath id="clip_34">
<path transform="matrix(1,0,0,-1,0,397)" d="M0 1.436363H771.0545V396.56367H0Z"/>
</clipPath>
<clipPath id="clip_35">
<path transform="matrix(1,0,0,-1,0,397)" d="M0 1.436363H771.0545V396.56367H0Z"/>
</clipPath>
<clipPath id="clip_36">
<path transform="matrix(1,0,0,-1,0,397)" d="M0 1.436363H771.0545V396.56367H0Z"/>
</clipPath>
<clipPath id="clip_37">
<path transform="matrix(1,0,0,-1,0,397)" d="M0 1.436363H771.0545V396.56367H0Z"/>
</clipPath>
<clipPath id="clip_38">
<path transform="matrix(1,0,0,-1,0,397)" d="M0 1.436363H771.0545V396.56367H0Z"/>
</clipPath>
<clipPath id="clip_39">
<path transform="matrix(1,0,0,-1,0,397)" d="M0 1.436363H771.0545V396.56367H0Z"/>
</clipPath>
<clipPath id="clip_40">
<path transform="matrix(1,0,0,-1,0,397)" d="M0 1.436363H771.0545V396.56367H0Z"/>
</clipPath>
<clipPath id="clip_41">
<path transform="matrix(1,0,0,-1,0,397)" d="M0 1.436363H771.0545V396.56367H0Z"/>
</clipPath>
<clipPath id="clip_42">
<path transform="matrix(1,0,0,-1,0,397)" d="M0 1.436363H771.0545V396.56367H0Z"/>
</clipPath>
<clipPath id="clip_43">
<path transform="matrix(1,0,0,-1,0,397)" d="M0 1.436363H771.0545V396.56367H0Z"/>
</clipPath>
<clipPath id="clip_44">
<path transform="matrix(1,0,0,-1,0,397)" d="M0 1.436363H771.0545V396.56367H0Z"/>
</clipPath>
<clipPath id="clip_45">
<path transform="matrix(1,0,0,-1,0,397)" d="M0 1.436363H771.0545V396.56367H0Z"/>
</clipPath>
<clipPath id="clip_46">
<path transform="matrix(1,0,0,-1,0,397)" d="M0 1.436363H771.0545V396.56367H0Z"/>
</clipPath>
<clipPath id="clip_47">
<path transform="matrix(1,0,0,-1,0,397)" d="M0 1.436363H771.0545V396.56367H0Z"/>
</clipPath>
<clipPath id="clip_48">
<path transform="matrix(1,0,0,-1,0,397)" d="M0 1.436363H771.0545V396.56367H0Z"/>
</clipPath>
<clipPath id="clip_49">
<path transform="matrix(1,0,0,-1,0,397)" d="M0 1.436363H771.0545V396.56367H0Z"/>
</clipPath>
<clipPath id="clip_50">
<path transform="matrix(1,0,0,-1,0,397)" d="M0 1.436363H771.0545V396.56367H0Z"/>
</clipPath>
<clipPath id="clip_51">
<path transform="matrix(1,0,0,-1,0,397)" d="M0 1.436363H771.0545V396.56367H0Z"/>
</clipPath>
<clipPath id="clip_52">
<path transform="matrix(1,0,0,-1,0,397)" d="M0 1.436363H771.0545V396.56367H0Z"/>
</clipPath>
<clipPath id="clip_53">
<path transform="matrix(1,0,0,-1,0,397)" d="M0 1.436363H771.0545V396.56367H0Z"/>
</clipPath>
<clipPath id="clip_54">
<path transform="matrix(1,0,0,-1,0,397)" d="M0 1.436363H771.0545V396.56367H0Z"/>
</clipPath>
<clipPath id="clip_55">
<path transform="matrix(1,0,0,-1,0,397)" d="M0 1.436363H771.0545V396.56367H0Z"/>
</clipPath>
<clipPath id="clip_56">
<path transform="matrix(1,0,0,-1,0,397)" d="M0 1.436363H771.0545V396.56367H0Z"/>
</clipPath>
<clipPath id="clip_57">
<path transform="matrix(1,0,0,-1,0,397)" d="M0 1.436363H771.0545V396.56367H0Z"/>
</clipPath>
<clipPath id="clip_58">
<path transform="matrix(1,0,0,-1,0,397)" d="M0 1.436363H771.0545V396.56367H0Z"/>
</clipPath>
<clipPath id="clip_59">
<path transform="matrix(1,0,0,-1,0,397)" d="M0 1.436363H771.0545V396.56367H0Z"/>
</clipPath>
<clipPath id="clip_60">
<path transform="matrix(1,0,0,-1,0,397)" d="M0 1.436363H771.0545V396.56367H0Z"/>
</clipPath>
<clipPath id="clip_61">
<path transform="matrix(1,0,0,-1,0,397)" d="M0 1.436363H771.0545V396.56367H0Z"/>
</clipPath>
<clipPath id="clip_62">
<path transform="matrix(1,0,0,-1,0,397)" d="M0 1.436363H771.0545V396.56367H0Z"/>
</clipPath>
<clipPath id="clip_63">
<path transform="matrix(1,0,0,-1,0,397)" d="M0 1.436363H771.0545V396.56367H0Z"/>
</clipPath>
<clipPath id="clip_64">
<path transform="matrix(1,0,0,-1,0,397)" d="M0 1.436363H771.0545V396.56367H0Z"/>
</clipPath>
<clipPath id="clip_65">
<path transform="matrix(1,0,0,-1,0,397)" d="M0 1.436363H771.0545V396.56367H0Z"/>
</clipPath>
<clipPath id="clip_66">
<path transform="matrix(1,0,0,-1,0,397)" d="M0 1.436363H771.0545V396.56367H0Z"/>
</clipPath>
<clipPath id="clip_67">
<path transform="matrix(1,0,0,-1,0,397)" d="M0 1.436363H771.0545V396.56367H0Z"/>
</clipPath>
<clipPath id="clip_68">
<path transform="matrix(1,0,0,-1,0,397)" d="M0 1.436363H771.0545V396.56367H0Z"/>
</clipPath>
<clipPath id="clip_69">
<path transform="matrix(1,0,0,-1,0,397)" d="M0 1.436363H771.0545V396.56367H0Z"/>
</clipPath>
<clipPath id="clip_70">
<path transform="matrix(1,0,0,-1,0,397)" d="M0 1.436363H771.0545V396.56367H0Z"/>
</clipPath>
<clipPath id="clip_71">
<path transform="matrix(1,0,0,-1,0,397)" d="M0 1.436363H771.0545V396.56367H0Z"/>
</clipPath>
<clipPath id="clip_72">
<path transform="matrix(1,0,0,-1,0,397)" d="M0 1.436363H771.0545V396.56367H0Z"/>
</clipPath>
<clipPath id="clip_73">
<path transform="matrix(1,0,0,-1,0,397)" d="M0 1.436363H771.0545V396.56367H0Z"/>
</clipPath>
<clipPath id="clip_74">
<path transform="matrix(1,0,0,-1,0,397)" d="M0 1.436363H771.0545V396.56367H0Z"/>
</clipPath>
</defs>
<g clip-path="url(#clip_0)">
<path transform="matrix(1,0,0,-1,0,397)" d="M0 397H771.9273V.1272717H0Z" fill="#ffffff"/>
</g>
<path transform="matrix(1,0,0,-1,0,397)" d="M.3454198 396.4364H771.1818V1.309056H.3454198Z" fill="#ffffff"/>
<g clip-path="url(#clip_1)">
<path transform="matrix(.00007874016,0,0,.00007874016,11.36361,41.25461)" stroke-width="9525" stroke-linecap="butt" stroke-linejoin="round" fill="none" stroke="#d9d9d9" d="M0 0V3918065M1055916 0V3918065M2111667 0V3918065M3170189 0V3918065M4225940 0V3918065M5281691 0V3918065M6340213 0V3918065M7395964 0V3918065M8454486 0V3918065M9509760 0V3918065"/>
</g>
<g clip-path="url(#clip_2)">
<path transform="matrix(1,0,0,-1,0,397)" d="M25.44975 250.9039H31.77723V47.12724H25.44975ZM108.7979 315.7061H115.1254V47.12724H108.7979ZM191.9279 312.6514H198.2554V47.12724H191.9279ZM275.0579 313.5242H281.3854V47.12724H275.0579ZM358.4061 316.3606H364.7336V47.12724H358.4061ZM441.5361 315.7061H447.8636V47.12724H441.5361ZM524.6661 316.3606H530.9936V47.12724H524.6661ZM608.0143 315.0515H614.3418V47.12724H608.0143ZM691.1443 334.2521H697.4718V47.12724H691.1443Z" fill="#156082"/>
</g>
<g clip-path="url(#clip_3)">
<path transform="matrix(1,0,0,-1,0,397)" d="M37.66833 213.8118H43.99581V47.12724H37.66833ZM120.7983 244.5765H127.1258V47.12724H120.7983ZM203.9283 263.1225H210.474V47.12724H203.9283ZM287.2765 250.9039H293.604V47.12724H287.2765ZM370.4065 247.8493H376.734V47.12724H370.4065ZM453.5365 257.0132H460.0822V47.12724H453.5365ZM536.8847 238.4672H543.2122V47.12724H536.8847ZM620.0147 263.1225H626.3422V47.12724H620.0147ZM703.1447 284.7232H709.6904V47.12724H703.1447Z" fill="#e97132"/>
</g>
<g clip-path="url(#clip_4)">
<path transform="matrix(1,0,0,-1,0,397)" d="M49.66873 226.2486H56.2144V47.12724H49.66873ZM133.0169 238.4672H139.3444V47.12724H133.0169ZM216.1469 260.0679H222.4744V47.12724H216.1469ZM299.2769 253.9586H305.8226V47.12724H299.2769ZM382.6251 244.5765H388.9526V47.12724H382.6251ZM465.7551 257.0132H472.0826V47.12724H465.7551ZM548.8851 244.5765H555.4308V47.12724H548.8851ZM632.2333 263.1225H638.5608V47.12724H632.2333ZM715.3633 297.16H721.6908V47.12724H715.3633Z" fill="#196b24"/>
</g>
<g clip-path="url(#clip_5)">
<path transform="matrix(1,0,0,-1,0,397)" d="M61.88731 210.7572H68.21479V47.12724H61.88731ZM145.0173 235.4125H151.3448V47.12724H145.0173ZM228.3655 260.0679H234.693V47.12724H228.3655ZM311.4955 250.9039H317.823V47.12724H311.4955ZM394.6255 247.8493H401.1712V47.12724H394.6255ZM477.9737 257.0132H484.3012V47.12724H477.9737ZM561.1037 238.4672H567.4312V47.12724H561.1037ZM644.2337 263.1225H650.7794V47.12724H644.2337ZM727.5819 281.6686H733.9094V47.12724H727.5819Z" fill="#0f9ed5"/>
</g>
<g clip-path="url(#clip_6)">
<path transform="matrix(1,0,0,-1,0,397)" d="M73.8877 213.8118H80.43337V47.12724H73.8877ZM157.2359 244.5765H163.5634V47.12724H157.2359ZM240.3659 257.0132H246.6934V47.12724H240.3659ZM323.4959 250.9039H330.0416V47.12724H323.4959ZM406.8441 247.8493H413.1716V47.12724H406.8441ZM489.9741 260.0679H496.3016V47.12724H489.9741ZM573.3223 238.4672H579.6497V47.12724H573.3223ZM656.4523 263.1225H662.7797V47.12724H656.4523ZM739.5823 278.6139H745.9097V47.12724H739.5823Z" fill="#a02b93"/>
</g>
<g clip-path="url(#clip_7)">
<path transform="matrix(.00007874016,0,0,.00007874016,11.36361,349.7636)" stroke-width="9525" stroke-linecap="butt" stroke-linejoin="round" fill="none" stroke="#d9d9d9" d="M0 0 9509760 1"/>
</g>
<g clip-path="url(#clip_8)">
<text xml:space="preserve" transform="matrix(0 -.2181818 .2181818 0 430.8813 140.0727)" font-size="72.99999" font-family="TimesNewRomanPSMT"><tspan y="-1819" x="0 36.667898 55.01279 91.68069 128.34859">0.660</tspan></text>
</g>
<g clip-path="url(#clip_9)">
<text xml:space="preserve" transform="matrix(0 -.2181818 .2181818 0 514.085 75.272708)" font-size="72.99999" font-family="TimesNewRomanPSMT"><tspan y="-1819" x="0 36.667898 55.01279 91.68069 128.34859">0.870</tspan></text>
</g>
<g clip-path="url(#clip_10)">
<text xml:space="preserve" transform="matrix(0 -.2181818 .2181818 0 597.2887 78.3273)" font-size="72.99999" font-family="TimesNewRomanPSMT"><tspan y="-1819" x="0 36.667898 55.01279 91.68069 128.34859">0.860</tspan></text>
</g>
<g clip-path="url(#clip_11)">
<text xml:space="preserve" transform="matrix(0 -.2181818 .2181818 0 680.4924 77.4545)" font-size="72.99999" font-family="TimesNewRomanPSMT"><tspan y="-1819" x="0 36.667898 55.01279 91.68069 128.34859">0.863</tspan></text>
</g>
<g clip-path="url(#clip_12)">
<text xml:space="preserve" transform="matrix(0 -.2181818 .2181818 0 763.6962 74.618198)" font-size="72.99999" font-family="TimesNewRomanPSMT"><tspan y="-1819" x="0 36.667898 55.01279 91.68069 128.34859">0.872</tspan></text>
</g>
<g clip-path="url(#clip_13)">
<text xml:space="preserve" transform="matrix(0 -.2181818 .2181818 0 846.8999 75.272708)" font-size="72.99999" font-family="TimesNewRomanPSMT"><tspan y="-1819" x="0 36.667898 55.01279 91.68069 128.34859">0.870</tspan></text>
</g>
<g clip-path="url(#clip_14)">
<text xml:space="preserve" transform="matrix(0 -.2181818 .2181818 0 930.1036 74.618198)" font-size="72.99999" font-family="TimesNewRomanPSMT"><tspan y="-1819" x="0 36.667898 55.01279 91.68069 128.34859">0.872</tspan></text>
</g>
<g clip-path="url(#clip_15)">
<text xml:space="preserve" transform="matrix(0 -.2181818 .2181818 0 1013.307 75.92731)" font-size="72.99999" font-family="TimesNewRomanPSMT"><tspan y="-1819" x="0 36.667898 55.01279 91.68069 128.34859">0.868</tspan></text>
</g>
<g clip-path="url(#clip_16)">
<text xml:space="preserve" transform="matrix(0 -.2181818 .2181818 0 1096.511 56.727296)" font-size="72.99999" font-family="TimesNewRomanPSMT"><tspan y="-1819" x="0 36.667898 55.01279 91.68069 128.34859">0.930</tspan></text>
</g>
<g clip-path="url(#clip_17)">
<text xml:space="preserve" transform="matrix(0 -.2181818 .2181818 0 443.0046 177.1636)" font-size="72.99999" font-family="TimesNewRomanPSMT"><tspan y="-1819" x="0 36.667898 55.01279 91.68069">0.54</tspan></text>
</g>
<g clip-path="url(#clip_18)">
<text xml:space="preserve" transform="matrix(0 -.2181818 .2181818 0 526.2083 146.4)" font-size="72.99999" font-family="TimesNewRomanPSMT"><tspan y="-1819" x="0 36.667898 55.01279 91.68069">0.64</tspan></text>
</g>
<g clip-path="url(#clip_19)">
<text xml:space="preserve" transform="matrix(0 -.2181818 .2181818 0 609.4119 127.85449)" font-size="72.99999" font-family="TimesNewRomanPSMT"><tspan y="-1819" x="0 36.667898 55.01279 91.68069">0.70</tspan></text>
</g>
<g clip-path="url(#clip_20)">
<text xml:space="preserve" transform="matrix(0 -.2181818 .2181818 0 692.6157 140.0727)" font-size="72.99999" font-family="TimesNewRomanPSMT"><tspan y="-1819" x="0 36.667898 55.01279 91.68069">0.66</tspan></text>
</g>
<g clip-path="url(#clip_21)">
<text xml:space="preserve" transform="matrix(0 -.2181818 .2181818 0 775.8194 143.1273)" font-size="72.99999" font-family="TimesNewRomanPSMT"><tspan y="-1819" x="0 36.667898 55.01279 91.68069">0.65</tspan></text>
</g>
<g clip-path="url(#clip_22)">
<text xml:space="preserve" transform="matrix(0 -.2181818 .2181818 0 859.0231 133.9636)" font-size="72.99999" font-family="TimesNewRomanPSMT"><tspan y="-1819" x="0 36.667898 55.01279 91.68069">0.68</tspan></text>
</g>
<g clip-path="url(#clip_23)">
<text xml:space="preserve" transform="matrix(0 -.2181818 .2181818 0 942.2268 152.5091)" font-size="72.99999" font-family="TimesNewRomanPSMT"><tspan y="-1819" x="0 36.667898 55.01279 91.68069">0.62</tspan></text>
</g>
<g clip-path="url(#clip_24)">
<text xml:space="preserve" transform="matrix(0 -.2181818 .2181818 0 1025.431 127.85449)" font-size="72.99999" font-family="TimesNewRomanPSMT"><tspan y="-1819" x="0 36.667898 55.01279 91.68069">0.70</tspan></text>
</g>
<g clip-path="url(#clip_25)">
<text xml:space="preserve" transform="matrix(0 -.2181818 .2181818 0 1108.634 106.254489)" font-size="72.99999" font-family="TimesNewRomanPSMT"><tspan y="-1819" x="0 36.667898 55.01279 91.68069">0.77</tspan></text>
</g>
<g clip-path="url(#clip_26)">
<text xml:space="preserve" transform="matrix(0 -.2181818 .2181818 0 455.1278 164.7273)" font-size="72.99999" font-family="TimesNewRomanPSMT"><tspan y="-1819" x="0 36.667898 55.01279 91.68069">0.58</tspan></text>
</g>
<g clip-path="url(#clip_27)">
<text xml:space="preserve" transform="matrix(0 -.2181818 .2181818 0 538.3316 152.5091)" font-size="72.99999" font-family="TimesNewRomanPSMT"><tspan y="-1819" x="0 36.667898 55.01279 91.68069">0.62</tspan></text>
</g>
<g clip-path="url(#clip_28)">
<text xml:space="preserve" transform="matrix(0 -.2181818 .2181818 0 621.5353 130.90909)" font-size="72.99999" font-family="TimesNewRomanPSMT"><tspan y="-1819" x="0 36.667898 55.01279 91.68069">0.69</tspan></text>
</g>
<g clip-path="url(#clip_29)">
<text xml:space="preserve" transform="matrix(0 -.2181818 .2181818 0 704.7389 137.01819)" font-size="72.99999" font-family="TimesNewRomanPSMT"><tspan y="-1819" x="0 36.667898 55.01279 91.68069">0.67</tspan></text>
</g>
<g clip-path="url(#clip_30)">
<text xml:space="preserve" transform="matrix(0 -.2181818 .2181818 0 787.9427 146.4)" font-size="72.99999" font-family="TimesNewRomanPSMT"><tspan y="-1819" x="0 36.667898 55.01279 91.68069">0.64</tspan></text>
</g>
<g clip-path="url(#clip_31)">
<text xml:space="preserve" transform="matrix(0 -.2181818 .2181818 0 871.1463 133.9636)" font-size="72.99999" font-family="TimesNewRomanPSMT"><tspan y="-1819" x="0 36.667898 55.01279 91.68069">0.68</tspan></text>
</g>
<g clip-path="url(#clip_32)">
<text xml:space="preserve" transform="matrix(0 -.2181818 .2181818 0 954.35 146.4)" font-size="72.99999" font-family="TimesNewRomanPSMT"><tspan y="-1819" x="0 36.667898 55.01279 91.68069">0.64</tspan></text>
</g>
<g clip-path="url(#clip_33)">
<text xml:space="preserve" transform="matrix(0 -.2181818 .2181818 0 1037.554 127.85449)" font-size="72.99999" font-family="TimesNewRomanPSMT"><tspan y="-1819" x="0 36.667898 55.01279 91.68069">0.70</tspan></text>
</g>
<g clip-path="url(#clip_34)">
<text xml:space="preserve" transform="matrix(0 -.2181818 .2181818 0 1120.757 93.81821)" font-size="72.99999" font-family="TimesNewRomanPSMT"><tspan y="-1819" x="0 36.667898 55.01279 91.68069">0.81</tspan></text>
</g>
<g clip-path="url(#clip_35)">
<text xml:space="preserve" transform="matrix(0 -.2181818 .2181818 0 467.2511 180.2182)" font-size="72.99999" font-family="TimesNewRomanPSMT"><tspan y="-1819" x="0 36.667898 55.01279 91.68069">0.53</tspan></text>
</g>
<g clip-path="url(#clip_36)">
<text xml:space="preserve" transform="matrix(0 -.2181818 .2181818 0 550.4548 155.5636)" font-size="72.99999" font-family="TimesNewRomanPSMT"><tspan y="-1819" x="0 36.667898 55.01279 91.68069">0.61</tspan></text>
</g>
<g clip-path="url(#clip_37)">
<text xml:space="preserve" transform="matrix(0 -.2181818 .2181818 0 633.6585 130.90909)" font-size="72.99999" font-family="TimesNewRomanPSMT"><tspan y="-1819" x="0 36.667898 55.01279 91.68069">0.69</tspan></text>
</g>
<g clip-path="url(#clip_38)">
<text xml:space="preserve" transform="matrix(0 -.2181818 .2181818 0 716.8622 140.0727)" font-size="72.99999" font-family="TimesNewRomanPSMT"><tspan y="-1819" x="0 36.667898 55.01279 91.68069">0.66</tspan></text>
</g>
<g clip-path="url(#clip_39)">
<text xml:space="preserve" transform="matrix(0 -.2181818 .2181818 0 800.0659 143.1273)" font-size="72.99999" font-family="TimesNewRomanPSMT"><tspan y="-1819" x="0 36.667898 55.01279 91.68069">0.65</tspan></text>
</g>
<g clip-path="url(#clip_40)">
<text xml:space="preserve" transform="matrix(0 -.2181818 .2181818 0 883.2696 133.9636)" font-size="72.99999" font-family="TimesNewRomanPSMT"><tspan y="-1819" x="0 36.667898 55.01279 91.68069">0.68</tspan></text>
</g>
<g clip-path="url(#clip_41)">
<text xml:space="preserve" transform="matrix(0 -.2181818 .2181818 0 966.4733 152.5091)" font-size="72.99999" font-family="TimesNewRomanPSMT"><tspan y="-1819" x="0 36.667898 55.01279 91.68069">0.62</tspan></text>
</g>
<g clip-path="url(#clip_42)">
<text xml:space="preserve" transform="matrix(0 -.2181818 .2181818 0 1049.677 127.85449)" font-size="72.99999" font-family="TimesNewRomanPSMT"><tspan y="-1819" x="0 36.667898 55.01279 91.68069">0.70</tspan></text>
</g>
<g clip-path="url(#clip_43)">
<text xml:space="preserve" transform="matrix(0 -.2181818 .2181818 0 1132.881 109.30911)" font-size="72.99999" font-family="TimesNewRomanPSMT"><tspan y="-1819" x="0 36.667898 55.01279 91.68069">0.76</tspan></text>
</g>
<g clip-path="url(#clip_44)">
<text xml:space="preserve" transform="matrix(0 -.2181818 .2181818 0 478.7368 177.1636)" font-size="64" font-family="TimesNewRomanPSMT"><tspan y="-1819" x="0 32.0832 48.102399 80.18559">0.54</tspan></text>
</g>
<g clip-path="url(#clip_45)">
<text xml:space="preserve" transform="matrix(0 -.2181818 .2181818 0 561.9405 146.4)" font-size="64" font-family="TimesNewRomanPSMT"><tspan y="-1819" x="0 32.0832 48.102399 80.18559">0.64</tspan></text>
</g>
<g clip-path="url(#clip_46)">
<text xml:space="preserve" transform="matrix(0 -.2181818 .2181818 0 645.1442 133.9636)" font-size="64" font-family="TimesNewRomanPSMT"><tspan y="-1819" x="0 32.0832 48.102399 80.18559">0.68</tspan></text>
</g>
<g clip-path="url(#clip_47)">
<text xml:space="preserve" transform="matrix(0 -.2181818 .2181818 0 728.3479 140.0727)" font-size="64" font-family="TimesNewRomanPSMT"><tspan y="-1819" x="0 32.0832 48.102399 80.18559">0.66</tspan></text>
</g>
<g clip-path="url(#clip_48)">
<text xml:space="preserve" transform="matrix(0 -.2181818 .2181818 0 811.5516 143.1273)" font-size="64" font-family="TimesNewRomanPSMT"><tspan y="-1819" x="0 32.0832 48.102399 80.18559">0.65</tspan></text>
</g>
<g clip-path="url(#clip_49)">
<text xml:space="preserve" transform="matrix(0 -.2181818 .2181818 0 894.7553 130.90909)" font-size="64" font-family="TimesNewRomanPSMT"><tspan y="-1819" x="0 32.0832 48.102399 80.18559">0.69</tspan></text>
</g>
<g clip-path="url(#clip_50)">
<text xml:space="preserve" transform="matrix(0 -.2181818 .2181818 0 977.959 152.5091)" font-size="64" font-family="TimesNewRomanPSMT"><tspan y="-1819" x="0 32.0832 48.102399 80.18559">0.62</tspan></text>
</g>
<g clip-path="url(#clip_51)">
<text xml:space="preserve" transform="matrix(0 -.2181818 .2181818 0 1061.163 127.85449)" font-size="64" font-family="TimesNewRomanPSMT"><tspan y="-1819" x="0 32.0832 48.102399 80.18559">0.70</tspan></text>
</g>
<g clip-path="url(#clip_52)">
<text xml:space="preserve" transform="matrix(0 -.2181818 .2181818 0 1144.366 112.36359)" font-size="64" font-family="TimesNewRomanPSMT"><tspan y="-1819" x="0 32.0832 48.102399 80.18559">0.75</tspan></text>
</g>
<g clip-path="url(#clip_53)">
<text xml:space="preserve" transform="matrix(.2181818 0 -0 .2181818 30.6952 767.5636)" font-size="64" font-family="TimesNewRomanPS" font-weight="bold"><tspan y="-1819" x="0 48.307207 100.134418 155.54563">BYOL</tspan></text>
</g>
<g clip-path="url(#clip_54)">
<text xml:space="preserve" transform="matrix(.2181818 0 -0 .2181818 111.1864 767.5636)" font-size="64" font-family="TimesNewRomanPS" font-weight="bold"><tspan y="-1819" x="0 66.06721 121.4464 173.3056">MOCO</tspan></text>
</g>
<g clip-path="url(#clip_55)">
<text xml:space="preserve" transform="matrix(.2181818 0 -0 .2181818 187.7376 767.5636)" font-size="64" font-family="TimesNewRomanPS" font-weight="bold"><tspan y="-1819" x="0 41.184003 71.68001 137.76001 189.632 237.92002">SIMCLR</tspan></text>
</g>
<g clip-path="url(#clip_56)">
<text xml:space="preserve" transform="matrix(.2181818 0 -0 .2181818 280.8213 767.5636)" font-size="64" font-family="TimesNewRomanPS" font-weight="bold"><tspan y="-1819" x="0 41.184003 103.743999 147.296">SWAV</tspan></text>
</g>
<g clip-path="url(#clip_57)">
<text xml:space="preserve" transform="matrix(.2181818 0 -0 .2181818 344.6349 767.5636)" font-size="64" font-family="TimesNewRomanPS" font-weight="bold"><tspan y="-1819" x="0 41.184003 71.68001 137.76001 189.632 237.92002 287.48805 339.36006">SIMCLRV2</tspan></text>
</g>
<g clip-path="url(#clip_58)">
<text xml:space="preserve" transform="matrix(.2181818 0 -0 .2181818 434.2462 767.5636)" font-size="64" font-family="TimesNewRomanPS" font-weight="bold"><tspan y="-1819" x="0 66.06721 121.4464 173.3056 228.68482 280.544">MOCOV2</tspan></text>
</g>
<g clip-path="url(#clip_59)">
<text xml:space="preserve" transform="matrix(.2181818 0 -0 .2181818 517.4499 767.5636)" font-size="64" font-family="TimesNewRomanPS" font-weight="bold"><tspan y="-1819" x="0 66.06721 121.4464 173.3056 228.68482 280.544">MOCOV3</tspan></text>
</g>
<g clip-path="url(#clip_60)">
<text xml:space="preserve" transform="matrix(.2181818 0 -0 .2181818 599.6561 767.5636)" font-size="64" font-family="TimesNewRomanPS" font-weight="bold"><tspan y="-1819" x="0 41.184003 71.68001 137.76001 178.94402 209.44002 261.312">SIMSIAM</tspan></text>
</g>
<g clip-path="url(#clip_61)">
<text xml:space="preserve" transform="matrix(.2181818 0 -0 .2181818 682.9048 767.5636)" font-size="64" font-family="TimesNewRomanPS" font-weight="bold"><tspan y="-1819" x="0 51.840005 82.304">VIT</tspan></text>
</g>
<g clip-path="url(#clip_62)">
<text xml:space="preserve" transform="matrix(.2181818 0 -0 .2181818 710.1198 767.5636)" font-size="64" font-family="TimesNewRomanPS" font-weight="bold"><tspan y="-1819" x="0">-</tspan></text>
</g>
<g clip-path="url(#clip_63)">
<text xml:space="preserve" transform="matrix(.2181818 0 -0 .2181818 715.9798 767.5636)" font-size="64" font-family="TimesNewRomanPS" font-weight="bold"><tspan y="-1819" x="0 37.5808 78.745609 123.430408 175.2832">2SPN </tspan></text>
</g>
<g clip-path="url(#clip_64)">
<text xml:space="preserve" transform="matrix(.2181818 0 -0 .2181818 690.8598 783.0545)" font-size="64" font-family="TimesNewRomanPS" font-weight="bold"><tspan y="-1819" x="0 26.8608 82.26561 134.08641 185.90721 227.104">(OURS)</tspan></text>
</g>
<g clip-path="url(#clip_65)">
<path transform="matrix(1,0,0,-1,0,397)" d="M194.309 382.4728H202.1636V374.6182H194.309Z" fill="#156082"/>
</g>
<g clip-path="url(#clip_66)">
<text fill="#595959" xml:space="preserve" transform="matrix(.2181818 0 -0 .2181818 205.8276 419.99998)" font-size="72.99999" font-family="TimesNewRomanPSMT"><tspan y="-1819" x="0 56.998399 109.9818 162.9652">mAUC</tspan></text>
</g>
<g clip-path="url(#clip_67)">
<path transform="matrix(1,0,0,-1,0,397)" d="M268.0546 382.4728H275.909V374.6182H268.0546Z" fill="#e97132"/>
</g>
<g clip-path="url(#clip_68)">
<text fill="#595959" xml:space="preserve" transform="matrix(.2181818 0 -0 .2181818 279.5444 419.99998)" font-size="72.99999" font-family="TimesNewRomanPSMT"><tspan y="-1819" x="0 52.998 85.993999 117.967998 154.97899 178.99599 211.99199 243.96599">Accuracy</tspan></text>
</g>
<g clip-path="url(#clip_69)">
<path transform="matrix(1,0,0,-1,0,397)" d="M356.6364 382.4728H364.7091V374.6182H356.6364Z" fill="#196b24"/>
</g>
<g clip-path="url(#clip_70)">
<text fill="#595959" xml:space="preserve" transform="matrix(.2181818 0 -0 .2181818 368.3212 419.99998)" font-size="72.99999" font-family="TimesNewRomanPSMT"><tspan y="-1819" x="0 40.9968 64.9846 98.0244 130.0422 151.03702 179.03983 200.03464 236.06743">Precision</tspan></text>
</g>
<g clip-path="url(#clip_71)">
<path transform="matrix(1,0,0,-1,0,397)" d="M443.6909 382.4728H451.7636V374.6182H443.6909Z" fill="#0f9ed5"/>
</g>
<g clip-path="url(#clip_72)">
<text fill="#595959" xml:space="preserve" transform="matrix(.2181818 0 -0 .2181818 455.358 419.99998)" font-size="72.99999" font-family="TimesNewRomanPSMT"><tspan y="-1819" x="0 40.9968 77.029598 102.03939 143.0362 175.054 212.0358 236.0236">F1-Score</tspan></text>
</g>
<g clip-path="url(#clip_73)">
<path transform="matrix(1,0,0,-1,0,397)" d="M529.8728 382.4728H537.9454V374.6182H529.8728Z" fill="#a02b93"/>
</g>
<g clip-path="url(#clip_74)">
<text fill="#595959" xml:space="preserve" transform="matrix(.2181818 0 -0 .2181818 541.5098 419.99998)" font-size="72.99999" font-family="TimesNewRomanPSMT"><tspan y="-1819" x="0 48.997598 80.9862 113.9968 147.00742 167.02402">Recall</tspan></text>
</g>
<path transform="matrix(.00007874016,0,0,.00007874016,.4545537,.6727905)" stroke-width="9525" stroke-linecap="butt" stroke-linejoin="round" fill="none" stroke="#d9d9d9" d="M0 0H9789622V5018116H0Z"/>
</svg>
