<?xml version="1.0" standalone="no"?>
<!DOCTYPE svg PUBLIC "-//W3C//DTD SVG 20010904//EN"
 "http://www.w3.org/TR/2001/REC-SVG-20010904/DTD/svg10.dtd">
<svg version="1.0" xmlns="http://www.w3.org/2000/svg"
 width="1365.000000pt" height="303.000000pt" viewBox="0 0 1365.000000 303.000000"
 preserveAspectRatio="xMidYMid meet">

<g transform="translate(0.000000,303.000000) scale(0.100000,-0.100000)"
fill="#000000" stroke="none">
<path d="M147 2903 c-4 -3 -7 -10 -7 -15 0 -4 3006 -8 6681 -8 5340 0 6680 3
6677 12 -4 10 -1349 14 -6675 16 -3668 1 -6673 -1 -6676 -5z"/>
<path d="M5173 2748 c-74 -19 -98 -114 -44 -169 24 -24 38 -29 76 -29 63 0
105 39 105 98 0 75 -61 120 -137 100z m70 -26 c32 -35 27 -125 -8 -148 -51
-33 -101 26 -88 102 11 59 62 84 96 46z"/>
<path d="M373 2735 c-32 -22 -47 -77 -33 -119 14 -44 48 -66 100 -66 52 0 86
22 100 66 14 42 -1 97 -33 119 -28 19 -106 19 -134 0z m107 -15 c30 -30 28
-103 -5 -135 -31 -32 -48 -31 -74 1 -43 55 -18 154 39 154 11 0 29 -9 40 -20z"/>
<path d="M1023 2743 c14 -4 17 -17 17 -89 0 -68 -3 -84 -15 -84 -8 0 -15 -4
-15 -10 0 -5 18 -10 40 -10 22 0 40 5 40 10 0 6 -7 10 -15 10 -12 0 -15 14
-14 73 l1 72 39 -82 c21 -46 42 -83 46 -83 5 0 23 35 42 78 19 42 38 81 43 87
4 5 8 -26 8 -68 0 -62 -3 -77 -15 -77 -8 0 -15 -4 -15 -10 0 -5 23 -10 51 -10
31 0 48 4 44 10 -3 6 -13 10 -21 10 -11 0 -14 17 -14 80 0 74 2 81 23 90 18 7
15 9 -21 9 l-43 1 -35 -77 -36 -78 -35 78 -36 77 -41 -1 c-23 -1 -33 -3 -23
-6z"/>
<path d="M1598 2743 c6 -2 12 -18 12 -34 0 -26 -3 -29 -33 -29 -18 0 -42 -6
-52 -14 -25 -18 -26 -83 -1 -102 21 -15 146 -18 146 -3 0 5 -4 9 -10 9 -6 0
-10 37 -10 90 l0 90 -32 -1 c-18 0 -27 -3 -20 -6z m10 -124 c3 -48 -11 -65
-43 -53 -40 16 -24 108 18 102 19 -3 22 -10 25 -49z"/>
<path d="M1848 2738 c15 -15 17 -168 2 -168 -5 0 -10 -4 -10 -10 0 -5 19 -10
42 -10 33 0 39 3 30 12 -8 8 -12 45 -12 100 l0 88 -32 0 c-25 0 -29 -3 -20
-12z"/>
<path d="M3293 2743 c14 -4 17 -17 17 -89 0 -68 -3 -84 -15 -84 -8 0 -15 -4
-15 -10 0 -5 25 -10 55 -10 30 0 55 5 55 10 0 6 -7 10 -15 10 -10 0 -15 11
-15 35 0 34 1 35 38 35 47 0 82 24 82 55 0 40 -35 55 -125 54 -44 -1 -72 -3
-62 -6z m139 -26 c19 -30 -7 -67 -48 -67 -22 0 -24 4 -24 46 l0 47 32 -7 c18
-3 36 -12 40 -19z"/>
<path d="M4680 2740 c0 -5 7 -10 15 -10 12 0 15 -16 15 -80 0 -64 -3 -80 -15
-80 -8 0 -15 -4 -15 -10 0 -5 25 -10 55 -10 30 0 55 5 55 10 0 6 -7 10 -15 10
-10 0 -15 11 -15 35 0 39 21 48 39 18 8 -14 10 -8 10 27 0 35 -2 41 -10 28
-18 -31 -39 -22 -39 17 0 33 2 35 35 35 28 0 38 -5 47 -25 12 -27 34 -35 24
-9 -3 9 -6 24 -6 35 0 17 -8 19 -90 19 -53 0 -90 -4 -90 -10z"/>
<path d="M4903 2743 c14 -4 17 -17 17 -89 0 -68 -3 -84 -15 -84 -8 0 -15 -4
-15 -10 0 -6 35 -10 85 -10 83 0 85 1 85 24 0 13 3 31 6 40 3 9 1 16 -5 16 -6
0 -11 -6 -11 -13 0 -20 -33 -47 -58 -47 -21 0 -22 4 -22 84 0 72 3 85 18 89 9
3 -10 5 -43 5 -33 0 -52 -2 -42 -5z"/>
<path d="M5353 2743 c14 -4 17 -17 17 -89 0 -68 -3 -84 -15 -84 -8 0 -15 -4
-15 -10 0 -6 26 -10 58 -10 49 1 55 2 40 14 -11 8 -18 26 -18 45 0 29 2 31 38
31 47 0 82 24 82 55 0 40 -35 55 -125 54 -44 -1 -72 -3 -62 -6z m118 -13 c12
-7 19 -21 19 -40 0 -23 -5 -31 -25 -36 -39 -10 -55 2 -55 39 0 48 18 59 61 37z"/>
<path d="M6411 2708 c-10 -24 -26 -64 -36 -90 -10 -27 -24 -48 -31 -48 -8 0
-14 -4 -14 -10 0 -5 16 -10 35 -10 33 0 48 14 24 22 -5 2 -7 11 -4 21 10 25
71 23 85 -2 7 -14 6 -21 -3 -24 -26 -9 3 -18 49 -14 36 2 43 6 29 11 -14 5
-31 35 -55 97 -19 49 -41 89 -48 89 -7 0 -21 -19 -31 -42z m39 -70 c0 -13 -8
-18 -25 -18 -29 0 -28 -2 -13 40 10 31 12 32 25 15 7 -11 13 -27 13 -37z"/>
<path d="M6583 2743 c14 -4 17 -16 17 -74 0 -61 3 -73 25 -94 30 -31 92 -34
125 -7 18 14 23 31 27 87 4 47 10 74 21 83 13 10 9 12 -29 12 -39 -1 -42 -2
-26 -14 13 -10 17 -28 17 -70 0 -47 -4 -61 -25 -81 -27 -28 -37 -30 -66 -15
-16 9 -19 22 -19 90 0 66 3 79 18 83 9 3 -10 5 -43 5 -33 0 -52 -2 -42 -5z"/>
<path d="M6884 2739 c-34 -17 -57 -65 -50 -104 15 -78 127 -115 181 -60 26 25
32 45 16 45 -5 0 -12 -8 -16 -18 -13 -43 -92 -48 -120 -9 -24 34 -19 94 10
123 34 34 73 29 101 -13 24 -37 34 -33 34 11 l0 31 -68 2 c-37 1 -76 -3 -88
-8z"/>
<path d="M7501 2708 c-10 -24 -26 -64 -36 -90 -10 -27 -24 -48 -31 -48 -8 0
-14 -4 -14 -10 0 -5 16 -10 35 -10 33 0 48 14 24 22 -5 2 -7 11 -4 21 10 25
71 23 85 -2 7 -14 6 -21 -3 -24 -26 -9 3 -18 49 -14 36 2 43 6 29 11 -14 5
-31 35 -55 97 -19 49 -41 89 -48 89 -7 0 -21 -19 -31 -42z m39 -70 c0 -13 -8
-18 -25 -18 -29 0 -28 -2 -13 40 10 31 12 32 25 15 7 -11 13 -27 13 -37z"/>
<path d="M9143 2739 c24 -14 26 -169 2 -169 -8 0 -15 -4 -15 -10 0 -5 23 -10
50 -10 28 0 50 5 50 10 0 6 -7 10 -15 10 -10 0 -15 11 -15 35 0 35 1 35 43 35
70 0 101 40 66 84 -19 24 -26 26 -102 26 -61 -1 -77 -3 -64 -11z m111 -9 c51
-19 25 -80 -33 -80 -18 0 -21 6 -21 45 0 49 7 53 54 35z"/>
<path d="M9805 2740 c-4 -7 -3 -16 3 -22 14 -14 45 -2 40 15 -6 16 -34 21 -43
7z"/>
<path d="M10030 2730 c0 -13 7 -20 20 -20 13 0 20 7 20 20 0 13 -7 20 -20 20
-13 0 -20 -7 -20 -20z"/>
<path d="M10823 2739 c24 -14 26 -169 2 -169 -8 0 -15 -4 -15 -10 0 -5 23 -10
50 -10 28 0 50 5 50 10 0 6 -7 10 -15 10 -10 0 -15 11 -15 35 0 32 3 35 29 35
30 0 41 -14 41 -55 0 -12 7 -26 16 -29 28 -11 72 -6 77 8 9 22 -5 28 -19 8
-11 -15 -13 -14 -24 13 -7 17 -16 38 -21 47 -7 13 -4 23 11 38 29 29 24 47
-17 69 -28 14 -176 15 -150 0z m111 -9 c47 -17 27 -70 -26 -70 -26 0 -28 3
-28 40 0 43 8 48 54 30z"/>
<path d="M11528 2738 c15 -15 17 -168 2 -168 -5 0 -10 -4 -10 -10 0 -5 19 -10
42 -10 33 0 39 3 30 12 -8 8 -12 45 -12 100 l0 88 -32 0 c-25 0 -29 -3 -20
-12z"/>
<path d="M11619 2741 c10 -6 12 -31 10 -100 l-4 -91 33 0 c17 0 32 5 32 10 0
6 -4 10 -10 10 -6 0 -10 37 -10 90 l0 90 -32 0 c-22 0 -29 -3 -19 -9z"/>
<path d="M12060 2740 c0 -5 7 -10 15 -10 12 0 15 -16 15 -80 0 -64 -3 -80 -15
-80 -8 0 -15 -4 -15 -10 0 -5 25 -10 55 -10 30 0 55 5 55 10 0 6 -9 10 -20 10
-16 0 -20 7 -20 35 0 37 25 50 36 20 11 -28 24 -15 24 25 0 40 -13 53 -24 25
-3 -8 -12 -15 -21 -15 -11 0 -15 10 -15 36 0 35 1 35 38 32 27 -2 40 -9 47
-25 14 -33 27 -28 23 10 l-3 32 -87 3 c-56 2 -88 -1 -88 -8z"/>
<path d="M12566 2735 c-36 -37 -11 -86 53 -102 46 -12 63 -39 37 -59 -25 -18
-55 -9 -83 24 l-23 27 0 -35 0 -36 56 -2 c66 -3 94 15 94 58 0 33 -26 58 -68
66 -41 8 -59 29 -42 49 7 8 21 15 31 15 18 0 27 -7 54 -45 14 -19 14 -18 15
16 l0 36 -54 2 c-38 1 -59 -3 -70 -14z"/>
<path d="M12305 2725 c-27 -12 -28 -13 -7 -14 21 -1 22 -5 22 -71 0 -63 -2
-70 -20 -70 -11 0 -20 -4 -20 -10 0 -6 27 -10 60 -10 33 0 60 4 60 10 0 6 -9
10 -20 10 -18 0 -20 7 -20 85 0 92 -2 95 -55 70z"/>
<path d="M588 2668 c7 -7 12 -31 12 -54 0 -23 6 -46 13 -52 18 -15 144 -15
128 1 -6 6 -11 35 -11 64 0 53 0 53 -31 53 -26 0 -29 -2 -20 -14 18 -21 10
-87 -12 -100 -24 -15 -37 7 -37 67 0 44 -1 47 -27 47 -21 0 -24 -3 -15 -12z"/>
<path d="M768 2668 c14 -14 16 -98 2 -98 -5 0 -10 -4 -10 -10 0 -5 18 -10 40
-10 22 0 40 5 40 10 0 6 -4 10 -10 10 -13 0 -13 77 -1 85 5 3 12 1 16 -5 10
-16 35 -12 35 5 0 21 -29 31 -51 16 -12 -7 -19 -7 -19 -1 0 5 -12 10 -27 10
-21 0 -24 -3 -15 -12z"/>
<path d="M1347 2662 c-42 -46 -8 -112 59 -112 44 0 69 31 65 82 -3 46 -91 67
-124 30z m83 -13 c24 -44 -13 -106 -46 -78 -14 12 -19 80 -7 92 13 14 43 6 53
-14z"/>
<path d="M1706 2664 c-24 -24 -20 -80 6 -98 28 -20 68 -20 94 -2 26 20 11 32
-17 12 -25 -17 -59 -6 -59 19 0 11 12 15 45 15 40 0 45 2 45 23 0 13 -5 28
-12 35 -17 17 -84 15 -102 -4z m72 -6 c19 -19 14 -28 -18 -28 -18 0 -30 5 -30
13 0 28 27 36 48 15z"/>
<path d="M3517 2673 c-4 -3 -7 -12 -7 -20 0 -19 27 -16 38 4 6 10 16 14 26 10
27 -11 18 -34 -16 -41 -17 -3 -37 -11 -45 -17 -19 -16 -16 -47 5 -53 29 -8
132 -4 132 5 0 5 -4 9 -10 9 -5 0 -10 16 -10 36 0 57 -14 74 -64 74 -23 0 -46
-3 -49 -7z m73 -77 c0 -24 -23 -41 -41 -30 -15 9 -10 32 9 43 26 16 32 13 32
-13z"/>
<path d="M3668 2668 c14 -14 16 -98 2 -98 -5 0 -10 -4 -10 -10 0 -5 18 -10 40
-10 22 0 40 5 40 10 0 6 -4 10 -10 10 -13 0 -13 77 -1 85 5 3 12 1 16 -5 10
-16 35 -12 35 5 0 21 -29 31 -51 16 -12 -7 -19 -7 -19 -1 0 5 -12 10 -27 10
-21 0 -24 -3 -15 -12z"/>
<path d="M3817 2673 c-4 -3 -7 -12 -7 -20 0 -19 27 -16 38 4 6 10 16 14 26 10
27 -11 18 -34 -16 -41 -17 -3 -37 -11 -45 -17 -19 -16 -16 -47 5 -53 29 -8
132 -4 132 5 0 5 -4 9 -10 9 -5 0 -10 16 -10 36 0 57 -14 74 -64 74 -23 0 -46
-3 -49 -7z m73 -77 c0 -24 -23 -41 -41 -30 -15 9 -10 32 9 43 26 16 32 13 32
-13z"/>
<path d="M3969 2667 c15 -15 14 -90 -1 -105 -9 -9 -3 -12 30 -12 23 0 42 5 42
10 0 6 -4 10 -10 10 -16 0 -12 76 5 90 27 22 45 4 45 -45 0 -25 -4 -45 -10
-45 -5 0 -10 -4 -10 -10 0 -5 16 -10 35 -10 19 0 35 5 35 10 0 6 -4 10 -10 10
-5 0 -10 15 -10 34 0 36 24 70 44 63 14 -5 21 -97 7 -97 -6 0 -11 -4 -11 -10
0 -5 16 -10 35 -10 19 0 35 5 35 10 0 6 -4 10 -9 10 -6 0 -11 24 -13 53 -3 49
-5 52 -31 55 -16 2 -34 -2 -42 -8 -9 -7 -15 -7 -19 -1 -4 6 -39 10 -78 10 -52
0 -68 -3 -59 -12z"/>
<path d="M5583 2673 c-7 -2 -13 -13 -13 -23 0 -21 15 -34 54 -47 37 -12 44
-29 15 -38 -17 -6 -27 -2 -40 14 -22 27 -29 27 -29 -3 0 -22 4 -24 46 -22 80
2 88 57 13 82 -38 13 -41 27 -9 32 12 2 28 -4 35 -15 14 -17 14 -17 15 5 0 19
-5 22 -37 21 -21 0 -44 -3 -50 -6z"/>
<path d="M6058 2668 c14 -14 16 -98 2 -98 -5 0 -10 -4 -10 -10 0 -5 16 -10 35
-10 19 0 35 5 35 10 0 6 -5 10 -11 10 -14 0 -5 66 12 86 24 29 39 16 39 -36 0
-27 -4 -50 -10 -50 -5 0 -10 -4 -10 -10 0 -5 18 -10 40 -10 22 0 40 5 40 10 0
6 -4 10 -10 10 -14 0 -12 74 2 88 7 7 18 12 25 12 17 0 18 -91 1 -108 -9 -9
-3 -12 30 -12 23 0 42 5 42 10 0 6 -4 10 -10 10 -5 0 -10 18 -10 39 0 22 -3
46 -6 55 -7 19 -64 22 -81 5 -8 -8 -13 -8 -17 0 -9 15 -59 14 -74 -1 -9 -9
-12 -9 -12 0 0 7 -12 12 -27 12 -21 0 -24 -3 -15 -12z"/>
<path d="M7687 2662 c-25 -27 -22 -77 5 -96 29 -21 72 -20 93 0 22 22 11 30
-16 10 -32 -22 -59 -5 -59 37 0 34 15 57 37 57 7 0 13 -7 13 -15 0 -8 7 -15
16 -15 9 0 14 7 12 18 -5 26 -78 29 -101 4z"/>
<path d="M7836 2665 c-25 -25 -24 -69 1 -97 18 -21 73 -24 91 -6 20 20 13 30
-9 14 -12 -8 -28 -12 -36 -9 -22 9 -34 49 -23 78 11 28 35 33 44 10 8 -21 38
-19 34 3 -4 24 -79 29 -102 7z"/>
<path d="M7968 2668 c7 -7 12 -27 12 -46 0 -61 12 -71 85 -70 36 0 65 4 65 9
0 5 -4 9 -10 9 -5 0 -10 25 -10 55 0 52 -1 55 -25 55 -14 0 -25 -4 -25 -10 0
-5 5 -10 10 -10 16 0 11 -67 -6 -85 -26 -26 -39 -12 -42 48 -3 57 -3 57 -34
57 -25 0 -29 -3 -20 -12z"/>
<path d="M8150 2670 c0 -6 5 -10 10 -10 6 0 10 -20 10 -45 0 -25 -4 -45 -10
-45 -5 0 -10 -4 -10 -10 0 -5 19 -10 43 -10 37 1 40 2 25 14 -22 16 -23 65 -3
92 13 18 14 18 15 1 0 -12 6 -17 18 -15 9 2 17 10 17 18 0 11 -14 16 -57 17
-33 2 -58 -2 -58 -7z"/>
<path d="M8297 2666 c-7 -16 1 -26 20 -26 7 0 13 7 13 15 0 20 36 19 44 -1 8
-20 11 -18 -40 -32 -47 -14 -64 -40 -39 -58 9 -7 47 -12 83 -12 55 0 63 2 49
13 -11 8 -17 26 -17 52 0 21 -5 44 -12 51 -17 17 -95 16 -101 -2z m83 -70 c0
-20 -25 -37 -44 -30 -23 9 -20 33 7 43 25 10 37 6 37 -13z"/>
<path d="M8467 2662 c-25 -27 -22 -77 5 -96 29 -21 72 -20 93 0 22 22 11 30
-16 10 -32 -22 -59 -5 -59 37 0 34 15 57 37 57 7 0 13 -7 13 -15 0 -8 7 -15
16 -15 9 0 14 7 12 18 -5 26 -78 29 -101 4z"/>
<path d="M8596 2672 c6 -4 24 -31 39 -61 22 -44 25 -58 16 -77 -11 -25 -33
-33 -28 -11 1 6 -5 12 -13 12 -20 0 -19 -25 2 -38 24 -16 42 3 92 99 42 82 43
84 20 84 -16 0 -22 -4 -18 -14 3 -8 -1 -27 -9 -42 l-15 -28 -16 32 c-9 18 -14
37 -11 42 4 6 -10 10 -32 10 -21 0 -33 -4 -27 -8z"/>
<path d="M9358 2668 c14 -14 16 -98 2 -98 -5 0 -10 -4 -10 -10 0 -5 18 -10 40
-10 22 0 40 5 40 10 0 6 -4 10 -10 10 -13 0 -13 77 -1 85 5 3 12 1 16 -5 10
-16 35 -12 35 5 0 21 -29 31 -51 16 -12 -7 -19 -7 -19 -1 0 5 -12 10 -27 10
-21 0 -24 -3 -15 -12z"/>
<path d="M9507 2662 c-23 -25 -21 -68 3 -92 22 -22 79 -27 98 -8 21 21 13 27
-15 13 -30 -16 -63 -5 -63 20 0 11 12 15 45 15 40 0 45 2 45 23 0 13 -5 28
-12 35 -19 19 -82 15 -101 -6z m81 -15 c3 -13 -3 -17 -27 -17 -33 0 -39 8 -19
28 17 17 42 11 46 -11z"/>
<path d="M9666 2667 c-27 -20 -27 -84 -1 -103 25 -19 79 -18 95 1 18 22 4 31
-16 11 -14 -15 -19 -15 -38 -3 -25 17 -32 48 -16 76 13 25 40 28 40 5 0 -9 7
-14 18 -12 9 2 17 10 17 18 0 21 -74 25 -99 7z"/>
<path d="M9798 2668 c14 -14 16 -98 2 -98 -5 0 -10 -4 -10 -10 0 -5 16 -10 36
-10 29 0 35 3 30 16 -3 9 -6 38 -6 65 0 48 0 49 -32 49 -25 0 -29 -3 -20 -12z"/>
<path d="M9889 2664 c-18 -22 -2 -45 42 -59 38 -13 45 -38 12 -43 -14 -2 -27
4 -35 17 -17 28 -28 27 -28 -2 0 -21 5 -24 44 -25 49 -2 69 14 64 50 -2 17
-12 25 -40 32 -21 5 -38 15 -38 23 0 18 49 17 56 -2 7 -18 24 -10 24 11 0 20
-83 19 -101 -2z"/>
<path d="M10020 2670 c0 -5 5 -10 10 -10 6 0 10 -20 10 -45 0 -25 -4 -45 -10
-45 -5 0 -10 -4 -10 -10 0 -5 16 -10 35 -10 19 0 35 5 35 10 0 6 -4 10 -10 10
-5 0 -10 25 -10 55 0 52 -1 55 -25 55 -14 0 -25 -4 -25 -10z"/>
<path d="M10127 2662 c-42 -46 -8 -112 59 -112 44 0 69 31 65 82 -3 46 -91 67
-124 30z m83 -13 c24 -44 -13 -106 -46 -78 -14 12 -19 80 -7 92 13 14 43 6 53
-14z"/>
<path d="M10280 2670 c0 -5 5 -10 10 -10 6 0 10 -20 10 -45 0 -25 -4 -45 -10
-45 -5 0 -10 -4 -10 -10 0 -5 16 -10 35 -10 19 0 35 5 35 10 0 6 -5 10 -11 10
-6 0 -10 17 -9 43 2 23 2 48 1 55 -1 14 -51 17 -51 2z"/>
<path d="M10345 2671 c-4 -7 3 -10 17 -8 21 2 23 -3 26 -45 2 -29 -1 -48 -7
-48 -6 0 -11 -4 -11 -10 0 -5 16 -10 35 -10 19 0 35 5 35 10 0 6 -4 10 -9 10
-6 0 -11 24 -13 53 -3 50 -4 52 -35 55 -17 2 -34 -2 -38 -7z"/>
<path d="M11076 2664 c-24 -24 -20 -80 6 -98 28 -20 68 -20 94 -2 26 20 11 32
-17 12 -25 -17 -59 -6 -59 19 0 11 12 15 45 15 40 0 45 2 45 23 0 13 -5 28
-12 35 -17 17 -84 15 -102 -4z m72 -6 c19 -19 14 -28 -18 -28 -18 0 -30 5 -30
13 0 28 27 36 48 15z"/>
<path d="M11226 2658 c-34 -48 -4 -108 52 -108 31 0 71 24 60 35 -4 4 -14 0
-23 -9 -20 -20 -29 -20 -49 0 -19 18 -21 65 -4 82 17 17 38 15 38 -3 0 -15 21
-21 33 -9 16 17 -8 34 -49 34 -33 0 -46 -5 -58 -22z"/>
<path d="M11377 2673 c-4 -3 -7 -12 -7 -20 0 -19 27 -16 38 4 6 10 16 14 26
10 27 -11 18 -34 -16 -41 -17 -3 -37 -11 -45 -17 -19 -16 -16 -47 5 -53 29 -8
132 -4 132 5 0 5 -4 9 -10 9 -5 0 -10 16 -10 36 0 57 -14 74 -64 74 -23 0 -46
-3 -49 -7z m73 -77 c0 -24 -23 -41 -41 -30 -15 9 -10 32 9 43 26 16 32 13 32
-13z"/>
<path d="M12747 2662 c-25 -27 -22 -77 5 -96 29 -21 72 -20 93 0 22 22 11 30
-16 10 -32 -22 -59 -5 -59 37 0 34 15 57 37 57 7 0 13 -7 13 -15 0 -8 7 -15
16 -15 9 0 14 7 12 18 -5 26 -78 29 -101 4z"/>
<path d="M12896 2665 c-62 -62 25 -149 100 -100 30 19 33 74 6 98 -23 21 -86
22 -106 2z m82 -41 c3 -45 -14 -69 -42 -58 -41 16 -26 108 17 102 18 -2 23
-10 25 -44z"/>
<path d="M13048 2668 c14 -14 16 -98 2 -98 -5 0 -10 -4 -10 -10 0 -5 18 -10
40 -10 22 0 40 5 40 10 0 6 -4 10 -10 10 -13 0 -13 77 -1 85 5 3 12 1 16 -5
10 -16 35 -12 35 5 0 21 -29 31 -51 16 -12 -7 -19 -7 -19 -1 0 5 -12 10 -27
10 -21 0 -24 -3 -15 -12z"/>
<path d="M13197 2662 c-23 -25 -21 -68 3 -92 22 -22 79 -27 98 -8 21 21 13 27
-15 13 -30 -16 -63 -5 -63 20 0 11 12 15 45 15 40 0 45 2 45 23 0 13 -5 28
-12 35 -19 19 -82 15 -101 -6z m81 -15 c3 -13 -3 -17 -27 -17 -33 0 -39 8 -19
28 17 17 42 11 46 -11z"/>
<path d="M12420 2615 c0 -11 12 -15 45 -15 33 0 45 4 45 15 0 11 -12 15 -45
15 -33 0 -45 -4 -45 -15z"/>
<path d="M4260 2585 c-10 -11 -10 -19 -2 -27 15 -15 44 -2 40 19 -4 23 -22 27
-38 8z"/>
<path d="M140 2380 c0 -7 2232 -10 6675 -10 4443 0 6675 3 6675 10 0 7 -2232
10 -6675 10 -4443 0 -6675 -3 -6675 -10z"/>
<path d="M5364 2241 c-57 -24 -83 -110 -48 -160 24 -34 76 -53 110 -41 15 6
33 9 41 6 9 -4 13 4 13 28 0 19 6 37 13 39 6 3 -10 5 -38 5 -27 0 -40 -3 -27
-5 12 -3 22 -12 22 -22 0 -46 -66 -56 -99 -15 -44 56 -13 154 48 154 28 0 61
-26 61 -48 0 -6 5 -14 10 -17 6 -4 10 10 10 33 0 35 -3 40 -22 40 -13 0 -34 3
-48 6 -14 3 -35 1 -46 -3z"/>
<path d="M332 2228 c9 -7 29 -52 43 -100 15 -49 31 -88 36 -88 4 0 16 26 25
58 10 31 21 61 25 65 4 5 17 -21 29 -57 12 -36 25 -66 29 -66 4 0 19 39 35 88
15 48 35 93 44 100 14 10 11 12 -17 12 -27 0 -31 -3 -22 -13 8 -10 5 -30 -11
-78 l-21 -64 -23 65 c-20 59 -20 66 -6 78 13 10 9 12 -27 12 -39 0 -41 -1 -26
-16 9 -9 14 -22 11 -29 -2 -7 -10 -31 -17 -54 -7 -23 -15 -41 -19 -41 -4 0
-15 27 -25 61 -16 52 -17 62 -4 70 10 6 0 9 -30 9 -38 0 -42 -2 -29 -12z"/>
<path d="M645 2230 c-4 -6 -3 -16 3 -22 6 -6 12 -6 17 2 4 6 3 16 -3 22 -6 6
-12 6 -17 -2z"/>
<path d="M828 2228 c16 -16 16 -160 0 -176 -9 -9 -4 -12 22 -12 26 0 31 3 22
12 -17 17 -15 83 3 98 26 22 45 4 45 -43 0 -24 -5 -48 -12 -55 -9 -9 -5 -12
21 -12 26 0 31 3 23 13 -6 7 -12 35 -14 62 -3 43 -6 50 -26 53 -13 2 -30 -2
-38 -8 -12 -11 -14 -5 -14 34 0 41 -3 46 -22 46 -17 0 -19 -3 -10 -12z"/>
<path d="M1503 2233 c15 -4 17 -17 17 -93 0 -76 -2 -89 -17 -93 -10 -3 5 -5
32 -6 38 0 46 2 33 10 -12 6 -18 22 -18 44 0 33 2 35 35 35 25 0 44 8 60 25
30 29 31 39 5 65 -17 17 -32 20 -92 19 -40 -1 -65 -3 -55 -6z m111 -9 c19 -7
21 -55 4 -72 -7 -7 -25 -12 -40 -12 -27 0 -28 2 -28 45 0 41 2 45 24 45 13 0
31 -3 40 -6z"/>
<path d="M2325 2230 c-4 -6 -3 -16 3 -22 6 -6 12 -6 17 2 4 6 3 16 -3 22 -6 6
-12 6 -17 -2z"/>
<path d="M2565 2230 c-4 -6 -3 -16 3 -22 6 -6 12 -6 17 2 4 6 3 16 -3 22 -6 6
-12 6 -17 -2z"/>
<path d="M3325 2224 c-26 -11 -27 -13 -7 -14 21 0 22 -4 22 -67 0 -71 -5 -86
-30 -96 -8 -3 8 -5 35 -5 28 0 42 2 33 5 -15 4 -18 19 -20 97 l-3 93 -30 -13z"/>
<path d="M3485 2232 c-5 -6 -19 -12 -30 -15 -18 -4 -18 -5 3 -6 21 -1 22 -5
22 -76 0 -69 -2 -76 -22 -85 -18 -7 -11 -9 32 -9 37 0 48 3 35 8 -17 7 -21 20
-25 100 -3 61 -8 89 -15 83z"/>
<path d="M3698 2224 c-36 -19 -53 -78 -38 -135 17 -63 80 -73 108 -16 24 50
-24 111 -69 86 -19 -10 -20 -9 -14 13 8 27 43 60 56 53 4 -3 6 -12 2 -20 -3
-9 1 -15 11 -15 22 0 20 27 -3 40 -24 12 -20 12 -53 -6z m46 -96 c14 -40 0
-80 -27 -76 -32 5 -45 49 -23 83 20 31 37 28 50 -7z"/>
<path d="M3832 2224 c-24 -16 -29 -53 -10 -72 9 -9 7 -16 -6 -31 -24 -26 -17
-63 16 -79 59 -28 109 30 73 84 -12 19 -14 29 -6 37 21 21 13 57 -15 67 -31
12 -25 13 -52 -6z m53 -10 c18 -19 16 -33 -8 -48 -13 -8 -22 -6 -39 12 -23 23
-23 23 -4 38 25 18 31 18 51 -2z m-7 -100 c15 -10 22 -24 20 -37 -2 -18 -10
-22 -38 -22 -29 0 -36 4 -38 23 -3 22 13 52 27 52 4 0 17 -7 29 -16z"/>
<path d="M4053 2229 c14 -8 17 -24 17 -86 0 -60 -4 -78 -17 -89 -16 -12 -14
-13 21 -14 35 0 38 2 22 13 -14 10 -16 25 -14 82 l3 70 29 -78 c15 -42 31 -79
36 -82 4 -2 23 35 41 83 l34 87 3 -75 c2 -62 0 -77 -14 -87 -15 -11 -12 -13
27 -13 35 1 40 3 27 11 -15 8 -18 24 -18 89 0 65 3 81 18 89 14 9 12 10 -14
11 -31 0 -33 -3 -59 -75 -15 -41 -31 -75 -34 -75 -4 0 -19 34 -35 75 -27 71
-30 75 -60 75 -26 -1 -28 -2 -13 -11z"/>
<path d="M4950 2233 c-29 -10 -40 -37 -40 -98 0 -34 6 -68 13 -77 20 -27 52
-30 78 -9 21 17 24 28 24 86 0 58 -3 69 -24 86 -24 20 -27 21 -51 12z m38 -15
c7 -7 12 -41 12 -85 0 -61 -3 -74 -19 -83 -16 -8 -23 -6 -35 12 -21 29 -21
117 0 146 17 25 25 27 42 10z"/>
<path d="M5061 2206 c0 -17 3 -25 6 -18 2 6 22 12 42 12 l38 0 -29 -57 c-28
-56 -34 -101 -13 -106 6 -1 12 21 15 49 3 32 15 66 33 93 16 24 27 44 25 46
-2 1 -29 5 -60 7 l-58 5 1 -31z"/>
<path d="M6075 2215 c-21 -20 -25 -34 -25 -80 0 -46 4 -60 25 -80 13 -14 29
-25 35 -25 6 0 22 11 35 25 21 20 25 34 25 80 0 46 -4 60 -25 80 -13 14 -29
25 -35 25 -6 0 -22 -11 -35 -25z m56 -2 c21 -24 17 -139 -4 -161 -16 -15 -18
-15 -34 1 -34 33 -20 177 17 177 4 0 14 -7 21 -17z"/>
<path d="M6285 2211 c-3 -13 -4 -26 0 -29 3 -3 5 0 5 6 0 7 16 12 40 12 22 0
40 -2 40 -4 0 -2 -11 -23 -24 -47 -22 -40 -30 -72 -27 -107 2 -31 21 3 27 49
4 28 16 65 28 82 12 18 25 37 29 44 5 8 -11 12 -53 15 -55 3 -60 1 -65 -21z"/>
<path d="M6472 2183 c-60 -89 -61 -93 -18 -93 29 0 36 -4 36 -19 0 -11 -6 -22
-12 -24 -7 -3 7 -5 32 -5 25 0 37 2 28 5 -10 2 -18 13 -18 23 0 10 8 21 18 23
16 4 16 5 0 6 -14 1 -18 14 -20 74 l-3 72 -43 -62z m28 -38 c0 -45 0 -45 -35
-45 l-36 0 31 45 c17 25 33 45 35 45 3 0 5 -20 5 -45z"/>
<path d="M6625 2232 c-5 -6 -19 -12 -30 -15 -18 -4 -18 -5 3 -6 21 -1 22 -5
22 -76 0 -69 -2 -76 -22 -85 -18 -7 -11 -9 32 -9 37 0 48 3 35 8 -17 7 -21 20
-25 100 -3 61 -8 89 -15 83z"/>
<path d="M7865 2215 c-21 -20 -25 -34 -25 -80 0 -46 4 -60 25 -80 13 -14 29
-25 35 -25 6 0 22 11 35 25 21 20 25 34 25 80 0 46 -4 60 -25 80 -13 14 -29
25 -35 25 -6 0 -22 -11 -35 -25z m56 -2 c21 -24 17 -139 -4 -161 -16 -15 -18
-15 -34 1 -34 33 -20 177 17 177 4 0 14 -7 21 -17z"/>
<path d="M8108 2224 c-36 -19 -53 -78 -38 -135 17 -63 80 -73 108 -16 24 50
-24 111 -69 86 -19 -10 -20 -9 -14 13 8 27 43 60 56 53 4 -3 6 -12 2 -20 -3
-9 1 -15 11 -15 22 0 20 27 -3 40 -24 12 -20 12 -53 -6z m46 -96 c14 -40 0
-80 -27 -76 -32 5 -45 49 -23 83 20 31 37 28 50 -7z"/>
<path d="M8220 2224 c0 -7 -3 -21 -6 -31 -6 -15 -4 -16 7 -5 7 6 30 12 51 12
l38 0 -27 -41 c-16 -24 -27 -55 -27 -77 -2 -61 18 -53 25 10 5 41 14 68 34 93
15 20 25 38 24 39 -2 2 -30 6 -61 8 -42 3 -58 1 -58 -8z"/>
<path d="M9580 2233 c-29 -10 -40 -37 -40 -98 0 -34 6 -68 13 -77 20 -27 52
-30 78 -9 21 17 24 28 24 86 0 58 -3 69 -24 86 -24 20 -27 21 -51 12z m38 -15
c7 -7 12 -41 12 -85 0 -61 -3 -74 -19 -83 -16 -8 -23 -6 -35 12 -21 29 -21
117 0 146 17 25 25 27 42 10z"/>
<path d="M9771 2206 c0 -17 3 -25 6 -18 2 6 22 12 42 12 l38 0 -29 -57 c-28
-56 -34 -101 -13 -106 6 -1 12 21 15 49 3 32 15 66 33 93 16 24 27 44 25 46
-2 1 -29 5 -60 7 l-58 5 1 -31z"/>
<path d="M9950 2233 c-29 -10 -40 -37 -40 -98 0 -34 6 -68 13 -77 20 -27 52
-30 78 -9 21 17 24 28 24 86 0 58 -3 69 -24 86 -24 20 -27 21 -51 12z m38 -15
c7 -7 12 -41 12 -85 0 -61 -3 -74 -19 -83 -16 -8 -23 -6 -35 12 -21 29 -21
117 0 146 17 25 25 27 42 10z"/>
<path d="M11030 2222 c-19 -15 -24 -32 -28 -80 -4 -55 -2 -63 22 -87 19 -19
32 -24 49 -20 36 11 47 35 47 100 0 34 -6 68 -12 77 -21 26 -53 30 -78 10z
m54 -14 c38 -54 5 -194 -38 -159 -12 10 -16 31 -16 85 0 91 22 121 54 74z"/>
<path d="M11284 2230 c-36 -14 -54 -50 -54 -106 0 -44 4 -56 25 -72 29 -23 59
-19 80 11 21 31 18 54 -10 83 -17 17 -32 23 -45 19 -28 -9 -27 29 2 49 24 17
40 13 31 -9 -3 -9 1 -15 11 -15 9 0 16 7 16 15 0 20 -31 34 -56 25z m25 -84
c7 -8 11 -32 9 -53 -3 -33 -6 -38 -28 -38 -22 0 -25 5 -28 38 -3 36 10 67 28
67 4 0 13 -6 19 -14z"/>
<path d="M11381 2206 c0 -17 3 -25 6 -18 2 6 22 12 42 12 l38 0 -29 -57 c-28
-56 -34 -101 -13 -106 6 -1 12 21 15 49 3 32 15 66 33 93 16 24 27 44 25 46
-2 1 -29 5 -60 7 l-58 5 1 -31z"/>
<path d="M12480 2233 c-29 -10 -40 -37 -40 -98 0 -34 6 -68 13 -77 20 -27 52
-30 78 -9 21 17 24 28 24 86 0 58 -3 69 -24 86 -24 20 -27 21 -51 12z m38 -15
c7 -7 12 -41 12 -85 0 -61 -3 -74 -19 -83 -16 -8 -23 -6 -35 12 -21 29 -21
117 0 146 17 25 25 27 42 10z"/>
<path d="M12712 2230 c-48 -20 -67 -139 -29 -178 21 -20 68 -18 84 4 8 11 13
35 11 54 -2 27 -9 38 -31 48 -22 11 -32 11 -40 2 -9 -9 -8 -11 3 -10 37 5 41
0 38 -47 -3 -40 -6 -48 -25 -51 -28 -4 -34 18 -29 93 3 42 9 63 22 72 25 18
34 16 34 -7 0 -21 14 -27 25 -11 5 10 -21 42 -33 40 -4 0 -17 -4 -30 -9z"/>
<path d="M12815 2211 c-3 -13 -4 -26 0 -29 3 -3 5 0 5 6 0 7 16 12 40 12 22 0
40 -2 40 -4 0 -2 -11 -23 -24 -47 -22 -40 -30 -72 -27 -107 2 -31 21 3 27 49
4 28 16 65 28 82 12 18 25 37 29 44 5 8 -11 12 -53 15 -55 3 -60 1 -65 -21z"/>
<path d="M4715 2220 c-17 -7 -17 -9 -2 -9 15 -1 17 -12 17 -80 0 -67 -3 -80
-17 -84 -10 -3 5 -5 32 -5 28 0 42 2 33 5 -16 4 -18 17 -18 94 0 93 -2 97 -45
79z"/>
<path d="M733 2199 c-7 -15 -18 -29 -25 -32 -10 -4 -10 -6 0 -6 7 -1 12 -17
12 -44 0 -24 6 -51 13 -61 19 -26 52 -17 54 14 1 22 1 22 -4 3 -2 -13 -11 -23
-19 -23 -10 0 -14 14 -14 54 0 49 2 55 23 59 22 4 22 4 0 6 -16 1 -23 9 -25
29 l-4 27 -11 -26z"/>
<path d="M1313 2199 c-7 -15 -18 -29 -25 -32 -10 -4 -10 -6 0 -6 7 -1 12 -17
12 -44 0 -24 6 -51 13 -61 19 -26 52 -17 54 14 1 22 1 22 -4 3 -2 -13 -11 -23
-19 -23 -10 0 -14 14 -14 54 0 49 2 55 23 59 22 4 22 4 0 6 -16 1 -23 9 -25
29 l-4 27 -11 -26z"/>
<path d="M1961 2203 c0 -12 -9 -27 -18 -32 -10 -6 -12 -11 -5 -11 8 0 12 -16
12 -48 0 -51 12 -72 42 -72 18 0 37 45 24 57 -3 4 -6 -3 -6 -15 0 -26 -19 -39
-31 -21 -5 8 -9 31 -9 52 0 30 5 40 23 47 l22 9 -22 0 c-16 1 -23 8 -26 29 -3
21 -4 22 -6 5z"/>
<path d="M638 2158 c19 -19 15 -95 -5 -107 -14 -8 -10 -10 22 -10 22 0 34 3
28 6 -9 3 -13 26 -13 64 0 54 -2 59 -22 59 -17 0 -19 -3 -10 -12z"/>
<path d="M995 2150 c-37 -41 -9 -110 45 -110 35 0 60 28 60 67 0 56 -67 85
-105 43z m77 -15 c17 -38 0 -80 -32 -80 -18 0 -27 8 -34 27 -13 36 6 78 34 78
12 0 25 -10 32 -25z"/>
<path d="M1128 2158 c7 -7 12 -31 12 -54 0 -23 6 -46 13 -52 6 -6 37 -10 67
-10 30 0 49 2 43 5 -9 3 -13 26 -13 64 0 58 -1 59 -27 59 -19 0 -24 -3 -15 -9
9 -5 12 -25 10 -57 -3 -42 -6 -49 -25 -52 -22 -3 -23 0 -23 57 0 60 -1 61 -27
61 -21 0 -24 -3 -15 -12z"/>
<path d="M1698 2158 c16 -16 16 -105 0 -111 -7 -3 5 -6 27 -6 32 0 36 2 23 10
-10 5 -18 21 -18 34 0 31 21 84 27 68 6 -16 33 -17 33 -3 0 17 -29 23 -45 10
-10 -9 -15 -9 -15 -1 0 6 -10 11 -22 11 -17 0 -19 -3 -10 -12z"/>
<path d="M1821 2157 c-6 -8 -13 -27 -17 -43 -11 -55 61 -97 100 -58 22 22 20
31 -2 11 -32 -29 -72 -15 -72 25 0 15 8 18 45 18 49 0 53 5 29 38 -17 25 -65
30 -83 9z m67 -20 c3 -13 -3 -17 -27 -17 -33 0 -39 8 -19 28 17 17 42 11 46
-11z"/>
<path d="M2059 2157 c18 -18 14 -94 -6 -106 -14 -8 -8 -10 27 -10 25 1 37 3
28 6 -23 6 -25 85 -3 103 10 9 15 9 15 1 0 -6 5 -11 10 -11 6 0 10 6 10 14 0
10 -13 14 -46 14 -34 0 -43 -3 -35 -11z"/>
<path d="M2174 2155 c-3 -8 -3 -19 1 -25 9 -15 27 -1 21 17 -4 10 0 14 16 11
35 -5 35 -35 -1 -43 -39 -8 -58 -31 -44 -53 7 -12 26 -17 67 -19 51 -1 56 0
55 20 0 21 -1 21 -8 2 -6 -15 -9 -6 -13 34 -3 29 -11 57 -19 62 -22 14 -69 10
-75 -6z m64 -72 c-4 -35 -48 -48 -48 -14 0 18 23 40 43 41 5 0 7 -12 5 -27z"/>
<path d="M2318 2158 c19 -19 15 -95 -5 -107 -14 -8 -10 -10 22 -10 22 0 34 3
28 6 -9 3 -13 26 -13 64 0 54 -2 59 -22 59 -17 0 -19 -3 -10 -12z"/>
<path d="M2395 2154 c21 -22 20 -90 -2 -103 -14 -8 -10 -10 22 -11 25 0 35 3
27 9 -20 12 -12 91 11 105 23 14 37 -6 37 -56 0 -25 -6 -40 -17 -47 -14 -8
-10 -10 22 -10 22 0 34 3 28 6 -8 3 -13 24 -13 53 0 26 -6 52 -12 58 -7 6 -37
10 -66 10 -47 1 -51 -1 -37 -14z"/>
<path d="M2558 2158 c7 -7 12 -30 12 -53 0 -23 -5 -46 -12 -53 -9 -9 -4 -12
23 -11 18 0 28 3 22 6 -9 3 -13 26 -13 64 0 54 -2 59 -22 59 -17 0 -19 -3 -10
-12z"/>
<path d="M2638 2158 c16 -16 16 -90 0 -106 -9 -9 -4 -12 22 -12 26 0 31 3 22
12 -17 17 -15 83 3 98 26 22 45 4 45 -43 0 -24 -5 -48 -12 -55 -9 -9 -5 -12
21 -12 26 0 31 3 23 13 -6 7 -12 35 -14 62 -3 43 -6 50 -26 53 -13 2 -30 -2
-38 -8 -10 -9 -14 -9 -14 -1 0 6 -10 11 -22 11 -17 0 -19 -3 -10 -12z"/>
<path d="M2806 2155 c-9 -10 -12 -28 -9 -58 3 -24 0 -53 -6 -65 -9 -17 -7 -23
11 -36 44 -31 108 -13 108 29 0 25 -10 30 -69 37 -14 2 -27 9 -29 17 -3 10 0
12 13 7 28 -11 68 21 62 50 -4 20 -1 23 14 19 11 -4 19 -2 19 3 0 16 -98 13
-114 -3z m58 -11 c8 -22 -11 -54 -29 -48 -15 6 -21 45 -8 57 11 12 31 7 37 -9z
m30 -119 c5 -15 -21 -35 -46 -35 -22 0 -52 26 -44 38 11 18 83 15 90 -3z"/>
<path d="M3590 2054 c0 -9 5 -14 12 -12 18 6 21 28 4 28 -9 0 -16 -7 -16 -16z"/>
<path d="M4840 2055 c0 -8 7 -15 15 -15 8 0 15 7 15 15 0 8 -7 15 -15 15 -8 0
-15 -7 -15 -15z"/>
<path d="M6210 2054 c0 -17 22 -14 28 4 2 7 -3 12 -12 12 -9 0 -16 -7 -16 -16z"/>
<path d="M8000 2054 c0 -17 22 -14 28 4 2 7 -3 12 -12 12 -9 0 -16 -7 -16 -16z"/>
<path d="M9695 2061 c-7 -12 12 -24 25 -16 11 7 4 25 -10 25 -5 0 -11 -4 -15
-9z"/>
<path d="M11160 2055 c0 -8 7 -15 15 -15 8 0 15 7 15 15 0 8 -7 15 -15 15 -8
0 -15 -7 -15 -15z"/>
<path d="M12595 2061 c-7 -12 12 -24 25 -16 11 7 4 25 -10 25 -5 0 -11 -4 -15
-9z"/>
<path d="M5364 1891 c-57 -24 -83 -110 -48 -160 24 -34 76 -53 110 -41 15 6
33 9 41 6 9 -4 13 4 13 28 0 19 6 37 13 39 6 3 -10 5 -38 5 -27 0 -40 -3 -27
-5 12 -3 22 -12 22 -22 0 -46 -66 -56 -99 -15 -44 56 -13 154 48 154 28 0 61
-26 61 -48 0 -6 5 -14 10 -17 6 -4 10 10 10 33 0 35 -3 40 -22 40 -13 0 -34 3
-48 6 -14 3 -35 1 -46 -3z"/>
<path d="M332 1878 c9 -7 29 -52 43 -100 15 -49 31 -88 36 -88 4 0 16 26 25
58 10 31 21 61 25 65 4 5 17 -21 29 -57 12 -36 25 -66 29 -66 4 0 19 39 35 88
15 48 35 93 44 100 14 10 11 12 -17 12 -27 0 -31 -3 -22 -13 8 -10 5 -30 -11
-78 l-21 -64 -23 65 c-20 59 -20 66 -6 78 13 10 9 12 -27 12 -39 0 -41 -1 -26
-16 9 -9 14 -22 11 -29 -2 -7 -10 -31 -17 -54 -7 -23 -15 -41 -19 -41 -4 0
-15 27 -25 61 -16 52 -17 62 -4 70 10 6 0 9 -30 9 -38 0 -42 -2 -29 -12z"/>
<path d="M645 1880 c-4 -6 -3 -16 3 -22 6 -6 12 -6 17 2 4 6 3 16 -3 22 -6 6
-12 6 -17 -2z"/>
<path d="M828 1878 c16 -16 16 -160 0 -176 -9 -9 -4 -12 22 -12 26 0 31 3 22
12 -17 17 -15 83 3 98 26 22 45 4 45 -43 0 -24 -5 -48 -12 -55 -9 -9 -5 -12
21 -12 26 0 31 3 23 13 -6 7 -12 35 -14 62 -3 43 -6 50 -26 53 -13 2 -30 -2
-38 -8 -12 -11 -14 -5 -14 34 0 41 -3 46 -22 46 -17 0 -19 -3 -10 -12z"/>
<path d="M1083 1883 c15 -4 17 -17 17 -93 0 -76 -2 -89 -17 -93 -10 -3 5 -5
32 -6 38 0 46 2 33 10 -12 6 -18 22 -18 44 0 33 2 35 35 35 25 0 44 8 60 25
30 29 31 39 5 65 -17 17 -32 20 -92 19 -40 -1 -65 -3 -55 -6z m111 -9 c19 -7
21 -55 4 -72 -7 -7 -25 -12 -40 -12 -27 0 -28 2 -28 45 0 41 2 45 24 45 13 0
31 -3 40 -6z"/>
<path d="M1905 1880 c-4 -6 -3 -16 3 -22 6 -6 12 -6 17 2 4 6 3 16 -3 22 -6 6
-12 6 -17 -2z"/>
<path d="M2145 1880 c-4 -6 -3 -16 3 -22 6 -6 12 -6 17 2 4 6 3 16 -3 22 -6 6
-12 6 -17 -2z"/>
<path d="M3485 1882 c-5 -6 -19 -12 -30 -15 -18 -4 -18 -5 3 -6 21 -1 22 -5
22 -76 0 -69 -2 -76 -22 -85 -18 -7 -11 -9 32 -9 37 0 48 3 35 8 -17 7 -21 20
-25 100 -3 61 -8 89 -15 83z"/>
<path d="M3698 1874 c-36 -19 -53 -78 -38 -135 17 -63 80 -73 108 -16 24 50
-24 111 -69 86 -19 -10 -20 -9 -14 13 8 27 43 60 56 53 4 -3 6 -12 2 -20 -3
-9 1 -15 11 -15 22 0 20 27 -3 40 -24 12 -20 12 -53 -6z m46 -96 c14 -40 0
-80 -27 -76 -32 5 -45 49 -23 83 20 31 37 28 50 -7z"/>
<path d="M3832 1874 c-24 -16 -29 -53 -10 -72 9 -9 7 -16 -6 -31 -24 -26 -17
-63 16 -79 59 -28 109 30 73 84 -12 19 -14 29 -6 37 21 21 13 57 -15 67 -31
12 -25 13 -52 -6z m53 -10 c18 -19 16 -33 -8 -48 -13 -8 -22 -6 -39 12 -23 23
-23 23 -4 38 25 18 31 18 51 -2z m-7 -100 c15 -10 22 -24 20 -37 -2 -18 -10
-22 -38 -22 -29 0 -36 4 -38 23 -3 22 13 52 27 52 4 0 17 -7 29 -16z"/>
<path d="M4053 1879 c14 -8 17 -24 17 -86 0 -60 -4 -78 -17 -89 -16 -12 -14
-13 21 -14 35 0 38 2 22 13 -14 10 -16 25 -14 82 l3 70 29 -78 c15 -42 31 -79
36 -82 4 -2 23 35 41 83 l34 87 3 -75 c2 -62 0 -77 -14 -87 -15 -11 -12 -13
27 -13 35 1 40 3 27 11 -15 8 -18 24 -18 89 0 65 3 81 18 89 14 9 12 10 -14
11 -31 0 -33 -3 -59 -75 -15 -41 -31 -75 -34 -75 -4 0 -19 34 -35 75 -27 71
-30 75 -60 75 -26 -1 -28 -2 -13 -11z"/>
<path d="M4950 1883 c-29 -10 -40 -37 -40 -98 0 -34 6 -68 13 -77 20 -27 52
-30 78 -9 21 17 24 28 24 86 0 58 -3 69 -24 86 -24 20 -27 21 -51 12z m38 -15
c7 -7 12 -41 12 -85 0 -61 -3 -74 -19 -83 -16 -8 -23 -6 -35 12 -21 29 -21
117 0 146 17 25 25 27 42 10z"/>
<path d="M5061 1856 c0 -17 3 -25 6 -18 2 6 22 12 42 12 l38 0 -29 -57 c-28
-56 -34 -101 -13 -106 6 -1 12 21 15 49 3 32 15 66 33 93 16 24 27 44 25 46
-2 1 -29 5 -60 7 l-58 5 1 -31z"/>
<path d="M12670 1870 c0 -8 -3 -25 -6 -37 -4 -14 -2 -23 5 -23 6 0 11 7 11 15
0 11 11 15 42 15 38 0 40 -1 26 -17 -45 -51 -65 -138 -30 -131 11 2 18 14 20
33 5 56 12 75 43 110 18 20 30 37 28 39 -2 2 -34 6 -71 8 -56 3 -68 1 -68 -12z"/>
<path d="M3315 1870 c-17 -7 -17 -9 -2 -9 15 -1 17 -12 17 -80 0 -67 -3 -80
-17 -84 -10 -3 5 -5 32 -5 28 0 42 2 33 5 -16 4 -18 17 -18 94 0 93 -2 97 -45
79z"/>
<path d="M4715 1870 c-17 -7 -17 -9 -2 -9 15 -1 17 -12 17 -80 0 -67 -3 -80
-17 -84 -10 -3 5 -5 32 -5 28 0 42 2 33 5 -16 4 -18 17 -18 94 0 93 -2 97 -45
79z"/>
<path d="M6074 1866 c-15 -12 -19 -27 -19 -81 0 -76 14 -95 71 -95 44 0 64 30
64 95 0 65 -20 95 -64 95 -18 0 -41 -6 -52 -14z m64 -8 c18 -18 16 -133 -3
-148 -28 -23 -45 5 -45 74 0 55 11 86 30 86 3 0 11 -5 18 -12z"/>
<path d="M6326 1858 c-35 -49 -4 -104 54 -96 34 5 38 -6 14 -40 -18 -26 -46
-30 -42 -5 2 10 -4 19 -14 21 -12 2 -18 -3 -18 -16 0 -40 69 -44 107 -6 23 23
25 31 21 81 -6 64 -23 83 -74 83 -23 0 -38 -7 -48 -22z m77 -10 c13 -20 1 -67
-19 -75 -19 -7 -34 13 -34 48 0 44 32 61 53 27z"/>
<path d="M6502 1868 c-19 -19 -15 -50 6 -46 9 2 17 12 17 23 0 24 30 32 39 10
8 -22 -11 -55 -32 -55 -12 -1 -9 -5 11 -16 30 -16 37 -54 12 -74 -17 -14 -35
-5 -35 19 0 23 -9 31 -26 24 -20 -8 -17 -41 5 -53 46 -24 121 0 121 40 0 11
-9 28 -20 38 -18 17 -19 20 -5 32 36 30 10 70 -45 70 -20 0 -41 -5 -48 -12z"/>
<path d="M6675 1855 c-20 -19 -25 -34 -25 -72 0 -63 21 -93 64 -93 45 0 69 21
69 58 0 42 -19 62 -59 62 -38 0 -45 17 -16 43 25 23 41 21 35 -3 -4 -14 0 -20
10 -20 22 0 31 18 17 35 -19 23 -68 18 -95 -10z m63 -99 c4 -46 -10 -65 -33
-46 -27 22 -16 94 14 88 11 -2 17 -16 19 -42z"/>
<path d="M7827 1865 c-33 -32 -33 -128 -1 -160 21 -21 77 -19 97 3 25 27 23
133 -1 155 -23 21 -76 22 -95 2z m71 -78 c2 -65 0 -78 -14 -84 -25 -10 -44 24
-44 80 0 57 15 89 38 85 14 -3 18 -17 20 -81z"/>
<path d="M8086 1865 c-18 -19 -20 -38 -6 -65 7 -13 6 -21 -5 -30 -37 -31 -4
-80 54 -80 61 0 92 51 55 91 -13 14 -13 20 -2 38 9 16 10 26 2 39 -15 23 -77
28 -98 7z m74 -10 c20 -24 -4 -47 -36 -33 -23 11 -31 28 -17 41 11 12 40 8 53
-8z m-15 -97 c30 -13 33 -44 5 -53 -26 -8 -60 11 -60 34 0 33 14 38 55 19z"/>
<path d="M8246 1858 c-10 -13 -16 -43 -16 -73 0 -65 20 -95 64 -95 57 0 71 19
71 95 0 54 -4 69 -19 81 -31 22 -82 18 -100 -8z m72 0 c7 -7 12 -39 12 -74 0
-65 -14 -90 -44 -78 -13 5 -16 21 -16 78 0 40 3 76 7 79 10 11 28 8 41 -5z"/>
<path d="M9516 1858 c-10 -13 -16 -43 -16 -73 0 -65 20 -95 64 -95 57 0 71 19
71 95 0 54 -4 69 -19 81 -31 22 -82 18 -100 -8z m72 0 c7 -7 12 -39 12 -74 0
-65 -14 -90 -44 -78 -13 5 -16 21 -16 78 0 40 3 76 7 79 10 11 28 8 41 -5z"/>
<path d="M9782 1868 c-14 -14 -16 -64 -2 -73 6 -4 4 -12 -5 -21 -21 -22 -19
-61 4 -74 11 -5 36 -10 55 -10 27 0 40 6 53 26 16 25 16 28 0 56 -13 24 -14
33 -4 48 18 30 -2 54 -49 58 -22 2 -45 -3 -52 -10z m73 -27 c0 -32 -14 -35
-45 -11 -21 17 -23 21 -10 30 26 18 55 8 55 -19z m-4 -90 c20 -16 22 -21 10
-35 -27 -32 -83 -1 -68 38 8 21 29 20 58 -3z"/>
<path d="M9975 1873 c-31 -8 -42 -23 -17 -23 21 0 22 -5 22 -70 0 -63 -2 -70
-20 -70 -11 0 -20 -4 -20 -10 0 -6 27 -10 61 -10 37 0 58 4 54 10 -3 6 -13 10
-21 10 -11 0 -14 18 -14 85 0 88 0 89 -45 78z"/>
<path d="M10987 1865 c-33 -32 -33 -128 -1 -160 21 -21 77 -19 97 3 25 27 23
133 -1 155 -23 21 -76 22 -95 2z m71 -78 c2 -65 0 -78 -14 -84 -25 -10 -44 24
-44 80 0 57 15 89 38 85 14 -3 18 -17 20 -81z"/>
<path d="M11246 1864 c-19 -18 -21 -45 -5 -61 8 -8 6 -18 -6 -37 -16 -24 -16
-28 -1 -51 13 -20 25 -25 56 -25 22 0 45 7 54 16 21 20 21 70 0 82 -11 6 -13
11 -5 16 15 9 14 49 -1 64 -17 17 -74 15 -92 -4z m74 -9 c13 -15 7 -45 -9 -45
-18 0 -54 37 -47 48 10 17 41 15 56 -3z m-7 -99 c38 -29 1 -70 -43 -46 -19 10
-27 40 -13 53 10 11 36 8 56 -7z"/>
<path d="M11414 1866 c-15 -12 -19 -27 -19 -81 0 -76 14 -95 71 -95 44 0 64
30 64 95 0 65 -20 95 -64 95 -18 0 -41 -6 -52 -14z m64 -8 c18 -18 16 -133 -3
-148 -28 -23 -45 5 -45 74 0 55 11 86 30 86 3 0 11 -5 18 -12z"/>
<path d="M12424 1866 c-15 -12 -19 -27 -19 -81 0 -76 14 -95 71 -95 44 0 64
30 64 95 0 65 -20 95 -64 95 -18 0 -41 -6 -52 -14z m64 -8 c18 -18 16 -133 -3
-148 -28 -23 -45 5 -45 74 0 55 11 86 30 86 3 0 11 -5 18 -12z"/>
<path d="M12846 1864 c-9 -8 -16 -31 -16 -49 0 -38 20 -55 64 -55 32 0 36 -34
7 -50 -27 -14 -31 -13 -31 10 0 11 -6 20 -13 20 -21 0 -27 -11 -16 -31 15 -29
70 -25 99 6 31 33 34 113 5 145 -22 24 -77 27 -99 4z m69 -44 c0 -38 -3 -45
-20 -45 -15 0 -21 8 -23 33 -4 45 4 64 25 60 14 -3 18 -13 18 -48z"/>
<path d="M733 1849 c-7 -15 -18 -29 -25 -32 -10 -4 -10 -6 0 -6 7 -1 12 -17
12 -44 0 -24 6 -51 13 -61 19 -26 52 -17 54 14 1 22 1 22 -4 3 -2 -13 -11 -23
-19 -23 -10 0 -14 14 -14 54 0 49 2 55 23 59 22 4 22 4 0 6 -16 1 -23 9 -25
29 l-4 27 -11 -26z"/>
<path d="M1543 1849 c-7 -15 -18 -29 -25 -32 -10 -4 -10 -6 0 -6 7 -1 12 -17
12 -44 0 -24 6 -51 13 -61 19 -26 52 -17 54 14 1 22 1 22 -4 3 -2 -13 -11 -23
-19 -23 -10 0 -14 14 -14 54 0 49 2 55 23 59 22 4 22 4 0 6 -16 1 -23 9 -25
29 l-4 27 -11 -26z"/>
<path d="M638 1808 c19 -19 15 -95 -5 -107 -14 -8 -10 -10 22 -10 22 0 34 3
28 6 -9 3 -13 26 -13 64 0 54 -2 59 -22 59 -17 0 -19 -3 -10 -12z"/>
<path d="M1278 1808 c16 -16 16 -105 0 -111 -7 -3 5 -6 27 -6 32 0 36 2 23 10
-10 5 -18 21 -18 34 0 31 21 84 27 68 6 -16 33 -17 33 -3 0 17 -29 23 -45 10
-10 -9 -15 -9 -15 -1 0 6 -10 11 -22 11 -17 0 -19 -3 -10 -12z"/>
<path d="M1401 1807 c-6 -8 -13 -27 -17 -43 -11 -55 61 -97 100 -58 22 22 20
31 -2 11 -32 -29 -72 -15 -72 25 0 15 8 18 45 18 49 0 53 5 29 38 -17 25 -65
30 -83 9z m67 -20 c3 -13 -3 -17 -27 -17 -33 0 -39 8 -19 28 17 17 42 11 46
-11z"/>
<path d="M1639 1807 c18 -18 14 -94 -6 -106 -14 -8 -8 -10 27 -10 25 1 37 3
28 6 -23 6 -25 85 -3 103 10 9 15 9 15 1 0 -6 5 -11 10 -11 6 0 10 6 10 14 0
10 -13 14 -46 14 -34 0 -43 -3 -35 -11z"/>
<path d="M1754 1805 c-3 -8 -3 -19 1 -25 9 -15 27 -1 21 17 -4 10 0 14 16 11
35 -5 35 -35 -1 -43 -39 -8 -58 -31 -44 -53 7 -12 26 -17 67 -19 51 -1 56 0
55 20 0 21 -1 21 -8 2 -6 -15 -9 -6 -13 34 -3 29 -11 57 -19 62 -22 14 -69 10
-75 -6z m64 -72 c-4 -35 -48 -48 -48 -14 0 18 23 40 43 41 5 0 7 -12 5 -27z"/>
<path d="M1898 1808 c19 -19 15 -95 -5 -107 -14 -8 -10 -10 22 -10 22 0 34 3
28 6 -9 3 -13 26 -13 64 0 54 -2 59 -22 59 -17 0 -19 -3 -10 -12z"/>
<path d="M1978 1808 c7 -7 12 -30 12 -53 0 -23 -5 -46 -12 -53 -9 -9 -4 -12
22 -12 26 0 31 3 22 12 -17 17 -15 83 3 98 26 22 45 4 45 -43 0 -24 -5 -48
-12 -55 -9 -9 -5 -12 21 -12 26 0 31 3 23 13 -6 7 -12 35 -14 62 -3 43 -6 50
-26 53 -13 2 -30 -2 -38 -8 -10 -9 -14 -9 -14 -1 0 6 -10 11 -22 11 -17 0 -19
-3 -10 -12z"/>
<path d="M2138 1808 c7 -7 12 -30 12 -53 0 -23 -5 -46 -12 -53 -9 -9 -4 -12
23 -11 18 0 28 3 22 6 -9 3 -13 26 -13 64 0 54 -2 59 -22 59 -17 0 -19 -3 -10
-12z"/>
<path d="M2218 1808 c7 -7 12 -30 12 -53 0 -23 -5 -46 -12 -53 -9 -9 -4 -12
22 -12 26 0 31 3 22 12 -17 17 -15 83 3 98 26 22 45 4 45 -43 0 -24 -5 -48
-12 -55 -9 -9 -5 -12 21 -12 26 0 31 3 23 13 -6 7 -12 35 -14 62 -3 43 -6 50
-26 53 -13 2 -30 -2 -38 -8 -10 -9 -14 -9 -14 -1 0 6 -10 11 -22 11 -17 0 -19
-3 -10 -12z"/>
<path d="M2390 1805 c-6 -7 -9 -34 -7 -59 2 -26 0 -49 -5 -52 -15 -10 -8 -43
11 -54 30 -15 66 -12 91 8 19 15 21 22 11 40 -8 15 -22 22 -53 24 -25 2 -43 9
-46 17 -3 10 0 12 12 8 9 -4 27 -2 41 3 19 7 25 17 25 39 0 23 4 29 15 25 8
-4 15 -2 15 4 0 15 -97 13 -110 -3z m58 -18 c5 -27 -17 -50 -34 -36 -15 12
-19 41 -7 53 12 12 38 1 41 -17z m27 -116 c0 -21 -29 -35 -58 -27 -18 4 -27
13 -27 27 0 18 5 20 43 17 28 -2 42 -8 42 -17z"/>
<path d="M6233 1724 c-8 -21 13 -42 28 -27 13 13 5 43 -11 43 -6 0 -13 -7 -17
-16z"/>
<path d="M7983 1724 c-8 -21 13 -42 28 -27 13 13 5 43 -11 43 -6 0 -13 -7 -17
-16z"/>
<path d="M9687 1734 c-15 -15 -7 -45 11 -42 9 2 17 12 17 22 0 20 -16 31 -28
20z"/>
<path d="M11144 1725 c-7 -18 3 -35 21 -35 15 0 24 19 18 38 -6 17 -32 15 -39
-3z"/>
<path d="M12587 1734 c-15 -15 -7 -45 11 -42 9 2 17 12 17 22 0 20 -16 31 -28
20z"/>
<path d="M3585 1711 c-7 -12 12 -24 25 -16 11 7 4 25 -10 25 -5 0 -11 -4 -15
-9z"/>
<path d="M4840 1705 c0 -8 7 -15 15 -15 8 0 15 7 15 15 0 8 -7 15 -15 15 -8 0
-15 -7 -15 -15z"/>
<path d="M140 1520 c0 -7 2233 -10 6680 -10 4447 0 6680 3 6680 10 0 7 -2233
10 -6680 10 -4447 0 -6680 -3 -6680 -10z"/>
<path d="M542 891 c-11 -7 -11 -9 2 -14 13 -5 16 -25 16 -109 l0 -103 47 -3
c36 -2 51 2 70 20 53 49 10 137 -62 125 l-35 -6 0 50 c0 49 -9 59 -38 40z
m118 -110 c26 -50 2 -115 -41 -109 -22 3 -24 8 -27 57 -3 56 5 71 40 71 10 0
22 -9 28 -19z"/>
<path d="M732 891 c-11 -7 -11 -9 2 -14 25 -10 23 -192 -1 -206 -14 -8 -8 -10
27 -10 35 0 41 2 28 10 -15 9 -18 26 -18 119 0 112 -4 123 -38 101z"/>
<path d="M1760 890 c-13 -8 -12 -10 3 -10 15 0 17 -11 17 -100 0 -84 -3 -101
-17 -109 -14 -8 -9 -10 27 -11 34 0 41 3 32 12 -7 7 -12 33 -12 58 0 49 13 70
42 70 15 0 18 -9 18 -58 0 -32 -5 -63 -12 -70 -9 -9 -2 -12 33 -12 35 1 40 3
27 11 -14 7 -18 23 -18 63 0 63 -15 81 -59 73 -29 -6 -30 -6 -33 41 -3 49 -18
62 -48 42z"/>
<path d="M2431 883 c-13 -9 -21 -25 -21 -44 0 -21 -5 -29 -17 -29 -17 -1 -17
-1 0 -11 13 -8 17 -23 17 -64 0 -41 -4 -56 -17 -64 -14 -8 -9 -10 25 -11 40 0
42 1 27 16 -11 12 -15 31 -13 68 3 50 4 51 36 54 l32 3 0 -58 c0 -33 -5 -64
-12 -71 -9 -9 -3 -12 27 -12 30 0 36 3 27 12 -7 7 -12 38 -12 70 0 54 2 58 23
58 35 0 47 -19 47 -72 0 -34 -5 -50 -17 -57 -14 -8 -8 -10 27 -10 35 0 41 2
28 10 -14 8 -18 24 -18 74 l0 65 -45 0 c-43 0 -45 1 -45 28 0 32 16 52 42 52
11 0 18 -7 18 -20 0 -11 7 -20 15 -20 18 0 20 24 3 38 -20 16 -153 12 -177 -5z
m67 -33 c2 -39 1 -40 -33 -40 -27 0 -35 4 -35 18 0 26 28 62 49 62 14 0 18 -9
19 -40z"/>
<path d="M4170 890 c-13 -8 -12 -10 3 -10 13 0 17 -9 17 -38 0 -37 -1 -38 -33
-34 -67 8 -109 -67 -67 -120 19 -25 27 -27 86 -27 50 1 63 4 55 13 -6 7 -12
59 -13 116 -3 109 -11 125 -48 100z m8 -102 c16 -16 16 -90 0 -106 -31 -31
-72 -1 -72 53 0 54 41 84 72 53z"/>
<path d="M4928 889 c-12 -6 -18 -22 -18 -44 0 -27 -4 -35 -17 -35 -17 -1 -17
-1 0 -11 25 -14 25 -114 0 -128 -14 -8 -8 -10 27 -10 35 0 41 2 28 10 -14 8
-18 23 -18 65 0 47 3 56 23 64 l22 9 -22 0 c-18 1 -23 7 -23 30 0 16 7 34 15
41 12 10 15 10 15 -4 0 -9 7 -16 16 -16 23 0 13 35 -11 37 -11 2 -28 -2 -37
-8z"/>
<path d="M6576 884 c-9 -8 -16 -29 -16 -45 0 -21 -5 -29 -17 -29 -17 -1 -17
-1 0 -11 13 -8 17 -23 17 -64 0 -41 -4 -56 -17 -64 -14 -8 -7 -10 32 -10 43 0
47 2 28 11 -20 9 -23 19 -23 65 0 46 3 55 23 63 l22 9 -22 0 c-26 1 -31 28
-12 62 10 20 11 20 24 2 15 -20 31 -12 22 12 -8 20 -41 19 -61 -1z"/>
<path d="M8645 890 c-3 -5 -1 -10 4 -10 6 0 11 -17 11 -38 0 -37 -1 -38 -34
-34 -47 5 -76 -24 -76 -78 0 -30 5 -43 23 -54 27 -18 146 -21 128 -3 -7 7 -11
52 -11 119 0 100 -1 108 -19 108 -11 0 -23 -4 -26 -10z m4 -104 c18 -21 10
-97 -11 -110 -29 -18 -53 4 -56 53 -2 23 2 49 9 57 15 18 43 18 58 0z"/>
<path d="M9435 890 c-3 -5 -1 -10 4 -10 6 0 11 -17 11 -38 0 -37 -1 -38 -34
-34 -47 5 -76 -24 -76 -78 0 -30 5 -43 23 -54 27 -18 146 -21 128 -3 -7 7 -11
52 -11 119 0 100 -1 108 -19 108 -11 0 -23 -4 -26 -10z m4 -104 c18 -21 10
-97 -11 -110 -29 -18 -53 4 -56 53 -2 23 2 49 9 57 15 18 43 18 58 0z"/>
<path d="M9682 891 c-11 -7 -11 -9 2 -14 25 -10 23 -192 -1 -206 -14 -8 -8
-10 27 -10 35 0 41 2 28 10 -15 9 -18 26 -18 119 0 112 -4 123 -38 101z"/>
<path d="M10750 890 c-13 -8 -12 -10 3 -10 15 0 17 -11 17 -100 0 -84 -3 -101
-17 -109 -14 -8 -9 -10 26 -11 35 0 41 3 33 13 -6 7 -13 60 -14 117 -3 109
-11 125 -48 100z"/>
<path d="M13417 894 c-3 -4 0 -13 8 -21 8 -8 15 -27 15 -43 0 -27 -2 -28 -35
-23 -70 11 -113 -73 -65 -124 16 -18 31 -22 87 -22 50 0 63 3 51 10 -16 9 -18
26 -18 119 0 100 -2 110 -18 110 -10 0 -21 -3 -25 -6z m-3 -100 c19 -7 22 -94
4 -112 -31 -31 -68 -1 -68 53 0 52 24 74 64 59z"/>
<path d="M160 873 c0 -10 -3 -29 -7 -42 -4 -17 -3 -22 5 -17 7 4 12 16 12 27
0 22 41 45 64 36 13 -5 16 -24 16 -101 0 -94 0 -94 -27 -104 -23 -9 -16 -10
42 -10 58 0 65 1 43 10 -28 10 -28 10 -28 109 0 97 1 99 23 99 31 0 55 -20 60
-50 3 -16 5 -9 6 18 l1 42 -105 0 c-93 0 -105 -2 -105 -17z"/>
<path d="M1109 872 c-15 -13 -20 -25 -16 -36 9 -24 33 -14 30 12 -3 23 29 36
46 19 23 -23 9 -77 -20 -77 -10 0 -19 -4 -19 -10 0 -5 9 -10 20 -10 29 0 47
-42 32 -76 -10 -20 -18 -25 -40 -22 -23 3 -27 7 -24 31 2 19 -1 27 -12 27 -39
0 -23 -54 21 -71 50 -19 103 22 94 71 -1 8 -12 25 -24 38 -11 12 -16 22 -10
22 14 0 34 47 26 66 -6 15 -42 34 -68 34 -7 0 -23 -8 -36 -18z"/>
<path d="M1516 874 c-3 -9 -6 -28 -6 -42 0 -26 1 -26 18 8 12 25 25 36 45 38
l27 3 0 -101 c0 -95 -1 -101 -22 -110 -17 -6 -4 -9 47 -8 44 0 61 3 45 7 -24
7 -25 10 -28 109 -3 100 -2 102 20 102 33 0 48 -12 58 -46 8 -27 8 -27 9 14
l1 42 -104 0 c-85 0 -105 -3 -110 -16z"/>
<path d="M2834 879 c-10 -17 13 -36 27 -22 12 12 4 33 -11 33 -5 0 -12 -5 -16
-11z"/>
<path d="M9927 876 c-7 -16 1 -26 20 -26 7 0 13 9 13 20 0 23 -25 27 -33 6z"/>
<path d="M10670 870 c0 -11 7 -20 15 -20 8 0 15 9 15 20 0 11 -7 20 -15 20 -8
0 -15 -9 -15 -20z"/>
<path d="M10857 876 c-7 -16 1 -26 20 -26 7 0 13 9 13 20 0 23 -25 27 -33 6z"/>
<path d="M11100 870 c0 -11 7 -20 15 -20 8 0 15 9 15 20 0 11 -7 20 -15 20 -8
0 -15 -9 -15 -20z"/>
<path d="M12904 879 c-10 -17 13 -36 27 -22 12 12 4 33 -11 33 -5 0 -12 -5
-16 -11z"/>
<path d="M10556 847 c-5 -15 -16 -32 -25 -37 -9 -6 -11 -10 -3 -10 8 0 12 -17
12 -53 0 -63 16 -90 51 -85 19 2 24 9 26 33 2 28 1 28 -5 5 -5 -14 -14 -25
-22 -25 -11 0 -16 16 -18 62 -3 61 -2 62 25 66 l28 4 -27 2 c-22 1 -27 6 -30
34 l-4 32 -8 -28z"/>
<path d="M12492 853 c-1 -12 -11 -28 -22 -36 -18 -12 -18 -15 -5 -20 11 -5 15
-20 15 -56 0 -64 7 -81 34 -81 28 0 46 18 45 44 0 17 -2 16 -11 -6 -13 -38
-36 -35 -43 5 -11 58 -3 90 25 98 l25 7 -27 1 c-22 1 -27 6 -31 34 -2 18 -4
22 -5 10z"/>
<path d="M11487 813 c-4 -4 -25 -6 -46 -5 -57 4 -73 -17 -65 -80 5 -33 2 -57
-6 -74 -17 -32 1 -52 53 -61 43 -7 87 17 87 47 0 24 -13 32 -69 45 -46 10 -72
36 -28 28 41 -8 67 13 67 53 0 31 2 35 21 29 15 -5 20 -3 17 6 -5 16 -22 22
-31 12z m-39 -47 c4 -36 -11 -54 -33 -36 -15 13 -20 51 -8 64 15 15 38 0 41
-28z m39 -122 c7 -19 -21 -44 -48 -44 -24 0 -64 35 -55 48 12 19 95 15 103 -4z"/>
<path d="M392 798 c-17 -17 -15 -38 3 -38 8 0 15 9 15 20 0 27 36 27 50 0 9
-17 8 -21 -7 -26 -76 -24 -98 -49 -73 -79 14 -17 66 -20 75 -5 4 6 13 5 26 -3
17 -10 22 -9 35 7 16 23 18 36 4 36 -5 0 -10 -9 -10 -21 0 -11 -4 -17 -10 -14
-5 3 -10 30 -10 59 0 28 -5 57 -12 64 -16 16 -70 16 -86 0z m78 -67 c0 -29
-21 -61 -40 -61 -31 0 -37 30 -11 52 25 19 51 24 51 9z"/>
<path d="M836 788 c-37 -53 -6 -128 52 -128 27 0 62 26 62 45 0 5 -9 -1 -20
-13 -26 -27 -56 -28 -70 -3 -21 41 -13 51 40 51 54 0 61 10 34 48 -10 15 -25
22 -49 22 -24 0 -39 -7 -49 -22z m78 -4 c11 -29 6 -34 -29 -34 -36 0 -46 15
-23 38 17 17 45 15 52 -4z"/>
<path d="M1270 790 c0 -11 7 -20 15 -20 8 0 15 9 15 20 0 11 -7 20 -15 20 -8
0 -15 -9 -15 -20z"/>
<path d="M1960 790 c-44 -44 -9 -130 52 -130 28 0 58 23 57 43 0 7 -7 2 -16
-10 -19 -28 -44 -29 -66 -5 -32 36 -22 52 33 52 43 0 50 3 50 19 0 48 -72 69
-110 31z m81 -17 c8 -21 6 -23 -31 -23 -44 0 -45 2 -29 31 14 26 49 21 60 -8z"/>
<path d="M2255 790 c-27 -30 -25 -88 4 -111 26 -22 71 -25 89 -7 20 20 13 32
-7 14 -25 -23 -52 -17 -68 14 -17 34 -9 40 48 40 48 0 50 1 43 23 -3 12 -11
28 -16 35 -16 19 -73 15 -93 -8z m73 -2 c23 -23 13 -38 -23 -38 -35 0 -40 5
-29 34 7 19 35 21 52 4z"/>
<path d="M2686 788 c-24 -34 -21 -93 6 -112 27 -19 69 -21 86 -4 19 19 14 33
-6 15 -39 -36 -72 -10 -72 55 0 39 15 58 46 58 17 0 21 -4 17 -20 -4 -14 0
-20 12 -20 11 0 15 7 13 23 -2 18 -10 23 -45 25 -33 2 -44 -1 -57 -20z"/>
<path d="M2820 800 c0 -5 5 -10 10 -10 6 0 10 -25 10 -55 0 -41 -4 -56 -17
-64 -14 -8 -9 -10 27 -11 34 0 41 3 32 12 -7 7 -12 39 -12 75 0 61 -1 63 -25
63 -14 0 -25 -4 -25 -10z"/>
<path d="M2926 788 c-37 -53 -6 -128 52 -128 27 0 62 26 62 45 0 5 -9 -1 -20
-13 -26 -27 -56 -28 -70 -3 -21 41 -13 51 40 51 54 0 61 10 34 48 -10 15 -25
22 -49 22 -24 0 -39 -7 -49 -22z m78 -4 c11 -29 6 -34 -29 -34 -36 0 -46 15
-23 38 17 17 45 15 52 -4z"/>
<path d="M3060 800 c0 -5 5 -10 10 -10 14 0 12 -104 -2 -118 -9 -9 -3 -12 27
-12 30 0 36 3 27 12 -15 15 -16 82 -2 109 15 26 46 24 54 -3 12 -46 7 -97 -11
-107 -14 -8 -9 -10 26 -11 38 0 42 2 28 13 -11 8 -17 30 -19 72 -3 58 -4 60
-31 63 -16 2 -35 -2 -43 -9 -10 -8 -14 -8 -14 0 0 6 -11 11 -25 11 -14 0 -25
-4 -25 -10z"/>
<path d="M3266 788 c-24 -34 -21 -93 6 -112 27 -19 69 -21 86 -4 19 19 14 33
-6 15 -39 -36 -72 -10 -72 55 0 39 15 58 46 58 17 0 21 -4 17 -20 -4 -14 0
-20 12 -20 11 0 15 7 13 23 -2 18 -10 23 -45 25 -33 2 -44 -1 -57 -20z"/>
<path d="M3390 800 c0 -5 6 -10 13 -10 6 0 24 -29 38 -64 l27 -64 -20 -34
c-20 -33 -21 -33 -29 -10 -9 24 -29 22 -29 -3 0 -19 38 -29 55 -15 7 6 30 50
49 97 20 47 44 92 54 99 15 12 13 13 -16 14 -29 0 -33 -3 -27 -21 7 -20 -11
-79 -24 -79 -12 0 -32 67 -25 84 5 13 -1 16 -30 16 -20 0 -36 -4 -36 -10z"/>
<path d="M3742 798 c-17 -17 -15 -38 3 -38 8 0 15 9 15 20 0 27 36 27 50 0 9
-17 8 -21 -7 -26 -76 -24 -98 -49 -73 -79 14 -17 66 -20 75 -5 4 6 13 5 26 -3
17 -10 22 -9 35 7 16 23 18 36 4 36 -5 0 -10 -9 -10 -21 0 -11 -4 -17 -10 -14
-5 3 -10 30 -10 59 0 28 -5 57 -12 64 -16 16 -70 16 -86 0z m78 -67 c0 -29
-21 -61 -40 -61 -31 0 -37 30 -11 52 25 19 51 24 51 9z"/>
<path d="M3893 796 c12 -10 17 -27 17 -64 0 -38 -4 -54 -17 -61 -14 -8 -9 -10
27 -11 34 0 41 3 32 12 -16 16 -16 100 0 116 7 7 20 12 30 12 15 0 18 -9 18
-58 0 -32 -5 -63 -12 -70 -9 -9 -2 -12 32 -12 37 0 41 2 27 13 -11 8 -17 30
-19 66 -4 65 -21 82 -68 64 -16 -6 -30 -7 -30 -2 0 5 -12 9 -27 9 -25 -1 -26
-2 -10 -14z"/>
<path d="M4413 795 c25 -18 25 -169 0 -184 -14 -8 -8 -10 27 -10 35 0 41 2 28
10 -10 5 -18 20 -18 32 0 20 4 22 39 19 32 -3 42 1 60 23 26 35 27 65 1 98
-18 23 -27 25 -87 25 -56 0 -64 -2 -50 -13z m116 -27 c11 -20 13 -34 6 -54
-23 -65 -78 -56 -83 13 -5 70 46 97 77 41z"/>
<path d="M4620 790 c-44 -44 -9 -130 52 -130 28 0 58 23 57 43 0 7 -7 2 -16
-10 -19 -28 -44 -29 -66 -5 -32 36 -22 52 33 52 43 0 50 3 50 19 0 48 -72 69
-110 31z m81 -17 c8 -21 6 -23 -31 -23 -44 0 -45 2 -29 31 14 26 49 21 60 -8z"/>
<path d="M4750 800 c0 -5 5 -10 10 -10 14 0 12 -104 -2 -118 -9 -9 -2 -12 33
-12 36 1 41 3 26 11 -15 9 -18 22 -17 62 2 29 2 58 1 65 -1 14 -51 17 -51 2z"/>
<path d="M4810 799 c0 -5 4 -8 9 -5 5 3 12 -1 15 -10 7 -18 26 -10 26 12 0 8
-10 14 -25 14 -14 0 -25 -5 -25 -11z"/>
<path d="M5005 790 c-11 -12 -19 -36 -19 -55 0 -45 28 -75 71 -75 63 0 96 73
57 128 -20 30 -83 31 -109 2z m84 -4 c18 -21 10 -97 -11 -110 -25 -15 -50 3
-62 42 -16 56 40 108 73 68z"/>
<path d="M5163 796 c12 -10 17 -27 17 -64 0 -38 -4 -54 -17 -61 -14 -8 -9 -10
26 -11 40 0 43 1 26 13 -14 11 -17 23 -13 61 7 59 22 78 41 51 10 -12 16 -14
21 -7 17 28 -28 44 -52 20 -9 -9 -12 -9 -12 0 0 7 -12 12 -27 12 -25 -1 -26
-2 -10 -14z"/>
<path d="M5293 796 c12 -10 17 -27 17 -64 0 -38 -4 -54 -17 -61 -14 -8 -9 -10
27 -11 34 0 41 3 32 12 -7 7 -12 33 -12 58 0 49 13 70 42 70 15 0 18 -9 18
-58 0 -32 -5 -63 -12 -70 -9 -9 -2 -12 33 -12 35 1 40 3 27 11 -38 22 -16 129
27 129 30 0 37 -112 8 -129 -14 -8 -9 -10 26 -11 41 0 43 1 28 18 -9 10 -17
40 -19 72 -3 52 -5 55 -31 58 -16 2 -34 -2 -42 -8 -10 -8 -19 -8 -34 2 -16 10
-27 10 -51 1 -16 -6 -30 -7 -30 -2 0 5 -12 9 -27 9 -25 -1 -26 -2 -10 -14z"/>
<path d="M5587 803 c-13 -13 -7 -43 9 -43 12 0 15 6 11 21 -5 17 -1 20 21 17
19 -2 28 -10 30 -24 2 -17 -4 -23 -29 -28 -18 -3 -38 -11 -46 -17 -18 -16 -16
-56 3 -63 25 -9 62 -7 69 4 5 8 11 7 21 -1 20 -16 44 -3 43 23 -1 17 -2 18 -6
6 -10 -37 -23 -16 -23 37 0 43 -4 56 -19 65 -22 11 -74 14 -84 3z m71 -95 c-2
-28 -7 -33 -28 -33 -30 0 -38 26 -15 49 28 27 47 20 43 -16z"/>
<path d="M5743 796 c12 -10 17 -27 17 -64 0 -38 -4 -54 -17 -61 -14 -8 -9 -10
27 -11 34 0 41 3 32 12 -7 7 -12 33 -12 58 0 49 13 70 42 70 15 0 18 -9 18
-58 0 -32 -5 -63 -12 -70 -9 -9 -2 -12 32 -12 37 0 41 2 27 13 -11 8 -17 30
-19 66 -4 65 -21 82 -68 64 -16 -6 -30 -7 -30 -2 0 5 -12 9 -27 9 -25 -1 -26
-2 -10 -14z"/>
<path d="M5947 792 c-47 -51 -18 -132 47 -132 35 0 56 15 56 39 0 11 -5 9 -16
-7 -31 -44 -76 -19 -76 43 0 41 16 65 43 65 12 0 19 -7 19 -20 0 -11 7 -20 15
-20 18 0 20 21 3 38 -18 18 -73 14 -91 -6z"/>
<path d="M6104 802 c-16 -10 -34 -48 -34 -70 0 -11 9 -31 21 -46 33 -41 109
-32 109 13 0 11 -5 9 -16 -7 -8 -12 -24 -22 -34 -22 -20 0 -50 35 -50 57 0 9
16 13 50 13 53 0 61 10 40 51 -11 19 -63 27 -86 11z m66 -23 c15 -27 10 -31
-33 -27 -31 3 -34 5 -26 26 11 28 45 29 59 1z"/>
<path d="M6385 790 c-11 -12 -19 -36 -19 -55 0 -45 28 -75 71 -75 63 0 96 73
57 128 -20 30 -83 31 -109 2z m84 -4 c18 -21 10 -97 -11 -110 -25 -15 -50 3
-62 42 -16 56 40 108 73 68z"/>
<path d="M6800 788 c-45 -48 -9 -128 57 -128 36 0 73 38 73 75 0 12 -9 34 -21
49 -27 34 -79 36 -109 4z m90 -7 c14 -28 12 -63 -6 -89 -30 -43 -74 -18 -74
43 0 40 18 65 45 65 14 0 29 -8 35 -19z"/>
<path d="M6950 800 c0 -5 5 -10 10 -10 6 0 10 -21 10 -46 0 -74 9 -83 87 -82
56 0 64 2 50 13 -13 9 -17 27 -17 74 0 60 0 61 -27 61 -25 -1 -26 -2 -10 -14
19 -15 22 -60 7 -101 -7 -20 -16 -26 -33 -23 -20 3 -22 9 -25 71 -3 64 -4 67
-27 67 -14 0 -25 -4 -25 -10z"/>
<path d="M7143 796 c12 -10 17 -27 17 -64 0 -38 -4 -54 -17 -61 -14 -8 -7 -10
32 -11 49 0 49 0 26 16 -20 14 -22 22 -17 57 9 54 24 73 41 51 8 -12 14 -14
19 -6 17 28 -28 44 -52 20 -9 -9 -12 -9 -12 0 0 7 -12 12 -27 12 -25 -1 -26
-2 -10 -14z"/>
<path d="M7410 799 c0 -5 5 -9 10 -9 15 0 13 -177 -2 -183 -7 -3 7 -5 32 -5
25 0 37 2 28 5 -12 3 -18 14 -18 32 0 25 3 27 33 23 47 -5 81 25 81 71 0 58
-25 76 -100 76 -35 -1 -64 -5 -64 -10z m120 -14 c6 -8 12 -30 12 -50 0 -40
-16 -65 -41 -65 -28 0 -41 21 -41 65 0 59 39 87 70 50z"/>
<path d="M7600 799 c0 -5 5 -9 10 -9 14 0 12 -104 -2 -118 -9 -9 -2 -12 33
-12 35 1 40 3 27 11 -13 7 -18 23 -18 58 0 51 22 87 34 56 7 -18 26 -11 26 10
0 10 -15 14 -55 14 -30 0 -55 -5 -55 -10z"/>
<path d="M7750 788 c-45 -48 -9 -128 57 -128 36 0 73 38 73 75 0 12 -9 34 -21
49 -27 34 -79 36 -109 4z m90 -7 c14 -28 12 -63 -6 -89 -30 -43 -74 -18 -74
43 0 40 18 65 45 65 14 0 29 -8 35 -19z"/>
<path d="M7900 799 c0 -5 5 -9 10 -9 15 0 13 -177 -2 -183 -7 -3 5 -5 27 -5
22 0 34 2 28 5 -7 2 -13 17 -13 32 0 25 3 27 34 23 45 -5 76 25 76 73 0 54
-27 74 -99 74 -34 0 -61 -5 -61 -10z m120 -18 c22 -43 5 -111 -28 -111 -29 0
-42 21 -42 65 0 23 5 46 12 53 18 18 46 14 58 -7z"/>
<path d="M8115 790 c-11 -12 -19 -36 -19 -55 0 -45 28 -75 71 -75 63 0 96 73
57 128 -20 30 -83 31 -109 2z m84 -4 c18 -21 10 -97 -11 -110 -25 -15 -50 3
-62 42 -16 56 40 108 73 68z"/>
<path d="M8270 795 c-19 -23 -2 -53 38 -66 43 -14 55 -28 40 -46 -17 -21 -45
-15 -67 15 l-20 27 -1 -31 c0 -29 3 -31 38 -32 50 -2 69 5 75 28 7 26 -14 52
-54 65 -39 14 -45 38 -10 43 17 3 30 -4 43 -20 l18 -23 0 28 c0 25 -3 27 -44
27 -26 0 -48 -6 -56 -15z"/>
<path d="M8415 790 c-27 -30 -25 -88 4 -111 26 -22 71 -25 89 -7 20 20 13 32
-7 14 -25 -23 -52 -17 -68 14 -17 34 -9 40 48 40 48 0 50 1 43 23 -3 12 -11
28 -16 35 -16 19 -73 15 -93 -8z m73 -2 c23 -23 13 -38 -23 -38 -35 0 -40 5
-29 34 7 19 35 21 52 4z"/>
<path d="M8880 800 c0 -5 5 -10 10 -10 14 0 12 -104 -2 -118 -9 -9 -3 -12 27
-12 30 0 36 3 27 12 -15 15 -16 82 -2 109 15 26 46 24 54 -3 12 -46 7 -97 -11
-107 -14 -8 -8 -10 27 -10 35 0 41 2 28 10 -41 23 -7 142 35 126 25 -9 24
-112 0 -126 -14 -8 -9 -10 27 -11 34 0 41 3 32 12 -7 7 -12 32 -12 56 0 58
-14 82 -48 82 -16 0 -33 -5 -39 -11 -8 -8 -13 -8 -17 0 -9 15 -59 14 -74 -1
-9 -9 -12 -9 -12 0 0 7 -11 12 -25 12 -14 0 -25 -4 -25 -10z"/>
<path d="M9180 790 c-12 -12 -20 -33 -20 -55 0 -45 29 -75 73 -75 39 0 64 23
73 66 13 67 -77 113 -126 64z m89 -22 c27 -48 -16 -117 -56 -92 -22 13 -30 89
-12 110 18 22 51 13 68 -18z"/>
<path d="M9554 802 c-16 -10 -34 -48 -34 -70 0 -11 9 -31 21 -46 33 -41 109
-32 109 13 0 11 -5 9 -16 -7 -8 -12 -24 -22 -34 -22 -20 0 -50 35 -50 57 0 9
16 13 50 13 53 0 61 10 40 51 -11 19 -63 27 -86 11z m66 -23 c15 -27 10 -31
-33 -27 -31 3 -34 5 -26 26 11 28 45 29 59 1z"/>
<path d="M9923 792 c24 -26 23 -107 0 -121 -15 -8 -10 -10 22 -11 30 0 36 3
27 12 -7 7 -12 39 -12 75 0 62 -1 63 -27 63 -25 0 -25 -1 -10 -18z"/>
<path d="M10013 796 c12 -10 17 -27 17 -64 0 -38 -4 -54 -17 -61 -14 -8 -9
-10 26 -11 40 0 43 1 26 13 -36 27 -1 139 39 124 20 -8 23 -106 4 -125 -9 -9
-3 -12 27 -12 30 0 36 3 27 12 -7 7 -12 32 -12 56 0 24 -5 52 -10 63 -12 22
-59 26 -78 7 -9 -9 -12 -9 -12 0 0 7 -12 12 -27 12 -25 -1 -26 -2 -10 -14z"/>
<path d="M10343 796 c12 -9 17 -27 17 -63 0 -29 6 -55 13 -61 18 -15 133 -14
118 1 -6 6 -11 39 -11 74 0 61 -1 63 -25 63 -14 0 -25 -4 -25 -10 0 -5 5 -10
10 -10 14 0 12 -94 -2 -108 -17 -17 -45 -15 -52 4 -3 9 -6 40 -6 70 0 52 -1
54 -27 54 -25 -1 -26 -2 -10 -14z"/>
<path d="M10663 796 c12 -10 17 -27 17 -64 0 -38 -4 -54 -17 -61 -14 -8 -8
-10 27 -10 35 0 41 2 28 10 -14 8 -18 24 -18 74 0 64 0 65 -27 65 -25 -1 -26
-2 -10 -14z"/>
<path d="M10853 792 c24 -26 23 -107 0 -121 -15 -8 -10 -10 22 -11 30 0 36 3
27 12 -7 7 -12 39 -12 75 0 62 -1 63 -27 63 -25 0 -25 -1 -10 -18z"/>
<path d="M10940 778 l0 -33 13 25 c11 22 67 43 67 25 0 -4 -20 -33 -45 -65
-25 -32 -45 -61 -45 -64 0 -3 27 -6 59 -6 62 0 72 7 70 53 0 21 -1 21 -12 -3
-6 -14 -16 -28 -22 -32 -12 -9 -55 -11 -55 -2 0 3 20 32 45 64 25 32 45 61 45
64 0 3 -27 6 -60 6 l-60 0 0 -32z"/>
<path d="M11093 796 c12 -10 17 -27 17 -64 0 -38 -4 -54 -17 -61 -14 -8 -8
-10 27 -10 35 0 41 2 28 10 -14 8 -18 24 -18 74 0 64 0 65 -27 65 -25 -1 -26
-2 -10 -14z"/>
<path d="M11183 796 c12 -10 17 -27 17 -64 0 -38 -4 -54 -17 -61 -14 -8 -9
-10 27 -11 34 0 41 3 32 12 -7 7 -12 33 -12 58 0 49 13 70 42 70 15 0 18 -9
18 -58 0 -32 -5 -63 -12 -70 -9 -9 -2 -12 32 -12 37 0 41 2 27 13 -11 8 -17
30 -19 66 -4 65 -21 82 -68 64 -16 -6 -30 -7 -30 -2 0 5 -12 9 -27 9 -25 -1
-26 -2 -10 -14z"/>
<path d="M11697 803 c-13 -13 -7 -43 9 -43 12 0 15 6 11 21 -5 17 -1 20 21 17
19 -2 28 -10 30 -24 2 -17 -4 -23 -29 -28 -18 -3 -38 -11 -46 -17 -18 -16 -16
-56 3 -63 25 -9 62 -7 69 4 5 8 11 7 21 -1 20 -16 44 -3 43 23 -1 17 -2 18 -6
6 -10 -37 -23 -16 -23 37 0 43 -4 56 -19 65 -22 11 -74 14 -84 3z m71 -95 c-2
-28 -7 -33 -28 -33 -30 0 -38 26 -15 49 28 27 47 20 43 -16z"/>
<path d="M11990 799 c0 -5 5 -9 10 -9 15 0 13 -177 -2 -183 -7 -3 5 -5 27 -5
22 0 34 2 28 5 -7 2 -13 17 -13 32 0 25 3 27 34 23 45 -5 76 25 76 73 0 54
-27 74 -99 74 -34 0 -61 -5 -61 -10z m120 -18 c22 -43 5 -111 -28 -111 -29 0
-42 21 -42 65 0 23 5 46 12 53 18 18 46 14 58 -7z"/>
<path d="M12183 796 c12 -10 17 -27 17 -64 0 -38 -4 -54 -17 -61 -14 -8 -9
-10 26 -11 40 0 43 1 26 13 -14 11 -17 23 -13 61 7 59 22 78 41 51 10 -12 16
-14 21 -7 17 28 -28 44 -52 20 -9 -9 -12 -9 -12 0 0 7 -12 12 -27 12 -25 -1
-26 -2 -10 -14z"/>
<path d="M12325 790 c-27 -30 -25 -88 4 -111 26 -22 71 -25 89 -7 20 20 13 32
-7 14 -25 -23 -52 -17 -68 14 -17 34 -9 40 48 40 48 0 50 1 43 23 -3 12 -11
28 -16 35 -16 19 -73 15 -93 -8z m73 -2 c23 -23 13 -38 -23 -38 -35 0 -40 5
-29 34 7 19 35 21 52 4z"/>
<path d="M12590 799 c0 -5 5 -9 10 -9 14 0 12 -104 -2 -118 -9 -9 -2 -12 33
-12 35 1 40 3 27 11 -13 7 -18 23 -18 58 0 51 22 87 34 56 7 -18 26 -11 26 10
0 10 -15 14 -55 14 -30 0 -55 -5 -55 -10z"/>
<path d="M12740 795 c-9 -11 -10 -19 -2 -27 14 -14 33 -1 25 17 -6 18 27 21
45 3 21 -21 13 -36 -22 -42 -44 -8 -74 -41 -59 -64 8 -13 26 -17 74 -18 64 -2
79 6 78 36 0 8 -5 4 -10 -10 -14 -35 -29 -9 -29 51 0 25 -5 50 -12 57 -17 17
-73 15 -88 -3z m80 -78 c0 -28 -17 -47 -42 -47 -30 0 -34 31 -9 52 31 25 51
23 51 -5z"/>
<path d="M12890 800 c0 -5 5 -10 10 -10 14 0 12 -104 -2 -118 -9 -9 -3 -12 27
-12 30 0 36 3 27 12 -7 7 -12 39 -12 75 0 61 -1 63 -25 63 -14 0 -25 -4 -25
-10z"/>
<path d="M12980 801 c0 -5 7 -11 15 -15 23 -8 21 -102 -2 -115 -14 -8 -8 -10
27 -10 35 0 41 2 28 10 -26 15 -25 90 2 114 33 30 50 13 50 -49 0 -42 -4 -57
-17 -65 -14 -8 -9 -10 27 -11 34 0 41 3 32 12 -7 7 -12 29 -12 49 0 61 -15 89
-48 89 -15 0 -33 -5 -40 -12 -9 -9 -12 -9 -12 0 0 7 -11 12 -25 12 -14 0 -25
-4 -25 -9z"/>
<path d="M13186 788 c-37 -53 -6 -128 52 -128 27 0 62 26 62 45 0 5 -9 -1 -20
-13 -26 -27 -56 -28 -70 -3 -21 41 -13 51 40 51 54 0 61 10 34 48 -10 15 -25
22 -49 22 -24 0 -39 -7 -49 -22z m78 -4 c11 -29 6 -34 -29 -34 -36 0 -46 15
-23 38 17 17 45 15 52 -4z"/>
<path d="M1270 680 c0 -11 7 -20 15 -20 8 0 15 9 15 20 0 11 -7 20 -15 20 -8
0 -15 -9 -15 -20z"/>
<path d="M2072 471 c-11 -7 -11 -9 2 -14 10 -4 16 -19 16 -41 0 -34 0 -34 -38
-29 -34 4 -42 1 -60 -22 -27 -35 -28 -65 -2 -98 18 -23 27 -25 87 -25 56 0 64
2 50 13 -14 10 -17 30 -17 119 0 108 -4 119 -38 97z m6 -103 c16 -16 15 -80
-1 -103 -23 -30 -65 -13 -73 30 -11 60 38 109 74 73z"/>
<path d="M2315 470 c-3 -5 -1 -10 4 -10 16 0 14 -193 -1 -208 -9 -9 -2 -12 33
-12 35 1 40 3 27 11 -15 9 -18 26 -18 119 0 102 -1 110 -19 110 -11 0 -23 -4
-26 -10z"/>
<path d="M2967 474 c-3 -4 0 -13 8 -21 8 -8 15 -27 15 -43 0 -27 -2 -28 -35
-23 -70 11 -113 -73 -65 -124 16 -18 31 -22 87 -22 50 0 63 3 51 10 -16 9 -18
26 -18 119 0 100 -2 110 -18 110 -10 0 -21 -3 -25 -6z m-3 -100 c19 -7 22 -94
4 -112 -31 -31 -68 -1 -68 53 0 52 24 74 64 59z"/>
<path d="M4486 464 c-9 -8 -16 -29 -16 -45 0 -21 -5 -29 -17 -29 -17 -1 -17
-1 0 -11 25 -14 25 -114 0 -128 -14 -8 -7 -10 32 -10 43 0 47 2 28 11 -20 9
-23 19 -23 65 0 46 3 55 23 63 l22 9 -22 0 c-26 1 -31 28 -12 62 10 20 11 20
24 2 15 -20 31 -12 22 12 -8 20 -41 19 -61 -1z"/>
<path d="M6100 470 c-13 -8 -12 -10 3 -10 15 0 17 -11 17 -100 0 -84 -3 -101
-17 -109 -14 -8 -9 -10 27 -11 34 0 41 3 32 12 -7 7 -12 33 -12 58 0 49 13 70
42 70 15 0 18 -9 18 -58 0 -32 -5 -63 -12 -70 -9 -9 -2 -12 33 -12 35 1 40 3
27 11 -14 7 -18 23 -18 63 0 63 -15 81 -59 73 -29 -6 -30 -6 -33 41 -3 49 -18
62 -48 42z"/>
<path d="M7000 470 c-13 -8 -12 -10 3 -10 15 0 17 -11 17 -100 0 -84 -3 -101
-17 -109 -14 -8 -9 -10 27 -11 34 0 41 3 32 12 -7 7 -12 33 -12 58 0 49 13 70
42 70 15 0 18 -9 18 -58 0 -32 -5 -63 -12 -70 -9 -9 -2 -12 33 -12 35 1 40 3
27 11 -14 7 -18 23 -18 63 0 63 -15 81 -59 73 -29 -6 -30 -6 -33 41 -3 49 -18
62 -48 42z"/>
<path d="M7815 470 c-3 -5 -1 -10 4 -10 7 0 11 -39 11 -108 l0 -108 49 -2 c64
-3 95 21 95 71 0 52 -28 80 -76 75 l-38 -4 0 48 c0 41 -3 48 -19 48 -11 0 -23
-4 -26 -10z m123 -123 c24 -50 -16 -116 -55 -91 -22 13 -30 89 -12 110 18 22
52 13 67 -19z"/>
<path d="M8170 470 c-13 -8 -12 -10 3 -10 15 0 17 -11 17 -100 0 -84 -3 -101
-17 -109 -14 -8 -9 -10 26 -11 35 0 41 3 33 13 -6 7 -13 60 -14 117 -3 109
-11 125 -48 100z"/>
<path d="M9015 470 c-3 -5 -1 -10 4 -10 6 0 11 -17 11 -38 0 -37 -1 -38 -34
-34 -47 5 -76 -24 -76 -78 0 -30 5 -43 23 -54 27 -18 146 -21 128 -3 -7 7 -11
52 -11 119 0 100 -1 108 -19 108 -11 0 -23 -4 -26 -10z m4 -104 c18 -21 10
-97 -11 -110 -29 -18 -53 4 -56 53 -3 46 10 71 38 71 10 0 23 -6 29 -14z"/>
<path d="M9271 455 c-78 -66 -57 -188 38 -216 48 -14 85 1 118 50 74 110 -57
249 -156 166z m113 -16 c52 -61 22 -189 -44 -189 -56 0 -91 66 -76 145 7 36
46 75 76 75 10 0 30 -14 44 -31z"/>
<path d="M9554 470 c-81 -32 -87 -178 -9 -220 44 -24 94 -18 121 14 13 15 23
37 23 49 -2 22 -2 22 -6 1 -7 -36 -47 -66 -83 -62 -90 9 -104 173 -19 209 36
14 72 -6 93 -54 l14 -32 1 54 c1 47 -1 52 -14 41 -12 -10 -19 -10 -27 -2 -14
14 -63 15 -94 2z"/>
<path d="M10675 460 c-38 -41 -12 -103 49 -116 41 -8 56 -22 56 -48 0 -29 -18
-46 -50 -46 -30 0 -60 27 -60 54 0 9 -4 14 -10 11 -5 -3 -10 -22 -10 -42 0
-27 3 -34 15 -29 8 3 28 0 44 -5 63 -22 118 39 89 98 -9 18 -25 31 -50 38 -49
13 -72 37 -64 63 15 45 77 35 99 -16 l11 -27 4 39 c4 40 -4 58 -16 39 -5 -8
-13 -9 -22 -3 -25 16 -66 11 -85 -10z"/>
<path d="M11292 471 c-11 -7 -11 -9 2 -14 10 -4 16 -19 16 -41 0 -34 0 -34
-38 -29 -34 4 -42 1 -60 -22 -27 -35 -28 -65 -2 -98 18 -23 27 -25 87 -25 56
0 64 2 50 13 -14 10 -17 30 -17 119 0 108 -4 119 -38 97z m6 -103 c16 -16 15
-80 -1 -103 -23 -30 -65 -13 -73 30 -11 60 38 109 74 73z"/>
<path d="M3617 456 c-7 -16 1 -26 20 -26 7 0 13 9 13 20 0 23 -25 27 -33 6z"/>
<path d="M3897 456 c-7 -16 1 -26 20 -26 7 0 13 9 13 20 0 23 -25 27 -33 6z"/>
<path d="M7464 459 c-10 -17 13 -36 27 -22 12 12 4 33 -11 33 -5 0 -12 -5 -16
-11z"/>
<path d="M9726 454 c-3 -9 -6 -28 -6 -42 0 -26 1 -26 18 8 12 25 25 36 45 38
l27 3 0 -101 c0 -95 -1 -101 -22 -110 -17 -6 -4 -9 47 -8 44 0 61 3 45 7 -24
7 -25 10 -28 109 -3 100 -2 102 20 102 33 0 48 -12 58 -46 8 -27 8 -27 9 14
l1 42 -104 0 c-85 0 -105 -3 -110 -16z"/>
<path d="M9983 463 c15 -4 17 -18 17 -104 0 -81 -3 -99 -15 -99 -8 0 -15 -4
-15 -10 0 -5 19 -10 43 -10 l42 0 -23 18 c-21 16 -23 24 -20 102 l3 85 39
-102 c22 -57 42 -103 45 -103 3 0 24 45 45 100 21 55 41 100 42 100 2 0 4 -41
4 -90 0 -85 -1 -91 -22 -100 -18 -7 -11 -9 32 -9 42 0 51 2 38 10 -15 8 -18
25 -18 109 0 85 2 99 18 103 9 3 1 5 -19 6 -34 1 -37 -1 -54 -46 -10 -27 -27
-68 -37 -93 l-20 -45 -35 93 -36 92 -36 -1 c-20 -1 -28 -3 -18 -6z"/>
<path d="M10288 463 c21 -4 22 -9 22 -97 0 -86 -2 -95 -22 -109 -22 -16 -22
-16 20 -16 23 -1 42 4 42 9 0 6 -7 10 -15 10 -12 0 -15 17 -15 92 l0 92 55
-79 c31 -44 64 -91 75 -105 l19 -25 0 108 c1 102 2 108 24 117 17 7 12 9 -28
9 -40 0 -45 -2 -27 -9 20 -8 22 -16 22 -80 0 -39 -4 -69 -9 -66 -4 3 -30 39
-57 81 -48 73 -50 75 -89 74 -23 -1 -30 -4 -17 -6z"/>
<path d="M10538 463 c21 -4 22 -9 22 -104 0 -94 -1 -100 -22 -109 -18 -7 -9
-9 37 -9 50 0 56 2 38 11 -21 10 -23 17 -23 105 0 88 1 94 23 103 16 6 7 9
-38 8 -33 0 -50 -3 -37 -5z"/>
<path d="M10841 428 c1 -41 1 -41 9 -14 10 34 25 46 58 46 21 0 22 -3 22 -99
0 -99 0 -99 -27 -109 -23 -9 -16 -10 42 -10 59 0 66 1 42 10 l-28 10 3 96 c3
93 4 97 26 100 28 4 52 -14 52 -39 0 -11 5 -19 11 -19 7 0 9 9 5 23 -3 12 -6
28 -6 35 0 9 -28 12 -105 12 l-105 0 1 -42z"/>
<path d="M3203 428 c-7 -14 -20 -31 -30 -37 -17 -10 -17 -10 0 -11 14 0 17
-10 17 -58 0 -62 11 -82 46 -82 22 0 35 18 33 48 -1 10 -4 6 -8 -8 -4 -14 -13
-25 -21 -25 -11 0 -16 16 -18 62 -3 57 -1 62 20 66 22 4 22 4 1 6 -17 1 -23 8
-25 34 l-4 32 -11 -27z"/>
<path d="M5862 433 c-1 -12 -11 -28 -22 -36 -18 -12 -18 -15 -5 -20 11 -5 15
-20 15 -56 0 -64 7 -81 34 -81 28 0 46 18 45 44 0 17 -2 16 -11 -6 -13 -38
-36 -35 -43 5 -11 58 -3 90 25 98 l25 7 -27 1 c-22 1 -27 6 -31 34 -2 18 -4
22 -5 10z"/>
<path d="M6902 438 c-1 -10 -11 -27 -21 -37 -15 -15 -17 -21 -6 -25 9 -3 15
-26 17 -68 3 -58 5 -63 27 -66 15 -3 30 3 38 14 15 21 17 44 3 44 -5 0 -10 -9
-10 -19 0 -11 -5 -23 -11 -27 -18 -11 -29 18 -27 71 3 43 6 50 28 56 l25 7
-27 1 c-22 1 -27 6 -31 34 -2 17 -5 24 -5 15z"/>
<path d="M11583 428 c-7 -14 -20 -31 -30 -37 -17 -10 -17 -10 0 -11 14 0 17
-10 17 -58 0 -62 11 -82 46 -82 22 0 35 18 33 48 -1 10 -4 6 -8 -8 -4 -14 -13
-25 -21 -25 -11 0 -16 16 -18 62 -3 57 -1 62 20 66 22 4 22 4 1 6 -17 1 -23 8
-25 34 l-4 32 -11 -27z"/>
<path d="M12166 427 c-5 -15 -16 -32 -25 -37 -9 -6 -11 -10 -3 -10 8 0 12 -17
12 -53 0 -63 16 -90 51 -85 19 2 24 9 26 33 2 28 1 28 -5 5 -5 -14 -14 -25
-22 -25 -11 0 -16 16 -18 62 -3 61 -2 62 25 66 l28 4 -27 2 c-22 1 -27 6 -30
34 l-4 32 -8 -28z"/>
<path d="M4287 393 c-4 -4 -25 -6 -46 -5 -57 4 -73 -17 -65 -80 5 -33 2 -57
-6 -74 -17 -32 1 -52 53 -61 43 -7 87 17 87 47 0 24 -13 32 -69 45 -46 10 -72
36 -28 28 41 -8 67 13 67 53 0 31 2 35 21 29 15 -5 20 -3 17 6 -5 16 -22 22
-31 12z m-39 -47 c4 -36 -11 -54 -33 -36 -15 13 -20 51 -8 64 15 15 38 0 41
-28z m39 -122 c7 -19 -21 -44 -48 -44 -24 0 -64 35 -55 48 12 19 95 15 103 -4z"/>
<path d="M1510 381 c0 -5 7 -11 15 -15 23 -8 21 -102 -2 -115 -14 -8 -8 -10
27 -10 35 0 41 2 28 10 -26 15 -25 90 2 114 33 30 50 13 50 -49 0 -42 -4 -57
-17 -65 -14 -8 -9 -10 27 -11 34 0 41 3 32 12 -7 7 -12 33 -12 59 0 49 18 76
45 65 19 -7 21 -106 3 -124 -9 -9 -2 -12 33 -12 35 1 40 3 27 11 -14 7 -18 23
-18 62 0 29 -5 58 -12 65 -15 15 -60 16 -75 1 -8 -8 -13 -8 -17 0 -9 15 -59
14 -74 -1 -9 -9 -12 -9 -12 0 0 7 -11 12 -25 12 -14 0 -25 -4 -25 -9z"/>
<path d="M1810 368 c-45 -48 -9 -128 57 -128 36 0 73 38 73 75 0 12 -9 34 -21
49 -27 34 -79 36 -109 4z m90 -7 c14 -28 12 -63 -6 -89 -30 -43 -74 -18 -74
43 0 40 18 65 45 65 14 0 29 -8 35 -19z"/>
<path d="M2176 368 c-37 -53 -6 -128 52 -128 27 0 62 26 62 45 0 5 -9 -1 -20
-13 -26 -27 -56 -28 -70 -3 -21 41 -13 51 40 51 54 0 61 10 34 48 -10 15 -25
22 -49 22 -24 0 -39 -7 -49 -22z m78 -4 c11 -29 6 -34 -29 -34 -36 0 -46 15
-23 38 17 17 45 15 52 -4z"/>
<path d="M2537 383 c-13 -13 -7 -43 9 -43 11 0 15 6 11 20 -4 16 0 20 18 20
20 0 35 -17 35 -40 0 -4 -15 -11 -34 -14 -41 -8 -59 -27 -54 -58 2 -18 10 -24
36 -26 18 -2 40 2 48 9 11 9 14 9 14 0 0 -7 10 -11 23 -9 15 2 23 11 24 28 l3
25 -12 -25 c-11 -23 -12 -20 -17 38 -4 40 -11 66 -21 72 -17 11 -73 13 -83 3z
m73 -86 c0 -28 -17 -47 -42 -47 -24 0 -24 45 0 59 28 17 42 13 42 -12z"/>
<path d="M2680 381 c0 -5 7 -11 15 -15 23 -8 21 -102 -2 -115 -14 -8 -8 -10
27 -10 35 0 41 2 28 10 -26 15 -25 90 2 114 33 30 50 13 50 -49 0 -42 -4 -57
-17 -65 -14 -8 -9 -10 27 -11 34 0 41 3 32 12 -7 7 -12 29 -12 49 0 61 -15 89
-48 89 -15 0 -33 -5 -40 -12 -9 -9 -12 -9 -12 0 0 7 -11 12 -25 12 -14 0 -25
-4 -25 -9z"/>
<path d="M3300 380 c0 -5 5 -10 10 -10 14 0 12 -104 -2 -118 -9 -9 -2 -12 32
-12 37 1 42 3 27 11 -15 9 -18 22 -17 62 2 29 2 58 1 65 -1 14 -51 17 -51 2z"/>
<path d="M3360 379 c0 -5 4 -8 9 -5 5 3 12 -1 15 -10 7 -18 26 -10 26 12 0 8
-10 14 -25 14 -14 0 -25 -5 -25 -11z"/>
<path d="M3457 383 c-13 -13 -7 -43 9 -43 11 0 15 6 11 20 -4 16 0 20 18 20
20 0 35 -17 35 -40 0 -4 -15 -11 -34 -14 -41 -8 -59 -27 -54 -58 2 -18 10 -24
36 -26 18 -2 40 2 48 9 11 9 14 9 14 0 0 -7 10 -11 23 -9 15 2 23 11 24 28 l3
25 -12 -25 c-11 -23 -12 -20 -17 38 -4 40 -11 66 -21 72 -17 11 -73 13 -83 3z
m73 -86 c0 -28 -17 -47 -42 -47 -24 0 -24 45 0 59 28 17 42 13 42 -12z"/>
<path d="M3613 372 c24 -26 23 -107 0 -121 -15 -8 -10 -10 22 -11 30 0 36 3
27 12 -7 7 -12 39 -12 75 0 62 -1 63 -27 63 -25 0 -25 -1 -10 -18z"/>
<path d="M3703 376 c12 -10 17 -27 17 -64 0 -38 -4 -54 -17 -61 -14 -8 -9 -10
26 -11 40 0 43 1 26 13 -36 27 -1 139 39 124 20 -8 23 -106 4 -125 -9 -9 -3
-12 27 -12 30 0 36 3 27 12 -7 7 -12 32 -12 56 0 24 -5 52 -10 63 -12 22 -59
26 -78 7 -9 -9 -12 -9 -12 0 0 7 -12 12 -27 12 -25 -1 -26 -2 -10 -14z"/>
<path d="M3893 372 c24 -26 23 -107 0 -121 -15 -8 -10 -10 22 -11 30 0 36 3
27 12 -7 7 -12 39 -12 75 0 62 -1 63 -27 63 -25 0 -25 -1 -10 -18z"/>
<path d="M3983 376 c12 -10 17 -27 17 -64 0 -38 -4 -54 -17 -61 -14 -8 -9 -10
27 -11 34 0 41 3 32 12 -16 16 -16 100 0 116 7 7 20 12 30 12 15 0 18 -9 18
-58 0 -32 -5 -63 -12 -70 -9 -9 -2 -12 32 -12 37 0 41 2 27 13 -11 8 -17 30
-19 66 -4 65 -21 82 -68 64 -16 -6 -30 -7 -30 -2 0 5 -12 9 -27 9 -25 -1 -26
-2 -10 -14z"/>
<path d="M4553 376 c12 -10 17 -27 17 -64 0 -38 -4 -54 -17 -61 -14 -8 -7 -10
32 -11 49 0 49 0 26 16 -20 14 -22 22 -17 57 9 54 24 73 41 51 8 -12 14 -14
19 -6 17 28 -28 44 -52 20 -9 -9 -12 -9 -12 0 0 7 -12 12 -27 12 -25 -1 -26
-2 -10 -14z"/>
<path d="M4700 370 c-12 -12 -20 -33 -20 -55 0 -45 29 -75 73 -75 39 0 64 23
73 66 13 67 -77 113 -126 64z m89 -22 c27 -48 -16 -117 -56 -92 -22 13 -30 89
-12 110 18 22 51 13 68 -18z"/>
<path d="M4850 380 c0 -5 5 -10 10 -10 14 0 12 -104 -2 -118 -9 -9 -3 -12 27
-12 30 0 36 3 27 12 -15 15 -16 82 -2 109 15 26 46 24 54 -3 12 -46 7 -97 -11
-107 -14 -8 -8 -10 27 -10 35 0 41 2 28 10 -41 23 -7 142 35 126 25 -9 24
-112 0 -126 -14 -8 -9 -10 27 -11 34 0 41 3 32 12 -7 7 -12 32 -12 56 0 58
-14 82 -48 82 -16 0 -33 -5 -39 -11 -8 -8 -13 -8 -17 0 -9 15 -59 14 -74 -1
-9 -9 -12 -9 -12 0 0 7 -11 12 -25 12 -14 0 -25 -4 -25 -10z"/>
<path d="M5252 378 c-25 -25 -13 -48 34 -68 52 -23 58 -53 11 -58 -21 -3 -29
2 -37 22 -12 34 -20 33 -20 -2 0 -27 3 -29 41 -30 48 -2 69 11 69 43 0 26 -13
38 -55 52 -38 12 -39 37 -2 41 21 3 29 -2 36 -20 10 -23 10 -22 10 5 1 25 -2
27 -37 27 -21 0 -43 -5 -50 -12z"/>
<path d="M5397 372 c-47 -51 -18 -132 47 -132 35 0 56 15 56 39 0 11 -5 9 -16
-7 -31 -44 -76 -19 -76 43 0 41 16 65 43 65 12 0 19 -7 19 -20 0 -11 7 -20 15
-20 18 0 20 21 3 38 -18 18 -73 14 -91 -6z"/>
<path d="M5533 376 c12 -10 17 -27 17 -64 0 -38 -4 -54 -17 -61 -14 -8 -9 -10
26 -11 40 0 43 1 26 13 -14 11 -17 23 -13 61 7 59 22 78 41 51 10 -12 16 -14
21 -7 17 28 -28 44 -52 20 -9 -9 -12 -9 -12 0 0 7 -12 12 -27 12 -25 -1 -26
-2 -10 -14z"/>
<path d="M5677 383 c-13 -13 -7 -43 9 -43 12 0 15 6 11 21 -5 17 -1 20 21 17
19 -2 28 -10 30 -24 2 -17 -4 -23 -29 -28 -18 -3 -38 -11 -46 -17 -18 -16 -16
-56 3 -63 25 -9 62 -7 69 4 5 8 11 7 21 -1 20 -16 44 -3 43 23 -1 17 -2 18 -6
6 -10 -37 -23 -16 -23 37 0 43 -4 56 -19 65 -22 11 -74 14 -84 3z m71 -95 c-2
-28 -7 -33 -28 -33 -30 0 -38 26 -15 49 28 27 47 20 43 -16z"/>
<path d="M5976 368 c-24 -34 -21 -93 6 -112 27 -19 69 -21 86 -4 19 19 14 33
-6 15 -39 -36 -72 -10 -72 55 0 39 15 58 46 58 17 0 21 -4 17 -20 -4 -14 0
-20 12 -20 11 0 15 7 13 23 -2 18 -10 23 -45 25 -33 2 -44 -1 -57 -20z"/>
<path d="M6415 370 c-11 -12 -19 -36 -19 -55 0 -45 28 -75 71 -75 63 0 96 73
57 128 -20 30 -83 31 -109 2z m84 -4 c18 -21 10 -97 -11 -110 -25 -15 -50 3
-62 42 -16 56 40 108 73 68z"/>
<path d="M6573 376 c12 -10 17 -27 17 -64 0 -38 -4 -54 -17 -61 -14 -8 -9 -10
26 -11 40 0 43 1 26 13 -36 27 -1 139 39 124 20 -8 23 -106 4 -125 -9 -9 -3
-12 27 -12 30 0 36 3 27 12 -7 7 -12 32 -12 56 0 24 -5 52 -10 63 -12 22 -59
26 -78 7 -9 -9 -12 -9 -12 0 0 7 -12 12 -27 12 -25 -1 -26 -2 -10 -14z"/>
<path d="M7214 382 c-16 -10 -34 -48 -34 -70 0 -11 9 -31 21 -46 33 -41 109
-32 109 13 0 11 -5 9 -16 -7 -8 -12 -24 -22 -34 -22 -20 0 -50 35 -50 57 0 9
16 13 50 13 53 0 61 10 40 51 -11 19 -63 27 -86 11z m66 -23 c15 -27 10 -31
-33 -27 -31 3 -34 5 -26 26 11 28 45 29 59 1z"/>
<path d="M7450 380 c0 -5 5 -10 10 -10 6 0 10 -25 10 -55 0 -41 -4 -56 -17
-64 -14 -8 -9 -10 27 -11 34 0 41 3 32 12 -7 7 -12 39 -12 75 0 61 -1 63 -25
63 -14 0 -25 -4 -25 -10z"/>
<path d="M7540 380 c0 -5 5 -10 10 -10 14 0 12 -104 -2 -118 -9 -9 -3 -12 27
-12 30 0 36 3 27 12 -15 15 -16 82 -2 109 15 26 46 24 54 -3 12 -46 7 -97 -11
-107 -14 -8 -8 -10 27 -10 35 0 41 2 28 10 -41 23 -7 142 35 126 25 -9 24
-112 0 -126 -14 -8 -9 -10 27 -11 34 0 41 3 32 12 -7 7 -12 32 -12 56 0 58
-14 82 -48 82 -16 0 -33 -5 -39 -11 -8 -8 -13 -8 -17 0 -9 15 -59 14 -74 -1
-9 -9 -12 -9 -12 0 0 7 -11 12 -25 12 -14 0 -25 -4 -25 -10z"/>
<path d="M8022 378 c-17 -17 -15 -38 3 -38 8 0 15 9 15 20 0 27 36 27 50 0 9
-17 8 -21 -7 -26 -76 -24 -98 -49 -73 -79 14 -17 66 -20 75 -5 4 6 13 5 26 -3
17 -10 22 -9 35 7 16 23 18 36 4 36 -5 0 -10 -9 -10 -21 0 -11 -4 -17 -10 -14
-5 3 -10 30 -10 59 0 60 -12 76 -55 76 -17 0 -36 -5 -43 -12z m78 -67 c0 -29
-21 -61 -40 -61 -31 0 -37 30 -11 52 25 19 51 24 51 9z"/>
<path d="M8280 375 c-9 -11 -10 -19 -2 -27 14 -14 33 -1 25 17 -6 18 27 21 45
3 21 -21 13 -36 -22 -42 -44 -8 -74 -41 -59 -64 8 -13 26 -17 74 -18 64 -2 79
6 78 36 0 8 -5 4 -10 -10 -14 -35 -29 -9 -29 51 0 25 -5 50 -12 57 -17 17 -73
15 -88 -3z m80 -78 c0 -28 -17 -47 -42 -47 -30 0 -34 31 -9 52 31 25 51 23 51
-5z"/>
<path d="M8430 380 c0 -5 5 -10 10 -10 14 0 12 -104 -2 -118 -9 -9 -3 -12 27
-12 30 0 36 3 27 12 -15 15 -16 82 -2 109 15 26 46 24 54 -3 12 -46 7 -97 -11
-107 -14 -8 -9 -10 26 -11 38 0 42 2 28 13 -11 8 -17 30 -19 72 -3 58 -4 60
-31 63 -16 2 -35 -2 -43 -9 -10 -8 -14 -8 -14 0 0 6 -11 11 -25 11 -14 0 -25
-4 -25 -10z"/>
<path d="M8636 368 c-24 -34 -21 -93 6 -112 27 -19 69 -21 86 -4 19 19 14 33
-6 15 -39 -36 -72 -10 -72 55 0 39 15 58 46 58 17 0 21 -4 17 -20 -4 -14 0
-20 12 -20 11 0 15 7 13 23 -2 18 -10 23 -45 25 -33 2 -44 -1 -57 -20z"/>
<path d="M8785 370 c-27 -30 -25 -88 4 -111 26 -22 71 -25 89 -7 20 20 13 32
-7 14 -25 -23 -52 -17 -68 14 -17 34 -9 40 48 40 48 0 50 1 43 23 -3 12 -11
28 -16 35 -16 19 -73 15 -93 -8z m73 -2 c23 -23 13 -38 -23 -38 -35 0 -40 5
-29 34 7 19 35 21 52 4z"/>
<path d="M11402 378 c-17 -17 -15 -38 3 -38 8 0 15 9 15 20 0 27 36 27 50 0 9
-17 8 -21 -7 -26 -76 -24 -98 -49 -73 -79 14 -17 66 -20 75 -5 4 6 13 5 26 -3
17 -10 22 -9 35 7 16 23 18 36 4 36 -5 0 -10 -9 -10 -21 0 -11 -4 -17 -10 -14
-5 3 -10 30 -10 59 0 60 -12 76 -55 76 -17 0 -36 -5 -43 -12z m78 -67 c0 -29
-21 -61 -40 -61 -31 0 -37 30 -11 52 25 19 51 24 51 9z"/>
<path d="M11702 378 c-17 -17 -15 -38 3 -38 8 0 15 9 15 20 0 27 36 27 50 0 9
-17 8 -21 -7 -26 -76 -24 -98 -49 -73 -79 14 -17 66 -20 75 -5 4 6 13 5 26 -3
17 -10 22 -9 35 7 16 23 18 36 4 36 -5 0 -10 -9 -10 -21 0 -11 -4 -17 -10 -14
-5 3 -10 30 -10 59 0 60 -12 76 -55 76 -17 0 -36 -5 -43 -12z m78 -67 c0 -29
-21 -61 -40 -61 -31 0 -37 30 -11 52 25 19 51 24 51 9z"/>
<path d="M11863 383 c-7 -2 -13 -15 -13 -28 0 -26 10 -35 55 -50 40 -13 42
-49 3 -53 -21 -3 -30 3 -42 25 l-15 28 -1 -31 c0 -28 2 -30 41 -33 47 -2 69
12 69 44 0 26 -13 38 -55 52 -42 14 -46 43 -5 43 22 0 33 -6 40 -22 8 -22 9
-22 9 5 1 25 -2 27 -36 26 -21 0 -44 -3 -50 -6z"/>
<path d="M12000 370 c-44 -44 -9 -130 52 -130 28 0 58 23 57 43 0 7 -7 2 -16
-10 -19 -28 -44 -29 -66 -5 -32 36 -22 52 33 52 43 0 50 3 50 19 0 48 -72 69
-110 31z m81 -17 c8 -21 6 -23 -31 -23 -44 0 -45 2 -29 31 14 26 49 21 60 -8z"/>
<path d="M12287 273 c-4 -3 -7 -12 -7 -20 0 -17 26 -17 33 1 8 21 -11 35 -26
19z"/>
</g>
</svg>
