<?xml version="1.0" standalone="no"?>
<!DOCTYPE svg PUBLIC "-//W3C//DTD SVG 20010904//EN"
 "http://www.w3.org/TR/2001/REC-SVG-20010904/DTD/svg10.dtd">
<svg version="1.0" xmlns="http://www.w3.org/2000/svg"
 width="1372.000000pt" height="314.000000pt" viewBox="0 0 1372.000000 314.000000"
 preserveAspectRatio="xMidYMid meet">

<g transform="translate(0.000000,314.000000) scale(0.100000,-0.100000)"
fill="#000000" stroke="none">
<path d="M190 2955 c0 -13 748 -15 6681 -15 5340 0 6680 3 6677 13 -4 9 -1351
13 -6681 15 -5931 2 -6677 0 -6677 -13z"/>
<path d="M454 2784 c-62 -30 -75 -125 -25 -175 25 -24 38 -29 78 -29 58 0 90
19 109 67 42 99 -62 187 -162 137z m98 -21 c22 -26 28 -62 18 -107 -10 -43
-16 -51 -47 -60 -17 -5 -29 -1 -48 18 -20 20 -25 35 -25 77 0 61 19 89 60 89
15 0 34 -8 42 -17z"/>
<path d="M1120 2790 c0 -5 7 -10 15 -10 12 0 15 -17 15 -90 0 -73 -3 -90 -15
-90 -8 0 -15 -4 -15 -10 0 -5 18 -10 40 -10 22 0 40 5 40 10 0 6 -7 10 -15 10
-12 0 -15 16 -15 83 l1 82 44 -92 c24 -51 46 -93 50 -93 3 0 26 42 50 93 l44
92 0 -82 c1 -67 -2 -83 -14 -83 -8 0 -15 -4 -15 -10 0 -5 23 -10 50 -10 28 0
50 5 50 10 0 6 -7 10 -15 10 -12 0 -15 17 -15 90 0 73 3 90 15 90 8 0 15 5 15
11 0 6 -16 9 -37 7 -37 -3 -39 -6 -78 -86 l-40 -83 -34 78 c-19 43 -40 81 -45
85 -16 11 -76 9 -76 -2z"/>
<path d="M1745 2790 c-3 -5 -1 -10 4 -10 6 0 11 -13 11 -30 0 -27 -3 -30 -33
-30 -51 0 -77 -24 -77 -70 0 -30 5 -43 23 -54 25 -16 147 -21 147 -5 0 5 -4 9
-10 9 -6 0 -10 40 -10 100 0 99 0 100 -24 100 -14 0 -28 -4 -31 -10z m-1 -86
c21 -8 22 -87 2 -103 -26 -22 -56 4 -56 47 0 51 18 70 54 56z"/>
<path d="M2010 2791 c0 -6 5 -11 10 -11 6 0 10 -37 10 -90 0 -53 -4 -90 -10
-90 -5 0 -10 -4 -10 -10 0 -5 18 -10 40 -10 22 0 40 5 40 10 0 6 -4 10 -10 10
-5 0 -11 44 -12 98 l-3 97 -27 3 c-16 2 -28 -1 -28 -7z"/>
<path d="M2640 2791 c0 -6 7 -11 15 -11 12 0 15 -17 15 -90 0 -73 -3 -90 -15
-90 -8 0 -15 -4 -15 -10 0 -5 25 -10 55 -10 30 0 55 5 55 10 0 6 -7 10 -15 10
-10 0 -15 10 -15 34 0 32 2 34 47 40 76 10 103 49 65 96 -15 19 -31 23 -105
27 -62 4 -87 2 -87 -6z m148 -23 c7 -7 12 -21 12 -33 0 -30 -19 -45 -57 -45
-32 0 -33 2 -33 38 0 21 3 42 7 45 11 11 58 8 71 -5z"/>
<path d="M4353 2788 c-2 -5 5 -8 16 -8 20 0 21 -6 21 -89 0 -83 -1 -89 -22
-97 -16 -5 5 -9 66 -11 49 -2 93 0 98 5 5 5 8 27 6 48 -3 32 -5 35 -12 19 -16
-36 -39 -55 -68 -55 l-28 0 0 90 0 90 27 0 c14 0 23 3 19 7 -9 9 -117 10 -123
1z"/>
<path d="M4634 2784 c-62 -30 -75 -125 -25 -175 25 -24 38 -29 78 -29 58 0 90
19 109 67 42 99 -62 187 -162 137z m98 -21 c22 -26 28 -62 18 -107 -10 -43
-16 -51 -47 -60 -17 -5 -29 -1 -48 18 -20 20 -25 35 -25 77 0 61 19 89 60 89
15 0 34 -8 42 -17z"/>
<path d="M4840 2791 c0 -6 7 -11 15 -11 12 0 15 -17 15 -90 0 -73 -3 -90 -15
-90 -8 0 -15 -4 -15 -10 0 -5 25 -10 55 -10 30 0 55 5 55 10 0 6 -7 10 -15 10
-10 0 -15 10 -15 34 0 32 2 34 47 40 76 10 103 49 65 96 -15 19 -31 23 -105
27 -62 4 -87 2 -87 -6z m148 -23 c7 -7 12 -21 12 -33 0 -30 -19 -45 -57 -45
-32 0 -33 2 -33 38 0 21 3 42 7 45 11 11 58 8 71 -5z"/>
<path d="M5964 2704 c-25 -61 -45 -98 -56 -101 -32 -9 -19 -23 22 -23 22 0 40
5 40 10 0 6 -7 10 -15 10 -13 0 -14 4 -5 20 14 27 85 29 95 3 3 -10 1 -19 -4
-21 -28 -9 -6 -22 39 -22 28 0 50 5 50 10 0 6 -6 10 -13 10 -7 0 -31 44 -53
97 -22 53 -44 98 -50 100 -6 2 -29 -40 -50 -93z m54 -14 c11 -29 10 -30 -19
-30 -16 0 -29 2 -29 4 0 1 5 17 11 34 13 37 23 34 37 -8z"/>
<path d="M6150 2788 c0 -5 7 -8 15 -8 12 0 15 -15 15 -75 0 -67 3 -79 25 -100
31 -32 101 -35 136 -6 21 17 24 30 27 100 3 61 8 81 18 81 8 0 14 4 14 8 0 5
-19 7 -42 6 -56 -4 -57 -4 -30 -14 20 -8 22 -16 22 -72 0 -79 -17 -108 -64
-108 -48 0 -56 14 -56 102 0 63 3 78 15 78 8 0 15 3 15 8 0 4 -25 7 -55 7 -30
0 -55 -3 -55 -7z"/>
<path d="M6494 2786 c-42 -19 -64 -52 -64 -99 0 -31 7 -46 34 -73 29 -29 41
-34 83 -34 30 0 56 7 69 18 25 19 41 62 25 62 -6 0 -11 -6 -11 -13 0 -45 -93
-64 -130 -27 -30 30 -28 103 5 136 36 36 83 30 110 -13 11 -18 23 -32 28 -33
4 0 7 20 7 45 0 45 -7 54 -27 34 -8 -8 -17 -8 -31 0 -27 14 -60 13 -98 -3z"/>
<path d="M7125 2703 c-26 -62 -46 -98 -57 -101 -33 -8 -19 -22 22 -22 37 0 55
13 28 22 -6 2 -9 12 -5 21 5 12 18 17 47 17 29 0 42 -5 47 -17 4 -9 1 -19 -5
-21 -30 -10 -7 -22 43 -22 30 0 55 5 55 10 0 6 -8 10 -18 10 -12 0 -27 26 -56
100 -21 55 -44 100 -51 100 -6 0 -29 -43 -50 -97z m61 -40 c-2 -3 -15 -3 -29
-1 -25 3 -25 4 -11 38 l15 35 15 -34 c8 -19 12 -36 10 -38z"/>
<path d="M8880 2791 c0 -6 7 -11 15 -11 12 0 15 -17 15 -90 0 -73 -3 -90 -15
-90 -8 0 -15 -4 -15 -10 0 -5 25 -10 55 -10 30 0 55 5 55 10 0 6 -7 10 -15 10
-10 0 -15 10 -15 34 0 32 2 34 47 40 76 10 103 49 65 96 -15 19 -31 23 -105
27 -62 4 -87 2 -87 -6z m148 -23 c7 -7 12 -21 12 -33 0 -30 -19 -45 -57 -45
-32 0 -33 2 -33 38 0 21 3 42 7 45 11 11 58 8 71 -5z"/>
<path d="M9604 2785 c-4 -9 -2 -21 4 -27 15 -15 44 -1 40 19 -4 23 -36 29 -44
8z"/>
<path d="M9844 2785 c-4 -9 -2 -21 4 -27 15 -15 44 -1 40 19 -4 23 -36 29 -44
8z"/>
<path d="M10676 2791 c-5 -7 1 -11 13 -11 20 0 21 -6 21 -90 0 -72 -3 -90 -14
-90 -8 0 -18 -4 -21 -10 -4 -6 15 -10 49 -10 31 0 56 5 56 10 0 6 -7 10 -15
10 -11 0 -15 11 -15 40 0 33 3 40 19 40 35 0 51 -12 51 -37 0 -45 17 -63 61
-63 26 0 42 5 46 15 8 23 -7 33 -19 12 -13 -24 -38 -5 -38 29 0 13 -6 29 -13
35 -10 10 -9 17 9 35 26 25 22 59 -9 75 -29 16 -173 24 -181 10z m148 -27 c19
-18 19 -20 6 -45 -8 -13 -21 -19 -45 -19 -34 0 -35 1 -35 40 0 38 2 40 29 40
16 0 37 -7 45 -16z"/>
<path d="M11440 2791 c0 -6 5 -11 10 -11 6 0 10 -37 10 -90 0 -53 -4 -90 -10
-90 -5 0 -10 -4 -10 -10 0 -5 18 -10 40 -10 22 0 40 5 40 10 0 6 -4 10 -10 10
-5 0 -11 44 -12 98 l-3 97 -27 3 c-16 2 -28 -1 -28 -7z"/>
<path d="M11540 2791 c0 -6 5 -11 10 -11 6 0 10 -37 10 -90 0 -53 -4 -90 -10
-90 -5 0 -10 -4 -10 -10 0 -5 18 -10 40 -10 22 0 40 5 40 10 0 6 -4 10 -10 10
-5 0 -11 44 -12 98 l-3 97 -27 3 c-16 2 -28 -1 -28 -7z"/>
<path d="M12554 2775 c-18 -19 -23 -31 -19 -48 10 -33 26 -46 75 -60 38 -11
45 -17 45 -37 0 -21 -5 -25 -36 -28 -29 -2 -41 2 -57 22 -26 34 -32 33 -32 -6
l0 -33 62 -3 c72 -3 98 14 98 63 0 38 -20 57 -77 74 -32 9 -43 17 -43 32 0 41
74 36 90 -6 13 -35 20 -31 20 13 l0 37 -51 2 c-42 3 -54 -1 -75 -22z"/>
<path d="M4143 2783 c15 -4 17 -17 17 -94 0 -72 -3 -89 -15 -89 -8 0 -15 -4
-15 -10 0 -6 27 -10 60 -10 33 0 60 4 60 10 0 6 -9 10 -20 10 -17 0 -20 7 -20
40 0 46 19 54 44 18 15 -22 16 -21 16 27 -1 44 -2 48 -14 33 -24 -33 -46 -22
-46 22 0 37 2 40 28 40 32 0 72 -25 72 -46 0 -8 5 -14 10 -14 11 0 12 15 4 48
-6 21 -11 22 -103 21 -53 -1 -88 -3 -78 -6z"/>
<path d="M12023 2783 c15 -4 17 -17 17 -94 0 -72 -3 -89 -15 -89 -8 0 -15 -4
-15 -10 0 -6 27 -10 60 -10 33 0 60 4 60 10 0 6 -9 10 -20 10 -17 0 -20 7 -20
40 0 30 4 40 16 40 9 0 18 -9 21 -20 9 -36 23 -21 23 25 0 44 -12 60 -24 30
-3 -8 -12 -15 -21 -15 -11 0 -15 11 -15 40 0 33 3 40 19 40 33 0 71 -19 71
-34 0 -8 5 -18 10 -21 6 -4 10 8 10 29 l0 36 -97 -1 c-54 -1 -90 -3 -80 -6z"/>
<path d="M12295 2776 c-57 -17 -61 -20 -32 -24 27 -3 27 -4 27 -78 0 -67 -2
-74 -20 -74 -11 0 -20 -4 -20 -10 0 -6 27 -10 60 -10 33 0 60 4 60 10 0 6 -9
10 -20 10 -18 0 -20 8 -22 93 l-3 93 -30 -10z"/>
<path d="M660 2710 c0 -5 5 -10 10 -10 6 0 10 -22 10 -49 0 -27 6 -53 13 -59
15 -12 147 -14 147 -1 0 5 -4 9 -10 9 -6 0 -10 27 -10 60 l0 60 -30 0 c-16 0
-30 -4 -30 -10 0 -5 5 -10 10 -10 17 0 12 -77 -6 -95 -27 -27 -39 -12 -42 53
-3 61 -3 62 -32 62 -17 0 -30 -4 -30 -10z"/>
<path d="M850 2710 c0 -6 5 -10 10 -10 6 0 10 -22 10 -50 0 -27 -4 -50 -10
-50 -5 0 -10 -4 -10 -10 0 -5 20 -10 45 -10 25 0 45 5 45 10 0 6 -7 10 -15 10
-11 0 -15 11 -15 38 0 40 18 76 27 55 8 -21 45 -16 41 5 -3 14 -15 17 -66 19
-36 2 -62 -1 -62 -7z"/>
<path d="M1482 2704 c-31 -21 -31 -87 0 -108 30 -21 81 -20 109 2 28 23 30 73
4 102 -22 24 -81 27 -113 4z m76 -3 c9 -5 12 -24 10 -52 -3 -42 -5 -44 -33
-44 -28 0 -30 3 -33 38 -5 54 21 81 56 58z"/>
<path d="M1860 2698 c-27 -29 -25 -64 5 -93 31 -31 84 -34 110 -5 10 11 13 20
7 20 -6 0 -13 -4 -16 -9 -12 -19 -48 -19 -67 0 -28 28 -16 39 42 39 53 0 60
10 33 48 -21 31 -85 31 -114 0z m78 0 c21 -21 13 -38 -18 -38 -23 0 -30 5 -30
19 0 17 11 27 31 30 3 1 10 -4 17 -11z"/>
<path d="M2883 2704 c-7 -18 11 -39 26 -30 6 4 11 14 11 22 0 18 24 18 40 -1
16 -19 4 -35 -26 -35 -53 0 -84 -41 -51 -68 15 -13 147 -13 147 -1 0 5 -4 9
-10 9 -5 0 -10 17 -10 38 0 58 -22 82 -76 82 -31 0 -46 -5 -51 -16z m87 -72
c0 -21 -18 -42 -37 -42 -20 0 -27 28 -13 45 18 21 50 19 50 -3z"/>
<path d="M3040 2710 c0 -6 5 -10 10 -10 6 0 10 -22 10 -50 0 -27 -4 -50 -10
-50 -5 0 -10 -4 -10 -10 0 -5 20 -10 45 -10 25 0 45 5 45 10 0 6 -7 10 -15 10
-11 0 -15 11 -15 38 0 40 18 76 27 55 8 -21 45 -16 41 5 -3 14 -15 17 -66 19
-36 2 -62 -1 -62 -7z"/>
<path d="M3203 2704 c-7 -18 11 -39 26 -30 6 4 11 14 11 22 0 18 24 18 40 -1
16 -19 4 -35 -26 -35 -53 0 -84 -41 -51 -68 15 -13 147 -13 147 -1 0 5 -4 9
-10 9 -5 0 -10 17 -10 38 0 58 -22 82 -76 82 -31 0 -46 -5 -51 -16z m87 -72
c0 -21 -18 -42 -37 -42 -20 0 -27 28 -13 45 18 21 50 19 50 -3z"/>
<path d="M3370 2710 c0 -5 5 -10 10 -10 6 0 10 -22 10 -50 0 -27 -4 -50 -10
-50 -5 0 -10 -4 -10 -10 0 -5 19 -10 43 -10 39 1 40 2 23 15 -32 24 -5 115 35
115 4 0 9 -10 13 -22 11 -42 6 -81 -11 -94 -16 -12 -13 -13 25 -14 23 0 42 5
42 10 0 6 -4 10 -10 10 -16 0 -12 63 6 88 28 40 44 28 44 -33 0 -30 -4 -55
-10 -55 -5 0 -10 -4 -10 -10 0 -5 18 -10 40 -10 22 0 40 5 40 10 0 6 -4 10
-10 10 -5 0 -10 26 -12 58 -3 57 -3 57 -36 60 -18 2 -39 -2 -47 -8 -9 -8 -15
-8 -20 0 -9 14 -68 13 -83 -2 -9 -9 -12 -9 -12 0 0 7 -11 12 -25 12 -14 0 -25
-4 -25 -10z"/>
<path d="M5090 2705 c-21 -25 -7 -49 38 -64 30 -9 42 -18 40 -29 -5 -25 -34
-26 -57 -3 -27 27 -31 26 -31 -2 0 -22 5 -24 49 -26 56 -2 77 15 67 54 -5 18
-16 27 -46 35 -24 6 -40 17 -40 25 0 20 49 20 56 0 9 -22 24 -18 24 5 0 17 -7
20 -44 20 -26 0 -48 -6 -56 -15z"/>
<path d="M5590 2710 c0 -5 5 -10 10 -10 6 0 10 -22 10 -50 0 -27 -4 -50 -10
-50 -5 0 -10 -4 -10 -10 0 -5 18 -10 40 -10 22 0 40 5 40 10 0 6 -4 10 -10 10
-5 0 -10 15 -10 34 0 38 30 83 48 72 15 -9 16 -106 2 -106 -5 0 -10 -4 -10
-10 0 -5 18 -10 40 -10 22 0 40 5 40 10 0 6 -4 10 -10 10 -5 0 -10 17 -10 38
0 41 29 80 49 67 14 -8 14 -105 1 -105 -5 0 -10 -4 -10 -10 0 -5 18 -10 40
-10 22 0 40 5 40 10 0 6 -4 10 -10 10 -5 0 -10 22 -10 48 0 26 -5 53 -12 60
-15 15 -61 15 -76 0 -9 -9 -15 -9 -24 0 -15 15 -61 15 -76 0 -9 -9 -12 -9 -12
0 0 7 -13 12 -30 12 -16 0 -30 -4 -30 -10z"/>
<path d="M7340 2700 c-27 -27 -26 -71 3 -98 28 -26 79 -29 102 -6 23 23 11 29
-18 9 -24 -16 -27 -15 -46 4 -22 22 -24 32 -15 68 8 31 34 37 51 13 12 -17 18
-19 29 -9 22 18 -2 39 -47 39 -26 0 -46 -7 -59 -20z"/>
<path d="M7501 2701 c-46 -46 -13 -121 52 -121 21 0 41 8 52 20 22 24 17 25
-21 5 -25 -13 -30 -13 -46 2 -22 20 -23 66 -2 87 21 21 31 20 37 -5 7 -26 32
-20 32 7 0 29 -76 33 -104 5z"/>
<path d="M7640 2710 c0 -5 5 -10 10 -10 6 0 10 -22 10 -49 0 -27 6 -53 13 -59
15 -12 147 -14 147 -1 0 5 -4 9 -10 9 -6 0 -10 27 -10 60 l0 60 -30 0 c-16 0
-30 -4 -30 -10 0 -5 5 -10 10 -10 17 0 12 -77 -6 -95 -27 -27 -39 -12 -42 53
-3 61 -3 62 -32 62 -17 0 -30 -4 -30 -10z"/>
<path d="M7830 2710 c0 -6 5 -10 10 -10 6 0 10 -22 10 -50 0 -27 -4 -50 -10
-50 -5 0 -10 -4 -10 -10 0 -5 20 -10 45 -10 25 0 45 5 45 10 0 6 -7 10 -15 10
-11 0 -15 11 -15 38 0 40 18 76 27 55 8 -21 45 -16 41 5 -3 14 -15 17 -66 19
-36 2 -62 -1 -62 -7z"/>
<path d="M7993 2704 c-7 -18 11 -39 26 -30 6 4 11 14 11 22 0 18 24 18 40 -1
16 -19 4 -35 -26 -35 -53 0 -84 -41 -51 -68 15 -13 147 -13 147 -1 0 5 -4 9
-10 9 -5 0 -10 17 -10 38 0 58 -22 82 -76 82 -31 0 -46 -5 -51 -16z m87 -72
c0 -21 -18 -42 -37 -42 -20 0 -27 28 -13 45 18 21 50 19 50 -3z"/>
<path d="M8171 2694 c-27 -35 -27 -59 4 -89 27 -28 71 -33 101 -11 26 20 11
32 -17 12 -33 -23 -59 -5 -59 42 0 56 41 87 53 41 7 -26 32 -20 32 7 0 16 -8
20 -46 22 -41 3 -50 -1 -68 -24z"/>
<path d="M8310 2710 c0 -5 4 -10 10 -10 12 0 60 -93 60 -117 0 -10 -5 -25 -10
-33 -8 -13 -11 -12 -24 5 -11 15 -17 17 -27 8 -20 -20 -3 -45 28 -41 24 3 34
16 70 83 22 44 46 85 52 92 17 18 14 23 -15 23 -17 0 -24 -4 -21 -13 3 -7 -2
-29 -10 -48 l-15 -34 -18 35 c-13 25 -15 39 -8 48 8 9 1 12 -31 12 -22 0 -41
-4 -41 -10z"/>
<path d="M9120 2710 c0 -5 5 -10 10 -10 6 0 10 -22 10 -50 0 -27 -4 -50 -10
-50 -5 0 -10 -4 -10 -10 0 -5 18 -10 40 -10 22 0 40 5 40 10 0 6 -4 10 -10 10
-13 0 -13 70 0 90 8 13 11 13 19 1 11 -17 45 -7 39 12 -6 17 -46 21 -64 7 -10
-9 -14 -9 -14 -1 0 6 -11 11 -25 11 -14 0 -25 -4 -25 -10z"/>
<path d="M9285 2700 c-26 -29 -24 -79 4 -102 29 -22 84 -24 106 -2 22 23 13
27 -20 10 -34 -18 -65 -6 -65 24 0 17 7 20 50 20 54 0 61 10 34 48 -20 29 -83
31 -109 2z m79 -6 c25 -24 19 -34 -19 -34 -36 0 -46 15 -23 38 16 16 23 15 42
-4z"/>
<path d="M9450 2700 c-27 -27 -26 -71 3 -98 28 -26 79 -29 102 -6 23 23 11 29
-18 9 -24 -16 -27 -15 -46 4 -22 22 -24 32 -15 68 8 31 34 37 51 13 12 -17 18
-19 29 -9 22 18 -2 39 -47 39 -26 0 -46 -7 -59 -20z"/>
<path d="M9590 2710 c0 -5 5 -10 10 -10 6 0 10 -22 10 -50 0 -27 -4 -50 -10
-50 -5 0 -10 -4 -10 -10 0 -5 18 -10 40 -10 22 0 40 5 40 10 0 6 -4 10 -10 10
-6 0 -10 27 -10 60 l0 60 -30 0 c-16 0 -30 -4 -30 -10z"/>
<path d="M9702 2711 c-8 -4 -12 -19 -10 -32 2 -18 13 -27 46 -37 43 -14 55
-35 26 -46 -17 -7 -54 10 -54 24 0 6 -4 10 -10 10 -5 0 -10 -11 -10 -23 0 -21
5 -24 44 -25 94 -4 102 64 12 93 -38 12 -40 29 -3 33 18 2 29 -2 33 -12 9 -23
24 -20 24 4 0 17 -7 20 -42 20 -24 0 -49 -4 -56 -9z"/>
<path d="M9830 2710 c0 -5 5 -10 10 -10 6 0 10 -22 10 -50 0 -27 -4 -50 -10
-50 -5 0 -10 -4 -10 -10 0 -5 18 -10 40 -10 22 0 40 5 40 10 0 6 -4 10 -10 10
-6 0 -10 27 -10 60 l0 60 -30 0 c-16 0 -30 -4 -30 -10z"/>
<path d="M9945 2700 c-26 -29 -24 -79 4 -102 28 -22 79 -23 109 -2 28 20 31
83 4 107 -27 24 -94 22 -117 -3z m84 -4 c7 -8 11 -32 9 -53 -3 -35 -5 -38 -33
-38 -28 0 -30 3 -33 38 -3 39 10 67 33 67 7 0 18 -6 24 -14z"/>
<path d="M10110 2710 c0 -5 5 -10 10 -10 6 0 10 -22 10 -50 0 -27 -4 -50 -10
-50 -5 0 -10 -4 -10 -10 0 -5 18 -10 40 -10 22 0 40 5 40 10 0 6 -4 10 -10 10
-5 0 -10 20 -10 45 0 34 5 47 20 55 11 6 25 8 30 5 13 -8 13 -105 0 -105 -5 0
-10 -4 -10 -10 0 -5 18 -10 40 -10 22 0 40 5 40 10 0 6 -4 10 -10 10 -5 0 -10
15 -10 34 0 56 -16 86 -45 86 -15 0 -35 -5 -46 -10 -13 -7 -19 -7 -19 0 0 5
-11 10 -25 10 -14 0 -25 -4 -25 -10z"/>
<path d="M10960 2700 c-27 -27 -26 -74 2 -100 25 -23 76 -26 104 -6 27 20 11
31 -18 12 -22 -14 -26 -14 -46 0 -39 27 -28 44 28 44 46 0 50 2 50 25 0 45
-82 63 -120 25z m78 -2 c23 -23 13 -38 -23 -38 -38 0 -40 2 -25 31 12 22 30
25 48 7z"/>
<path d="M11127 2702 c-9 -10 -17 -35 -17 -55 0 -43 28 -67 76 -67 31 0 63 24
50 37 -4 4 -10 3 -14 -3 -13 -19 -41 -23 -57 -8 -22 23 -20 81 4 94 26 14 28
13 34 -11 7 -26 32 -20 32 7 0 28 -84 33 -108 6z"/>
<path d="M11282 2707 c-13 -15 1 -42 17 -33 6 4 11 14 11 22 0 25 44 13 48
-13 3 -19 -1 -23 -25 -23 -33 0 -73 -25 -73 -45 0 -29 74 -47 97 -24 8 8 13 8
17 0 4 -6 19 -11 34 -11 25 1 25 2 10 14 -12 9 -18 27 -18 54 0 24 -7 47 -16
56 -19 19 -87 21 -102 3z m78 -76 c0 -24 -23 -43 -44 -35 -21 8 -20 30 2 43
26 16 42 13 42 -8z"/>
<path d="M12741 2694 c-27 -35 -27 -59 4 -89 27 -28 71 -33 101 -11 26 20 11
32 -17 12 -33 -23 -59 -5 -59 42 0 56 41 87 53 41 7 -26 32 -20 32 7 0 16 -8
20 -46 22 -41 3 -50 -1 -68 -24z"/>
<path d="M12901 2694 c-27 -35 -27 -65 2 -92 50 -47 137 -17 137 48 0 68 -96
98 -139 44z m87 4 c14 -14 16 -67 3 -86 -14 -23 -55 -10 -65 20 -18 53 27 101
62 66z"/>
<path d="M13060 2710 c0 -5 5 -10 10 -10 6 0 10 -22 10 -50 0 -27 -4 -50 -10
-50 -5 0 -10 -4 -10 -10 0 -5 18 -10 40 -10 22 0 40 5 40 10 0 6 -4 10 -10 10
-13 0 -13 70 0 90 8 13 11 13 19 1 11 -17 45 -7 39 12 -6 17 -46 21 -64 7 -10
-9 -14 -9 -14 -1 0 6 -11 11 -25 11 -14 0 -25 -4 -25 -10z"/>
<path d="M13227 2702 c-23 -25 -21 -78 3 -102 12 -12 33 -20 53 -20 35 0 77
23 65 36 -4 4 -13 2 -20 -3 -25 -19 -48 -22 -63 -7 -30 30 -18 44 35 44 43 0
50 3 50 19 0 11 -7 27 -16 35 -22 22 -87 21 -107 -2z m81 -4 c23 -23 13 -38
-23 -38 -22 0 -35 5 -35 13 0 16 20 37 35 37 6 0 16 -5 23 -12z"/>
<path d="M12400 2649 c0 -18 5 -20 47 -17 36 2 49 7 51 21 3 14 -4 17 -47 17
-45 0 -51 -3 -51 -21z"/>
<path d="M3677 2617 c-8 -20 9 -41 27 -34 23 9 21 47 -3 47 -10 0 -21 -6 -24
-13z"/>
<path d="M195 2410 c-4 -7 2223 -10 6675 -10 4452 0 6679 3 6675 10 -9 14
-13341 14 -13350 0z"/>
<path d="M422 2253 c-7 -3 -17 -16 -22 -29 -14 -36 6 -71 49 -85 48 -15 63
-28 59 -52 -7 -46 -81 -48 -98 -2 -13 34 -20 31 -20 -8 0 -36 1 -36 89 -38 30
-1 51 25 51 61 0 31 -26 58 -66 69 -51 13 -58 70 -10 79 20 4 56 -25 56 -45 0
-7 5 -13 11 -13 6 0 9 14 7 32 -3 30 -5 32 -48 34 -25 2 -51 0 -58 -3z"/>
<path d="M976 2251 c-3 -5 1 -11 9 -15 12 -4 15 -24 15 -90 0 -70 -3 -87 -17
-95 -14 -8 -10 -10 22 -10 22 0 34 3 28 6 -9 3 -13 35 -13 109 0 96 -1 104
-19 104 -11 0 -22 -4 -25 -9z"/>
<path d="M1327 2242 c-36 -39 -13 -93 45 -107 35 -9 50 -28 46 -57 -6 -43 -80
-36 -96 9 -10 27 -10 27 -11 -10 -1 -21 3 -36 8 -33 5 4 21 2 35 -4 35 -13 74
3 86 36 15 40 -6 74 -60 93 -48 18 -64 47 -36 70 23 19 48 9 73 -28 l23 -34 0
42 c0 22 -4 41 -10 41 -5 0 -10 -5 -10 -12 0 -9 -3 -9 -12 0 -18 18 -63 14
-81 -6z"/>
<path d="M4824 2226 c-40 -40 -46 -92 -14 -143 23 -38 77 -57 118 -42 14 5 31
8 39 5 9 -4 13 4 13 27 0 18 5 38 12 45 9 9 1 12 -37 11 -43 0 -47 -2 -27 -11
42 -20 21 -68 -30 -68 -56 0 -92 78 -64 144 28 67 96 73 122 11 8 -19 16 -35
19 -35 3 0 5 21 5 46 0 41 -2 45 -15 34 -12 -10 -19 -10 -27 -2 -24 24 -78 14
-114 -22z"/>
<path d="M577 2244 c-13 -13 -7 -24 14 -24 11 0 19 5 17 12 -5 14 -22 21 -31
12z"/>
<path d="M2675 2235 c-27 -13 -27 -14 -7 -15 21 0 22 -4 22 -80 0 -74 -2 -81
-22 -90 -18 -7 -9 -9 37 -9 46 0 55 2 38 9 -22 9 -23 15 -23 105 0 52 -3 95
-7 94 -5 0 -21 -7 -38 -14z"/>
<path d="M2835 2234 c-26 -11 -27 -13 -7 -14 21 0 22 -4 22 -80 0 -74 -2 -81
-22 -90 -18 -7 -11 -9 32 -9 37 0 48 3 35 8 -18 7 -21 20 -25 103 l-5 95 -30
-13z"/>
<path d="M3085 2238 c-26 -15 -33 -25 -44 -68 -21 -77 25 -152 81 -131 36 13
50 58 32 100 -13 30 -17 33 -49 29 -30 -3 -35 -1 -35 17 0 23 28 55 48 55 7 0
12 -9 12 -20 0 -21 15 -27 25 -10 9 14 -13 40 -34 40 -9 0 -25 -6 -36 -12z
m40 -133 c0 -47 -2 -50 -25 -50 -22 0 -25 5 -28 39 -4 52 3 68 30 64 20 -3 23
-9 23 -53z"/>
<path d="M3218 2239 c-20 -11 -24 -59 -6 -77 9 -9 7 -16 -6 -31 -25 -28 -17
-73 16 -89 34 -16 74 -2 90 33 10 22 8 30 -10 54 -18 25 -19 31 -7 41 47 39
-23 101 -77 69z m60 -11 c16 -16 15 -43 -2 -57 -11 -9 -20 -7 -42 12 -24 21
-26 27 -15 41 16 19 42 21 59 4z m3 -117 c33 -27 16 -56 -32 -56 -28 0 -35 4
-37 23 -8 53 26 69 69 33z"/>
<path d="M3463 2244 c24 -8 25 -158 0 -186 -15 -17 -14 -18 23 -18 31 1 36 3
22 11 -15 8 -18 24 -18 92 l1 82 36 -92 c19 -51 39 -91 43 -88 4 2 22 44 41
92 l34 88 3 -80 c2 -66 0 -82 -14 -92 -15 -11 -11 -13 32 -12 27 1 41 3 32 6
-16 4 -18 17 -18 98 0 81 2 94 18 98 9 3 1 5 -19 6 -36 1 -36 0 -64 -71 -15
-40 -31 -77 -35 -81 -4 -5 -21 27 -37 70 -29 75 -31 78 -64 80 -19 1 -26 -1
-16 -3z"/>
<path d="M4175 2234 c-26 -11 -27 -13 -7 -14 21 0 22 -4 22 -80 0 -74 -2 -81
-22 -90 -18 -7 -11 -9 32 -9 37 0 48 3 35 8 -18 7 -21 20 -25 103 l-5 95 -30
-13z"/>
<path d="M4394 2229 c-15 -17 -19 -36 -19 -91 0 -61 3 -72 24 -89 31 -25 47
-24 76 6 21 20 25 34 25 80 0 55 -12 93 -34 107 -21 14 -53 8 -72 -13z m67 -5
c8 -10 13 -42 13 -87 -1 -56 -5 -73 -19 -84 -16 -11 -21 -10 -37 4 -14 12 -18
31 -18 80 0 92 26 129 61 87z"/>
<path d="M4540 2237 c0 -9 -3 -24 -6 -34 -5 -17 -5 -17 9 0 12 15 87 26 87 13
0 -2 -14 -30 -30 -62 -20 -37 -30 -69 -28 -88 5 -49 23 -36 28 20 4 34 16 69
37 103 l32 51 -49 0 c-26 0 -55 3 -64 6 -10 4 -16 1 -16 -9z"/>
<path d="M5614 2229 c-15 -17 -19 -36 -19 -91 0 -61 3 -72 24 -89 31 -25 47
-24 76 6 21 20 25 34 25 80 0 55 -12 93 -34 107 -21 14 -53 8 -72 -13z m67 -5
c8 -10 13 -42 13 -87 -1 -56 -5 -73 -19 -84 -16 -11 -21 -10 -37 4 -14 12 -18
31 -18 80 0 92 26 129 61 87z"/>
<path d="M5859 2232 c-47 -39 -15 -128 43 -120 30 5 36 -9 18 -43 -13 -22 -50
-26 -50 -4 0 8 -7 15 -15 15 -8 0 -15 -3 -15 -7 1 -20 20 -35 45 -35 55 0 88
67 74 146 -11 63 -55 84 -100 48z m60 -6 c30 -36 -8 -131 -40 -99 -15 15 -14
80 1 98 16 19 24 19 39 1z"/>
<path d="M6018 2239 c-23 -13 -24 -49 -2 -49 11 0 15 6 11 20 -6 24 6 34 33
25 35 -11 25 -63 -15 -80 -19 -7 -19 -8 4 -14 48 -13 45 -91 -3 -91 -27 0 -42
15 -26 25 13 8 3 25 -16 25 -19 0 -18 -34 2 -50 37 -32 114 -2 114 43 0 12 -9
30 -20 42 -18 20 -19 23 -5 35 49 41 -19 103 -77 69z"/>
<path d="M6170 2230 c-24 -24 -25 -39 -6 -66 12 -15 12 -22 2 -34 -23 -27 -25
-49 -7 -71 21 -27 74 -30 98 -7 20 21 20 64 0 86 -13 15 -14 20 -1 36 8 11 14
23 14 28 0 16 -40 48 -60 48 -11 0 -29 -9 -40 -20z m68 -2 c15 -15 15 -41 1
-55 -14 -14 -69 10 -69 30 0 18 21 37 40 37 9 0 21 -5 28 -12z m6 -124 c23
-23 4 -54 -34 -54 -40 0 -58 32 -35 66 17 26 35 23 69 -12z"/>
<path d="M7537 2238 c-51 -40 -45 -178 9 -198 40 -16 71 3 84 51 27 100 -31
193 -93 147z m53 -8 c23 -15 21 -153 -3 -177 -18 -17 -19 -17 -39 7 -17 21
-19 36 -16 93 4 78 21 100 58 77z"/>
<path d="M7770 2230 c-24 -24 -25 -39 -6 -66 12 -15 12 -22 2 -34 -23 -27 -25
-49 -7 -71 21 -27 74 -30 98 -7 20 21 20 64 0 86 -13 15 -14 20 -1 36 8 11 14
23 14 28 0 16 -40 48 -60 48 -11 0 -29 -9 -40 -20z m68 -2 c15 -15 15 -41 1
-55 -14 -14 -69 10 -69 30 0 18 21 37 40 37 9 0 21 -5 28 -12z m6 -124 c23
-23 4 -54 -34 -54 -40 0 -58 32 -35 66 17 26 35 23 69 -12z"/>
<path d="M7944 2235 c-31 -21 -47 -69 -41 -121 6 -54 24 -76 63 -76 31 0 64
33 64 64 0 47 -47 85 -82 66 -21 -10 -24 3 -7 35 21 40 66 54 54 17 -5 -14 -2
-20 9 -20 21 0 21 36 0 44 -24 9 -38 7 -60 -9z m50 -91 c16 -41 3 -94 -23 -94
-26 0 -41 21 -41 55 0 17 5 36 12 43 17 17 45 15 52 -4z"/>
<path d="M9347 2238 c-51 -40 -45 -178 9 -198 40 -16 71 3 84 51 27 100 -31
193 -93 147z m53 -8 c23 -15 21 -153 -3 -177 -18 -17 -19 -17 -39 7 -17 21
-19 36 -16 93 4 78 21 100 58 77z"/>
<path d="M9588 2239 c-20 -11 -24 -59 -6 -77 9 -9 7 -16 -6 -31 -25 -28 -17
-73 16 -89 34 -16 74 -2 90 33 10 22 8 30 -10 54 -18 25 -19 31 -7 41 47 39
-23 101 -77 69z m60 -11 c16 -16 15 -43 -2 -57 -11 -9 -20 -7 -42 12 -24 21
-26 27 -15 41 16 19 42 21 59 4z m3 -117 c33 -27 16 -56 -32 -56 -28 0 -35 4
-37 23 -8 53 26 69 69 33z"/>
<path d="M9720 2217 c1 -27 2 -29 11 -14 7 11 22 17 49 17 22 0 40 -2 40 -5 0
-2 -11 -21 -25 -41 -28 -41 -49 -109 -41 -130 6 -15 26 -20 26 -6 0 48 24 130
46 159 14 19 24 36 23 37 -2 2 -32 6 -66 9 l-63 5 0 -31z"/>
<path d="M10901 2224 c-32 -41 -30 -136 4 -169 29 -30 45 -31 76 -6 21 17 24
28 24 89 0 55 -4 74 -19 91 -26 29 -60 26 -85 -5z m67 4 c19 -19 16 -153 -4
-172 -8 -9 -17 -16 -19 -16 -2 0 -11 7 -19 16 -12 11 -16 35 -16 88 0 69 10
96 35 96 6 0 16 -5 23 -12z"/>
<path d="M11147 2232 c-21 -23 -22 -56 -2 -72 14 -12 13 -15 -5 -35 -11 -12
-20 -28 -20 -37 0 -24 38 -51 72 -51 54 0 78 63 37 101 -17 17 -18 20 -5 25
23 9 21 64 -3 77 -29 15 -56 12 -74 -8z m67 -8 c20 -19 20 -23 0 -45 -15 -17
-18 -17 -40 -2 -26 16 -32 48 -11 56 22 10 35 7 51 -9z m10 -126 c15 -24 0
-48 -32 -48 -49 0 -67 36 -35 72 14 16 19 16 37 5 11 -8 24 -21 30 -29z"/>
<path d="M11309 2221 c-25 -26 -29 -37 -29 -86 0 -46 4 -60 25 -81 37 -37 88
-19 100 36 11 52 -36 100 -77 78 -14 -7 -18 -5 -18 12 0 21 33 60 50 60 6 0
10 -9 10 -20 0 -11 7 -20 15 -20 18 0 20 21 3 38 -20 20 -48 14 -79 -17z m63
-86 c22 -48 -27 -115 -53 -73 -10 15 -12 60 -3 82 9 25 43 19 56 -9z"/>
<path d="M12447 2238 c-51 -40 -45 -178 9 -198 40 -16 71 3 84 51 27 100 -31
193 -93 147z m53 -8 c23 -15 21 -153 -3 -177 -18 -17 -19 -17 -39 7 -17 21
-19 36 -16 93 4 78 21 100 58 77z"/>
<path d="M12680 2230 c-24 -24 -25 -39 -6 -66 12 -15 12 -22 2 -34 -23 -27
-25 -49 -7 -71 21 -27 74 -30 98 -7 20 21 20 64 0 86 -13 15 -14 20 -1 36 8
11 14 23 14 28 0 16 -40 48 -60 48 -11 0 -29 -9 -40 -20z m68 -2 c15 -15 15
-41 1 -55 -14 -14 -69 10 -69 30 0 18 21 37 40 37 9 0 21 -5 28 -12z m6 -124
c23 -23 4 -54 -34 -54 -40 0 -58 32 -35 66 17 26 35 23 69 -12z"/>
<path d="M12830 2192 c0 -48 1 -51 19 -41 40 26 75 -26 52 -77 -9 -20 -17 -25
-39 -22 -23 3 -27 7 -24 31 1 15 -2 27 -7 27 -32 0 -12 -65 22 -74 58 -15 106
58 72 110 -14 21 -23 25 -51 22 -30 -4 -34 -1 -34 19 0 18 6 23 24 23 13 0 34
8 45 18 22 17 21 17 -28 17 l-51 0 0 -53z"/>
<path d="M1503 2209 c-7 -15 -18 -30 -25 -33 -10 -5 -10 -7 0 -12 6 -3 12 -23
12 -45 0 -22 5 -49 10 -60 20 -36 71 -17 69 26 0 16 -3 14 -11 -8 -15 -42 -33
-27 -36 31 -3 47 -1 52 17 52 12 0 21 5 21 10 0 6 -9 10 -19 10 -14 0 -21 8
-23 28 l-4 27 -11 -26z"/>
<path d="M560 2170 c0 -5 5 -10 10 -10 15 0 13 -107 -2 -113 -7 -3 5 -5 27 -5
22 0 34 2 28 5 -9 3 -13 27 -13 69 0 62 -1 64 -25 64 -14 0 -25 -4 -25 -10z"/>
<path d="M650 2170 c0 -5 5 -10 10 -10 6 0 10 -22 10 -50 0 -36 -5 -52 -17
-59 -14 -8 -8 -10 27 -10 37 0 42 2 27 10 -15 9 -18 21 -17 57 2 26 2 53 1 60
-1 14 -41 17 -41 2z"/>
<path d="M705 2170 c-4 -6 4 -9 17 -7 21 2 23 -2 26 -52 2 -37 -1 -57 -10 -62
-8 -6 2 -9 27 -9 30 0 36 3 27 12 -7 7 -12 29 -12 51 0 21 -5 47 -10 58 -11
20 -54 26 -65 9z"/>
<path d="M837 2160 c-9 -13 -11 -34 -7 -62 3 -24 1 -51 -5 -61 -17 -28 6 -52
54 -55 48 -4 71 10 71 43 0 25 -17 35 -60 35 -15 0 -33 7 -40 15 -11 13 -7 15
23 15 41 0 63 26 52 61 -6 18 -4 20 14 14 12 -3 21 -2 21 3 0 5 -25 10 -55 10
-43 0 -58 -4 -68 -18z m61 -23 c2 -18 -2 -29 -13 -33 -24 -9 -39 10 -31 41 9
35 40 30 44 -8z m27 -122 c0 -17 -7 -20 -40 -20 -34 0 -40 3 -43 23 -3 22 0
23 40 20 35 -2 43 -7 43 -23z"/>
<path d="M1076 2158 c-35 -50 -5 -118 52 -118 28 0 52 16 52 34 0 5 -8 2 -18
-7 -32 -29 -72 -15 -72 25 0 15 8 18 45 18 37 0 45 3 45 18 0 48 -76 70 -104
30z m72 -16 c3 -19 -1 -22 -27 -22 -33 0 -41 16 -19 38 18 18 43 10 46 -16z"/>
<path d="M1590 2169 c0 -5 5 -9 10 -9 15 0 13 -107 -2 -113 -7 -3 7 -5 32 -5
25 0 37 2 28 5 -24 6 -26 94 -3 113 10 9 15 9 15 1 0 -6 7 -11 15 -11 8 0 12
6 9 14 -6 16 -104 21 -104 5z"/>
<path d="M1730 2160 c-26 -26 -26 -70 0 -98 23 -24 69 -29 88 -10 19 19 14 33
-6 15 -25 -22 -49 -21 -62 2 -18 34 -11 41 35 41 38 0 45 3 45 19 0 48 -64 67
-100 31z m70 -9 c15 -29 13 -31 -25 -31 -36 0 -46 15 -23 38 18 18 36 15 48
-7z"/>
<path d="M1872 2168 c-17 -17 -15 -38 3 -38 8 0 15 9 15 20 0 24 35 28 44 4
10 -27 7 -34 -18 -34 -13 0 -34 -9 -47 -19 -20 -16 -22 -23 -13 -38 9 -14 24
-18 70 -18 52 0 59 2 60 20 1 16 0 16 -3 2 -8 -33 -23 -6 -23 42 0 53 -12 71
-50 71 -14 0 -31 -5 -38 -12z m68 -76 c0 -21 -18 -42 -37 -42 -20 0 -27 28
-13 45 18 21 50 19 50 -3z"/>
<path d="M2010 2170 c0 -5 5 -10 10 -10 6 0 10 -22 10 -50 0 -36 -5 -52 -17
-59 -14 -8 -8 -10 27 -10 37 0 42 2 27 10 -15 9 -18 21 -17 57 2 26 2 53 1 60
-1 14 -41 17 -41 2z"/>
<path d="M2065 2170 c-4 -6 4 -9 17 -7 21 2 23 -2 26 -52 2 -37 -1 -57 -10
-62 -8 -6 2 -8 27 -8 22 0 34 3 28 6 -19 7 -17 97 2 113 27 23 45 4 45 -48 0
-26 -5 -53 -12 -60 -9 -9 -3 -12 27 -12 33 0 36 2 22 13 -11 8 -17 30 -19 67
-3 49 -6 55 -26 58 -13 2 -30 -2 -38 -9 -11 -9 -18 -9 -26 -1 -15 15 -55 16
-63 2z"/>
<path d="M1190 2110 c0 -5 18 -10 40 -10 22 0 40 5 40 10 0 6 -18 10 -40 10
-22 0 -40 -4 -40 -10z"/>
<path d="M2965 2070 c-7 -12 2 -30 16 -30 12 0 12 27 0 35 -5 3 -12 1 -16 -5z"/>
<path d="M4305 2070 c-7 -12 2 -30 16 -30 12 0 12 27 0 35 -5 3 -12 1 -16 -5z"/>
<path d="M5765 2070 c-7 -12 2 -30 16 -30 12 0 12 27 0 35 -5 3 -12 1 -16 -5z"/>
<path d="M7680 2070 c-12 -7 -12 -12 -2 -22 9 -9 15 -9 24 0 16 16 -2 34 -22
22z"/>
<path d="M9490 2070 c-12 -7 -12 -12 -2 -22 9 -9 15 -9 24 0 16 16 -2 34 -22
22z"/>
<path d="M11056 2073 c-12 -12 -6 -33 9 -33 8 0 15 6 15 14 0 17 -14 28 -24
19z"/>
<path d="M12590 2070 c-12 -7 -12 -12 -2 -22 9 -9 15 -9 24 0 16 16 -2 34 -22
22z"/>
<path d="M956 1881 c-3 -5 1 -11 9 -15 12 -4 15 -24 15 -90 0 -70 -3 -87 -17
-95 -14 -8 -10 -10 22 -10 22 0 34 3 28 6 -9 3 -13 35 -13 109 0 96 -1 104
-19 104 -11 0 -22 -4 -25 -9z"/>
<path d="M1167 1872 c-36 -39 -13 -93 45 -107 35 -9 50 -28 46 -57 -6 -43 -80
-36 -96 9 -10 27 -10 27 -11 -10 -1 -21 3 -36 8 -33 5 4 21 2 35 -4 35 -13 74
3 86 36 15 40 -6 74 -60 93 -48 18 -64 47 -36 70 23 19 48 9 73 -28 l23 -34 0
42 c0 22 -4 41 -10 41 -5 0 -10 -5 -10 -12 0 -9 -3 -9 -12 0 -18 18 -63 14
-81 -6z"/>
<path d="M4824 1856 c-40 -40 -46 -92 -14 -143 23 -38 77 -57 118 -42 14 5 31
8 39 5 9 -4 13 4 13 27 0 18 5 38 12 45 9 9 1 12 -37 11 -43 0 -47 -2 -27 -11
42 -20 21 -68 -30 -68 -56 0 -92 78 -64 144 28 67 96 73 122 11 8 -19 16 -35
19 -35 3 0 5 21 5 46 0 41 -2 45 -15 34 -12 -10 -19 -10 -27 -2 -24 24 -78 14
-114 -22z"/>
<path d="M403 1873 c15 -4 17 -17 17 -93 0 -74 -3 -91 -17 -99 -14 -8 0 -10
54 -11 62 0 75 3 101 25 37 31 48 73 32 120 -17 53 -42 65 -130 64 -41 -1 -67
-3 -57 -6z m137 -23 c15 -15 20 -33 20 -70 0 -62 -31 -100 -80 -100 l-30 0 0
95 0 95 35 0 c22 0 43 -8 55 -20z"/>
<path d="M2675 1865 c-27 -13 -27 -14 -7 -15 21 0 22 -4 22 -80 0 -74 -2 -81
-22 -90 -18 -7 -9 -9 37 -9 46 0 55 2 38 9 -22 9 -23 15 -23 105 0 52 -3 95
-7 94 -5 0 -21 -7 -38 -14z"/>
<path d="M2835 1864 c-26 -11 -27 -13 -7 -14 21 0 22 -4 22 -80 0 -74 -2 -81
-22 -90 -18 -7 -11 -9 32 -9 37 0 48 3 35 8 -18 7 -21 20 -25 103 l-5 95 -30
-13z"/>
<path d="M3085 1868 c-26 -15 -33 -25 -44 -68 -21 -77 25 -152 81 -131 36 13
50 58 32 100 -13 30 -17 33 -49 29 -30 -3 -35 -1 -35 17 0 23 28 55 48 55 7 0
12 -9 12 -20 0 -21 15 -27 25 -10 9 14 -13 40 -34 40 -9 0 -25 -6 -36 -12z
m40 -133 c0 -47 -2 -50 -25 -50 -22 0 -25 5 -28 39 -4 52 3 68 30 64 20 -3 23
-9 23 -53z"/>
<path d="M3217 1862 c-21 -23 -22 -56 -3 -71 13 -11 12 -15 -5 -32 -56 -56 31
-128 91 -74 26 23 25 53 0 80 -18 20 -19 23 -5 35 21 18 19 57 -4 70 -29 15
-56 12 -74 -8z m61 -4 c16 -16 15 -43 -1 -56 -18 -15 -57 12 -57 38 0 28 37
39 58 18z m22 -142 c0 -19 -22 -36 -45 -36 -42 0 -58 39 -29 71 16 18 18 18
45 -2 16 -11 29 -26 29 -33z"/>
<path d="M3463 1874 c24 -8 25 -158 0 -186 -15 -17 -14 -18 23 -18 31 1 36 3
22 11 -15 8 -18 24 -18 92 l1 82 36 -92 c19 -51 39 -91 43 -88 4 2 22 44 41
92 l34 88 3 -80 c2 -66 0 -82 -14 -92 -15 -11 -11 -13 32 -12 27 1 41 3 32 6
-16 4 -18 17 -18 98 0 81 2 94 18 98 9 3 1 5 -19 6 -36 1 -36 0 -64 -71 -15
-40 -31 -77 -35 -81 -4 -5 -21 27 -37 70 -29 75 -31 78 -64 80 -19 1 -26 -1
-16 -3z"/>
<path d="M4175 1864 c-26 -11 -27 -13 -7 -14 21 0 22 -4 22 -80 0 -74 -2 -81
-22 -90 -18 -7 -11 -9 32 -9 37 0 48 3 35 8 -18 7 -21 20 -25 103 l-5 95 -30
-13z"/>
<path d="M4394 1859 c-15 -17 -19 -36 -19 -91 0 -61 3 -72 24 -89 31 -25 47
-24 76 6 21 20 25 34 25 80 0 55 -12 93 -34 107 -21 14 -53 8 -72 -13z m67 -5
c8 -10 13 -42 13 -87 -1 -56 -5 -73 -19 -84 -16 -11 -21 -10 -37 4 -14 12 -18
31 -18 80 0 92 26 129 61 87z"/>
<path d="M4540 1867 c0 -9 -3 -24 -6 -34 -5 -17 -5 -17 9 0 12 15 87 26 87 13
0 -2 -14 -30 -30 -62 -20 -37 -30 -69 -28 -88 5 -49 23 -36 28 20 4 34 16 69
37 103 l32 51 -49 0 c-26 0 -55 3 -64 6 -10 4 -16 1 -16 -9z"/>
<path d="M5638 1868 c-49 -17 -64 -133 -22 -179 26 -29 89 -26 109 5 23 35 22
133 -1 156 -26 24 -54 30 -86 18z m56 -24 c3 -9 6 -44 6 -79 0 -66 -14 -91
-44 -79 -13 5 -16 21 -16 83 0 43 3 81 7 84 12 13 41 7 47 -9z"/>
<path d="M5920 1871 c-33 -9 -55 -50 -46 -85 8 -31 47 -50 84 -41 21 5 23 3
17 -17 -7 -22 -31 -48 -46 -48 -4 0 -9 10 -11 22 -4 26 -26 35 -34 14 -17 -43
64 -63 104 -26 27 26 36 60 29 112 -8 59 -42 84 -97 69z m52 -36 c15 -33 -3
-75 -32 -75 -17 0 -20 7 -20 43 0 24 3 47 7 50 14 14 34 6 45 -18z"/>
<path d="M6105 1873 c-11 -3 -26 -10 -32 -15 -16 -13 -17 -60 -3 -74 8 -8 6
-15 -5 -24 -20 -17 -19 -53 3 -73 26 -24 87 -22 112 3 24 24 25 48 4 79 -12
17 -13 26 -5 34 35 35 -16 84 -74 70z m53 -37 c6 -28 -11 -39 -41 -25 -43 19
-33 52 13 47 15 -2 26 -10 28 -22z m-14 -97 c32 -25 33 -36 2 -50 -45 -21 -87
26 -54 59 16 16 21 15 52 -9z"/>
<path d="M6300 1869 c-8 -5 -25 -9 -37 -9 -13 0 -23 -4 -23 -10 0 -5 11 -10
25 -10 24 0 25 -2 25 -75 0 -73 -1 -75 -25 -75 -14 0 -25 -4 -25 -10 0 -6 28
-10 65 -10 37 0 65 4 65 10 0 6 -9 10 -20 10 -19 0 -20 7 -20 89 0 92 -5 107
-30 90z"/>
<path d="M7508 1868 c-49 -17 -64 -133 -22 -179 26 -29 89 -26 109 5 23 35 22
133 -1 156 -26 24 -54 30 -86 18z m56 -24 c3 -9 6 -44 6 -79 0 -66 -14 -91
-44 -79 -13 5 -16 21 -16 83 0 43 3 81 7 84 12 13 41 7 47 -9z"/>
<path d="M7790 1871 c-33 -9 -55 -50 -46 -85 8 -31 47 -50 84 -41 21 5 23 3
17 -17 -7 -22 -31 -48 -46 -48 -4 0 -9 10 -11 22 -4 26 -26 35 -34 14 -17 -43
64 -63 104 -26 27 26 36 60 29 112 -8 59 -42 84 -97 69z m52 -36 c15 -33 -3
-75 -32 -75 -17 0 -20 7 -20 43 0 24 3 47 7 50 14 14 34 6 45 -18z"/>
<path d="M7960 1867 c-32 -16 -40 -57 -11 -57 16 0 21 6 21 26 0 37 34 29 38
-9 3 -22 -1 -30 -17 -34 -26 -7 -27 -23 -2 -23 35 0 43 -63 10 -80 -24 -14
-33 -7 -34 23 0 28 -38 31 -43 3 -9 -45 90 -64 128 -26 25 25 25 48 0 75 -18
20 -19 23 -5 35 47 39 -25 97 -85 67z"/>
<path d="M9330 1873 c-39 -14 -50 -36 -50 -97 0 -80 17 -106 69 -106 47 0 71
24 78 78 8 60 -12 108 -49 121 -17 6 -31 11 -32 10 -1 0 -8 -3 -16 -6z m52
-58 c9 -55 -1 -123 -20 -130 -30 -11 -42 15 -42 90 0 78 4 87 34 83 16 -2 22
-13 28 -43z"/>
<path d="M9594 1866 c-73 -32 -35 -141 42 -122 30 8 33 -15 4 -44 -25 -25 -40
-25 -40 -1 0 24 -18 37 -32 23 -20 -20 10 -52 48 -52 55 0 84 36 84 103 0 84
-42 120 -106 93z m54 -18 c14 -14 16 -57 3 -76 -16 -26 -46 -9 -49 27 -6 56
16 79 46 49z"/>
<path d="M9786 1812 c-31 -38 -56 -74 -56 -80 0 -6 19 -12 42 -14 42 -3 68
-28 29 -28 -12 0 -21 -4 -21 -10 0 -5 25 -10 55 -10 30 0 55 5 55 10 0 6 -7
10 -15 10 -21 0 -19 30 3 30 16 1 16 1 0 14 -14 10 -18 28 -18 74 0 33 -4 63
-9 67 -6 3 -35 -26 -65 -63z m34 -32 c0 -39 -1 -40 -35 -40 l-36 0 32 40 c18
22 34 40 36 40 2 0 3 -18 3 -40z"/>
<path d="M10890 1871 c-14 -4 -30 -18 -37 -31 -24 -48 -12 -140 21 -162 22
-15 76 -8 96 12 15 15 20 33 20 79 0 83 -36 120 -100 102z m48 -23 c15 -15 16
-122 2 -149 -26 -48 -60 -8 -60 71 0 76 25 111 58 78z"/>
<path d="M11175 1872 c-81 -16 -66 -142 16 -130 23 4 29 1 29 -13 0 -18 -25
-49 -40 -49 -5 0 -10 10 -12 23 -4 27 -31 30 -36 3 -5 -23 14 -36 54 -36 64 0
102 87 71 161 -15 37 -40 49 -82 41z m40 -62 c0 -39 -3 -45 -22 -48 -28 -4
-41 37 -24 74 19 43 46 27 46 -26z"/>
<path d="M11340 1867 c-33 -17 -40 -57 -10 -57 18 0 21 4 18 25 -4 19 -1 25
13 25 24 0 32 -16 25 -46 -4 -15 -14 -24 -26 -24 -11 0 -20 -4 -20 -10 0 -5 9
-10 20 -10 39 0 51 -70 14 -84 -20 -8 -37 2 -31 18 8 20 -9 40 -27 33 -22 -9
-20 -44 3 -57 27 -14 84 -13 103 3 28 21 31 54 8 77 -19 19 -19 22 -4 44 12
19 13 29 4 45 -6 12 -17 21 -25 21 -7 0 -19 2 -27 5 -7 3 -24 -1 -38 -8z"/>
<path d="M12418 1868 c-49 -17 -64 -133 -22 -179 26 -29 89 -26 109 5 23 35
22 133 -1 156 -26 24 -54 30 -86 18z m56 -24 c3 -9 6 -44 6 -79 0 -66 -14 -91
-44 -79 -13 5 -16 21 -16 83 0 43 3 81 7 84 12 13 41 7 47 -9z"/>
<path d="M12700 1871 c-33 -9 -55 -50 -46 -85 8 -31 47 -50 84 -41 21 5 23 3
17 -17 -7 -22 -31 -48 -46 -48 -4 0 -9 10 -11 22 -4 26 -26 35 -34 14 -17 -43
64 -63 104 -26 27 26 36 60 29 112 -8 59 -42 84 -97 69z m52 -36 c15 -33 -3
-75 -32 -75 -17 0 -20 7 -20 43 0 24 3 47 7 50 14 14 34 6 45 -18z"/>
<path d="M12870 1867 c-32 -16 -40 -57 -11 -57 16 0 21 6 21 26 0 37 34 29 38
-9 3 -22 -1 -30 -17 -34 -26 -7 -27 -23 -2 -23 35 0 43 -63 10 -80 -24 -14
-33 -7 -34 23 0 28 -38 31 -43 3 -9 -45 90 -64 128 -26 25 25 25 48 0 75 -18
20 -19 23 -5 35 47 39 -25 97 -85 67z"/>
<path d="M1343 1839 c-7 -15 -18 -30 -25 -33 -10 -5 -10 -7 0 -12 6 -3 12 -23
12 -45 0 -22 5 -49 10 -60 20 -36 71 -17 69 26 0 16 -3 14 -11 -8 -15 -42 -33
-27 -36 31 -3 47 -1 52 17 52 12 0 21 5 21 10 0 6 -9 10 -19 10 -14 0 -21 8
-23 28 l-4 27 -11 -26z"/>
<path d="M630 1800 c0 -5 4 -10 10 -10 5 0 10 -26 12 -57 l3 -58 64 -2 c49 -2
62 0 53 9 -7 7 -12 38 -12 70 0 55 -1 58 -25 58 -14 0 -25 -4 -25 -10 0 -5 5
-10 11 -10 6 0 9 -21 7 -52 -3 -49 -5 -53 -28 -53 -24 0 -25 3 -28 63 -3 54
-6 62 -22 62 -11 0 -20 -4 -20 -10z"/>
<path d="M822 1798 c-17 -17 -15 -38 4 -38 11 0 15 6 11 20 -7 27 28 27 43 0
9 -17 8 -21 -7 -26 -43 -13 -68 -31 -71 -51 -4 -26 19 -34 88 -30 37 2 45 5
46 22 1 16 0 16 -3 2 -8 -33 -23 -6 -23 43 0 39 -4 52 -19 60 -26 13 -54 13
-69 -2z m68 -69 c0 -23 -22 -49 -40 -49 -23 0 -27 29 -8 48 15 15 48 16 48 1z"/>
<path d="M1430 1799 c0 -5 5 -9 10 -9 15 0 13 -107 -2 -113 -7 -3 7 -5 32 -5
25 0 37 2 28 5 -24 6 -26 94 -3 113 10 9 15 9 15 1 0 -6 7 -11 15 -11 8 0 12
6 9 14 -6 16 -104 21 -104 5z"/>
<path d="M1571 1784 c-12 -15 -21 -34 -21 -44 0 -30 39 -70 69 -70 27 0 51 16
51 33 0 5 -7 1 -16 -7 -21 -22 -51 -20 -64 3 -18 34 -11 41 35 41 40 0 45 2
45 23 0 52 -64 65 -99 21z m67 4 c23 -23 13 -38 -23 -38 -38 0 -40 2 -25 31
12 22 30 25 48 7z"/>
<path d="M1711 1791 c-10 -18 -6 -31 11 -31 4 0 8 9 8 21 0 30 44 22 48 -8 3
-19 -1 -23 -22 -23 -38 0 -70 -35 -56 -60 12 -23 59 -27 78 -8 9 9 12 9 12 0
0 -18 37 -15 44 4 10 26 7 29 -9 8 -13 -18 -14 -16 -15 26 0 25 -7 56 -16 68
-19 28 -69 30 -83 3z m67 -78 c-2 -20 -9 -29 -26 -31 -30 -5 -42 26 -17 44 31
23 47 17 43 -13z"/>
<path d="M1850 1800 c0 -5 5 -10 10 -10 14 0 12 -94 -2 -108 -9 -9 -3 -12 27
-12 35 0 37 1 20 14 -30 22 -6 116 30 116 28 0 35 -103 8 -119 -15 -8 -10 -10
22 -11 30 0 36 3 27 12 -16 16 -15 80 2 103 8 11 19 16 30 12 20 -8 24 -112 4
-120 -7 -3 5 -5 27 -5 22 0 34 2 28 5 -8 3 -13 23 -13 49 0 25 -5 54 -10 65
-12 21 -50 25 -68 7 -9 -9 -15 -9 -24 0 -7 7 -21 12 -33 12 -12 0 -26 -5 -33
-12 -9 -9 -12 -9 -12 0 0 7 -9 12 -20 12 -11 0 -20 -4 -20 -10z"/>
<path d="M1030 1740 c0 -5 18 -10 40 -10 22 0 40 5 40 10 0 6 -18 10 -40 10
-22 0 -40 -4 -40 -10z"/>
<path d="M5787 1707 c-8 -20 9 -41 27 -34 23 9 21 47 -3 47 -10 0 -21 -6 -24
-13z"/>
<path d="M7654 1705 c-4 -9 -2 -21 4 -27 15 -15 44 -1 40 19 -4 23 -36 29 -44
8z"/>
<path d="M9467 1707 c-8 -20 9 -41 27 -34 23 9 21 47 -3 47 -10 0 -21 -6 -24
-13z"/>
<path d="M11034 1705 c-4 -9 -2 -21 4 -27 15 -15 44 -1 40 19 -4 23 -36 29
-44 8z"/>
<path d="M12567 1707 c-8 -20 9 -41 27 -34 23 9 21 47 -3 47 -10 0 -21 -6 -24
-13z"/>
<path d="M2965 1700 c-7 -12 2 -30 16 -30 12 0 12 27 0 35 -5 3 -12 1 -16 -5z"/>
<path d="M4305 1700 c-7 -12 2 -30 16 -30 12 0 12 27 0 35 -5 3 -12 1 -16 -5z"/>
<path d="M193 1488 c6 -19 13348 -19 13355 0 3 9 -1337 12 -6678 12 -5341 0
-6681 -3 -6677 -12z"/>
<path d="M592 851 c-11 -7 -11 -9 2 -14 13 -5 16 -25 16 -109 l0 -103 47 -3
c36 -2 51 2 70 20 53 49 10 137 -62 125 l-35 -6 0 50 c0 49 -9 59 -38 40z
m118 -110 c26 -50 2 -115 -41 -109 -22 3 -24 8 -27 57 -3 56 5 71 40 71 10 0
22 -9 28 -19z"/>
<path d="M782 851 c-11 -7 -11 -9 2 -14 25 -10 23 -192 -1 -206 -14 -8 -8 -10
27 -10 35 0 41 2 28 10 -15 9 -18 26 -18 119 0 112 -4 123 -38 101z"/>
<path d="M1810 850 c-13 -8 -12 -10 3 -10 15 0 17 -11 17 -100 0 -84 -3 -101
-17 -109 -14 -8 -9 -10 27 -11 34 0 41 3 32 12 -7 7 -12 33 -12 58 0 49 13 70
42 70 15 0 18 -9 18 -58 0 -32 -5 -63 -12 -70 -9 -9 -2 -12 33 -12 35 1 40 3
27 11 -14 7 -18 23 -18 63 0 63 -15 81 -59 73 -29 -6 -30 -6 -33 41 -3 49 -18
62 -48 42z"/>
<path d="M2441 843 c-13 -9 -21 -25 -21 -44 0 -21 -5 -29 -17 -29 -17 -1 -17
-1 0 -11 13 -8 17 -23 17 -64 0 -41 -4 -56 -17 -64 -14 -8 -9 -10 26 -11 39 0
42 2 27 13 -13 10 -17 24 -14 67 3 54 4 55 36 58 l32 3 0 -60 c0 -47 -4 -62
-17 -70 -14 -8 -8 -10 27 -10 25 0 39 3 33 6 -9 3 -13 27 -13 69 0 65 0 65 28
62 25 -3 27 -6 30 -56 2 -31 -2 -60 -9 -68 -10 -12 -4 -14 32 -14 35 1 40 3
27 11 -14 8 -18 24 -18 74 l0 65 -50 0 c-55 0 -64 15 -34 58 17 25 60 31 51 7
-8 -18 11 -31 25 -17 8 8 8 15 -1 25 -16 20 -152 20 -180 0z m66 -33 c3 -39 2
-40 -32 -40 -30 0 -35 3 -35 24 0 28 24 56 48 56 13 0 18 -10 19 -40z"/>
<path d="M4142 851 c-11 -7 -11 -9 2 -14 10 -4 16 -19 16 -41 0 -34 0 -34 -38
-29 -34 4 -42 1 -60 -22 -27 -35 -28 -65 -2 -98 18 -23 27 -25 87 -25 56 0 64
2 50 13 -14 10 -17 30 -17 119 0 108 -4 119 -38 97z m6 -103 c16 -16 15 -80
-1 -103 -23 -30 -65 -13 -73 30 -11 60 38 109 74 73z"/>
<path d="M4852 848 c-6 -7 -14 -27 -18 -43 -4 -17 -12 -33 -18 -37 -8 -5 -7
-8 2 -8 16 0 16 -112 0 -128 -9 -9 -2 -12 33 -12 35 1 40 3 27 11 -14 8 -18
23 -18 69 0 53 2 59 23 63 l22 4 -22 2 c-18 1 -23 7 -23 30 0 16 7 34 15 41
12 10 15 9 15 -5 0 -9 6 -15 13 -12 6 2 12 10 12 18 0 18 -49 24 -63 7z"/>
<path d="M6462 848 c-6 -7 -14 -27 -18 -43 -4 -17 -12 -33 -18 -37 -8 -5 -7
-8 2 -8 16 0 16 -112 0 -128 -9 -9 -2 -12 33 -12 35 1 40 3 27 11 -14 8 -18
23 -18 69 0 53 2 59 23 63 l22 4 -22 2 c-18 1 -23 7 -23 30 0 16 7 34 15 41
12 10 15 9 15 -5 0 -9 6 -15 13 -12 6 2 12 10 12 18 0 18 -49 24 -63 7z"/>
<path d="M8447 854 c-3 -4 0 -13 8 -21 8 -8 15 -27 15 -43 0 -27 -2 -28 -35
-23 -70 11 -113 -73 -65 -124 16 -18 31 -22 87 -22 50 0 63 3 51 10 -16 9 -18
26 -18 119 0 100 -2 110 -18 110 -10 0 -21 -3 -25 -6z m-3 -100 c19 -7 22 -94
4 -112 -31 -31 -68 -1 -68 53 0 52 24 74 64 59z"/>
<path d="M9195 850 c-3 -5 -1 -10 4 -10 6 0 11 -17 11 -38 0 -37 -1 -38 -34
-34 -47 5 -76 -24 -76 -78 0 -30 5 -43 23 -54 27 -18 146 -21 128 -3 -7 7 -11
52 -11 119 0 100 -1 108 -19 108 -11 0 -23 -4 -26 -10z m4 -104 c7 -8 11 -34
9 -57 -3 -49 -27 -71 -55 -53 -22 13 -30 89 -12 110 15 18 43 18 58 0z"/>
<path d="M9442 851 c-11 -7 -11 -9 2 -14 25 -10 23 -192 -1 -206 -14 -8 -8
-10 27 -10 35 0 41 2 28 10 -15 9 -18 26 -18 119 0 112 -4 123 -38 101z"/>
<path d="M9975 850 c-3 -5 -1 -10 4 -10 16 0 14 -193 -1 -208 -9 -9 -3 -12 27
-12 30 0 36 3 27 12 -15 15 -16 82 -2 109 15 26 46 24 54 -3 12 -46 7 -97 -11
-107 -14 -8 -9 -10 26 -11 38 0 42 2 28 13 -11 8 -17 30 -19 72 -3 58 -4 60
-31 63 -16 2 -35 -2 -43 -9 -12 -10 -14 -3 -14 45 0 49 -2 56 -19 56 -11 0
-23 -4 -26 -10z"/>
<path d="M10395 850 c-3 -5 -1 -10 4 -10 16 0 14 -193 -1 -208 -9 -9 -3 -12
27 -12 30 0 36 3 27 12 -15 15 -16 82 -2 109 15 26 46 24 54 -3 12 -46 7 -97
-11 -107 -14 -8 -9 -10 26 -11 38 0 42 2 28 13 -11 8 -17 30 -19 72 -3 58 -4
60 -31 63 -16 2 -35 -2 -43 -9 -12 -10 -14 -3 -14 45 0 49 -2 56 -19 56 -11 0
-23 -4 -26 -10z"/>
<path d="M11096 851 c-3 -5 1 -11 9 -15 12 -4 15 -25 15 -100 0 -80 -3 -97
-17 -105 -14 -8 -8 -10 27 -10 35 0 41 2 28 10 -15 9 -18 26 -18 119 0 102 -1
110 -19 110 -11 0 -22 -4 -25 -9z"/>
<path d="M11912 851 c-11 -7 -11 -9 2 -14 10 -4 16 -19 16 -41 0 -34 0 -34
-38 -29 -34 4 -42 1 -60 -22 -27 -35 -28 -65 -2 -98 18 -23 27 -25 87 -25 56
0 64 2 50 13 -14 10 -17 30 -17 119 0 108 -4 119 -38 97z m6 -103 c16 -16 15
-80 -1 -103 -23 -30 -65 -13 -73 30 -11 60 38 109 74 73z"/>
<path d="M12360 850 c-13 -8 -12 -10 3 -10 15 0 17 -11 17 -100 0 -84 -3 -101
-17 -109 -14 -8 -9 -10 26 -11 35 0 41 3 33 13 -6 7 -13 60 -14 117 -3 109
-11 125 -48 100z"/>
<path d="M210 833 c0 -10 -3 -29 -7 -42 -4 -17 -3 -22 5 -17 7 4 12 16 12 27
0 22 41 45 64 36 13 -5 16 -24 16 -101 0 -94 0 -94 -27 -104 -23 -9 -16 -10
42 -10 58 0 65 1 43 10 -28 10 -28 10 -28 109 0 97 1 99 23 99 31 0 55 -20 60
-50 3 -16 5 -9 6 18 l1 42 -105 0 c-93 0 -105 -2 -105 -17z"/>
<path d="M1181 772 c-28 -43 -51 -81 -51 -85 0 -4 18 -7 40 -7 47 0 65 -24 35
-46 -17 -13 -13 -14 31 -14 38 1 45 3 32 11 -10 5 -18 18 -18 29 0 10 8 21 18
23 16 4 16 5 0 6 -16 1 -18 12 -18 81 0 44 -4 80 -9 80 -5 0 -32 -35 -60 -78z
m39 -27 l0 -55 -35 0 c-19 0 -35 2 -35 5 0 6 64 105 68 105 1 0 2 -25 2 -55z"/>
<path d="M1566 834 c-3 -9 -6 -28 -6 -42 0 -26 1 -26 18 8 12 25 25 36 45 38
l27 3 0 -101 c0 -95 -1 -101 -22 -110 -17 -6 -4 -9 47 -8 44 0 61 3 45 7 -24
7 -25 10 -28 109 -3 100 -2 102 20 102 33 0 48 -12 58 -46 8 -27 8 -27 9 14
l1 42 -104 0 c-85 0 -105 -3 -110 -16z"/>
<path d="M2840 830 c0 -11 7 -20 15 -20 8 0 15 9 15 20 0 11 -7 20 -15 20 -8
0 -15 -9 -15 -20z"/>
<path d="M10174 839 c-10 -17 13 -36 27 -22 12 12 4 33 -11 33 -5 0 -12 -5
-16 -11z"/>
<path d="M11014 839 c-10 -17 13 -36 27 -22 12 12 4 33 -11 33 -5 0 -12 -5
-16 -11z"/>
<path d="M11200 830 c0 -11 7 -20 15 -20 8 0 15 9 15 20 0 11 -7 20 -15 20 -8
0 -15 -9 -15 -20z"/>
<path d="M10902 813 c-1 -12 -11 -28 -22 -36 -18 -12 -18 -15 -5 -20 11 -5 15
-20 15 -56 0 -64 7 -81 34 -81 28 0 46 18 45 44 0 17 -2 16 -11 -6 -13 -38
-36 -35 -43 5 -11 58 -3 90 25 98 l25 7 -27 1 c-22 1 -27 6 -31 34 -2 18 -4
22 -5 10z"/>
<path d="M12732 818 c-1 -10 -11 -27 -21 -37 -15 -15 -17 -21 -6 -25 9 -3 15
-26 17 -68 3 -58 5 -63 27 -66 15 -3 30 3 38 14 15 21 17 44 3 44 -5 0 -10 -9
-10 -19 0 -11 -5 -23 -11 -27 -18 -11 -29 18 -27 71 3 43 6 50 28 56 l25 7
-27 1 c-22 1 -27 6 -31 34 -2 17 -5 24 -5 15z"/>
<path d="M442 758 c-17 -17 -15 -38 3 -38 8 0 15 9 15 20 0 27 36 27 50 0 9
-17 8 -21 -7 -26 -76 -24 -98 -49 -73 -79 14 -17 66 -20 75 -5 4 6 13 5 26 -3
17 -10 22 -9 35 7 16 23 18 36 4 36 -5 0 -10 -9 -10 -21 0 -11 -4 -17 -10 -14
-5 3 -10 30 -10 59 0 28 -5 57 -12 64 -16 16 -70 16 -86 0z m78 -67 c0 -29
-21 -61 -40 -61 -31 0 -37 30 -11 52 25 19 51 24 51 9z"/>
<path d="M886 748 c-37 -53 -6 -128 52 -128 27 0 62 26 62 45 0 5 -9 -1 -20
-13 -26 -27 -56 -28 -70 -3 -21 41 -13 51 40 51 54 0 61 10 34 48 -10 15 -25
22 -49 22 -24 0 -39 -7 -49 -22z m78 -4 c11 -29 6 -34 -29 -34 -36 0 -46 15
-23 38 17 17 45 15 52 -4z"/>
<path d="M1320 750 c0 -11 7 -20 15 -20 8 0 15 9 15 20 0 11 -7 20 -15 20 -8
0 -15 -9 -15 -20z"/>
<path d="M2010 750 c-44 -44 -9 -130 52 -130 28 0 58 23 57 43 0 7 -7 2 -16
-10 -19 -28 -44 -29 -66 -5 -32 36 -22 52 33 52 43 0 50 3 50 19 0 48 -72 69
-110 31z m81 -17 c8 -21 6 -23 -31 -23 -44 0 -45 2 -29 31 14 26 49 21 60 -8z"/>
<path d="M2274 762 c-16 -10 -34 -48 -34 -70 0 -11 9 -31 21 -46 33 -41 109
-32 109 13 0 11 -5 9 -16 -7 -19 -28 -49 -28 -68 0 -27 38 -20 48 34 48 53 0
61 10 40 51 -11 19 -63 27 -86 11z m66 -23 c15 -27 10 -31 -33 -27 -31 3 -34
5 -26 26 11 28 45 29 59 1z"/>
<path d="M2697 752 c-47 -51 -18 -132 47 -132 35 0 56 15 56 39 0 11 -5 9 -16
-7 -31 -44 -76 -19 -76 43 0 41 16 65 43 65 12 0 19 -7 19 -20 0 -11 7 -20 15
-20 18 0 20 21 3 38 -18 18 -73 14 -91 -6z"/>
<path d="M2833 756 c12 -10 17 -27 17 -64 0 -38 -4 -54 -17 -61 -14 -8 -8 -10
27 -10 35 0 41 2 28 10 -14 8 -18 24 -18 74 0 64 0 65 -27 65 -25 -1 -26 -2
-10 -14z"/>
<path d="M2936 748 c-37 -53 -6 -128 52 -128 27 0 62 26 62 45 0 5 -9 -1 -20
-13 -26 -27 -56 -28 -70 -3 -21 41 -13 51 40 51 54 0 61 10 34 48 -10 15 -25
22 -49 22 -24 0 -39 -7 -49 -22z m78 -4 c11 -29 6 -34 -29 -34 -36 0 -46 15
-23 38 17 17 45 15 52 -4z"/>
<path d="M3070 760 c0 -5 5 -10 10 -10 14 0 12 -104 -2 -118 -9 -9 -3 -12 27
-12 30 0 36 3 27 12 -15 15 -16 82 -2 109 15 26 46 24 54 -3 12 -46 7 -97 -11
-107 -14 -8 -9 -10 26 -11 38 0 42 2 28 13 -11 8 -17 30 -19 72 -3 58 -4 60
-31 63 -16 2 -35 -2 -43 -9 -10 -8 -14 -8 -14 0 0 6 -11 11 -25 11 -14 0 -25
-4 -25 -10z"/>
<path d="M3276 748 c-24 -34 -21 -93 6 -112 27 -19 69 -21 86 -4 19 19 14 33
-6 15 -39 -36 -72 -10 -72 55 0 39 15 58 46 58 17 0 21 -4 17 -20 -4 -14 0
-20 12 -20 11 0 15 7 13 23 -2 18 -10 23 -45 25 -33 2 -44 -1 -57 -20z"/>
<path d="M3400 760 c0 -5 6 -10 13 -10 6 0 24 -29 38 -64 l27 -64 -20 -34
c-20 -33 -21 -33 -29 -10 -9 24 -29 22 -29 -3 0 -19 38 -29 55 -15 7 6 30 50
49 97 20 47 44 92 54 99 15 12 13 13 -16 14 -29 0 -33 -3 -27 -21 7 -20 -11
-79 -24 -79 -12 0 -32 67 -25 84 5 13 -1 16 -30 16 -20 0 -36 -4 -36 -10z"/>
<path d="M3707 763 c-13 -13 -7 -43 9 -43 11 0 15 6 11 20 -4 16 0 20 18 20
20 0 35 -17 35 -40 0 -4 -15 -11 -34 -14 -41 -8 -59 -27 -54 -58 2 -18 10 -24
36 -26 18 -2 40 2 48 9 11 9 14 9 14 0 0 -7 10 -11 23 -9 15 2 23 11 24 28 l3
25 -12 -25 c-11 -23 -12 -20 -17 38 -4 40 -11 66 -21 72 -17 11 -73 13 -83 3z
m73 -86 c0 -28 -17 -47 -42 -47 -24 0 -24 45 0 59 28 17 42 13 42 -12z"/>
<path d="M3863 756 c12 -10 17 -27 17 -64 0 -38 -4 -54 -17 -61 -14 -8 -9 -10
26 -11 40 0 43 1 26 13 -36 27 -1 139 39 124 20 -8 23 -106 4 -125 -9 -9 -3
-12 27 -12 30 0 36 3 27 12 -7 7 -12 32 -12 56 0 24 -5 52 -10 63 -12 22 -59
26 -78 7 -9 -9 -12 -9 -12 0 0 7 -12 12 -27 12 -25 -1 -26 -2 -10 -14z"/>
<path d="M4330 759 c0 -5 5 -9 10 -9 15 0 13 -177 -2 -183 -7 -3 5 -5 27 -5
22 0 34 2 28 5 -7 2 -13 17 -13 32 0 25 3 27 34 23 45 -5 76 25 76 73 0 54
-27 74 -99 74 -34 0 -61 -5 -61 -10z m120 -18 c32 -62 -15 -142 -58 -99 -16
16 -16 90 0 106 18 18 46 14 58 -7z"/>
<path d="M4545 750 c-27 -30 -25 -88 4 -111 26 -22 71 -25 89 -7 20 20 13 32
-7 14 -25 -23 -52 -17 -68 14 -17 34 -9 40 48 40 48 0 50 1 43 23 -3 12 -11
28 -16 35 -16 19 -73 15 -93 -8z m73 -2 c23 -23 13 -38 -23 -38 -35 0 -40 5
-29 34 7 19 35 21 52 4z"/>
<path d="M4683 756 c12 -10 17 -27 17 -64 0 -38 -4 -54 -17 -61 -14 -8 -7 -10
32 -11 49 0 49 0 26 16 -20 14 -22 22 -17 57 9 54 24 73 41 51 8 -12 14 -14
19 -6 17 28 -28 44 -52 20 -9 -9 -12 -9 -12 0 0 7 -12 12 -27 12 -25 -1 -26
-2 -10 -14z"/>
<path d="M4930 748 c-45 -48 -9 -128 57 -128 36 0 73 38 73 75 0 12 -9 34 -21
49 -27 34 -79 36 -109 4z m90 -7 c14 -28 12 -63 -6 -89 -30 -43 -74 -18 -74
43 0 40 18 65 45 65 14 0 29 -8 35 -19z"/>
<path d="M5080 759 c0 -5 5 -9 10 -9 14 0 12 -104 -2 -118 -9 -9 -2 -12 33
-12 35 1 40 3 27 11 -13 7 -18 23 -18 58 0 51 22 87 34 56 7 -18 26 -11 26 10
0 10 -15 14 -55 14 -30 0 -55 -5 -55 -10z"/>
<path d="M5210 761 c0 -5 7 -11 15 -15 23 -8 21 -102 -2 -115 -14 -8 -8 -10
27 -10 35 0 41 2 28 10 -26 15 -25 90 2 114 33 30 50 13 50 -49 0 -42 -4 -57
-17 -65 -14 -8 -9 -10 27 -11 34 0 41 3 32 12 -7 7 -12 33 -12 59 0 49 18 76
45 65 19 -7 21 -106 3 -124 -9 -9 -2 -12 33 -12 35 1 40 3 27 11 -14 7 -18 23
-18 62 0 29 -5 58 -12 65 -15 15 -60 16 -75 1 -8 -8 -13 -8 -17 0 -9 15 -59
14 -74 -1 -9 -9 -12 -9 -12 0 0 7 -11 12 -25 12 -14 0 -25 -4 -25 -9z"/>
<path d="M5517 763 c-13 -13 -7 -43 9 -43 11 0 15 6 11 20 -4 16 0 20 18 20
20 0 35 -17 35 -40 0 -4 -15 -11 -34 -14 -41 -8 -59 -27 -54 -58 2 -18 10 -24
36 -26 18 -2 40 2 48 9 11 9 14 9 14 0 0 -7 10 -11 23 -9 15 2 23 11 24 28 l3
25 -12 -25 c-11 -23 -12 -20 -17 38 -4 40 -11 66 -21 72 -17 11 -73 13 -83 3z
m73 -86 c0 -28 -17 -47 -42 -47 -24 0 -24 45 0 59 28 17 42 13 42 -12z"/>
<path d="M5660 761 c0 -5 7 -11 15 -15 23 -8 21 -102 -2 -115 -14 -8 -8 -10
27 -10 35 0 41 2 28 10 -26 15 -25 90 2 114 33 30 50 13 50 -49 0 -42 -4 -57
-17 -65 -14 -8 -9 -10 27 -11 34 0 41 3 32 12 -7 7 -12 29 -12 49 0 61 -15 89
-48 89 -15 0 -33 -5 -40 -12 -9 -9 -12 -9 -12 0 0 7 -11 12 -25 12 -14 0 -25
-4 -25 -9z"/>
<path d="M5871 751 c-45 -45 -11 -131 51 -131 28 0 58 23 57 43 0 7 -7 2 -16
-10 -43 -63 -110 18 -73 88 13 24 58 26 56 3 0 -9 5 -19 12 -22 10 -3 13 3 10
19 -4 34 -68 39 -97 10z"/>
<path d="M6016 748 c-37 -53 -6 -128 52 -128 27 0 62 26 62 45 0 5 -9 -1 -20
-13 -26 -27 -56 -28 -70 -3 -21 41 -13 51 40 51 54 0 61 10 34 48 -10 15 -25
22 -49 22 -24 0 -39 -7 -49 -22z m78 -4 c11 -29 6 -34 -29 -34 -36 0 -46 15
-23 38 17 17 45 15 52 -4z"/>
<path d="M6270 750 c-12 -12 -20 -33 -20 -55 0 -45 29 -75 73 -75 39 0 64 23
73 66 13 67 -77 113 -126 64z m89 -22 c27 -48 -16 -117 -56 -92 -22 13 -30 89
-12 110 18 22 51 13 68 -18z"/>
<path d="M6641 744 c-12 -15 -21 -37 -21 -49 0 -38 37 -75 76 -75 44 0 74 29
74 73 0 72 -86 106 -129 51z m87 4 c15 -15 16 -72 2 -99 -22 -41 -80 -6 -80
49 0 53 46 82 78 50z"/>
<path d="M6803 752 c9 -10 17 -40 19 -72 l3 -55 69 -2 c53 -2 66 1 58 9 -7 7
-12 40 -12 75 l0 63 -32 0 c-30 -1 -31 -2 -15 -14 21 -16 23 -84 4 -110 -7
-10 -22 -17 -33 -14 -16 3 -19 13 -22 71 -3 65 -4 67 -29 67 -24 0 -25 -1 -10
-18z"/>
<path d="M6980 759 c0 -5 5 -9 10 -9 14 0 12 -104 -2 -118 -9 -9 -2 -12 33
-12 35 1 40 3 27 11 -13 7 -18 23 -18 58 0 51 22 87 34 56 7 -18 26 -11 26 10
0 10 -15 14 -55 14 -30 0 -55 -5 -55 -10z"/>
<path d="M7210 759 c0 -5 5 -9 10 -9 15 0 13 -177 -2 -183 -7 -3 7 -5 32 -5
25 0 37 2 28 5 -12 3 -18 14 -18 32 0 25 3 27 33 23 47 -5 81 25 81 71 0 58
-25 76 -100 76 -35 -1 -64 -5 -64 -10z m120 -14 c6 -8 12 -30 12 -50 0 -40
-16 -65 -41 -65 -28 0 -41 21 -41 65 0 59 39 87 70 50z"/>
<path d="M7400 759 c0 -5 5 -9 10 -9 14 0 12 -104 -2 -118 -9 -9 -2 -12 33
-12 35 1 40 3 27 11 -13 7 -18 23 -18 58 0 51 22 87 34 56 7 -18 26 -11 26 10
0 10 -15 14 -55 14 -30 0 -55 -5 -55 -10z"/>
<path d="M7550 748 c-45 -48 -9 -128 57 -128 36 0 73 38 73 75 0 12 -9 34 -21
49 -27 34 -79 36 -109 4z m90 -7 c14 -28 12 -63 -6 -89 -30 -43 -74 -18 -74
43 0 40 18 65 45 65 14 0 29 -8 35 -19z"/>
<path d="M7700 759 c0 -5 5 -9 10 -9 15 0 13 -177 -2 -183 -7 -3 7 -5 32 -5
25 0 37 2 28 5 -12 3 -18 14 -18 32 0 25 3 27 33 23 47 -5 81 25 81 71 0 58
-25 76 -100 76 -35 -1 -64 -5 -64 -10z m120 -14 c6 -8 12 -30 12 -50 0 -40
-16 -65 -41 -65 -28 0 -41 21 -41 65 0 59 39 87 70 50z"/>
<path d="M7915 750 c-11 -12 -19 -36 -19 -55 0 -45 28 -75 71 -75 63 0 96 73
57 128 -20 30 -83 31 -109 2z m84 -4 c18 -21 10 -97 -11 -110 -25 -15 -50 3
-62 42 -16 56 40 108 73 68z"/>
<path d="M8071 751 c-14 -25 6 -51 50 -65 24 -8 34 -17 34 -31 0 -30 -56 -28
-70 3 -13 30 -25 28 -25 -6 0 -28 2 -29 50 -31 40 -1 51 2 60 19 17 32 3 57
-40 74 -47 19 -54 46 -12 46 20 0 32 -7 40 -22 10 -23 11 -23 11 5 1 25 -1 27
-44 27 -33 0 -47 -5 -54 -19z"/>
<path d="M8216 748 c-37 -53 -6 -128 52 -128 27 0 62 26 62 45 0 5 -9 -1 -20
-13 -26 -27 -56 -28 -70 -3 -21 41 -13 51 40 51 54 0 61 10 34 48 -10 15 -25
22 -49 22 -24 0 -39 -7 -49 -22z m78 -4 c11 -29 6 -34 -29 -34 -36 0 -46 15
-23 38 17 17 45 15 52 -4z"/>
<path d="M8643 756 c12 -10 17 -27 17 -64 0 -38 -4 -54 -17 -61 -14 -8 -9 -10
27 -11 34 0 41 3 32 12 -7 7 -12 33 -12 58 0 49 13 70 42 70 15 0 18 -9 18
-58 0 -32 -5 -63 -12 -70 -9 -9 -2 -12 33 -12 35 1 40 3 27 11 -38 22 -16 129
27 129 30 0 37 -112 8 -129 -14 -8 -9 -10 26 -11 41 0 43 1 28 18 -9 10 -17
40 -19 72 -3 52 -5 55 -31 58 -16 2 -34 -2 -42 -8 -10 -8 -19 -8 -34 2 -16 10
-27 10 -51 1 -16 -6 -30 -7 -30 -2 0 5 -12 9 -27 9 -25 -1 -26 -2 -10 -14z"/>
<path d="M8940 750 c-12 -12 -20 -33 -20 -55 0 -45 29 -75 73 -75 39 0 64 23
73 66 13 67 -77 113 -126 64z m89 -22 c27 -48 -16 -117 -56 -92 -22 13 -30 89
-12 110 18 22 51 13 68 -18z"/>
<path d="M9314 762 c-16 -10 -34 -48 -34 -70 0 -11 9 -31 21 -46 33 -41 109
-32 109 13 0 11 -5 9 -16 -7 -8 -12 -24 -22 -34 -22 -20 0 -50 35 -50 57 0 9
16 13 50 13 53 0 61 10 40 51 -11 19 -63 27 -86 11z m66 -23 c15 -27 10 -31
-33 -27 -31 3 -34 5 -26 26 11 28 45 29 59 1z"/>
<path d="M9720 764 c0 -3 7 -12 15 -20 8 -8 22 -39 31 -70 10 -30 22 -53 28
-51 5 2 16 23 24 47 l15 44 17 -43 c9 -23 20 -42 26 -42 5 1 19 27 30 58 12
32 27 59 33 61 22 7 10 22 -19 22 -29 0 -41 -15 -19 -22 9 -3 9 -13 0 -41 -7
-20 -16 -37 -20 -37 -15 0 -31 73 -19 87 8 10 3 13 -26 13 -36 0 -48 -13 -22
-23 12 -5 12 -13 4 -41 -6 -20 -14 -36 -18 -36 -14 0 -30 73 -18 87 8 10 3 13
-26 13 -20 0 -36 -3 -36 -6z"/>
<path d="M10160 760 c0 -5 5 -10 10 -10 6 0 10 -25 10 -55 0 -41 -4 -56 -17
-64 -14 -8 -9 -10 27 -11 34 0 41 3 32 12 -7 7 -12 39 -12 75 0 61 -1 63 -25
63 -14 0 -25 -4 -25 -10z"/>
<path d="M10271 751 c-45 -45 -11 -131 51 -131 28 0 58 23 57 43 0 7 -7 2 -16
-10 -43 -63 -110 18 -73 88 13 24 58 26 56 3 0 -9 5 -19 12 -22 10 -3 13 3 10
19 -4 34 -68 39 -97 10z"/>
<path d="M10680 760 c0 -5 5 -10 10 -10 6 0 10 -21 10 -46 0 -74 9 -83 87 -82
56 0 64 2 50 13 -13 9 -17 27 -17 74 0 60 0 61 -27 61 -25 -1 -26 -2 -10 -14
19 -15 22 -60 7 -101 -7 -20 -16 -26 -33 -23 -20 3 -22 9 -25 71 -3 64 -4 67
-27 67 -14 0 -25 -4 -25 -10z"/>
<path d="M11000 760 c0 -5 5 -10 10 -10 6 0 10 -25 10 -55 0 -41 -4 -56 -17
-64 -14 -8 -9 -10 27 -11 34 0 41 3 32 12 -7 7 -12 39 -12 75 0 61 -1 63 -25
63 -14 0 -25 -4 -25 -10z"/>
<path d="M11193 756 c12 -10 17 -27 17 -64 0 -38 -4 -54 -17 -61 -14 -8 -8
-10 27 -10 35 0 41 2 28 10 -14 8 -18 24 -18 74 0 64 0 65 -27 65 -25 -1 -26
-2 -10 -14z"/>
<path d="M11280 738 l1 -33 15 28 c11 20 22 27 46 27 l30 0 -28 -37 c-15 -21
-36 -49 -46 -62 -10 -13 -18 -28 -18 -32 0 -5 27 -9 60 -9 l60 0 -1 38 c-1 21
-4 28 -6 15 -6 -30 -27 -45 -57 -41 -25 3 -25 3 20 62 24 33 44 63 44 68 0 4
-27 8 -60 8 l-60 0 0 -32z"/>
<path d="M11445 750 c-27 -30 -25 -88 4 -111 26 -22 71 -25 89 -7 20 20 13 32
-7 14 -25 -23 -52 -17 -68 14 -17 34 -9 40 48 40 48 0 50 1 43 23 -3 12 -11
28 -16 35 -16 19 -73 15 -93 -8z m73 -2 c23 -23 13 -38 -23 -38 -35 0 -40 5
-29 34 7 19 35 21 52 4z"/>
<path d="M11581 751 c-14 -25 6 -51 50 -65 24 -8 34 -17 34 -31 0 -30 -56 -28
-70 3 -13 30 -25 28 -25 -6 0 -28 2 -29 50 -31 40 -1 51 2 60 19 17 32 3 57
-40 74 -47 19 -54 46 -12 46 20 0 32 -7 40 -22 10 -23 11 -23 11 5 1 25 -1 27
-44 27 -33 0 -47 -5 -54 -19z"/>
<path d="M12000 760 c0 -5 5 -10 10 -10 6 0 10 -21 10 -46 0 -74 9 -83 87 -82
56 0 64 2 50 13 -13 9 -17 27 -17 74 0 60 0 61 -27 61 -25 -1 -26 -2 -10 -14
19 -15 22 -60 7 -101 -7 -20 -16 -26 -33 -23 -20 3 -22 9 -25 71 -3 64 -4 67
-27 67 -14 0 -25 -4 -25 -10z"/>
<path d="M12207 763 c-13 -13 -7 -43 9 -43 12 0 15 6 11 21 -5 17 -1 20 21 17
19 -2 28 -10 30 -24 2 -17 -4 -23 -29 -28 -18 -3 -38 -11 -46 -17 -18 -16 -16
-56 3 -63 25 -9 62 -7 69 4 5 8 11 7 21 -1 20 -16 44 -3 43 23 -1 17 -2 18 -6
6 -10 -37 -23 -16 -23 37 0 43 -4 56 -19 65 -22 11 -74 14 -84 3z m71 -95 c-2
-28 -7 -33 -28 -33 -30 0 -38 26 -15 49 28 27 47 20 43 -16z"/>
<path d="M12572 758 c-25 -25 -13 -48 34 -68 52 -23 58 -53 11 -58 -21 -3 -29
2 -37 22 -12 34 -20 33 -20 -2 0 -27 3 -29 41 -30 48 -2 69 11 69 43 0 26 -13
38 -55 52 -38 12 -39 37 -2 41 21 3 29 -2 36 -20 10 -23 10 -22 10 5 1 25 -2
27 -37 27 -21 0 -43 -5 -50 -12z"/>
<path d="M12833 756 c12 -10 17 -27 17 -64 0 -38 -4 -54 -17 -61 -14 -8 -7
-10 32 -11 49 0 49 0 26 16 -20 14 -22 22 -17 57 9 54 24 73 41 51 8 -12 14
-14 19 -6 17 28 -28 44 -52 20 -9 -9 -12 -9 -12 0 0 7 -12 12 -27 12 -25 -1
-26 -2 -10 -14z"/>
<path d="M12975 750 c-27 -30 -25 -88 4 -111 26 -22 71 -25 89 -7 20 20 13 32
-7 14 -25 -23 -52 -17 -68 14 -17 34 -9 40 48 40 48 0 50 1 43 23 -3 12 -11
28 -16 35 -16 19 -73 15 -93 -8z m73 -2 c23 -23 13 -38 -23 -38 -35 0 -40 5
-29 34 7 19 35 21 52 4z"/>
<path d="M13127 763 c-13 -13 -7 -43 9 -43 12 0 15 6 11 21 -5 17 -1 20 21 17
19 -2 28 -10 30 -24 2 -17 -4 -23 -29 -28 -18 -3 -38 -11 -46 -17 -18 -16 -16
-56 3 -63 25 -9 62 -7 69 4 5 8 11 7 21 -1 20 -16 44 -3 43 23 -1 17 -2 18 -6
6 -10 -37 -23 -16 -23 37 0 43 -4 56 -19 65 -22 11 -74 14 -84 3z m71 -95 c-2
-28 -7 -33 -28 -33 -30 0 -38 26 -15 49 28 27 47 20 43 -16z"/>
<path d="M13283 756 c12 -10 17 -27 17 -64 0 -38 -4 -54 -17 -61 -14 -8 -9
-10 27 -11 34 0 41 3 32 12 -7 7 -12 33 -12 58 0 49 13 70 42 70 15 0 18 -9
18 -58 0 -32 -5 -63 -12 -70 -9 -9 -2 -12 33 -12 35 1 40 3 27 11 -38 22 -16
129 27 129 30 0 37 -112 8 -129 -14 -8 -9 -10 26 -11 41 0 43 1 28 18 -9 10
-17 40 -19 72 -3 52 -5 55 -31 58 -16 2 -34 -2 -42 -8 -10 -8 -19 -8 -34 2
-16 10 -27 10 -51 1 -16 -6 -30 -7 -30 -2 0 5 -12 9 -27 9 -25 -1 -26 -2 -10
-14z"/>
<path d="M12440 695 c0 -11 12 -15 45 -15 33 0 45 4 45 15 0 11 -12 15 -45 15
-33 0 -45 -4 -45 -15z"/>
<path d="M1320 640 c0 -11 7 -20 15 -20 8 0 15 9 15 20 0 11 -7 20 -15 20 -8
0 -15 -9 -15 -20z"/>
<path d="M9544 649 c-4 -7 1 -18 11 -25 16 -12 17 -17 6 -41 -11 -24 -11 -25
4 -13 10 9 15 25 13 48 -3 36 -20 52 -34 31z"/>
<path d="M2015 440 c-3 -5 -1 -10 4 -10 6 0 11 -17 11 -38 0 -37 -1 -38 -34
-34 -47 5 -76 -24 -76 -78 0 -30 5 -43 23 -54 27 -18 146 -21 128 -3 -7 7 -11
52 -11 119 0 100 -1 108 -19 108 -11 0 -23 -4 -26 -10z m4 -104 c18 -21 10
-97 -11 -110 -29 -18 -53 4 -56 53 -3 46 10 71 38 71 10 0 23 -6 29 -14z"/>
<path d="M2786 441 c-3 -5 1 -11 9 -15 12 -4 15 -25 15 -100 0 -80 -3 -97 -17
-105 -14 -8 -8 -10 27 -10 35 0 41 2 28 10 -15 9 -18 26 -18 119 0 102 -1 110
-19 110 -11 0 -22 -4 -25 -9z"/>
<path d="M5232 441 c-11 -7 -11 -9 2 -14 25 -10 23 -192 -1 -206 -14 -8 -8
-10 27 -10 35 0 41 2 28 10 -20 11 -24 44 -7 55 15 9 49 -35 42 -53 -4 -9 6
-13 33 -13 l39 0 -26 23 c-15 12 -35 34 -44 49 -17 27 -17 28 19 49 20 11 36
23 36 25 0 2 -16 4 -35 4 -24 0 -33 -4 -29 -13 2 -7 -7 -24 -21 -37 l-25 -23
0 81 c0 83 -6 94 -38 73z"/>
<path d="M6755 440 c-3 -5 -1 -10 4 -10 16 0 14 -193 -1 -208 -9 -9 -2 -12 33
-12 35 1 40 3 27 11 -15 9 -18 26 -18 119 0 102 -1 110 -19 110 -11 0 -23 -4
-26 -10z"/>
<path d="M7577 444 c-3 -4 0 -13 8 -21 8 -8 15 -27 15 -43 0 -27 -2 -28 -35
-23 -70 11 -113 -73 -65 -124 16 -18 31 -22 87 -22 50 0 63 3 51 10 -16 9 -18
26 -18 119 0 100 -2 110 -18 110 -10 0 -21 -3 -25 -6z m-3 -100 c19 -7 22 -94
4 -112 -31 -31 -68 -1 -68 53 0 52 24 74 64 59z"/>
<path d="M8352 441 c-11 -7 -11 -9 2 -14 25 -10 23 -192 -1 -206 -14 -8 -9
-10 26 -11 40 0 43 1 26 13 -36 27 -1 139 39 124 20 -8 23 -106 4 -125 -9 -9
-3 -12 27 -12 30 0 36 3 27 12 -7 7 -12 32 -12 56 0 24 -5 52 -10 63 -12 22
-59 26 -78 7 -9 -9 -12 1 -12 45 0 57 -8 67 -38 48z"/>
<path d="M9145 440 c-3 -5 -1 -10 4 -10 7 0 11 -39 11 -108 l0 -108 49 -2 c64
-3 95 21 95 71 0 52 -28 80 -76 75 l-38 -4 0 48 c0 41 -3 48 -19 48 -11 0 -23
-4 -26 -10z m123 -123 c24 -50 -16 -116 -55 -91 -22 13 -30 89 -12 110 18 22
52 13 67 -19z"/>
<path d="M9500 440 c-13 -8 -12 -10 3 -10 15 0 17 -11 17 -100 0 -84 -3 -101
-17 -109 -14 -8 -9 -10 26 -11 35 0 41 3 33 13 -6 7 -13 60 -14 117 -3 109
-11 125 -48 100z"/>
<path d="M10345 440 c-3 -5 -1 -10 4 -10 6 0 11 -17 11 -38 0 -37 -1 -38 -34
-34 -47 5 -76 -24 -76 -78 0 -30 5 -43 23 -54 27 -18 146 -21 128 -3 -7 7 -11
52 -11 119 0 100 -1 108 -19 108 -11 0 -23 -4 -26 -10z m4 -104 c18 -21 10
-97 -11 -110 -29 -18 -53 4 -56 53 -3 46 10 71 38 71 10 0 23 -6 29 -14z"/>
<path d="M10575 416 c-37 -40 -47 -81 -29 -131 16 -49 30 -63 74 -76 71 -22
140 36 140 118 0 108 -114 163 -185 89z m120 -1 c34 -33 36 -128 4 -169 -59
-76 -153 25 -119 128 21 65 73 84 115 41z"/>
<path d="M10858 434 c-58 -31 -77 -127 -36 -179 21 -27 73 -55 102 -55 21 0
73 46 79 70 3 11 1 20 -4 20 -5 0 -9 -7 -9 -15 0 -25 -38 -55 -70 -55 -50 0
-80 38 -80 102 0 56 16 90 51 109 32 17 76 -6 91 -47 15 -43 28 -34 28 22 0
41 -13 59 -23 32 -3 -10 -9 -10 -26 0 -27 16 -70 15 -103 -4z"/>
<path d="M12490 440 c-13 -8 -12 -10 3 -10 13 0 17 -9 17 -38 0 -37 -1 -38
-33 -34 -67 8 -109 -67 -67 -120 19 -25 27 -27 86 -27 50 1 63 4 55 13 -6 7
-12 59 -13 116 -3 109 -11 125 -48 100z m8 -102 c7 -7 12 -30 12 -53 0 -44
-13 -65 -41 -65 -25 0 -43 28 -43 65 0 54 41 84 72 53z"/>
<path d="M2350 420 c0 -11 7 -20 15 -20 8 0 15 9 15 20 0 11 -7 20 -15 20 -8
0 -15 -9 -15 -20z"/>
<path d="M8794 429 c-10 -17 13 -36 27 -22 12 12 4 33 -11 33 -5 0 -12 -5 -16
-11z"/>
<path d="M11040 423 c0 -10 -3 -29 -7 -42 -4 -17 -3 -22 5 -17 7 4 12 16 12
27 0 22 41 45 64 36 13 -5 16 -24 16 -101 0 -94 0 -94 -27 -104 -23 -9 -16
-10 42 -10 58 0 65 1 43 10 -28 10 -28 10 -28 109 0 97 1 99 23 99 31 0 55
-20 60 -50 3 -16 5 -9 6 18 l1 42 -105 0 c-93 0 -105 -2 -105 -17z"/>
<path d="M11304 415 c-28 -28 -28 -48 0 -53 13 -3 16 2 14 25 -3 24 1 28 24
31 22 3 30 -2 38 -22 13 -35 1 -63 -56 -127 l-48 -54 64 -3 c66 -3 80 4 80 43
-1 18 -1 19 -11 3 -7 -13 -23 -18 -52 -18 l-41 0 52 53 c61 61 67 94 26 126
-35 28 -59 26 -90 -4z"/>
<path d="M11479 421 c-18 -14 -23 -31 -27 -79 -6 -78 2 -108 33 -128 62 -40
110 17 103 124 -3 53 -8 68 -27 83 -29 24 -53 24 -82 0z m65 -13 c24 -34 22
-149 -3 -179 -19 -23 -19 -24 -40 -5 -18 16 -21 31 -21 97 0 57 4 82 16 93 21
21 30 20 48 -6z"/>
<path d="M11663 425 c-37 -10 -45 -28 -10 -23 21 3 22 0 22 -82 0 -80 -1 -85
-25 -97 -23 -12 -20 -13 35 -12 50 0 56 2 38 11 -21 10 -23 19 -25 112 l-3
101 -32 -10z"/>
<path d="M11800 426 c0 -6 -3 -22 -6 -36 -5 -21 -4 -22 6 -7 8 12 24 17 55 17
25 0 45 -2 45 -5 0 -2 -11 -21 -25 -41 -41 -61 -56 -142 -28 -151 8 -3 14 16
19 56 5 44 16 76 40 114 18 28 30 53 26 54 -33 8 -132 7 -132 -1z"/>
<path d="M12154 415 c-28 -28 -28 -48 0 -53 13 -3 16 2 14 25 -3 24 1 28 24
31 22 3 30 -2 38 -22 13 -35 1 -63 -56 -127 l-48 -54 64 -3 c66 -3 80 4 80 43
-1 18 -1 19 -11 3 -7 -13 -23 -18 -52 -18 l-41 0 52 53 c61 61 67 94 26 126
-35 28 -59 26 -90 -4z"/>
<path d="M3306 397 c-5 -15 -16 -32 -25 -37 -9 -6 -11 -10 -3 -10 8 0 12 -17
12 -53 0 -63 16 -90 51 -85 19 2 24 9 26 33 2 28 1 28 -5 5 -5 -14 -14 -25
-22 -25 -11 0 -16 16 -18 62 -3 61 -2 62 25 66 l28 4 -27 2 c-22 1 -27 6 -30
34 l-4 32 -8 -28z"/>
<path d="M4602 403 c-1 -12 -11 -28 -22 -36 -18 -12 -18 -15 -5 -20 11 -5 15
-20 15 -56 0 -64 7 -81 34 -81 28 0 46 18 45 44 0 17 -2 16 -11 -6 -13 -38
-36 -35 -43 5 -11 58 -3 90 25 98 l25 7 -27 1 c-22 1 -27 6 -31 34 -2 18 -4
22 -5 10z"/>
<path d="M7233 398 c-7 -14 -20 -31 -30 -37 -17 -10 -17 -10 0 -11 14 0 17
-10 17 -58 0 -62 11 -82 46 -82 22 0 35 18 33 48 -1 10 -4 6 -8 -8 -4 -14 -13
-25 -21 -25 -11 0 -16 16 -18 62 -3 57 -1 62 20 66 22 4 22 4 1 6 -17 1 -23 8
-25 34 l-4 32 -11 -27z"/>
<path d="M8246 397 c-5 -15 -16 -32 -25 -37 -9 -6 -11 -10 -3 -10 8 0 12 -17
12 -53 0 -63 16 -90 51 -85 19 2 24 9 26 33 2 28 1 28 -5 5 -5 -14 -14 -25
-22 -25 -11 0 -16 16 -18 62 -3 61 -2 62 25 66 l28 4 -27 2 c-22 1 -27 6 -30
34 l-4 32 -8 -28z"/>
<path d="M12783 398 c-7 -14 -20 -31 -30 -37 -17 -10 -17 -10 0 -11 14 0 17
-10 17 -58 0 -62 11 -82 46 -82 22 0 35 18 33 48 -1 10 -4 6 -8 -8 -4 -14 -13
-25 -21 -25 -11 0 -16 16 -18 62 -3 57 -1 62 20 66 22 4 22 4 1 6 -17 1 -23 8
-25 34 l-4 32 -11 -27z"/>
<path d="M13366 397 c-5 -15 -16 -32 -25 -37 -9 -6 -11 -10 -3 -10 8 0 12 -17
12 -53 0 -63 16 -90 51 -85 19 2 24 9 26 33 2 28 1 28 -5 5 -5 -14 -14 -25
-22 -25 -11 0 -16 16 -18 62 -3 61 -2 62 25 66 l28 4 -27 2 c-22 1 -27 6 -30
34 l-4 32 -8 -28z"/>
<path d="M2737 363 c-4 -4 -25 -6 -46 -5 -57 4 -73 -17 -65 -80 5 -33 2 -57
-6 -74 -17 -32 1 -52 53 -61 43 -7 87 17 87 47 0 24 -13 32 -69 45 -46 10 -72
36 -28 28 41 -8 67 13 67 53 0 31 2 35 21 29 15 -5 20 -3 17 6 -5 16 -22 22
-31 12z m-39 -47 c4 -36 -11 -54 -33 -36 -15 13 -20 51 -8 64 15 15 38 0 41
-28z m39 -122 c7 -19 -21 -44 -48 -44 -24 0 -64 35 -55 48 12 19 95 15 103 -4z"/>
<path d="M1580 345 c-9 -11 -10 -19 -2 -27 14 -14 33 -1 25 17 -6 18 27 21 45
3 21 -21 13 -36 -22 -42 -44 -8 -74 -41 -59 -64 8 -13 26 -17 74 -18 64 -2 79
6 78 36 0 8 -5 4 -10 -10 -14 -35 -29 -9 -29 51 0 25 -5 50 -12 57 -17 17 -73
15 -88 -3z m80 -78 c0 -28 -17 -47 -42 -47 -30 0 -34 31 -9 52 31 25 51 23 51
-5z"/>
<path d="M1730 351 c0 -5 7 -11 15 -15 23 -8 21 -102 -2 -115 -14 -8 -8 -10
27 -10 35 0 41 2 28 10 -26 15 -25 90 2 114 33 30 50 13 50 -49 0 -42 -4 -57
-17 -65 -14 -8 -9 -10 27 -11 34 0 41 3 32 12 -7 7 -12 29 -12 49 0 61 -15 89
-48 89 -15 0 -33 -5 -40 -12 -9 -9 -12 -9 -12 0 0 7 -11 12 -25 12 -14 0 -25
-4 -25 -9z"/>
<path d="M2213 353 c-7 -2 -13 -15 -13 -28 0 -26 10 -35 55 -50 40 -13 42 -49
3 -53 -21 -3 -30 3 -42 25 l-15 28 -1 -31 c0 -28 2 -30 41 -33 47 -2 69 12 69
44 0 26 -13 38 -55 52 -42 14 -46 43 -5 43 22 0 33 -6 40 -22 8 -22 9 -22 9 5
1 25 -2 27 -36 26 -21 0 -44 -3 -50 -6z"/>
<path d="M2343 346 c12 -10 17 -27 17 -64 0 -38 -4 -54 -17 -61 -14 -8 -8 -10
27 -10 35 0 41 2 28 10 -14 8 -18 24 -18 74 0 64 0 65 -27 65 -25 -1 -26 -2
-10 -14z"/>
<path d="M2433 346 c12 -10 17 -27 17 -64 0 -38 -4 -54 -17 -61 -14 -8 -9 -10
27 -11 34 0 41 3 32 12 -7 7 -12 33 -12 58 0 49 13 70 42 70 15 0 18 -9 18
-58 0 -32 -5 -63 -12 -70 -9 -9 -2 -12 32 -12 37 0 41 2 27 13 -11 8 -17 30
-19 66 -4 65 -21 82 -68 64 -16 -6 -30 -7 -30 -2 0 5 -12 9 -27 9 -25 -1 -26
-2 -10 -14z"/>
<path d="M2895 340 c-27 -30 -25 -88 4 -111 26 -22 71 -25 89 -7 20 20 13 32
-7 14 -25 -23 -52 -17 -68 14 -17 34 -9 40 48 40 48 0 50 1 43 23 -3 12 -11
28 -16 35 -16 19 -73 15 -93 -8z m73 -2 c23 -23 13 -38 -23 -38 -35 0 -40 5
-29 34 7 19 35 21 52 4z"/>
<path d="M3153 353 c-7 -2 -13 -15 -13 -28 0 -26 10 -35 55 -50 40 -13 42 -49
3 -53 -21 -3 -30 3 -42 25 l-15 28 -1 -31 c0 -28 2 -30 41 -33 47 -2 69 12 69
44 0 26 -13 38 -55 52 -42 14 -46 43 -5 43 22 0 33 -6 40 -22 8 -22 9 -22 9 5
1 25 -2 27 -36 26 -21 0 -44 -3 -50 -6z"/>
<path d="M3400 350 c0 -5 5 -10 10 -10 14 0 12 -104 -2 -118 -9 -9 -2 -12 32
-12 37 1 42 3 27 11 -15 9 -18 22 -17 62 2 29 2 58 1 65 -1 14 -51 17 -51 2z"/>
<path d="M3460 349 c0 -5 4 -8 9 -5 5 3 12 -1 15 -10 7 -18 26 -10 26 12 0 8
-10 14 -25 14 -14 0 -25 -5 -25 -11z"/>
<path d="M3564 352 c-16 -10 -34 -48 -34 -70 0 -11 9 -31 21 -46 33 -41 109
-32 109 13 0 11 -5 9 -16 -7 -8 -12 -24 -22 -34 -22 -20 0 -50 35 -50 57 0 9
16 13 50 13 53 0 61 10 40 51 -11 19 -63 27 -86 11z m66 -23 c15 -27 10 -31
-33 -27 -31 3 -34 5 -26 26 11 28 45 29 59 1z"/>
<path d="M3707 353 c-13 -13 -7 -43 9 -43 11 0 15 6 11 20 -4 16 0 20 18 20
20 0 35 -17 35 -40 0 -4 -15 -11 -34 -14 -41 -8 -59 -27 -54 -58 2 -18 10 -24
36 -26 18 -2 40 2 48 9 11 9 14 9 14 0 0 -7 10 -11 23 -9 15 2 23 11 24 28 l3
25 -12 -25 c-11 -23 -12 -20 -17 38 -4 40 -11 66 -21 72 -17 11 -73 13 -83 3z
m73 -86 c0 -28 -17 -47 -42 -47 -24 0 -24 45 0 59 28 17 42 13 42 -12z"/>
<path d="M3863 346 c12 -10 17 -27 17 -64 0 -38 -4 -54 -17 -61 -14 -8 -9 -10
26 -11 40 0 43 1 26 13 -36 27 -1 139 39 124 20 -8 23 -106 4 -125 -9 -9 -3
-12 27 -12 30 0 36 3 27 12 -7 7 -12 33 -12 58 0 48 13 70 41 70 30 0 41 -97
13 -124 -14 -15 -12 -16 27 -16 36 0 40 2 26 13 -11 8 -17 30 -19 66 -4 65
-21 82 -68 64 -17 -6 -32 -7 -36 -2 -8 13 -58 11 -72 -3 -9 -9 -12 -9 -12 0 0
7 -12 12 -27 12 -25 -1 -26 -2 -10 -14z"/>
<path d="M4230 350 c0 -5 5 -10 10 -10 14 0 12 -104 -2 -118 -9 -9 -3 -12 27
-12 30 0 36 3 27 12 -15 15 -16 82 -2 109 15 26 46 24 54 -3 12 -46 7 -97 -11
-107 -14 -8 -9 -10 26 -11 38 0 42 2 28 13 -11 8 -17 30 -19 72 -3 58 -4 60
-31 63 -16 2 -35 -2 -43 -9 -10 -8 -14 -8 -14 0 0 6 -11 11 -25 11 -14 0 -25
-4 -25 -10z"/>
<path d="M4435 340 c-27 -30 -25 -88 4 -111 26 -22 71 -25 89 -7 20 20 13 32
-7 14 -25 -23 -52 -17 -68 14 -17 34 -9 40 48 40 48 0 50 1 43 23 -3 12 -11
28 -16 35 -16 19 -73 15 -93 -8z m73 -2 c23 -23 13 -38 -23 -38 -35 0 -40 5
-29 34 7 19 35 21 52 4z"/>
<path d="M4693 346 c9 -7 17 -16 17 -19 0 -16 42 -117 49 -117 4 0 13 18 20
40 6 22 15 40 20 40 4 0 13 -18 20 -40 6 -22 16 -40 21 -40 4 0 18 29 30 65
12 36 26 65 31 65 5 0 9 5 9 10 0 6 -11 10 -25 10 -22 0 -25 -4 -20 -23 4 -13
0 -39 -8 -58 l-13 -34 -17 48 c-9 26 -12 47 -6 47 5 0 9 5 9 10 0 6 -13 10
-30 10 -16 0 -30 -4 -30 -10 0 -5 5 -10 11 -10 8 0 9 -11 5 -32 -10 -50 -21
-52 -39 -8 -8 22 -11 40 -6 40 5 0 9 5 9 10 0 6 -17 10 -37 10 -34 -1 -36 -2
-20 -14z"/>
<path d="M4940 338 c-45 -48 -9 -128 57 -128 36 0 73 38 73 75 0 12 -9 34 -21
49 -27 34 -79 36 -109 4z m90 -7 c14 -28 12 -63 -6 -89 -30 -43 -74 -18 -74
43 0 40 18 65 45 65 14 0 29 -8 35 -19z"/>
<path d="M5090 350 c0 -5 5 -10 10 -10 14 0 12 -104 -2 -118 -9 -9 -2 -12 33
-12 36 1 41 3 26 11 -15 9 -18 22 -17 62 2 29 2 58 1 65 -1 14 -51 17 -51 2z"/>
<path d="M5150 349 c0 -5 4 -8 9 -5 5 3 12 -1 15 -10 7 -18 26 -10 26 12 0 8
-10 14 -25 14 -14 0 -25 -5 -25 -11z"/>
<path d="M5412 348 c-25 -25 -13 -48 34 -68 52 -23 58 -53 11 -58 -21 -3 -29
2 -37 22 -12 34 -20 33 -20 -2 0 -27 3 -29 41 -30 48 -2 69 11 69 43 0 26 -13
38 -55 52 -38 12 -39 37 -2 41 21 3 29 -2 36 -20 10 -23 10 -22 10 5 1 25 -2
27 -37 27 -21 0 -43 -5 -50 -12z"/>
<path d="M5747 353 c-13 -13 -7 -43 9 -43 12 0 15 6 11 21 -5 17 -1 20 21 17
19 -2 28 -10 30 -24 2 -17 -4 -23 -29 -28 -18 -3 -38 -11 -46 -17 -18 -16 -16
-56 3 -63 25 -9 62 -7 69 4 5 8 11 7 21 -1 20 -16 44 -3 43 23 -1 17 -2 18 -6
6 -10 -37 -23 -16 -23 37 0 43 -4 56 -19 65 -22 11 -74 14 -84 3z m71 -95 c-2
-28 -7 -33 -28 -33 -30 0 -38 26 -15 49 28 27 47 20 43 -16z"/>
<path d="M5903 346 c12 -10 17 -27 17 -64 0 -38 -4 -54 -17 -61 -14 -8 -9 -10
26 -11 40 0 43 1 26 13 -14 11 -17 23 -13 61 7 59 22 78 41 51 10 -12 16 -14
21 -7 17 28 -28 44 -52 20 -9 -9 -12 -9 -12 0 0 7 -12 12 -27 12 -25 -1 -26
-2 -10 -14z"/>
<path d="M6045 340 c-27 -30 -25 -88 4 -111 26 -22 71 -25 89 -7 20 20 13 32
-7 14 -25 -23 -52 -17 -68 14 -17 34 -9 40 48 40 48 0 50 1 43 23 -3 12 -11
28 -16 35 -16 19 -73 15 -93 -8z m73 -2 c23 -23 13 -38 -23 -38 -35 0 -40 5
-29 34 7 19 35 21 52 4z"/>
<path d="M6290 340 c-44 -44 -9 -130 52 -130 28 0 58 23 57 43 0 7 -7 2 -16
-10 -19 -28 -44 -29 -66 -5 -32 36 -22 52 33 52 43 0 50 3 50 19 0 48 -72 69
-110 31z m81 -17 c8 -21 6 -23 -31 -23 -44 0 -45 2 -29 31 14 26 49 21 60 -8z"/>
<path d="M6420 350 c0 -5 4 -10 9 -10 5 0 21 -29 36 -65 16 -36 31 -65 35 -65
4 0 18 27 30 61 13 33 29 63 37 66 22 9 14 23 -13 23 -19 0 -25 -4 -20 -15 3
-9 -2 -34 -11 -57 l-17 -42 -18 43 c-14 33 -16 47 -7 57 9 11 5 14 -25 14 -20
0 -36 -4 -36 -10z"/>
<path d="M6602 348 c-17 -17 -15 -38 3 -38 8 0 15 9 15 20 0 27 36 27 50 0 9
-17 8 -21 -7 -26 -76 -24 -98 -49 -73 -79 14 -17 66 -20 75 -5 4 6 13 5 26 -3
17 -10 22 -9 35 7 16 23 18 36 4 36 -5 0 -10 -9 -10 -21 0 -11 -4 -17 -10 -14
-5 3 -10 30 -10 59 0 60 -12 76 -55 76 -17 0 -36 -5 -43 -12z m78 -67 c0 -29
-21 -61 -40 -61 -31 0 -37 30 -11 52 25 19 51 24 51 9z"/>
<path d="M6853 342 c9 -10 17 -40 19 -72 l3 -55 69 -2 c53 -2 66 1 58 9 -7 7
-12 40 -12 75 l0 63 -32 0 c-30 -1 -31 -2 -15 -14 21 -16 23 -84 4 -110 -7
-10 -22 -17 -33 -14 -16 3 -19 13 -22 71 -3 65 -4 67 -29 67 -24 0 -25 -1 -10
-18z"/>
<path d="M7052 348 c-17 -17 -15 -38 3 -38 8 0 15 9 15 20 0 27 36 27 50 0 9
-17 8 -21 -7 -26 -76 -24 -98 -49 -73 -79 14 -17 66 -20 75 -5 4 6 13 5 26 -3
17 -10 22 -9 35 7 16 23 18 36 4 36 -5 0 -10 -9 -10 -21 0 -11 -4 -17 -10 -14
-5 3 -10 30 -10 59 0 60 -12 76 -55 76 -17 0 -36 -5 -43 -12z m78 -67 c0 -29
-21 -61 -40 -61 -31 0 -37 30 -11 52 25 19 51 24 51 9z"/>
<path d="M7346 338 c-37 -53 -6 -128 52 -128 27 0 62 26 62 45 0 5 -9 -1 -20
-13 -26 -27 -56 -28 -70 -3 -21 41 -13 51 40 51 54 0 61 10 34 48 -10 15 -25
22 -49 22 -24 0 -39 -7 -49 -22z m78 -4 c11 -29 6 -34 -29 -34 -36 0 -46 15
-23 38 17 17 45 15 52 -4z"/>
<path d="M7780 338 c-45 -48 -9 -128 57 -128 36 0 73 38 73 75 0 12 -9 34 -21
49 -27 34 -79 36 -109 4z m90 -7 c14 -28 12 -63 -6 -89 -30 -43 -74 -18 -74
43 0 40 18 65 45 65 14 0 29 -8 35 -19z"/>
<path d="M7930 351 c0 -5 7 -11 15 -15 23 -8 21 -102 -2 -115 -14 -8 -8 -10
27 -10 35 0 41 2 28 10 -26 15 -25 90 2 114 33 30 50 13 50 -49 0 -42 -4 -57
-17 -65 -14 -8 -9 -10 27 -11 34 0 41 3 32 12 -7 7 -12 29 -12 49 0 61 -15 89
-48 89 -15 0 -33 -5 -40 -12 -9 -9 -12 -9 -12 0 0 7 -11 12 -25 12 -14 0 -25
-4 -25 -9z"/>
<path d="M8550 340 c-44 -44 -9 -130 52 -130 28 0 58 23 57 43 0 7 -7 2 -16
-10 -19 -28 -44 -29 -66 -5 -32 36 -22 52 33 52 43 0 50 3 50 19 0 48 -72 69
-110 31z m81 -17 c8 -21 6 -23 -31 -23 -44 0 -45 2 -29 31 14 26 49 21 60 -8z"/>
<path d="M8780 350 c0 -5 5 -10 10 -10 6 0 10 -25 10 -55 0 -41 -4 -56 -17
-64 -14 -8 -9 -10 27 -11 34 0 41 3 32 12 -7 7 -12 39 -12 75 0 61 -1 63 -25
63 -14 0 -25 -4 -25 -10z"/>
<path d="M8870 350 c0 -5 5 -10 10 -10 14 0 12 -104 -2 -118 -9 -9 -3 -12 27
-12 30 0 36 3 27 12 -15 15 -16 82 -2 109 15 26 46 24 54 -3 12 -46 7 -97 -11
-107 -14 -8 -8 -10 27 -10 35 0 41 2 28 10 -41 23 -7 142 35 126 25 -9 24
-112 0 -126 -14 -8 -9 -10 27 -11 34 0 41 3 32 12 -7 7 -12 32 -12 56 0 58
-14 82 -48 82 -16 0 -33 -5 -39 -11 -8 -8 -13 -8 -17 0 -9 15 -59 14 -74 -1
-9 -9 -12 -9 -12 0 0 7 -11 12 -25 12 -14 0 -25 -4 -25 -10z"/>
<path d="M9352 348 c-17 -17 -15 -38 3 -38 8 0 15 9 15 20 0 27 36 27 50 0 9
-17 8 -21 -7 -26 -76 -24 -98 -49 -73 -79 14 -17 66 -20 75 -5 4 6 13 5 26 -3
17 -10 22 -9 35 7 16 23 18 36 4 36 -5 0 -10 -9 -10 -21 0 -11 -4 -17 -10 -14
-5 3 -10 30 -10 59 0 60 -12 76 -55 76 -17 0 -36 -5 -43 -12z m78 -67 c0 -29
-21 -61 -40 -61 -31 0 -37 30 -11 52 25 19 51 24 51 9z"/>
<path d="M9610 345 c-9 -11 -10 -19 -2 -27 14 -14 33 -1 25 17 -6 18 27 21 45
3 21 -21 13 -36 -22 -42 -44 -8 -74 -41 -59 -64 8 -13 26 -17 74 -18 64 -2 79
6 78 36 0 8 -5 4 -10 -10 -14 -35 -29 -9 -29 51 0 25 -5 50 -12 57 -17 17 -73
15 -88 -3z m80 -78 c0 -28 -17 -47 -42 -47 -30 0 -34 31 -9 52 31 25 51 23 51
-5z"/>
<path d="M9760 350 c0 -5 5 -10 10 -10 14 0 12 -104 -2 -118 -9 -9 -3 -12 27
-12 30 0 36 3 27 12 -15 15 -16 82 -2 109 15 26 46 24 54 -3 12 -46 7 -97 -11
-107 -14 -8 -9 -10 26 -11 38 0 42 2 28 13 -11 8 -17 30 -19 72 -3 58 -4 60
-31 63 -16 2 -35 -2 -43 -9 -10 -8 -14 -8 -14 0 0 6 -11 11 -25 11 -14 0 -25
-4 -25 -10z"/>
<path d="M9966 338 c-24 -34 -21 -93 6 -112 27 -19 69 -21 86 -4 19 19 14 33
-6 15 -39 -36 -72 -10 -72 55 0 39 15 58 46 58 17 0 21 -4 17 -20 -4 -14 0
-20 12 -20 11 0 15 7 13 23 -2 18 -10 23 -45 25 -33 2 -44 -1 -57 -20z"/>
<path d="M10115 340 c-27 -30 -25 -88 4 -111 26 -22 71 -25 89 -7 20 20 13 32
-7 14 -25 -23 -52 -17 -68 14 -17 34 -9 40 48 40 48 0 50 1 43 23 -3 12 -11
28 -16 35 -16 19 -73 15 -93 -8z m73 -2 c23 -23 13 -38 -23 -38 -35 0 -40 5
-29 34 7 19 35 21 52 4z"/>
<path d="M11950 350 c0 -5 4 -10 9 -10 5 0 21 -29 36 -65 16 -36 31 -65 35
-65 4 0 18 27 30 61 13 33 29 63 37 66 22 9 14 23 -13 23 -19 0 -25 -4 -20
-15 3 -9 -2 -34 -11 -57 l-17 -42 -18 43 c-14 33 -16 47 -7 57 9 11 5 14 -25
14 -20 0 -36 -4 -36 -10z"/>
<path d="M12600 345 c-9 -11 -10 -19 -2 -27 14 -14 33 -1 25 17 -6 18 27 21
45 3 21 -21 13 -36 -22 -42 -44 -8 -74 -41 -59 -64 8 -13 26 -17 74 -18 64 -2
79 6 78 36 0 8 -5 4 -10 -10 -14 -35 -29 -9 -29 51 0 25 -5 50 -12 57 -17 17
-73 15 -88 -3z m80 -78 c0 -28 -17 -47 -42 -47 -30 0 -34 31 -9 52 31 25 51
23 51 -5z"/>
<path d="M12900 345 c-9 -11 -10 -19 -2 -27 14 -14 33 -1 25 17 -6 18 27 21
45 3 21 -21 13 -36 -22 -42 -44 -8 -74 -41 -59 -64 8 -13 26 -17 74 -18 64 -2
79 6 78 36 0 8 -5 4 -10 -10 -14 -35 -29 -9 -29 51 0 25 -5 50 -12 57 -17 17
-73 15 -88 -3z m80 -78 c0 -28 -17 -47 -42 -47 -30 0 -34 31 -9 52 31 25 51
23 51 -5z"/>
<path d="M13063 353 c-7 -2 -13 -15 -13 -28 0 -26 10 -35 55 -50 40 -13 42
-49 3 -53 -21 -3 -30 3 -42 25 l-15 28 -1 -31 c0 -28 2 -30 41 -33 47 -2 69
12 69 44 0 26 -13 38 -55 52 -42 14 -46 43 -5 43 22 0 33 -6 40 -22 8 -22 9
-22 9 5 1 25 -2 27 -36 26 -21 0 -44 -3 -50 -6z"/>
<path d="M13200 340 c-44 -44 -9 -130 52 -130 28 0 58 23 57 43 0 7 -7 2 -16
-10 -19 -28 -44 -29 -66 -5 -32 36 -22 52 33 52 43 0 50 3 50 19 0 48 -72 69
-110 31z m81 -17 c8 -21 6 -23 -31 -23 -44 0 -45 2 -29 31 14 26 49 21 60 -8z"/>
<path d="M3020 285 c0 -11 12 -15 45 -15 33 0 45 4 45 15 0 11 -12 15 -45 15
-33 0 -45 -4 -45 -15z"/>
<path d="M5554 239 c-4 -7 1 -18 12 -26 16 -12 17 -16 6 -34 -8 -12 -11 -23
-9 -26 10 -9 28 38 25 64 -3 29 -22 41 -34 22z"/>
<path d="M13484 239 c-10 -17 13 -36 27 -22 12 12 4 33 -11 33 -5 0 -12 -5
-16 -11z"/>
</g>
</svg>
