<svg xmlns="http://www.w3.org/2000/svg" xmlns:xlink="http://www.w3.org/1999/xlink" width="1040pt" height="476pt" viewBox="0 0 1040 476"><clipPath id="a"><path transform="matrix(1 0 0 -1 0 476)" d="M0 .145h1039.855V476H0z"/></clipPath><g clip-path="url(#a)"><path d="M0 0h1039.855v475.855H0z" fill="#fff"/></g><path d="M.545.909h1038.546v474.11H.545z" fill="#fff"/><clipPath id="b"><path transform="matrix(1 0 0 -1 0 476)" d="M.218 1.018h1038.764v474.11H.218z"/></clipPath><g clip-path="url(#b)"><path stroke-width=".762" stroke-linejoin="round" fill="none" stroke="#d9d9d9" d="M11.564 63.636V441.31M138.55 63.636V441.31M265.537 63.636V441.31M392.74 63.636V441.31M519.727 63.636V441.31M646.713 63.636V441.31M773.917 63.636V441.31M900.903 63.636V441.31m127.17-377.673V441.31"/></g><clipPath id="c"><path transform="matrix(1 0 0 -1 0 476)" d="M11.345 33.964h1017.382v378.545H11.345z"/></clipPath><g clip-path="url(#c)"><path d="M33.056 132.265h9.819V441.2h-9.819zM160.26 389.073h9.6V441.2h-9.6zm126.986-9.382h9.819V441.2h-9.819zm126.986 2.836h9.819V441.2h-9.819zm127.204 8.51h9.6V441.2h-9.6zm126.986-1.964h9.819V441.2h-9.818zm126.986 1.964h9.819V441.2h-9.818zm127.205-3.71h9.6V441.2h-9.6z" fill="#156082"/></g><clipPath id="d"><path transform="matrix(1 0 0 -1 0 476)" d="M11.345 33.964h1017.382v378.545H11.345z"/></clipPath><g clip-path="url(#d)"><path d="M51.602 119.61h9.819V441.2h-9.819zm127.204 168.223h9.6V441.2h-9.6zm126.986 77.894h9.819V441.2h-9.819zm126.986-50.402h9.819V441.2h-9.819zm127.205-13.527h9.6V441.2h-9.6zm126.986 39.492h9.818v99.91h-9.818zm126.986-82.694h9.818V441.2h-9.818zm127.204 107.13h9.6V441.2h-9.6z" fill="#e97132"/></g><clipPath id="e"><path transform="matrix(1 0 0 -1 0 476)" d="M11.345 33.964h1017.382v378.545H11.345z"/></clipPath><g clip-path="url(#e)"><path d="M70.148 141.647h9.819V441.2h-9.819zm126.986 68.075h9.819V441.2h-9.819zM324.34 309.87h9.6V441.2h-9.6zm126.986-26.4h9.818V441.2h-9.818zm126.986-42.765h9.818V441.2h-9.818zm127.204 56.074h9.6V441.2h-9.6zM832.5 240.705h9.818V441.2h-9.818zm127.204 81.82h9.6V441.2h-9.6z" fill="#196b24"/></g><clipPath id="f"><path transform="matrix(1 0 0 -1 0 476)" d="M11.345 33.964h1017.382v378.545H11.345z"/></clipPath><g clip-path="url(#f)"><path d="M88.694 113.5h9.819v327.7h-9.819zM215.68 255.542h9.819V441.2h-9.819zm127.205 109.094h9.6V441.2h-9.6zm126.986-37.747h9.818V441.2h-9.819zm126.986-13.527h9.818V441.2h-9.818zm127.204 39.055h9.6V441.2h-9.6zm126.986-81.602h9.818V441.2h-9.818zm126.986 105.821h9.818V441.2h-9.818z" fill="#0f9ed5"/></g><clipPath id="g"><path transform="matrix(1 0 0 -1 0 476)" d="M11.345 33.964h1017.382v378.545H11.345z"/></clipPath><g clip-path="url(#g)"><path d="M107.24 147.538h9.6V441.2h-9.6zm126.986 163.86h9.819V441.2h-9.819zm126.986 52.147h9.819V441.2h-9.819zm127.205-25.31h9.6V441.2h-9.6zm126.986-13.091h9.818V441.2h-9.818zm127.204 50.401h9.6V441.2h-9.6zm126.986-92.73h9.818V441.2h-9.818zm126.986 104.513h9.818V441.2h-9.818z" fill="#a02b93"/></g><clipPath id="h"><path transform="matrix(1 0 0 -1 0 476)" d="M.218 1.018h1038.764v474.11H.218z"/></clipPath><g clip-path="url(#h)"><path stroke-width=".762" stroke-linejoin="round" fill="none" stroke="#d9d9d9" d="M11.564 441.31h1016.509"/></g><clipPath id="i"><path transform="matrix(1 0 0 -1 0 476)" d="M.218 1.018h1038.764v474.11H.218z"/></clipPath><g clip-path="url(#i)"><symbol id="j"><path d="M.45.244v-.07H.36V0H.28v.175H0v.062l.307.439h.054V.244H.45m-.17 0v.329L.048.244H.28z"/></symbol><symbol id="k"><path d="M0 .339c0 .075.011.14.034.195a.273.273 0 0 0 .091.122c.03.02.06.031.09.031C.268.688.313.662.354.61A.41.41 0 0 0 .428.35.514.514 0 0 0 .395.152.26.26 0 0 0 .31.036.173.173 0 0 0 .21 0C.149 0 .096.037.054.112A.455.455 0 0 0 0 .339M.096.327c0-.091.01-.166.033-.223C.148.055.176.03.212.03.23.03.248.039.267.054a.152.152 0 0 1 .043.08.965.965 0 0 1 .023.237.648.648 0 0 1-.024.189.168.168 0 0 1-.045.08.077.077 0 0 1-.107-.014.249.249 0 0 1-.049-.128A1.185 1.185 0 0 1 .096.327z"/></symbol><symbol id="l"><path d="M.054.108A.052.052 0 0 0 .093.092.052.052 0 0 0 .108.054.053.053 0 0 0 .092.016.052.052 0 0 0 .054 0 .053.053 0 0 0 0 .054C0 .07.005.082.016.093c.01.01.023.015.038.015z"/></symbol><symbol id="m"><path d="M.013 0v.018c.043 0 .082.01.118.03.037.019.072.052.106.1.034.047.058.1.071.156A.263.263 0 0 0 .17.254.157.157 0 0 0 .05.31.204.204 0 0 0 0 .452c0 .058.017.11.05.155a.185.185 0 0 0 .296.015.306.306 0 0 0 .071-.206A.411.411 0 0 0 .363.21a.458.458 0 0 0-.15-.158A.305.305 0 0 0 .04 0H.013m.303.34a.78.78 0 0 1 .009.102.362.362 0 0 1-.016.102.191.191 0 0 1-.046.084.092.092 0 0 1-.067.03.097.097 0 0 1-.076-.04C.098.594.087.555.087.503.087.434.1.38.13.342A.095.095 0 0 1 .208.298C.223.3.241.303.262.31.282.317.3.327.316.34z"/></symbol><symbol id="n"><path d="m0 .597.161.079h.016v-.56C.177.08.18.057.182.048a.037.037 0 0 1 .02-.02A.164.164 0 0 1 .26.017V0H.01v.018c.032 0 .052.003.061.008.01.005.016.011.02.019a.262.262 0 0 1 .005.072v.357c0 .048-.002.08-.005.093A.038.038 0 0 1 .079.59a.032.032 0 0 1-.021.007.13.13 0 0 1-.05-.015L0 .597z"/></symbol><symbol id="o"><path d="M.645.705.162 0H.12L.6.705h.044m-.502 0A.115.115 0 0 0 .245.65.22.22 0 0 0 .28.524c0-.056-.013-.1-.04-.13a.127.127 0 0 0-.1-.047.127.127 0 0 0-.07.02.15.15 0 0 0-.052.064A.223.223 0 0 0 0 .524C0 .56.007.59.02.62c.013.029.03.05.053.064a.13.13 0 0 0 .07.022M.14.677C.125.677.11.667.097.647.084.629.077.588.077.526A.38.38 0 0 1 .089.42.085.085 0 0 1 .114.38.038.038 0 0 1 .14.37c.015 0 .029.009.04.025a.24.24 0 0 1 .024.126c0 .062-.008.105-.024.13C.17.67.157.677.141.677M.622.356A.14.14 0 0 0 .744.27a.22.22 0 0 0 .02-.092C.763.12.748.076.721.045A.125.125 0 0 0 .555.022.152.152 0 0 0 .5.084a.219.219 0 0 0-.019.094c0 .034.007.065.02.093.012.029.03.05.052.064a.127.127 0 0 0 .068.021m0-.026C.608.33.594.321.583.304.567.28.56.238.56.174.56.116.568.075.583.052.593.036.607.027.623.027c.015 0 .028.01.04.027.015.024.023.065.023.123C.686.238.678.28.663.305.652.322.639.33.623.33z"/></symbol><use xlink:href="#j" transform="scale(18.10909) rotate(-90 4.7 2.26)"/><use xlink:href="#k" transform="matrix(0 -18.10909 -18.10909 0 44.394 116.673)"/><use xlink:href="#l" transform="matrix(0 -18.10909 -18.10909 0 44.429 107.045)"/><use xlink:href="#m" transform="matrix(0 -18.10909 -18.10909 0 44.429 103.101)"/><use xlink:href="#n" transform="matrix(0 -18.10909 -18.10909 0 44.181 92.695)"/><use xlink:href="#o" transform="matrix(0 -18.10909 -18.10909 0 44.677 85.18)"/></g><clipPath id="p"><path transform="matrix(1 0 0 -1 0 476)" d="M.218 1.018h1038.764v474.11H.218z"/></clipPath><g clip-path="url(#p)"><symbol id="q"><path d="M.405.688V.668A.32.32 0 0 1 .3.644.295.295 0 0 1 .22.585.38.38 0 0 1 .152.497.53.53 0 0 1 .11.38.248.248 0 0 0 .25.43.154.154 0 0 0 .369.375a.2.2 0 0 0 .05-.14.25.25 0 0 0-.05-.152A.189.189 0 0 0 .207 0a.161.161 0 0 0-.115.045A.297.297 0 0 0 0 .27a.438.438 0 0 0 .264.395c.04.014.078.021.113.021h.028M.102.346a.843.843 0 0 1-.01-.107C.093.208.099.174.11.137A.201.201 0 0 1 .162.05a.086.086 0 0 1 .06-.023c.028 0 .054.014.076.04a.173.173 0 0 1 .034.115.298.298 0 0 1-.034.144C.276.366.245.387.204.387A.118.118 0 0 1 .164.38.395.395 0 0 1 .102.346z"/></symbol><use xlink:href="#q" transform="matrix(0 -18.10909 -18.10909 0 171.456 382.35)"/><use xlink:href="#l" transform="scale(18.10909) rotate(-90 15.03 5.56)"/><use xlink:href="#m" transform="scale(18.10909) rotate(-90 14.92 5.45)"/><use xlink:href="#k" transform="matrix(0 -18.10909 -18.10909 0 171.456 359.963)"/><use xlink:href="#o" transform="matrix(0 -18.10909 -18.10909 0 171.739 350.98)"/></g><clipPath id="r"><path transform="matrix(1 0 0 -1 0 476)" d="M.218 1.018h1038.764v474.11H.218z"/></clipPath><g clip-path="url(#r)"><symbol id="s"><path d="M.131.345A.463.463 0 0 0 .03.45a.16.16 0 0 0-.023.08c0 .044.017.08.05.112A.185.185 0 0 0 .19.687.187.187 0 0 0 .32.644a.13.13 0 0 0 .048-.1A.134.134 0 0 0 .341.47.383.383 0 0 0 .23.38.623.623 0 0 0 .345.273.173.173 0 0 0 .382.169a.158.158 0 0 0-.053-.12A.197.197 0 0 0 .189 0a.187.187 0 0 0-.147.06A.153.153 0 0 0 0 .162C0 .192.01.22.03.25.05.278.082.31.13.345m.077.052A.35.35 0 0 1 .282.48a.15.15 0 0 1 .016.07c0 .034-.01.06-.029.08A.105.105 0 0 1 .19.66.115.115 0 0 1 .11.63.089.089 0 0 1 .077.563c0-.017.004-.034.013-.05a.187.187 0 0 1 .037-.05l.08-.066M.154.327a.228.228 0 0 1-.06-.075.196.196 0 0 1-.02-.087C.075.123.087.089.11.064A.114.114 0 0 1 .197.026c.035 0 .063.01.084.03.021.02.032.044.032.072a.111.111 0 0 1-.019.063.699.699 0 0 1-.14.136z"/></symbol><use xlink:href="#s" transform="matrix(0 -18.10909 -18.10909 0 298.519 372.65)"/><use xlink:href="#l" transform="matrix(0 -18.10909 -18.10909 0 298.554 363.463)"/><use xlink:href="#n" transform="matrix(0 -18.10909 -18.10909 0 298.306 358.114)"/><use xlink:href="#j" transform="matrix(0 -18.10909 -18.10909 0 298.306 350.953)"/><use xlink:href="#o" transform="matrix(0 -18.10909 -18.10909 0 298.801 341.599)"/></g><clipPath id="t"><path transform="matrix(1 0 0 -1 0 476)" d="M.218 1.018h1038.764v474.11H.218z"/></clipPath><g clip-path="url(#t)"><symbol id="u"><path d="M.063.676h.355V.657L.198 0H.143l.198.596H.159A.17.17 0 0 1 .08.583a.164.164 0 0 1-.066-.07L0 .52l.063.157z"/></symbol><use xlink:href="#u" transform="matrix(0 -18.10909 -18.10909 0 425.616 375.91)"/><use xlink:href="#l" transform="matrix(0 -18.10909 -18.10909 0 425.616 366.3)"/><use xlink:href="#u" transform="matrix(0 -18.10909 -18.10909 0 425.616 362.4)"/><use xlink:href="#u" transform="matrix(0 -18.10909 -18.10909 0 425.616 353.4)"/><use xlink:href="#o" transform="matrix(0 -18.10909 -18.10909 0 425.864 344.435)"/></g><clipPath id="v"><path transform="matrix(1 0 0 -1 0 476)" d="M.218 1.018h1038.764v474.11H.218z"/></clipPath><g clip-path="url(#v)"><symbol id="w"><path d="M.386.674.348.59h-.2L.106.502A.349.349 0 0 0 .311.406.216.216 0 0 0 .375.25.22.22 0 0 0 .354.153.257.257 0 0 0 .229.027.264.264 0 0 0 .114 0C.074 0 .045.007.027.02.009.034 0 .049 0 .065c0 .01.004.017.011.024a.04.04 0 0 0 .029.01.056.056 0 0 0 .022-.003.198.198 0 0 0 .032-.02A.13.13 0 0 1 .168.05c.039 0 .072.015.1.043A.144.144 0 0 1 .313.2c0 .04-.013.077-.039.112a.247.247 0 0 1-.106.08.432.432 0 0 1-.145.026l.127.257h.237z"/></symbol><use xlink:href="#q" transform="matrix(0 -18.10909 -18.10909 0 552.644 384.313)"/><use xlink:href="#l" transform="matrix(0 -18.10909 -18.10909 0 552.68 374.809)"/><use xlink:href="#q" transform="matrix(0 -18.10909 -18.10909 0 552.644 370.803)"/><use xlink:href="#w" transform="matrix(0 -18.10909 -18.10909 0 552.644 361.715)"/><use xlink:href="#o" transform="matrix(0 -18.10909 -18.10909 0 552.927 352.944)"/></g><clipPath id="x"><path transform="matrix(1 0 0 -1 0 476)" d="M.218 1.018h1038.764v474.11H.218z"/></clipPath><g clip-path="url(#x)"><use xlink:href="#q" transform="matrix(0 -18.10909 -18.10909 0 679.706 382.35)"/><use xlink:href="#l" transform="matrix(0 -18.10909 -18.10909 0 679.741 372.845)"/><use xlink:href="#m" transform="matrix(0 -18.10909 -18.10909 0 679.741 368.902)"/><use xlink:href="#k" transform="matrix(0 -18.10909 -18.10909 0 679.706 359.963)"/><use xlink:href="#o" transform="matrix(0 -18.10909 -18.10909 0 679.989 350.98)"/></g><clipPath id="y"><path transform="matrix(1 0 0 -1 0 476)" d="M.218 1.018h1038.764v474.11H.218z"/></clipPath><g clip-path="url(#y)"><use xlink:href="#q" transform="matrix(0 -18.10909 -18.10909 0 806.769 384.313)"/><use xlink:href="#l" transform="matrix(0 -18.10909 -18.10909 0 806.804 374.809)"/><use xlink:href="#q" transform="matrix(0 -18.10909 -18.10909 0 806.769 370.803)"/><use xlink:href="#w" transform="matrix(0 -18.10909 -18.10909 0 806.769 361.715)"/><use xlink:href="#o" transform="matrix(0 -18.10909 -18.10909 0 807.052 352.944)"/></g><clipPath id="z"><path transform="matrix(1 0 0 -1 0 476)" d="M.218 1.018h1038.764v474.11H.218z"/></clipPath><g clip-path="url(#z)"><use xlink:href="#u" transform="matrix(0 -18.10909 -18.10909 0 933.866 380.492)"/><use xlink:href="#l" transform="matrix(0 -18.10909 -18.10909 0 933.866 370.881)"/><use xlink:href="#n" transform="matrix(0 -18.10909 -18.10909 0 933.619 365.532)"/><use xlink:href="#w" transform="matrix(0 -18.10909 -18.10909 0 933.83 357.788)"/><use xlink:href="#o" transform="matrix(0 -18.10909 -18.10909 0 934.114 349.017)"/></g><clipPath id="A"><path transform="matrix(1 0 0 -1 0 476)" d="M.218 1.018h1038.764v474.11H.218z"/></clipPath><g clip-path="url(#A)"><symbol id="B"><path d="M.437.127.391 0H0v.018c.115.105.196.19.243.257.047.066.07.127.07.182a.144.144 0 0 1-.039.104.123.123 0 0 1-.092.04.144.144 0 0 1-.088-.029A.165.165 0 0 1 .037.49H.02c.008.06.029.106.063.138a.176.176 0 0 0 .126.049.186.186 0 0 0 .134-.052.163.163 0 0 0 .054-.122.236.236 0 0 0-.023-.1.663.663 0 0 0-.117-.168 3.477 3.477 0 0 0-.152-.16h.173c.035 0 .06.001.074.004a.099.099 0 0 1 .038.015c.012.008.021.02.03.034h.018z"/></symbol><use xlink:href="#j" transform="matrix(0 -18.10909 -18.10909 0 62.695 113.172)"/><use xlink:href="#B" transform="matrix(0 -18.10909 -18.10909 0 62.695 104.065)"/><use xlink:href="#l" transform="matrix(0 -18.10909 -18.10909 0 62.943 94.172)"/><use xlink:href="#w" transform="matrix(0 -18.10909 -18.10909 0 62.907 90.078)"/><use xlink:href="#m" transform="matrix(0 -18.10909 -18.10909 0 62.943 81.228)"/><use xlink:href="#o" transform="matrix(0 -18.10909 -18.10909 0 63.19 72.308)"/></g><clipPath id="C"><path transform="matrix(1 0 0 -1 0 476)" d="M.218 1.018h1038.764v474.11H.218z"/></clipPath><g clip-path="url(#C)"><symbol id="D"><path d="M.01.548A.268.268 0 0 0 .082.65a.162.162 0 0 0 .107.036.149.149 0 0 0 .123-.051.127.127 0 0 0 .032-.083c0-.048-.03-.098-.091-.15A.197.197 0 0 0 .345.336.177.177 0 0 0 .376.231.22.22 0 0 0 .322.082C.274.027.205 0 .115 0 .071 0 .04.006.024.017.008.027 0 .04 0 .052c0 .01.004.018.011.025a.04.04 0 0 0 .028.01.084.084 0 0 0 .025-.003.285.285 0 0 0 .038-.018.245.245 0 0 1 .04-.018.135.135 0 0 1 .039-.006c.033 0 .062.013.086.04a.127.127 0 0 1 .037.09A.176.176 0 0 1 .26.29a.199.199 0 0 1-.057.035.184.184 0 0 1-.075.016H.111v.015a.2.2 0 0 1 .077.028.147.147 0 0 1 .057.055.145.145 0 0 1 .018.07.108.108 0 0 1-.11.113C.103.621.06.594.026.54L.01.548z"/></symbol><use xlink:href="#B" transform="matrix(0 -18.10909 -18.10909 0 189.758 281.502)"/><use xlink:href="#k" transform="matrix(0 -18.10909 -18.10909 0 189.97 272.236)"/><use xlink:href="#l" transform="matrix(0 -18.10909 -18.10909 0 190.005 262.608)"/><use xlink:href="#D" transform="matrix(0 -18.10909 -18.10909 0 189.97 258.647)"/><use xlink:href="#n" transform="matrix(0 -18.10909 -18.10909 0 189.758 248.259)"/><use xlink:href="#o" transform="scale(18.10909) rotate(-90 11.9 1.394)"/></g><clipPath id="E"><path transform="matrix(1 0 0 -1 0 476)" d="M.218 1.018h1038.764v474.11H.218z"/></clipPath><g clip-path="url(#E)"><use xlink:href="#n" transform="matrix(0 -18.10909 -18.10909 0 316.82 357.66)"/><use xlink:href="#k" transform="scale(18.10909) rotate(-90 18.42 .914)"/><use xlink:href="#l" transform="matrix(0 -18.10909 -18.10909 0 317.068 340.5)"/><use xlink:href="#k" transform="scale(18.10909) rotate(-90 18.048 .54)"/><use xlink:href="#k" transform="scale(18.10909) rotate(-90 17.8 .292)"/><use xlink:href="#o" transform="matrix(0 -18.10909 -18.10909 0 317.315 318.635)"/></g><clipPath id="F"><path transform="matrix(1 0 0 -1 0 476)" d="M.218 1.018h1038.764v474.11H.218z"/></clipPath><g clip-path="url(#F)"><use xlink:href="#n" transform="matrix(0 -18.10909 -18.10909 0 443.882 307.26)"/><use xlink:href="#q" transform="matrix(0 -18.10909 -18.10909 0 444.095 299.603)"/><use xlink:href="#l" transform="matrix(0 -18.10909 -18.10909 0 444.13 290.1)"/><use xlink:href="#q" transform="matrix(0 -18.10909 -18.10909 0 444.095 286.094)"/><use xlink:href="#u" transform="matrix(0 -18.10909 -18.10909 0 444.13 277.2)"/><use xlink:href="#o" transform="matrix(0 -18.10909 -18.10909 0 444.378 268.235)"/></g><clipPath id="G"><path transform="matrix(1 0 0 -1 0 476)" d="M.218 1.018h1038.764v474.11H.218z"/></clipPath><g clip-path="url(#G)"><use xlink:href="#n" transform="matrix(0 -18.10909 -18.10909 0 570.946 293.732)"/><use xlink:href="#s" transform="matrix(0 -18.10909 -18.10909 0 571.158 285.758)"/><use xlink:href="#l" transform="matrix(0 -18.10909 -18.10909 0 571.193 276.572)"/><use xlink:href="#j" transform="matrix(0 -18.10909 -18.10909 0 570.946 273.062)"/><use xlink:href="#q" transform="matrix(0 -18.10909 -18.10909 0 571.158 263.567)"/><use xlink:href="#o" transform="matrix(0 -18.10909 -18.10909 0 571.44 254.708)"/></g><clipPath id="H"><path transform="matrix(1 0 0 -1 0 476)" d="M.218 1.018h1038.764v474.11H.218z"/></clipPath><g clip-path="url(#H)"><use xlink:href="#n" transform="matrix(0 -18.10909 -18.10909 0 698.008 333.223)"/><use xlink:href="#D" transform="matrix(0 -18.10909 -18.10909 0 698.22 325.611)"/><use xlink:href="#l" transform="matrix(0 -18.10909 -18.10909 0 698.255 316.063)"/><use xlink:href="#B" transform="matrix(0 -18.10909 -18.10909 0 698.008 312.447)"/><use xlink:href="#j" transform="matrix(0 -18.10909 -18.10909 0 698.008 303.553)"/><use xlink:href="#o" transform="matrix(0 -18.10909 -18.10909 0 698.503 294.199)"/></g><clipPath id="I"><path transform="matrix(1 0 0 -1 0 476)" d="M.218 1.018h1038.764v474.11H.218z"/></clipPath><g clip-path="url(#I)"><use xlink:href="#B" transform="matrix(0 -18.10909 -18.10909 0 825.07 252.265)"/><use xlink:href="#j" transform="matrix(0 -18.10909 -18.10909 0 825.07 243.371)"/><use xlink:href="#l" transform="matrix(0 -18.10909 -18.10909 0 825.318 233.372)"/><use xlink:href="#n" transform="matrix(0 -18.10909 -18.10909 0 825.07 228.023)"/><use xlink:href="#m" transform="matrix(0 -18.10909 -18.10909 0 825.318 220.428)"/><use xlink:href="#o" transform="matrix(0 -18.10909 -18.10909 0 825.566 211.508)"/></g><clipPath id="J"><path transform="matrix(1 0 0 -1 0 476)" d="M.218 1.018h1038.764v474.11H.218z"/></clipPath><g clip-path="url(#J)"><use xlink:href="#n" transform="matrix(0 -18.10909 -18.10909 0 952.133 357.66)"/><use xlink:href="#k" transform="matrix(0 -18.10909 -18.10909 0 952.345 350.127)"/><use xlink:href="#l" transform="matrix(0 -18.10909 -18.10909 0 952.38 340.5)"/><use xlink:href="#k" transform="scale(18.10909) rotate(-90 35.589 -17)"/><use xlink:href="#k" transform="matrix(0 -18.10909 -18.10909 0 952.345 327.618)"/><use xlink:href="#o" transform="matrix(0 -18.10909 -18.10909 0 952.628 318.635)"/></g><clipPath id="K"><path transform="matrix(1 0 0 -1 0 476)" d="M.218 1.018h1038.764v474.11H.218z"/></clipPath><g clip-path="url(#K)"><use xlink:href="#D" transform="matrix(0 -18.10909 -18.10909 0 81.421 134.975)"/><use xlink:href="#m" transform="matrix(0 -18.10909 -18.10909 0 81.456 125.993)"/><use xlink:href="#l" transform="matrix(0 -18.10909 -18.10909 0 81.456 116.427)"/><use xlink:href="#q" transform="matrix(0 -18.10909 -18.10909 0 81.421 112.421)"/><use xlink:href="#q" transform="matrix(0 -18.10909 -18.10909 0 81.421 103.421)"/><use xlink:href="#o" transform="matrix(0 -18.10909 -18.10909 0 81.704 94.562)"/></g><clipPath id="L"><path transform="matrix(1 0 0 -1 0 476)" d="M.218 1.018h1038.764v474.11H.218z"/></clipPath><g clip-path="url(#L)"><use xlink:href="#D" transform="matrix(0 -18.10909 -18.10909 0 208.483 203.048)"/><use xlink:href="#k" transform="matrix(0 -18.10909 -18.10909 0 208.483 194.127)"/><use xlink:href="#l" transform="matrix(0 -18.10909 -18.10909 0 208.519 184.5)"/><use xlink:href="#q" transform="matrix(0 -18.10909 -18.10909 0 208.483 180.494)"/><use xlink:href="#w" transform="matrix(0 -18.10909 -18.10909 0 208.483 171.405)"/><use xlink:href="#o" transform="matrix(0 -18.10909 -18.10909 0 208.766 162.635)"/></g><clipPath id="M"><path transform="matrix(1 0 0 -1 0 476)" d="M.218 1.018h1038.764v474.11H.218z"/></clipPath><g clip-path="url(#M)"><use xlink:href="#n" transform="matrix(0 -18.10909 -18.10909 0 335.334 301.805)"/><use xlink:href="#u" transform="matrix(0 -18.10909 -18.10909 0 335.581 294.255)"/><use xlink:href="#l" transform="matrix(0 -18.10909 -18.10909 0 335.581 284.645)"/><use xlink:href="#D" transform="matrix(0 -18.10909 -18.10909 0 335.546 280.684)"/><use xlink:href="#m" transform="matrix(0 -18.10909 -18.10909 0 335.581 271.701)"/><use xlink:href="#o" transform="matrix(0 -18.10909 -18.10909 0 335.829 262.78)"/></g><clipPath id="N"><path transform="matrix(1 0 0 -1 0 476)" d="M.218 1.018h1038.764v474.11H.218z"/></clipPath><g clip-path="url(#N)"><use xlink:href="#B" transform="matrix(0 -18.10909 -18.10909 0 462.396 276.92)"/><use xlink:href="#k" transform="matrix(0 -18.10909 -18.10909 0 462.608 267.655)"/><use xlink:href="#l" transform="matrix(0 -18.10909 -18.10909 0 462.644 258.027)"/><use xlink:href="#m" transform="matrix(0 -18.10909 -18.10909 0 462.644 254.083)"/><use xlink:href="#k" transform="matrix(0 -18.10909 -18.10909 0 462.608 245.145)"/><use xlink:href="#o" transform="matrix(0 -18.10909 -18.10909 0 462.891 236.162)"/></g><clipPath id="O"><path transform="matrix(1 0 0 -1 0 476)" d="M.218 1.018h1038.764v474.11H.218z"/></clipPath><g clip-path="url(#O)"><use xlink:href="#B" transform="matrix(0 -18.10909 -18.10909 0 589.458 234.156)"/><use xlink:href="#q" transform="matrix(0 -18.10909 -18.10909 0 589.67 224.767)"/><use xlink:href="#l" transform="matrix(0 -18.10909 -18.10909 0 589.706 215.263)"/><use xlink:href="#w" transform="matrix(0 -18.10909 -18.10909 0 589.67 211.17)"/><use xlink:href="#q" transform="matrix(0 -18.10909 -18.10909 0 589.67 202.258)"/><use xlink:href="#o" transform="matrix(0 -18.10909 -18.10909 0 589.954 193.399)"/></g><clipPath id="P"><path transform="matrix(1 0 0 -1 0 476)" d="M.218 1.018h1038.764v474.11H.218z"/></clipPath><g clip-path="url(#P)"><use xlink:href="#n" transform="matrix(0 -18.10909 -18.10909 0 716.521 288.714)"/><use xlink:href="#m" transform="matrix(0 -18.10909 -18.10909 0 716.77 281.12)"/><use xlink:href="#l" transform="matrix(0 -18.10909 -18.10909 0 716.77 271.554)"/><use xlink:href="#n" transform="matrix(0 -18.10909 -18.10909 0 716.521 266.205)"/><use xlink:href="#B" transform="matrix(0 -18.10909 -18.10909 0 716.521 258.938)"/><use xlink:href="#o" transform="matrix(0 -18.10909 -18.10909 0 717.017 249.69)"/></g><clipPath id="Q"><path transform="matrix(1 0 0 -1 0 476)" d="M.218 1.018h1038.764v474.11H.218z"/></clipPath><g clip-path="url(#Q)"><use xlink:href="#B" transform="matrix(0 -18.10909 -18.10909 0 843.583 234.156)"/><use xlink:href="#q" transform="matrix(0 -18.10909 -18.10909 0 843.796 224.767)"/><use xlink:href="#l" transform="matrix(0 -18.10909 -18.10909 0 843.831 215.263)"/><use xlink:href="#w" transform="matrix(0 -18.10909 -18.10909 0 843.796 211.17)"/><use xlink:href="#q" transform="matrix(0 -18.10909 -18.10909 0 843.796 202.258)"/><use xlink:href="#o" transform="matrix(0 -18.10909 -18.10909 0 844.079 193.399)"/></g><clipPath id="R"><path transform="matrix(1 0 0 -1 0 476)" d="M.218 1.018h1038.764v474.11H.218z"/></clipPath><g clip-path="url(#R)"><use xlink:href="#n" transform="matrix(0 -18.10909 -18.10909 0 970.646 314.46)"/><use xlink:href="#w" transform="matrix(0 -18.10909 -18.10909 0 970.859 306.715)"/><use xlink:href="#l" transform="matrix(0 -18.10909 -18.10909 0 970.894 297.3)"/><use xlink:href="#u" transform="matrix(0 -18.10909 -18.10909 0 970.894 293.4)"/><use xlink:href="#n" transform="matrix(0 -18.10909 -18.10909 0 970.646 282.95)"/><use xlink:href="#o" transform="matrix(0 -18.10909 -18.10909 0 971.142 275.435)"/></g><clipPath id="S"><path transform="matrix(1 0 0 -1 0 476)" d="M.218 1.018h1038.764v474.11H.218z"/></clipPath><g clip-path="url(#S)"><use xlink:href="#j" transform="scale(18.10909) rotate(-90 5.71 .203)"/><use xlink:href="#D" transform="matrix(0 -18.10909 -18.10909 0 99.935 97.611)"/><use xlink:href="#l" transform="matrix(0 -18.10909 -18.10909 0 99.97 88.063)"/><use xlink:href="#j" transform="matrix(0 -18.10909 -18.10909 0 99.722 84.553)"/><use xlink:href="#k" transform="matrix(0 -18.10909 -18.10909 0 99.935 75.181)"/><use xlink:href="#o" transform="matrix(0 -18.10909 -18.10909 0 100.218 66.199)"/></g><clipPath id="T"><path transform="matrix(1 0 0 -1 0 476)" d="M.218 1.018h1038.764v474.11H.218z"/></clipPath><g clip-path="url(#T)"><use xlink:href="#B" transform="matrix(0 -18.10909 -18.10909 0 226.785 249.21)"/><use xlink:href="#j" transform="matrix(0 -18.10909 -18.10909 0 226.785 240.317)"/><use xlink:href="#l" transform="scale(18.10909) rotate(-90 12.628 .09)"/><use xlink:href="#w" transform="matrix(0 -18.10909 -18.10909 0 226.997 226.224)"/><use xlink:href="#m" transform="matrix(0 -18.10909 -18.10909 0 227.033 217.374)"/><use xlink:href="#o" transform="matrix(0 -18.10909 -18.10909 0 227.28 208.453)"/></g><clipPath id="U"><path transform="matrix(1 0 0 -1 0 476)" d="M.218 1.018h1038.764v474.11H.218z"/></clipPath><g clip-path="url(#U)"><use xlink:href="#n" transform="matrix(0 -18.10909 -18.10909 0 353.848 356.569)"/><use xlink:href="#k" transform="matrix(0 -18.10909 -18.10909 0 354.06 349.036)"/><use xlink:href="#l" transform="matrix(0 -18.10909 -18.10909 0 354.095 339.408)"/><use xlink:href="#n" transform="matrix(0 -18.10909 -18.10909 0 353.848 334.06)"/><use xlink:href="#j" transform="matrix(0 -18.10909 -18.10909 0 353.848 326.898)"/><use xlink:href="#o" transform="matrix(0 -18.10909 -18.10909 0 354.343 317.544)"/></g><clipPath id="V"><path transform="matrix(1 0 0 -1 0 476)" d="M.218 1.018h1038.764v474.11H.218z"/></clipPath><g clip-path="url(#V)"><use xlink:href="#n" transform="matrix(0 -18.10909 -18.10909 0 480.91 318.605)"/><use xlink:href="#w" transform="matrix(0 -18.10909 -18.10909 0 481.122 310.86)"/><use xlink:href="#l" transform="matrix(0 -18.10909 -18.10909 0 481.157 301.445)"/><use xlink:href="#n" transform="matrix(0 -18.10909 -18.10909 0 480.91 296.096)"/><use xlink:href="#w" transform="matrix(0 -18.10909 -18.10909 0 481.122 288.35)"/><use xlink:href="#o" transform="matrix(0 -18.10909 -18.10909 0 481.405 279.58)"/></g><clipPath id="W"><path transform="matrix(1 0 0 -1 0 476)" d="M.218 1.018h1038.764v474.11H.218z"/></clipPath><g clip-path="url(#W)"><use xlink:href="#n" transform="matrix(0 -18.10909 -18.10909 0 607.973 305.296)"/><use xlink:href="#q" transform="matrix(0 -18.10909 -18.10909 0 608.185 297.64)"/><use xlink:href="#l" transform="matrix(0 -18.10909 -18.10909 0 608.22 288.136)"/><use xlink:href="#m" transform="matrix(0 -18.10909 -18.10909 0 608.22 284.192)"/><use xlink:href="#B" transform="matrix(0 -18.10909 -18.10909 0 607.973 275.52)"/><use xlink:href="#o" transform="matrix(0 -18.10909 -18.10909 0 608.468 266.272)"/></g><clipPath id="X"><path transform="matrix(1 0 0 -1 0 476)" d="M.218 1.018h1038.764v474.11H.218z"/></clipPath><g clip-path="url(#X)"><use xlink:href="#n" transform="matrix(0 -18.10909 -18.10909 0 735.035 344.35)"/><use xlink:href="#n" transform="matrix(0 -18.10909 -18.10909 0 735.035 336.02)"/><use xlink:href="#l" transform="matrix(0 -18.10909 -18.10909 0 735.282 327.86)"/><use xlink:href="#u" transform="matrix(0 -18.10909 -18.10909 0 735.282 323.961)"/><use xlink:href="#q" transform="matrix(0 -18.10909 -18.10909 0 735.247 314.855)"/><use xlink:href="#o" transform="matrix(0 -18.10909 -18.10909 0 735.53 305.996)"/></g><clipPath id="Y"><path transform="matrix(1 0 0 -1 0 476)" d="M.218 1.018h1038.764v474.11H.218z"/></clipPath><g clip-path="url(#Y)"><use xlink:href="#B" transform="matrix(0 -18.10909 -18.10909 0 862.098 264.265)"/><use xlink:href="#B" transform="matrix(0 -18.10909 -18.10909 0 862.098 255.265)"/><use xlink:href="#l" transform="matrix(0 -18.10909 -18.10909 0 862.345 245.372)"/><use xlink:href="#w" transform="matrix(0 -18.10909 -18.10909 0 862.31 241.278)"/><use xlink:href="#s" transform="matrix(0 -18.10909 -18.10909 0 862.31 232.048)"/><use xlink:href="#o" transform="matrix(0 -18.10909 -18.10909 0 862.593 223.508)"/></g><clipPath id="Z"><path transform="matrix(1 0 0 -1 0 476)" d="M.218 1.018h1038.764v474.11H.218z"/></clipPath><g clip-path="url(#Z)"><use xlink:href="#s" transform="matrix(0 -18.10909 -18.10909 0 989.372 369.376)"/><use xlink:href="#l" transform="matrix(0 -18.10909 -18.10909 0 989.407 360.19)"/><use xlink:href="#w" transform="matrix(0 -18.10909 -18.10909 0 989.372 356.097)"/><use xlink:href="#u" transform="matrix(0 -18.10909 -18.10909 0 989.407 347.291)"/><use xlink:href="#o" transform="matrix(0 -18.10909 -18.10909 0 989.655 338.326)"/></g><clipPath id="aa"><path transform="matrix(1 0 0 -1 0 476)" d="M.218 1.018h1038.764v474.11H.218z"/></clipPath><g clip-path="url(#aa)"><use xlink:href="#D" transform="scale(18.10909) rotate(-90 7.16 .619)"/><use xlink:href="#s" transform="scale(18.10909) rotate(-90 6.901 .36)"/><use xlink:href="#l" transform="scale(18.10909) rotate(-90 6.649 .106)"/><use xlink:href="#s" transform="matrix(0 -18.10909 -18.10909 0 118.448 117.994)"/><use xlink:href="#m" transform="matrix(0 -18.10909 -18.10909 0 118.484 109.374)"/><use xlink:href="#o" transform="matrix(0 -18.10909 -18.10909 0 118.731 100.453)"/></g><clipPath id="ab"><path transform="matrix(1 0 0 -1 0 476)" d="M.218 1.018h1038.764v474.11H.218z"/></clipPath><g clip-path="url(#ab)"><use xlink:href="#n" transform="matrix(0 -18.10909 -18.10909 0 245.299 303.332)"/><use xlink:href="#u" transform="matrix(0 -18.10909 -18.10909 0 245.546 295.782)"/><use xlink:href="#l" transform="matrix(0 -18.10909 -18.10909 0 245.546 286.172)"/><use xlink:href="#n" transform="scale(18.10909) rotate(-90 14.526 .98)"/><use xlink:href="#m" transform="matrix(0 -18.10909 -18.10909 0 245.546 273.228)"/><use xlink:href="#o" transform="matrix(0 -18.10909 -18.10909 0 245.794 264.308)"/></g><clipPath id="ac"><path transform="matrix(1 0 0 -1 0 476)" d="M.218 1.018h1038.764v474.11H.218z"/></clipPath><g clip-path="url(#ac)"><use xlink:href="#n" transform="matrix(0 -18.10909 -18.10909 0 372.361 355.478)"/><use xlink:href="#k" transform="matrix(0 -18.10909 -18.10909 0 372.573 347.945)"/><use xlink:href="#l" transform="matrix(0 -18.10909 -18.10909 0 372.609 338.317)"/><use xlink:href="#B" transform="matrix(0 -18.10909 -18.10909 0 372.361 334.701)"/><use xlink:href="#m" transform="matrix(0 -18.10909 -18.10909 0 372.609 325.374)"/><use xlink:href="#o" transform="matrix(0 -18.10909 -18.10909 0 372.856 316.453)"/></g><clipPath id="ad"><path transform="matrix(1 0 0 -1 0 476)" d="M.218 1.018h1038.764v474.11H.218z"/></clipPath><g clip-path="url(#ad)"><use xlink:href="#n" transform="matrix(0 -18.10909 -18.10909 0 499.424 330.169)"/><use xlink:href="#D" transform="matrix(0 -18.10909 -18.10909 0 499.636 322.557)"/><use xlink:href="#l" transform="matrix(0 -18.10909 -18.10909 0 499.671 313.008)"/><use xlink:href="#q" transform="matrix(0 -18.10909 -18.10909 0 499.636 309.003)"/><use xlink:href="#j" transform="matrix(0 -18.10909 -18.10909 0 499.424 300.498)"/><use xlink:href="#o" transform="matrix(0 -18.10909 -18.10909 0 499.919 291.144)"/></g><clipPath id="ae"><path transform="matrix(1 0 0 -1 0 476)" d="M.218 1.018h1038.764v474.11H.218z"/></clipPath><g clip-path="url(#ae)"><use xlink:href="#n" transform="matrix(0 -18.10909 -18.10909 0 626.486 317.078)"/><use xlink:href="#w" transform="matrix(0 -18.10909 -18.10909 0 626.699 309.333)"/><use xlink:href="#l" transform="matrix(0 -18.10909 -18.10909 0 626.734 299.917)"/><use xlink:href="#D" transform="matrix(0 -18.10909 -18.10909 0 626.699 295.957)"/><use xlink:href="#s" transform="matrix(0 -18.10909 -18.10909 0 626.699 286.594)"/><use xlink:href="#o" transform="matrix(0 -18.10909 -18.10909 0 626.982 278.053)"/></g><clipPath id="af"><path transform="matrix(1 0 0 -1 0 476)" d="M.218 1.018h1038.764v474.11H.218z"/></clipPath><g clip-path="url(#af)"><use xlink:href="#s" transform="matrix(0 -18.10909 -18.10909 0 753.76 368.504)"/><use xlink:href="#l" transform="matrix(0 -18.10909 -18.10909 0 753.796 359.318)"/><use xlink:href="#u" transform="scale(18.10909) rotate(-90 30.626 -11)"/><use xlink:href="#k" transform="matrix(0 -18.10909 -18.10909 0 753.76 346.436)"/><use xlink:href="#o" transform="matrix(0 -18.10909 -18.10909 0 754.044 337.454)"/></g><clipPath id="ag"><path transform="matrix(1 0 0 -1 0 476)" d="M.218 1.018h1038.764v474.11H.218z"/></clipPath><g clip-path="url(#ag)"><use xlink:href="#B" transform="matrix(0 -18.10909 -18.10909 0 880.611 276.484)"/><use xlink:href="#k" transform="matrix(0 -18.10909 -18.10909 0 880.824 267.218)"/><use xlink:href="#l" transform="matrix(0 -18.10909 -18.10909 0 880.859 257.59)"/><use xlink:href="#m" transform="matrix(0 -18.10909 -18.10909 0 880.859 253.647)"/><use xlink:href="#u" transform="matrix(0 -18.10909 -18.10909 0 880.859 244.69)"/><use xlink:href="#o" transform="matrix(0 -18.10909 -18.10909 0 881.107 235.726)"/></g><clipPath id="ah"><path transform="matrix(1 0 0 -1 0 476)" d="M.218 1.018h1038.764v474.11H.218z"/></clipPath><g clip-path="url(#ah)"><use xlink:href="#u" transform="matrix(0 -18.10909 -18.10909 0 1007.921 380.71)"/><use xlink:href="#l" transform="matrix(0 -18.10909 -18.10909 0 1007.921 371.1)"/><use xlink:href="#n" transform="matrix(0 -18.10909 -18.10909 0 1007.673 365.75)"/><use xlink:href="#j" transform="matrix(0 -18.10909 -18.10909 0 1007.673 358.59)"/><use xlink:href="#o" transform="matrix(0 -18.10909 -18.10909 0 1008.169 349.235)"/></g><clipPath id="ai"><path transform="matrix(1 0 0 -1 0 476)" d="M.218 1.018h1038.764v474.11H.218z"/></clipPath><g clip-path="url(#ai)"><symbol id="aj"><path d="M.424.351A.338.338 0 0 0 .556.298.142.142 0 0 0 .611.183C.61.133.59.092.55.059A.336.336 0 0 0 .336 0H0v.018c.03 0 .051.003.062.008A.05.05 0 0 1 .085.05C.09.058.092.08.092.116v.43a.195.195 0 0 1-.007.067.047.047 0 0 1-.023.023A.156.156 0 0 1 0 .644v.018h.317c.076 0 .13-.007.162-.02a.166.166 0 0 0 .074-.06.149.149 0 0 0 .028-.086A.123.123 0 0 0 .546.41.25.25 0 0 0 .424.351M.246.364A.25.25 0 0 1 .348.38c.022.01.04.025.05.044a.135.135 0 0 1 .019.072C.417.526.41.55.399.568a.108.108 0 0 1-.05.043.263.263 0 0 1-.103.014v-.26m0-.039V.09C.246.072.25.06.259.05.268.041.28.036.299.036c.026 0 .05.006.072.017a.12.12 0 0 1 .05.05.155.155 0 0 1 .018.074C.439.208.432.236.417.26a.116.116 0 0 1-.059.052.32.32 0 0 1-.112.014z"/></symbol><symbol id="ak"><path d="M.702.662V.644a.098.098 0 0 1-.05-.019.508.508 0 0 1-.077-.112L.43.273v-.16A.22.22 0 0 1 .437.05a.052.052 0 0 1 .02-.022A.085.085 0 0 1 .5.018h.037V0H.166v.018H.2a.09.09 0 0 1 .047.01.047.047 0 0 1 .02.024.201.201 0 0 1 .005.061v.133L.116.53a.41.41 0 0 1-.065.098A.081.081 0 0 1 0 .644v.018h.317V.644H.303C.284.644.271.641.263.636.255.63.25.624.25.618c0-.012.013-.041.04-.088L.41.31l.118.2c.03.05.045.081.045.097C.574.617.569.624.56.63.55.638.53.642.5.644v.018h.202z"/></symbol><symbol id="al"><path d="M.347.687A.33.33 0 0 0 .703.349.353.353 0 0 0 .63.127.328.328 0 0 0 .354 0 .335.335 0 0 0 0 .348a.33.33 0 0 0 .347.339M.353.655C.293.655.246.625.215.562A.496.496 0 0 1 .176.345c0-.113.02-.197.06-.25A.136.136 0 0 1 .352.036.14.14 0 0 1 .436.06a.2.2 0 0 1 .067.1.557.557 0 0 1 .024.179.592.592 0 0 1-.025.196.19.19 0 0 1-.062.092.146.146 0 0 1-.087.027z"/></symbol><symbol id="am"><path d="M.613.232.588 0H0v.018h.022c.02 0 .035.003.046.01a.044.044 0 0 1 .02.024.201.201 0 0 1 .005.061V.55a.218.218 0 0 1-.005.063.048.048 0 0 1-.022.022.085.085 0 0 1-.044.01H0v.018h.353V.644H.324a.092.092 0 0 1-.046-.01.047.047 0 0 1-.02-.024A.201.201 0 0 1 .252.55V.127c0-.034.002-.056.006-.065a.04.04 0 0 1 .023-.02.232.232 0 0 1 .06-.005h.055C.43.037.46.043.483.056a.162.162 0 0 1 .06.058.468.468 0 0 1 .05.118h.02z"/></symbol><use xlink:href="#aj" transform="matrix(15.92727 0 0 -15.92727 50.296 464.945)"/><use xlink:href="#ak" transform="matrix(15.92727 0 0 -15.92727 61.972 464.945)"/><use xlink:href="#al" transform="matrix(15.92727 0 0 -15.92727 75.217 465.187)"/><use xlink:href="#am" transform="matrix(15.92727 0 0 -15.92727 88.528 464.945)"/></g><clipPath id="an"><path transform="matrix(1 0 0 -1 0 476)" d="M.218 1.018h1038.764v474.11H.218z"/></clipPath><g clip-path="url(#an)"><symbol id="ao"><path d="m.457.226.18.436h.269V.644H.884a.093.093 0 0 1-.047-.01.048.048 0 0 1-.02-.023A.199.199 0 0 1 .814.55V.113C.813.08.814.058.818.05A.05.05 0 0 1 .84.027.091.091 0 0 1 .884.018h.022V0H.56v.018h.022c.02 0 .035.003.046.01a.048.048 0 0 1 .02.024.201.201 0 0 1 .005.061v.491L.4 0H.388L.13.6V.133c0-.032 0-.052.002-.06A.071.071 0 0 1 .16.033C.174.023.196.018.227.018V0H0v.018h.007c.014 0 .028.002.04.007a.068.068 0 0 1 .03.02c.006.009.011.02.015.036V.55a.21.21 0 0 1-.005.062.048.048 0 0 1-.022.022.087.087 0 0 1-.044.01H0v.018h.27L.458.226z"/></symbol><symbol id="ap"><path d="M.628.692v-.23h-.02a.244.244 0 0 1-.08.139A.204.204 0 0 1 .208.52.422.422 0 0 1 .176.355c0-.059.007-.113.022-.162a.217.217 0 0 1 .07-.11.197.197 0 0 1 .125-.037c.041 0 .08.009.114.027.035.018.071.05.11.094V.11A.364.364 0 0 0 .5.026.353.353 0 0 0 .36 0 .406.406 0 0 0 .17.042a.302.302 0 0 0-.127.123.352.352 0 0 0 .005.35.364.364 0 0 0 .46.148.227.227 0 0 1 .058-.018c.01 0 .02.003.027.01.008.009.013.02.015.037h.019z"/></symbol><use xlink:href="#ao" transform="matrix(15.92727 0 0 -15.92727 174.24 464.945)"/><use xlink:href="#al" transform="matrix(15.92727 0 0 -15.92727 190.843 465.187)"/><use xlink:href="#ap" transform="matrix(15.92727 0 0 -15.92727 204.491 465.187)"/><use xlink:href="#al" transform="matrix(15.92727 0 0 -15.92727 217.232 465.187)"/></g><clipPath id="aq"><path transform="matrix(1 0 0 -1 0 476)" d="M.218 1.018h1038.764v474.11H.218z"/></clipPath><g clip-path="url(#aq)"><symbol id="ar"><path d="m.418.693.005-.22h-.02a.224.224 0 0 1-.07.132.174.174 0 0 1-.12.051A.113.113 0 0 1 .136.63.08.08 0 0 1 .106.57c0-.015.003-.028.01-.04A.166.166 0 0 1 .162.484c.015-.01.05-.03.106-.057A.471.471 0 0 0 .424.319.188.188 0 0 0 .4.059.232.232 0 0 0 .235 0c-.02 0-.04.002-.059.006a.446.446 0 0 0-.07.024.106.106 0 0 1-.038.01A.048.048 0 0 1 .04.03.068.068 0 0 1 .018 0H0v.25h.018A.289.289 0 0 1 .101.09.195.195 0 0 1 .233.033c.036 0 .065.01.087.03.022.02.033.043.033.07A.09.09 0 0 1 .34.178.138.138 0 0 1 .302.22a.555.555 0 0 1-.09.052.776.776 0 0 0-.13.076.235.235 0 0 0-.06.07A.175.175 0 0 0 0 .501C0 .555.02.6.06.637a.203.203 0 0 0 .146.056.25.25 0 0 0 .118-.03A.135.135 0 0 1 .37.647c.008 0 .015.003.02.008C.395.66.4.673.403.693h.015z"/></symbol><symbol id="as"><path d="M.346.018V0H0v.018h.022c.02 0 .035.003.046.01a.044.044 0 0 1 .02.024.201.201 0 0 1 .005.061V.55a.218.218 0 0 1-.005.063.048.048 0 0 1-.022.022.085.085 0 0 1-.044.01H0v.018h.346V.644H.324a.092.092 0 0 1-.046-.01.047.047 0 0 1-.02-.024A.201.201 0 0 1 .252.55V.113C.252.08.254.058.258.05A.053.053 0 0 1 .28.027.091.091 0 0 1 .324.018h.022z"/></symbol><symbol id="at"><path d="M.247.302V.116C.247.08.25.058.253.048A.05.05 0 0 1 .277.026.156.156 0 0 1 .339.018V0H0v.018c.03 0 .051.003.062.008A.05.05 0 0 1 .085.05C.09.058.092.08.092.116v.43a.195.195 0 0 1-.007.067.047.047 0 0 1-.023.023A.156.156 0 0 1 0 .644v.018h.308c.08 0 .138-.005.175-.016A.177.177 0 0 0 .574.584.163.163 0 0 0 .61.479.156.156 0 0 0 .557.36.218.218 0 0 0 .462.312l.16-.224A.339.339 0 0 1 .666.035.083.083 0 0 1 .712.018V0H.504L.29.302H.247m0 .324v-.29h.028C.32.336.354.34.376.35.4.357.416.372.43.394c.013.021.02.05.02.085 0 .05-.012.087-.036.111C.39.614.352.626.3.626H.247z"/></symbol><use xlink:href="#ar" transform="matrix(15.92727 0 0 -15.92727 294.378 465.194)"/><use xlink:href="#as" transform="matrix(15.92727 0 0 -15.92727 303.972 464.945)"/><use xlink:href="#ao" transform="matrix(15.92727 0 0 -15.92727 311.396 464.945)"/><use xlink:href="#ap" transform="matrix(15.92727 0 0 -15.92727 328.002 465.187)"/><use xlink:href="#am" transform="matrix(15.92727 0 0 -15.92727 340.427 464.945)"/><use xlink:href="#at" transform="matrix(15.92727 0 0 -15.92727 352.294 464.945)"/></g><clipPath id="au"><path transform="matrix(1 0 0 -1 0 476)" d="M.218 1.018h1038.764v474.11H.218z"/></clipPath><g clip-path="url(#au)"><symbol id="av"><path d="M.982.677V.66a.063.063 0 0 1-.03-.01.075.075 0 0 1-.023-.027A2.706 2.706 0 0 1 .898.546L.69 0H.671L.507.427.327 0H.309L.09.54a.58.58 0 0 1-.047.1C.036.65.021.656 0 .66v.017h.287V.66C.264.66.25.655.241.65A.03.03 0 0 1 .229.624C.23.613.237.586.253.546l.13-.32.104.25-.027.07a.512.512 0 0 1-.035.077.074.074 0 0 1-.028.028.102.102 0 0 1-.046.008v.018h.32V.66A.177.177 0 0 1 .623.654.031.031 0 0 1 .607.642.03.03 0 0 1 .6.624c0-.007.007-.03.022-.069l.12-.313.109.283c.011.03.018.05.02.06.003.011.004.021.004.03a.038.038 0 0 1-.013.031C.853.654.836.66.81.66v.018h.171z"/></symbol><symbol id="aw"><path d="M.408.188H.174L.146.124A.143.143 0 0 1 .133.071C.133.052.14.039.155.03A.189.189 0 0 1 .22.018V0H0v.018a.1.1 0 0 1 .059.03c.015.016.034.049.056.1l.237.528h.01L.6.133A.33.33 0 0 1 .656.036.077.077 0 0 1 .703.018V0h-.32v.018h.013c.026 0 .044.004.054.01.007.006.01.014.01.023A.06.06 0 0 1 .459.07a.456.456 0 0 1-.015.037L.408.188M.392.225.293.453.191.225h.2z"/></symbol><symbol id="ax"><path d="M.704.677V.66A.107.107 0 0 1 .64.621.595.595 0 0 1 .579.506L.35 0H.334L.107.526a.649.649 0 0 1-.055.112C.043.65.026.656 0 .66v.018h.317V.66h-.01C.278.66.258.656.248.65A.024.024 0 0 1 .237.626.07.07 0 0 1 .24.606C.243.598.252.576.267.542l.141-.33.131.294c.016.035.025.06.029.071a.111.111 0 0 1 .005.03.044.044 0 0 1-.03.044.154.154 0 0 1-.056.008v.018h.217z"/></symbol><use xlink:href="#ar" transform="matrix(15.92727 0 0 -15.92727 432.558 465.194)"/><use xlink:href="#av" transform="matrix(15.92727 0 0 -15.92727 441.973 465.187)"/><use xlink:href="#aw" transform="matrix(15.92727 0 0 -15.92727 457.377 464.945)"/><use xlink:href="#ax" transform="matrix(15.92727 0 0 -15.92727 468.066 465.187)"/></g><clipPath id="ay"><path transform="matrix(1 0 0 -1 0 476)" d="M.218 1.018h1038.764v474.11H.218z"/></clipPath><g clip-path="url(#ay)"><symbol id="az"><path d="M.39 0H0v.01C.12.154.192.25.217.299a.31.31 0 0 1 .039.144c0 .034-.01.062-.032.085A.102.102 0 0 1 .146.56C.096.561.057.536.03.486L.012.492a.27.27 0 0 0 .08.139c.036.03.077.045.124.045A.183.183 0 0 0 .308.652.17.17 0 0 0 .373.588.153.153 0 0 0 .396.512.276.276 0 0 0 .36.38 1.251 1.251 0 0 0 .145.128h.143c.035 0 .058.001.068.004.01.003.02.008.026.015A.2.2 0 0 1 .41.191h.018L.39 0z"/></symbol><use xlink:href="#ar" transform="matrix(15.92727 0 0 -15.92727 537.808 465.194)"/><use xlink:href="#as" transform="matrix(15.92727 0 0 -15.92727 547.402 464.945)"/><use xlink:href="#ao" transform="matrix(15.92727 0 0 -15.92727 554.826 464.945)"/><use xlink:href="#ap" transform="matrix(15.92727 0 0 -15.92727 571.432 465.187)"/><use xlink:href="#am" transform="matrix(15.92727 0 0 -15.92727 583.857 464.945)"/><use xlink:href="#at" transform="matrix(15.92727 0 0 -15.92727 595.725 464.945)"/><use xlink:href="#ax" transform="matrix(15.92727 0 0 -15.92727 607.74 465.187)"/><use xlink:href="#az" transform="matrix(15.92727 0 0 -15.92727 620.763 464.945)"/></g><clipPath id="aA"><path transform="matrix(1 0 0 -1 0 476)" d="M.218 1.018h1038.764v474.11H.218z"/></clipPath><g clip-path="url(#aA)"><use xlink:href="#ao" transform="matrix(15.92727 0 0 -15.92727 671.513 464.945)"/><use xlink:href="#al" transform="matrix(15.92727 0 0 -15.92727 688.116 465.187)"/><use xlink:href="#ap" transform="matrix(15.92727 0 0 -15.92727 701.764 465.187)"/><use xlink:href="#al" transform="matrix(15.92727 0 0 -15.92727 714.504 465.187)"/><use xlink:href="#ax" transform="matrix(15.92727 0 0 -15.92727 727.647 465.187)"/><use xlink:href="#az" transform="matrix(15.92727 0 0 -15.92727 740.66 464.945)"/></g><clipPath id="aB"><path transform="matrix(1 0 0 -1 0 476)" d="M.218 1.018h1038.764v474.11H.218z"/></clipPath><g clip-path="url(#aB)"><symbol id="aC"><path d="M.132.346v.017c.037.011.063.021.077.03.014.01.027.024.037.043a.12.12 0 0 1 .016.058c0 .027-.01.05-.03.069a.1.1 0 0 1-.073.03C.113.592.074.567.042.52L.024.526a.294.294 0 0 0 .09.123.2.2 0 0 0 .123.04A.158.158 0 0 0 .35.649.13.13 0 0 0 .374.479a.179.179 0 0 0-.065-.06.228.228 0 0 0 .087-.068.166.166 0 0 0 .03-.102.236.236 0 0 0-.075-.177.276.276 0 0 0-.2-.072C.093 0 .053.01.027.028A.06.06 0 0 0 0 .078c0 .015.005.028.016.038.01.011.023.016.037.016.011 0 .021-.002.03-.007A.61.61 0 0 0 .14.083a.146.146 0 0 1 .089-.04c.024 0 .045.01.062.03.017.018.026.043.026.072a.188.188 0 0 1-.047.123.245.245 0 0 1-.137.078z"/></symbol><use xlink:href="#ao" transform="matrix(15.92727 0 0 -15.92727 798.575 464.945)"/><use xlink:href="#al" transform="matrix(15.92727 0 0 -15.92727 815.178 465.187)"/><use xlink:href="#ap" transform="matrix(15.92727 0 0 -15.92727 828.826 465.187)"/><use xlink:href="#al" transform="matrix(15.92727 0 0 -15.92727 841.567 465.187)"/><use xlink:href="#ax" transform="matrix(15.92727 0 0 -15.92727 854.71 465.187)"/><use xlink:href="#aC" transform="matrix(15.92727 0 0 -15.92727 867.59 465.171)"/></g><clipPath id="aD"><path transform="matrix(1 0 0 -1 0 476)" d="M.218 1.018h1038.764v474.11H.218z"/></clipPath><g clip-path="url(#aD)"><use xlink:href="#ar" transform="matrix(15.92727 0 0 -15.92727 925.09 465.194)"/><use xlink:href="#as" transform="matrix(15.92727 0 0 -15.92727 934.684 464.945)"/><use xlink:href="#ao" transform="matrix(15.92727 0 0 -15.92727 942.108 464.945)"/><use xlink:href="#ar" transform="matrix(15.92727 0 0 -15.92727 958.909 465.194)"/><use xlink:href="#as" transform="matrix(15.92727 0 0 -15.92727 968.503 464.945)"/><use xlink:href="#aw" transform="matrix(15.92727 0 0 -15.92727 975.732 464.945)"/><use xlink:href="#ao" transform="matrix(15.92727 0 0 -15.92727 988.686 464.945)"/></g><clipPath id="aE"><path transform="matrix(1 0 0 -1 0 476)" d="M.218 1.018h1038.764v474.11H.218z"/></clipPath><g clip-path="url(#aE)"><path d="M38.727 25.782H46.8v8.073h-8.073z" fill="#156082"/></g><clipPath id="aF"><path transform="matrix(1 0 0 -1 0 476)" d="M.218 1.018h1038.764v474.11H.218z"/></clipPath><g clip-path="url(#aF)"><symbol id="aG"><path d="M.156.365c.032.033.052.052.057.056.015.013.03.022.048.03.017.006.033.01.05.01A.112.112 0 0 0 .383.435a.12.12 0 0 0 .04-.07C.458.403.487.43.51.441A.15.15 0 0 0 .58.46.11.11 0 0 0 .643.442a.12.12 0 0 0 .044-.06.27.27 0 0 0 .01-.089V.101C.698.073.7.054.705.043A.043.043 0 0 1 .722.025.093.093 0 0 1 .765.018V0h-.22v.018h.009c.019 0 .034.003.045.01a.044.044 0 0 1 .016.026A.313.313 0 0 1 .617.1v.192a.163.163 0 0 1-.013.078C.59.39.57.4.542.4A.116.116 0 0 1 .49.39.278.278 0 0 1 .427.34V.1c0-.03.002-.05.005-.057a.044.044 0 0 1 .02-.02A.114.114 0 0 1 .5.019V0H.274v.018c.025 0 .042.003.05.008.01.006.017.015.02.027A.26.26 0 0 1 .347.1v.192C.347.33.34.356.33.373a.069.069 0 0 1-.06.03A.108.108 0 0 1 .218.39.201.201 0 0 1 .156.341V.1c0-.03.002-.048.006-.057A.045.045 0 0 1 .18.024.122.122 0 0 1 .229.018V0H.007v.018c.02 0 .035.002.043.006a.044.044 0 0 1 .019.02c.004.01.006.03.006.057v.171a.62.62 0 0 1-.004.095C.069.377.065.385.06.39A.03.03 0 0 1 .04.396.094.094 0 0 1 .007.388L0 .406.135.46h.02V.365z"/></symbol><symbol id="aH"><path d="M.45.222H.193L.148.117A.165.165 0 0 1 .132.06c0-.01.005-.02.014-.027C.156.025.176.02.208.018V0H0v.018c.028.005.046.011.054.02a.3.3 0 0 1 .055.094l.233.545h.017l.23-.55A.258.258 0 0 1 .64.04.105.105 0 0 1 .704.018V0H.442v.018C.468.02.486.024.495.031.505.04.51.048.51.06a.202.202 0 0 1-.02.067L.45.222M.437.258.324.525.208.258h.228z"/></symbol><symbol id="aI"><path d="M.472.66v.018h.234V.66H.681a.067.067 0 0 1-.06-.033C.614.617.611.593.611.557V.288A.472.472 0 0 0 .59.133.194.194 0 0 0 .513.04.277.277 0 0 0 .356 0a.297.297 0 0 0-.165.038.204.204 0 0 0-.08.1.561.561 0 0 0-.015.164V.56C.096.6.09.628.08.64.068.653.05.66.025.66H0v.018h.286V.66H.261C.233.66.214.65.202.634.194.622.19.598.19.56V.272C.19.246.192.217.197.184A.19.19 0 0 1 .223.106.14.14 0 0 1 .276.06a.236.236 0 0 1 .202.01.15.15 0 0 1 .07.073c.013.03.019.08.019.15V.56C.567.6.562.628.553.638.541.653.522.66.497.66H.472z"/></symbol><symbol id="aJ"><path d="M.566.692.58.467H.566a.283.283 0 0 1-.087.146.21.21 0 0 1-.134.044.218.218 0 0 1-.12-.033.221.221 0 0 1-.083-.107.479.479 0 0 1-.03-.182C.111.275.12.223.14.179a.216.216 0 0 1 .087-.1.25.25 0 0 1 .132-.036c.043 0 .08.01.114.027A.379.379 0 0 1 .58.18L.596.17A.348.348 0 0 0 .48.041.294.294 0 0 0 .322 0C.212 0 .128.04.067.122A.349.349 0 0 0 0 .336a.38.38 0 0 0 .044.182.33.33 0 0 0 .292.174A.312.312 0 0 0 .48.657a.077.077 0 0 1 .029-.01C.517.646.524.65.53.655a.076.076 0 0 1 .018.036h.017z"/></symbol><symbol id="aK"><path d="M0 0z"/></symbol><symbol id="aL"><path d="M.284.018V0H0v.018h.023c.028 0 .048.008.06.024.008.01.012.035.012.075v.428A.22.22 0 0 1 .088.61a.044.044 0 0 1-.02.021.093.093 0 0 1-.045.012H0v.018h.284V.644H.26C.233.644.213.636.2.62.194.61.189.585.189.545V.117A.22.22 0 0 1 .195.051.044.044 0 0 1 .215.03.09.09 0 0 1 .26.018h.024z"/></symbol><symbol id="aM"><path d="M.002.617.14.672H.16V.568c.023.04.046.067.069.082a.13.13 0 0 0 .074.024.142.142 0 0 0 .112-.052A.25.25 0 0 0 .47.454.28.28 0 0 0 .403.262.176.176 0 0 0 .265.2a.172.172 0 0 0-.062.01.146.146 0 0 0-.044.03V.104c0-.031.001-.05.005-.059a.043.043 0 0 1 .02-.02.122.122 0 0 1 .05-.007V0H0v.018h.012c.018 0 .033.003.046.01.006.004.011.01.014.018a.196.196 0 0 1 .006.06V.53a.23.23 0 0 1-.004.055.033.033 0 0 1-.013.018.04.04 0 0 1-.023.006A.088.088 0 0 1 .008.6L.002.617M.16.539V.372c0-.036.001-.06.004-.071A.092.092 0 0 1 .196.25.104.104 0 0 1 .264.229c.032 0 .059.013.079.039a.22.22 0 0 1 .04.14c0 .068-.016.12-.046.157a.093.093 0 0 1-.12.027.272.272 0 0 1-.058-.053z"/></symbol><symbol id="aN"><path d="M.156.46v-.1c.037.067.076.1.115.1A.062.062 0 0 0 .315.444.05.05 0 0 0 .333.406.045.045 0 0 0 .32.374.04.04 0 0 0 .29.361C.279.36.266.366.251.377.237.39.227.395.221.395.213.395.207.39.2.385A.235.235 0 0 1 .156.319V.104C.156.08.159.061.165.048A.05.05 0 0 1 .187.026.099.099 0 0 1 .234.018V0h-.23v.018c.024 0 .04.003.052.01a.042.042 0 0 1 .017.025.251.251 0 0 1 .002.048v.173a.663.663 0 0 1-.003.093.035.035 0 0 1-.012.022.032.032 0 0 1-.02.007.097.097 0 0 1-.035-.008L0 .406.135.46h.02z"/></symbol><symbol id="aO"><path d="M.216.474A.198.198 0 0 0 .38.397.237.237 0 0 0 .432.246c0-.04-.01-.081-.03-.122A.21.21 0 0 0 .324.031.208.208 0 0 0 .211 0a.19.19 0 0 0-.16.08A.25.25 0 0 0 0 .234c0 .04.01.082.03.122a.208.208 0 0 0 .186.12M.201.441A.102.102 0 0 1 .15.427.107.107 0 0 1 .107.373a.26.26 0 0 1-.016-.1C.09.21.104.154.129.106.155.058.19.035.232.035.264.035.29.048.31.074.33.1.34.144.34.208.34.288.325.35.29.396A.106.106 0 0 1 .2.442z"/></symbol><symbol id="aP"><path d="M0 .46h.21V.444H.197C.184.443.174.44.167.433A.033.033 0 0 1 .157.41c0-.012.004-.025.011-.04L.272.12l.104.256A.122.122 0 0 1 .388.42.016.016 0 0 1 .384.43.026.026 0 0 1 .37.44a.123.123 0 0 1-.034.003V.46h.146V.443C.465.442.454.438.447.433a.125.125 0 0 1-.03-.05L.257 0h-.02L.079.377a.14.14 0 0 1-.02.038.08.08 0 0 1-.025.02A.122.122 0 0 1 0 .443V.46z"/></symbol><symbol id="aQ"><path d="M.07.292A.23.23 0 0 1 .117.136.147.147 0 0 1 .232.08c.03 0 .055.008.077.024a.18.18 0 0 1 .054.083l.015-.01a.234.234 0 0 0-.06-.122A.16.16 0 0 0 .196 0c-.053 0-.1.02-.138.063A.242.242 0 0 0 0 .23c0 .077.02.137.059.18.039.042.088.064.148.064.05 0 .09-.017.123-.05A.18.18 0 0 0 .378.292H.07m0 .029h.207a.191.191 0 0 1-.01.06.096.096 0 0 1-.037.043.09.09 0 0 1-.05.016.101.101 0 0 1-.073-.032A.136.136 0 0 1 .07.321z"/></symbol><symbol id="aR"><path d="M.156.366C.208.429.258.46.306.46A.107.107 0 0 0 .369.442.121.121 0 0 0 .41.382c.007-.02.01-.05.01-.09v-.19A.16.16 0 0 1 .428.042.04.04 0 0 1 .445.024.1.1 0 0 1 .49.018V0H.269v.018h.009c.02 0 .035.003.043.009A.05.05 0 0 1 .34.055C.34.06.34.075.34.101v.183c0 .04-.006.07-.016.089C.315.39.297.4.27.4.233.4.194.38.156.337V.1c0-.03.002-.049.005-.056A.047.047 0 0 1 .18.024.122.122 0 0 1 .229.018V0H.007v.018h.01c.023 0 .038.005.046.017C.071.046.075.069.075.1v.166a.677.677 0 0 1-.004.098C.07.377.065.385.061.39A.03.03 0 0 1 .04.396.094.094 0 0 1 .007.388L0 .406.135.46h.02V.366z"/></symbol><symbol id="aS"><path d="M.151.602V.455h.105V.42H.15V.13c0-.029.004-.048.013-.058A.04.04 0 0 1 .196.057c.01 0 .021.003.031.01.01.006.018.016.023.03h.02A.155.155 0 0 0 .22.023.105.105 0 0 0 .157 0a.088.088 0 0 0-.044.012.077.077 0 0 0-.032.036.19.19 0 0 0-.01.072v.3H0v.017c.018.007.036.019.055.036a.29.29 0 0 1 .081.129h.015z"/></symbol><symbol id="aT"><path d="M.27.018V0a.466.466 0 0 0-.232.254.538.538 0 0 0 .037.475.43.43 0 0 0 .195.18V.887a.28.28 0 0 1-.1-.091A.42.42 0 0 1 .114.65 1.029 1.029 0 0 1 .11.276.498.498 0 0 1 .141.168.35.35 0 0 1 .27.018z"/></symbol><symbol id="aU"><path d="M.645.705.162 0H.12L.6.705h.044m-.502 0A.115.115 0 0 0 .245.65.22.22 0 0 0 .28.524c0-.056-.013-.1-.04-.13a.127.127 0 0 0-.1-.047.127.127 0 0 0-.07.02.15.15 0 0 0-.052.064A.223.223 0 0 0 0 .524C0 .56.007.59.02.62c.013.029.03.05.053.064a.13.13 0 0 0 .07.022M.14.677C.125.677.11.667.097.647.084.629.077.588.077.526A.38.38 0 0 1 .089.42.085.085 0 0 1 .114.38.038.038 0 0 1 .14.37c.015 0 .029.009.04.025a.24.24 0 0 1 .024.126c0 .062-.008.105-.024.13C.17.67.157.677.141.677M.622.356A.14.14 0 0 0 .744.27a.22.22 0 0 0 .02-.092C.763.12.748.076.721.045A.125.125 0 0 0 .555.022.152.152 0 0 0 .5.084a.219.219 0 0 0-.019.094c0 .034.007.065.02.093.012.029.03.05.052.064a.127.127 0 0 0 .068.021m0-.026C.608.33.594.321.583.304.567.28.56.238.56.174.56.116.568.075.583.052.593.036.607.027.623.027c.015 0 .028.01.04.027.015.024.023.065.023.123C.686.238.678.28.663.305.652.322.639.33.623.33z"/></symbol><symbol id="aV"><path d="M0 .888v.02A.456.456 0 0 0 .231.654.535.535 0 0 0 .195.18.427.427 0 0 0 0 0v.018C.04.041.073.071.099.11a.403.403 0 0 1 .057.146A1.034 1.034 0 0 1 .16.63.355.355 0 0 1 0 .888z"/></symbol><use xlink:href="#aG" transform="matrix(15.92727 0 0 -15.92727 50.512 34.473)" fill="#595959"/><use xlink:href="#aH" transform="matrix(15.92727 0 0 -15.92727 62.94 34.473)" fill="#595959"/><use xlink:href="#aI" transform="matrix(15.92727 0 0 -15.92727 74.461 34.722)" fill="#595959"/><use xlink:href="#aJ" transform="matrix(15.92727 0 0 -15.92727 86.511 34.714)" fill="#595959"/><use xlink:href="#aK" transform="matrix(15.92727 0 0 -15.92727 96.62 34.473)" fill="#595959"/><use xlink:href="#aL" transform="matrix(15.92727 0 0 -15.92727 100.947 34.473)" fill="#595959"/><use xlink:href="#aG" transform="matrix(15.92727 0 0 -15.92727 106.142 34.473)" fill="#595959"/><use xlink:href="#aM" transform="matrix(15.92727 0 0 -15.92727 118.392 37.879)" fill="#595959"/><use xlink:href="#aN" transform="matrix(15.92727 0 0 -15.92727 126.396 34.473)" fill="#595959"/><use xlink:href="#aO" transform="matrix(15.92727 0 0 -15.92727 132.292 34.69)" fill="#595959"/><use xlink:href="#aP" transform="matrix(15.92727 0 0 -15.92727 139.736 34.69)" fill="#595959"/><use xlink:href="#aQ" transform="matrix(15.92727 0 0 -15.92727 148.267 34.69)" fill="#595959"/><use xlink:href="#aG" transform="matrix(15.92727 0 0 -15.92727 155.004 34.473)" fill="#595959"/><use xlink:href="#aQ" transform="matrix(15.92727 0 0 -15.92727 167.899 34.69)" fill="#595959"/><use xlink:href="#aR" transform="matrix(15.92727 0 0 -15.92727 174.39 34.473)" fill="#595959"/><use xlink:href="#aS" transform="matrix(15.92727 0 0 -15.92727 182.524 34.59)" fill="#595959"/><use xlink:href="#aK" transform="matrix(15.92727 0 0 -15.92727 186.73 34.473)" fill="#595959"/><use xlink:href="#aT" transform="matrix(15.92727 0 0 -15.92727 191.537 37.879)" fill="#595959"/><use xlink:href="#aU" transform="matrix(15.92727 0 0 -15.92727 196.68 34.908)" fill="#595959"/><use xlink:href="#aV" transform="matrix(15.92727 0 0 -15.92727 209.79 37.879)" fill="#595959"/></g><clipPath id="aW"><path transform="matrix(1 0 0 -1 0 476)" d="M.218 1.018h1038.764v474.11H.218z"/></clipPath><g clip-path="url(#aW)"><path d="M232.69 25.782h8.074v8.073h-8.073z" fill="#e97132"/></g><clipPath id="aX"><path transform="matrix(1 0 0 -1 0 476)" d="M.218 1.018h1038.764v474.11H.218z"/></clipPath><g clip-path="url(#aX)"><symbol id="aY"><path d="M.377.184a.244.244 0 0 0-.07-.137A.17.17 0 0 0 .188 0a.172.172 0 0 0-.132.064A.251.251 0 0 0 0 .237c0 .07.02.127.063.171a.201.201 0 0 0 .15.066C.257.474.293.462.322.44.35.416.364.392.364.367a.04.04 0 0 0-.012-.03A.046.046 0 0 0 .32.324c-.02 0-.034.006-.044.019C.27.35.266.364.265.383a.063.063 0 0 1-.02.044.07.07 0 0 1-.048.014A.097.097 0 0 1 .12.405.192.192 0 0 1 .079.28c0-.054.013-.1.04-.142a.121.121 0 0 1 .106-.06c.032 0 .06.01.086.032A.22.22 0 0 1 .363.19L.377.184z"/></symbol><symbol id="aZ"><path d="M.422.46V.19c0-.052.002-.084.004-.095C.428.083.432.075.438.07A.03.03 0 0 1 .457.064c.01 0 .021.003.034.008L.498.055.364 0H.342v.095A.407.407 0 0 0 .254.016.134.134 0 0 0 .19 0a.104.104 0 0 0-.065.021.114.114 0 0 0-.039.057.338.338 0 0 0-.01.096v.2a.098.098 0 0 1-.007.044.044.044 0 0 1-.02.019A.113.113 0 0 1 0 .443V.46h.157v-.3C.157.12.164.094.178.08A.077.077 0 0 1 .231.06c.014 0 .03.004.047.013.018.009.04.026.064.05v.254c0 .025-.005.042-.014.051C.318.438.299.442.27.443V.46h.152z"/></symbol><symbol id="ba"><path d="M.249.074A.737.737 0 0 0 .163.012.132.132 0 0 0 .106 0C.076 0 .05.01.03.032A.117.117 0 0 0 0 .115c0 .022.005.04.015.057a.194.194 0 0 0 .069.062c.033.02.088.044.165.072v.017c0 .045-.007.075-.021.092C.214.432.193.44.166.44A.07.07 0 0 1 .117.423.05.05 0 0 1 .1.385V.357C.1.342.097.33.089.322A.039.039 0 0 0 .058.31a.039.039 0 0 0-.03.013.05.05 0 0 0-.01.034c0 .028.013.054.042.078A.186.186 0 0 0 .18.47.21.21 0 0 0 .279.45.092.092 0 0 0 .321.402.267.267 0 0 0 .33.316V.165c0-.043 0-.07.002-.08C.334.077.336.07.34.068A.02.02 0 0 1 .353.062c.005 0 .01.001.014.003l.04.036V.074C.37.024.334 0 .301 0a.047.047 0 0 0-.038.017C.254.028.249.047.249.074m0 .031v.17a.964.964 0 0 1-.095-.04.164.164 0 0 1-.055-.046.087.087 0 0 1-.017-.05c0-.024.007-.044.021-.06A.064.064 0 0 1 .151.058C.176.057.21.073.25.105z"/></symbol><symbol id="bb"><path d="M0 .663h.208V.645h-.01C.184.645.173.642.165.635a.03.03 0 0 1-.01-.023C.154.599.16.582.17.559L.28.333l.1.248a.103.103 0 0 1 .008.04c0 .005-.001.01-.004.012a.025.025 0 0 1-.012.009.086.086 0 0 1-.03.003v.018h.146V.645A.07.07 0 0 1 .46.637.08.08 0 0 1 .44.615.305.305 0 0 1 .422.578L.24.13A.23.23 0 0 0 .17.033.135.135 0 0 0 .09 0a.068.068 0 0 0-.047.017.05.05 0 0 0-.02.038c0 .013.005.024.014.033C.046.096.058.1.073.1.084.1.1.097.117.09A.105.105 0 0 1 .142.081c.01 0 .02.005.031.015.012.01.024.03.035.059L.24.233.08.571a.27.27 0 0 1-.044.06A.11.11 0 0 1 0 .645v.018z"/></symbol><use xlink:href="#aH" transform="matrix(15.92727 0 0 -15.92727 244.403 34.473)" fill="#595959"/><use xlink:href="#aY" transform="matrix(15.92727 0 0 -15.92727 256.386 34.69)" fill="#595959"/><use xlink:href="#aY" transform="matrix(15.92727 0 0 -15.92727 263.585 34.69)" fill="#595959"/><use xlink:href="#aZ" transform="matrix(15.92727 0 0 -15.92727 270.032 34.69)" fill="#595959"/><use xlink:href="#aN" transform="matrix(15.92727 0 0 -15.92727 278.193 34.473)" fill="#595959"/><use xlink:href="#ba" transform="matrix(15.92727 0 0 -15.92727 283.9 34.62)" fill="#595959"/><use xlink:href="#aY" transform="matrix(15.92727 0 0 -15.92727 291.075 34.69)" fill="#595959"/><use xlink:href="#bb" transform="matrix(15.92727 0 0 -15.92727 297.6 37.91)" fill="#595959"/><use xlink:href="#aK" transform="matrix(15.92727 0 0 -15.92727 305.582 34.473)" fill="#595959"/><use xlink:href="#aL" transform="matrix(15.92727 0 0 -15.92727 309.913 34.473)" fill="#595959"/><use xlink:href="#aG" transform="matrix(15.92727 0 0 -15.92727 315.112 34.473)" fill="#595959"/><use xlink:href="#aM" transform="matrix(15.92727 0 0 -15.92727 327.364 37.879)" fill="#595959"/><use xlink:href="#aN" transform="matrix(15.92727 0 0 -15.92727 335.372 34.473)" fill="#595959"/><use xlink:href="#aO" transform="matrix(15.92727 0 0 -15.92727 341.27 34.69)" fill="#595959"/><use xlink:href="#aP" transform="matrix(15.92727 0 0 -15.92727 348.718 34.69)" fill="#595959"/><use xlink:href="#aQ" transform="matrix(15.92727 0 0 -15.92727 357.252 34.69)" fill="#595959"/><use xlink:href="#aG" transform="matrix(15.92727 0 0 -15.92727 363.992 34.473)" fill="#595959"/><use xlink:href="#aQ" transform="matrix(15.92727 0 0 -15.92727 376.89 34.69)" fill="#595959"/><use xlink:href="#aR" transform="matrix(15.92727 0 0 -15.92727 383.369 34.473)" fill="#595959"/><use xlink:href="#aS" transform="matrix(15.92727 0 0 -15.92727 391.506 34.59)" fill="#595959"/><use xlink:href="#aK" transform="matrix(15.92727 0 0 -15.92727 395.715 34.473)" fill="#595959"/><use xlink:href="#aT" transform="matrix(15.92727 0 0 -15.92727 400.509 37.879)" fill="#595959"/><use xlink:href="#aU" transform="matrix(15.92727 0 0 -15.92727 405.656 34.908)" fill="#595959"/><use xlink:href="#aV" transform="matrix(15.92727 0 0 -15.92727 418.769 37.879)" fill="#595959"/></g><clipPath id="bc"><path transform="matrix(1 0 0 -1 0 476)" d="M.218 1.018h1038.764v474.11H.218z"/></clipPath><g clip-path="url(#bc)"><path d="M441.71 25.782h7.854v8.073h-7.855z" fill="#196b24"/></g><clipPath id="bd"><path transform="matrix(1 0 0 -1 0 476)" d="M.218 1.018h1038.764v474.11H.218z"/></clipPath><g clip-path="url(#bd)"><symbol id="be"><path d="M.188.31V.117C.188.076.193.05.202.04.215.025.233.018.258.018h.026V0H0v.018h.025c.028 0 .048.01.06.027.006.01.01.034.01.072v.428C.095.587.09.612.082.623.069.637.05.644.025.644H0v.018h.243c.059 0 .106-.006.14-.018A.191.191 0 0 0 .469.582.159.159 0 0 0 .504.479.173.173 0 0 0 .451.347C.415.313.365.297.3.297A.426.426 0 0 0 .188.31m0 .028a.723.723 0 0 1 .08-.01c.034 0 .064.013.088.04.025.026.037.06.037.101a.182.182 0 0 1-.018.08.12.12 0 0 1-.05.055.144.144 0 0 1-.073.019.289.289 0 0 1-.064-.01V.338z"/></symbol><symbol id="bf"><path d="M.116.694A.046.046 0 0 0 .15.68.046.046 0 0 0 .165.645.048.048 0 0 0 .15.61.046.046 0 0 0 .116.595.048.048 0 0 0 .08.61a.048.048 0 0 0-.015.035C.066.659.07.67.08.68c.01.01.022.014.036.014M.156.46V.101c0-.028.002-.047.006-.056A.045.045 0 0 1 .18.025.098.098 0 0 1 .224.017V0H.007v.018C.029.018.043.02.05.024a.042.042 0 0 1 .017.02c.005.01.007.03.007.057v.172a.61.61 0 0 1-.004.095C.069.378.065.385.06.389A.03.03 0 0 1 .04.396.098.098 0 0 1 .007.388L0 .406.135.46h.021z"/></symbol><symbol id="bg"><path d="M.271.474V.322H.255C.243.37.227.402.208.419a.106.106 0 0 1-.074.026.082.082 0 0 1-.055-.018C.065.415.058.402.058.387.058.37.063.353.073.34A.174.174 0 0 1 .135.298L.206.263c.066-.032.1-.075.1-.127A.12.12 0 0 0 .258.037.16.16 0 0 0 .156 0a.355.355 0 0 0-.094.015.095.095 0 0 1-.026.005C.028.02.022.015.018.007H.002v.16h.016A.182.182 0 0 1 .07.063.126.126 0 0 1 .157.03c.022 0 .04.006.054.02.015.013.022.029.022.047a.075.075 0 0 1-.024.057.407.407 0 0 1-.094.058.28.28 0 0 0-.093.063.11.11 0 0 0-.022.07c0 .038.013.068.038.093a.135.135 0 0 0 .098.037A.23.23 0 0 0 .2.463.151.151 0 0 1 .233.456a.02.02 0 0 1 .012.003.047.047 0 0 1 .01.015h.016z"/></symbol><use xlink:href="#be" transform="matrix(15.92727 0 0 -15.92727 453.501 34.473)" fill="#595959"/><use xlink:href="#aN" transform="matrix(15.92727 0 0 -15.92727 462.283 34.473)" fill="#595959"/><use xlink:href="#aQ" transform="matrix(15.92727 0 0 -15.92727 468.006 34.69)" fill="#595959"/><use xlink:href="#aY" transform="matrix(15.92727 0 0 -15.92727 475.168 34.69)" fill="#595959"/><use xlink:href="#bf" transform="matrix(15.92727 0 0 -15.92727 482.076 34.473)" fill="#595959"/><use xlink:href="#bg" transform="matrix(15.92727 0 0 -15.92727 486.968 34.69)" fill="#595959"/><use xlink:href="#bf" transform="matrix(15.92727 0 0 -15.92727 492.767 34.473)" fill="#595959"/><use xlink:href="#aO" transform="matrix(15.92727 0 0 -15.92727 497.417 34.69)" fill="#595959"/><use xlink:href="#aR" transform="matrix(15.92727 0 0 -15.92727 504.836 34.473)" fill="#595959"/><use xlink:href="#aK" transform="matrix(15.92727 0 0 -15.92727 512.811 34.473)" fill="#595959"/><use xlink:href="#aL" transform="matrix(15.92727 0 0 -15.92727 517.135 34.473)" fill="#595959"/><use xlink:href="#aG" transform="matrix(15.92727 0 0 -15.92727 522.328 34.473)" fill="#595959"/><use xlink:href="#aM" transform="matrix(15.92727 0 0 -15.92727 534.574 37.879)" fill="#595959"/><use xlink:href="#aN" transform="matrix(15.92727 0 0 -15.92727 542.591 34.473)" fill="#595959"/><use xlink:href="#aO" transform="matrix(15.92727 0 0 -15.92727 548.483 34.69)" fill="#595959"/><use xlink:href="#aP" transform="matrix(15.92727 0 0 -15.92727 555.94 34.69)" fill="#595959"/><use xlink:href="#aQ" transform="matrix(15.92727 0 0 -15.92727 564.468 34.69)" fill="#595959"/><use xlink:href="#aG" transform="matrix(15.92727 0 0 -15.92727 571.218 34.473)" fill="#595959"/><use xlink:href="#aQ" transform="matrix(15.92727 0 0 -15.92727 584.11 34.69)" fill="#595959"/><use xlink:href="#aR" transform="matrix(15.92727 0 0 -15.92727 590.598 34.473)" fill="#595959"/><use xlink:href="#aS" transform="matrix(15.92727 0 0 -15.92727 598.729 34.59)" fill="#595959"/><use xlink:href="#aK" transform="matrix(15.92727 0 0 -15.92727 602.93 34.473)" fill="#595959"/><use xlink:href="#aT" transform="matrix(15.92727 0 0 -15.92727 607.735 37.879)" fill="#595959"/><use xlink:href="#aU" transform="matrix(15.92727 0 0 -15.92727 612.875 34.908)" fill="#595959"/><use xlink:href="#aV" transform="matrix(15.92727 0 0 -15.92727 625.982 37.879)" fill="#595959"/></g><clipPath id="bh"><path transform="matrix(1 0 0 -1 0 476)" d="M.218 1.018h1038.764v474.11H.218z"/></clipPath><g clip-path="url(#bh)"><path d="M648.764 25.782h8.072v8.073h-8.072z" fill="#0f9ed5"/></g><clipPath id="bi"><path transform="matrix(1 0 0 -1 0 476)" d="M.218 1.018h1038.764v474.11H.218z"/></clipPath><g clip-path="url(#bi)"><symbol id="bj"><path d="M.188.626v-.26H.31c.028 0 .048.006.06.018.014.012.022.036.027.073h.018V.232H.396a.128.128 0 0 1-.01.057.06.06 0 0 1-.027.027.105.105 0 0 1-.05.01H.19V.116A.22.22 0 0 1 .194.051.044.044 0 0 1 .215.03.093.093 0 0 1 .26.018h.024V0H0v.018h.023c.028 0 .048.008.06.024.008.01.012.035.012.075v.428A.22.22 0 0 1 .088.61a.044.044 0 0 1-.02.021.09.09 0 0 1-.045.012H0v.018h.493L.499.517H.482a.194.194 0 0 1-.03.067.094.094 0 0 1-.041.032.22.22 0 0 1-.077.01H.188z"/></symbol><symbol id="bk"><path d="m0 .597.161.079h.016v-.56C.177.08.18.057.182.048a.037.037 0 0 1 .02-.02A.164.164 0 0 1 .26.017V0H.01v.018c.032 0 .052.003.061.008.01.005.016.011.02.019a.262.262 0 0 1 .005.072v.357c0 .048-.002.08-.005.093A.038.038 0 0 1 .079.59a.032.032 0 0 1-.021.007.13.13 0 0 1-.05-.015L0 .597z"/></symbol><symbol id="bl"><path d="M0 .074h.252V0H0v.074z"/></symbol><symbol id="bm"><path d="M.396.692V.463H.378a.282.282 0 0 1-.032.105.179.179 0 0 1-.151.085.118.118 0 0 1-.084-.03.094.094 0 0 1-.033-.071c0-.02.007-.039.02-.055A.54.54 0 0 1 .244.399.951.951 0 0 0 .369.322.18.18 0 0 0 .44.184C.44.134.42.091.382.054A.211.211 0 0 0 .231 0a.318.318 0 0 0-.117.022.275.275 0 0 1-.06.016.026.026 0 0 1-.02-.008C.03.025.028.015.025 0H.006v.227h.018A.324.324 0 0 1 .06.12.165.165 0 0 1 .124.062.205.205 0 0 1 .221.038c.04 0 .073.01.096.032a.1.1 0 0 1 .036.076.102.102 0 0 1-.014.05.144.144 0 0 1-.041.046C.285.252.25.272.194.304A1.047 1.047 0 0 0 .073.38a.206.206 0 0 0-.054.063.162.162 0 0 0 .036.198.194.194 0 0 0 .139.051.28.28 0 0 0 .112-.025.115.115 0 0 1 .038-.013c.009 0 .016.003.02.008.006.005.01.015.014.03h.018z"/></symbol><use xlink:href="#bj" transform="matrix(15.92727 0 0 -15.92727 660.712 34.473)" fill="#595959"/><use xlink:href="#bk" transform="matrix(15.92727 0 0 -15.92727 671.267 34.473)" fill="#595959"/><use xlink:href="#bl" transform="matrix(15.92727 0 0 -15.92727 677.907 31.486)" fill="#595959"/><use xlink:href="#bm" transform="matrix(15.92727 0 0 -15.92727 683.714 34.714)" fill="#595959"/><use xlink:href="#aY" transform="matrix(15.92727 0 0 -15.92727 692.208 34.69)" fill="#595959"/><use xlink:href="#aO" transform="matrix(15.92727 0 0 -15.92727 699.186 34.69)" fill="#595959"/><use xlink:href="#aN" transform="matrix(15.92727 0 0 -15.92727 706.819 34.473)" fill="#595959"/><use xlink:href="#aQ" transform="matrix(15.92727 0 0 -15.92727 712.543 34.69)" fill="#595959"/><use xlink:href="#aK" transform="matrix(15.92727 0 0 -15.92727 719.16 34.473)" fill="#595959"/><use xlink:href="#aL" transform="matrix(15.92727 0 0 -15.92727 723.484 34.473)" fill="#595959"/><use xlink:href="#aG" transform="matrix(15.92727 0 0 -15.92727 728.677 34.473)" fill="#595959"/><use xlink:href="#aM" transform="matrix(15.92727 0 0 -15.92727 740.923 37.879)" fill="#595959"/><use xlink:href="#aN" transform="matrix(15.92727 0 0 -15.92727 748.94 34.473)" fill="#595959"/><use xlink:href="#aO" transform="matrix(15.92727 0 0 -15.92727 754.832 34.69)" fill="#595959"/><use xlink:href="#aP" transform="matrix(15.92727 0 0 -15.92727 762.29 34.69)" fill="#595959"/><use xlink:href="#aQ" transform="matrix(15.92727 0 0 -15.92727 770.817 34.69)" fill="#595959"/><use xlink:href="#aG" transform="matrix(15.92727 0 0 -15.92727 777.567 34.473)" fill="#595959"/><use xlink:href="#aQ" transform="matrix(15.92727 0 0 -15.92727 790.459 34.69)" fill="#595959"/><use xlink:href="#aR" transform="matrix(15.92727 0 0 -15.92727 796.947 34.473)" fill="#595959"/><use xlink:href="#aS" transform="matrix(15.92727 0 0 -15.92727 805.078 34.59)" fill="#595959"/><use xlink:href="#aK" transform="matrix(15.92727 0 0 -15.92727 809.28 34.473)" fill="#595959"/><use xlink:href="#aT" transform="matrix(15.92727 0 0 -15.92727 814.084 37.879)" fill="#595959"/><use xlink:href="#aU" transform="matrix(15.92727 0 0 -15.92727 819.224 34.908)" fill="#595959"/><use xlink:href="#aV" transform="matrix(15.92727 0 0 -15.92727 832.33 37.879)" fill="#595959"/></g><clipPath id="bn"><path transform="matrix(1 0 0 -1 0 476)" d="M.218 1.018h1038.764v474.11H.218z"/></clipPath><g clip-path="url(#bn)"><path d="M855.164 25.782h8.072v8.073h-8.072z" fill="#a02b93"/></g><clipPath id="bo"><path transform="matrix(1 0 0 -1 0 476)" d="M.218 1.018h1038.764v474.11H.218z"/></clipPath><g clip-path="url(#bo)"><symbol id="bp"><path d="M.659 0H.482L.258.31.218.309h-.03V.118C.188.076.193.05.202.04.215.025.233.018.258.018h.026V0H0v.018h.025c.028 0 .048.01.06.027.007.01.01.034.01.072v.428c0 .042-.004.067-.013.078C.069.637.05.644.025.644H0v.018h.241c.07 0 .122-.005.155-.016A.174.174 0 0 0 .481.59.146.146 0 0 0 .517.492a.154.154 0 0 0-.04-.106.223.223 0 0 0-.123-.064L.49.132A.34.34 0 0 1 .57.045.203.203 0 0 1 .66.018V0m-.47.34a.23.23 0 0 0 .016 0h.01C.28.34.327.354.359.38a.131.131 0 0 1 .049.105.135.135 0 0 1-.04.1.138.138 0 0 1-.102.04.43.43 0 0 1-.077-.01V.34z"/></symbol><symbol id="bq"><path d="M.155.694V.101c0-.028.002-.046.006-.056a.046.046 0 0 1 .02-.02.112.112 0 0 1 .047-.007V0h-.22v.018c.02 0 .035.002.042.006a.042.042 0 0 1 .018.02c.004.01.006.03.006.057v.406c0 .05 0 .082-.003.093C.069.612.065.62.06.624A.028.028 0 0 1 .04.63.091.091 0 0 1 .009.623L0 .64l.133.054h.022z"/></symbol><use xlink:href="#bp" transform="matrix(15.92727 0 0 -15.92727 867.061 34.473)" fill="#595959"/><use xlink:href="#aQ" transform="matrix(15.92727 0 0 -15.92727 878.07 34.69)" fill="#595959"/><use xlink:href="#aY" transform="matrix(15.92727 0 0 -15.92727 885.003 34.69)" fill="#595959"/><use xlink:href="#ba" transform="matrix(15.92727 0 0 -15.92727 892.229 34.62)" fill="#595959"/><use xlink:href="#bq" transform="matrix(15.92727 0 0 -15.92727 899.338 34.473)" fill="#595959"/><use xlink:href="#bq" transform="matrix(15.92727 0 0 -15.92727 903.705 34.473)" fill="#595959"/><use xlink:href="#aK" transform="matrix(15.92727 0 0 -15.92727 907.598 34.473)" fill="#595959"/><use xlink:href="#aL" transform="matrix(15.92727 0 0 -15.92727 912.139 34.473)" fill="#595959"/><use xlink:href="#aG" transform="matrix(15.92727 0 0 -15.92727 917.117 34.473)" fill="#595959"/><use xlink:href="#aM" transform="matrix(15.92727 0 0 -15.92727 929.373 37.879)" fill="#595959"/><use xlink:href="#aN" transform="matrix(15.92727 0 0 -15.92727 937.607 34.473)" fill="#595959"/><use xlink:href="#aO" transform="matrix(15.92727 0 0 -15.92727 943.286 34.69)" fill="#595959"/><use xlink:href="#aP" transform="matrix(15.92727 0 0 -15.92727 950.96 34.69)" fill="#595959"/><use xlink:href="#aQ" transform="matrix(15.92727 0 0 -15.92727 959.497 34.69)" fill="#595959"/><use xlink:href="#aG" transform="matrix(15.92727 0 0 -15.92727 966.017 34.473)" fill="#595959"/><use xlink:href="#aQ" transform="matrix(15.92727 0 0 -15.92727 978.919 34.69)" fill="#595959"/><use xlink:href="#aR" transform="matrix(15.92727 0 0 -15.92727 985.623 34.473)" fill="#595959"/><use xlink:href="#aS" transform="matrix(15.92727 0 0 -15.92727 993.54 34.59)" fill="#595959"/><use xlink:href="#aK" transform="matrix(15.92727 0 0 -15.92727 997.96 34.473)" fill="#595959"/><use xlink:href="#aT" transform="matrix(15.92727 0 0 -15.92727 1002.534 37.879)" fill="#595959"/><use xlink:href="#aU" transform="matrix(15.92727 0 0 -15.92727 1007.684 34.908)" fill="#595959"/><use xlink:href="#aV" transform="matrix(15.92727 0 0 -15.92727 1021.007 37.879)" fill="#595959"/></g><path stroke-width=".762" stroke-linejoin="round" fill="none" stroke="#d9d9d9" d="M.655 1.018H1039.2v474.11H.655z"/></svg>