<svg xmlns="http://www.w3.org/2000/svg" xmlns:xlink="http://www.w3.org/1999/xlink" width="772pt" height="397pt" viewBox="0 0 772 397"><clipPath id="a"><path transform="matrix(1 0 0 -1 0 397)" d="M0 .127h771.927V397H0z"/></clipPath><g clip-path="url(#a)"><path d="M0 0h771.927v396.873H0z" fill="#fff"/></g><path d="M.345.564h770.837V395.69H.345z" fill="#fff"/><clipPath id="b"><path transform="matrix(1 0 0 -1 0 397)" d="M0 1.436h771.054v395.128H0z"/></clipPath><g clip-path="url(#b)"><path stroke-width=".762" stroke-linejoin="round" fill="none" stroke="#d9d9d9" d="M11.364 41.255v308.509m83.143-308.51v308.51m83.13-308.51v308.51m83.348-308.51v308.51m83.13-308.51v308.51m83.13-308.51v308.51m83.348-308.51v308.51m83.13-308.51v308.51m83.348-308.51v308.51m83.093-308.51v308.51"/></g><clipPath id="c"><path transform="matrix(1 0 0 -1 0 397)" d="M11.127 46.382H760.8v309.6H11.127z"/></clipPath><g clip-path="url(#c)"><path d="M25.45 146.096h6.327v203.777H25.45zm83.348-64.802h6.327v268.579h-6.327zm83.13 3.055h6.327v265.524h-6.327zm83.13-.873h6.327v266.397h-6.327zm83.348-2.837h6.328v269.234h-6.328zm83.13.655h6.328v268.579h-6.328zm83.13-.655h6.328v269.234h-6.328zm83.348 1.31h6.328v267.924h-6.328zm83.13-19.201h6.328v287.125h-6.328z" fill="#156082"/></g><clipPath id="d"><path transform="matrix(1 0 0 -1 0 397)" d="M11.127 46.382H760.8v309.6H11.127z"/></clipPath><g clip-path="url(#d)"><path d="M37.668 183.188h6.328v166.685h-6.328zm83.13-30.764h6.328v197.449h-6.328zm83.13-18.547h6.546v215.996h-6.546zm83.349 12.22h6.327v203.776h-6.327zm83.13 3.054h6.327v200.722h-6.327zm83.13-9.164h6.545v209.886h-6.546zm83.348 18.546h6.327v191.34h-6.327zm83.13-24.655h6.327v215.995h-6.327zm83.13-21.601h6.545v237.596h-6.545z" fill="#e97132"/></g><clipPath id="e"><path transform="matrix(1 0 0 -1 0 397)" d="M11.127 46.382H760.8v309.6H11.127z"/></clipPath><g clip-path="url(#e)"><path d="M49.669 170.751h6.545v179.122H49.67zm83.348-12.218h6.327v191.34h-6.327zm83.13-21.6h6.327v212.94h-6.327zm83.13 6.108h6.546v206.832h-6.546zm83.348 9.382h6.328v197.45h-6.328zm83.13-12.436h6.328v209.886h-6.328zm83.13 12.436h6.546v197.45h-6.546zm83.348-18.546h6.328v215.996h-6.328zm83.13-34.037h6.328v250.033h-6.328z" fill="#196b24"/></g><clipPath id="f"><path transform="matrix(1 0 0 -1 0 397)" d="M11.127 46.382H760.8v309.6H11.127z"/></clipPath><g clip-path="url(#f)"><path d="M61.887 186.243h6.328v163.63h-6.328zm83.13-24.655h6.328v188.285h-6.328zm83.349-24.656h6.327v212.94h-6.328zm83.13 9.164h6.327v203.777h-6.327zm83.13 3.055h6.545v200.722h-6.546zm83.348-9.164h6.327v209.886h-6.327zm83.13 18.546h6.327v191.34h-6.327zm83.13-24.655h6.545v215.995h-6.545zm83.348-18.547h6.327v234.542h-6.327z" fill="#0f9ed5"/></g><clipPath id="g"><path transform="matrix(1 0 0 -1 0 397)" d="M11.127 46.382H760.8v309.6H11.127z"/></clipPath><g clip-path="url(#g)"><path d="M73.888 183.188h6.545v166.685h-6.545zm83.348-30.764h6.327v197.449h-6.327zm83.13-12.437h6.327v209.886h-6.327zm83.13 6.11h6.546v203.776h-6.546zm83.348 3.054h6.328v200.722h-6.328zm83.13-12.219h6.328v212.94h-6.328zm83.348 21.6h6.328v191.34h-6.328zm83.13-24.655h6.328v215.996h-6.328zm83.13-15.49h6.328v231.486h-6.328z" fill="#a02b93"/></g><clipPath id="h"><path transform="matrix(1 0 0 -1 0 397)" d="M0 1.436h771.054v395.128H0z"/></clipPath><g clip-path="url(#h)"><path stroke-width=".762" stroke-linejoin="round" fill="none" stroke="#d9d9d9" d="M11.364 349.764h748.8"/></g><clipPath id="i"><path transform="matrix(1 0 0 -1 0 397)" d="M0 1.436h771.054v395.128H0z"/></clipPath><g clip-path="url(#i)"><symbol id="j"><path d="M0 .339c0 .075.011.14.034.195a.273.273 0 0 0 .091.122c.03.02.06.031.09.031C.268.688.313.662.354.61A.41.41 0 0 0 .428.35.514.514 0 0 0 .395.152.26.26 0 0 0 .31.036.173.173 0 0 0 .21 0C.149 0 .096.037.054.112A.455.455 0 0 0 0 .339M.096.327c0-.091.01-.166.033-.223C.148.055.176.03.212.03.23.03.248.039.267.054a.152.152 0 0 1 .043.08.965.965 0 0 1 .023.237.648.648 0 0 1-.024.189.168.168 0 0 1-.045.08.077.077 0 0 1-.107-.014.249.249 0 0 1-.049-.128A1.185 1.185 0 0 1 .096.327z"/></symbol><symbol id="k"><path d="M.054.108A.052.052 0 0 0 .093.092.052.052 0 0 0 .108.054.053.053 0 0 0 .092.016.052.052 0 0 0 .054 0 .053.053 0 0 0 0 .054C0 .07.005.082.016.093c.01.01.023.015.038.015z"/></symbol><symbol id="l"><path d="M.405.688V.668A.32.32 0 0 1 .3.644.295.295 0 0 1 .22.585.38.38 0 0 1 .152.497.53.53 0 0 1 .11.38.248.248 0 0 0 .25.43.154.154 0 0 0 .369.375a.2.2 0 0 0 .05-.14.25.25 0 0 0-.05-.152A.189.189 0 0 0 .207 0a.161.161 0 0 0-.115.045A.297.297 0 0 0 0 .27a.438.438 0 0 0 .264.395c.04.014.078.021.113.021h.028M.102.346a.843.843 0 0 1-.01-.107C.093.208.099.174.11.137A.201.201 0 0 1 .162.05a.086.086 0 0 1 .06-.023c.028 0 .054.014.076.04a.173.173 0 0 1 .034.115.298.298 0 0 1-.034.144C.276.366.245.387.204.387A.118.118 0 0 1 .164.38.395.395 0 0 1 .102.346z"/></symbol><use xlink:href="#j" transform="matrix(0 -15.92727 -15.92727 0 34.195 139.497)"/><use xlink:href="#k" transform="matrix(0 -15.92727 -15.92727 0 34.226 130.945)"/><use xlink:href="#l" transform="matrix(0 -15.92727 -15.92727 0 34.195 127.386)"/><use xlink:href="#l" transform="matrix(0 -15.92727 -15.92727 0 34.195 119.385)"/><use xlink:href="#j" transform="matrix(0 -15.92727 -15.92727 0 34.195 111.494)"/></g><clipPath id="m"><path transform="matrix(1 0 0 -1 0 397)" d="M0 1.436h771.054v395.128H0z"/></clipPath><g clip-path="url(#m)"><symbol id="n"><path d="M.131.345A.463.463 0 0 0 .03.45a.16.16 0 0 0-.023.08c0 .044.017.08.05.112A.185.185 0 0 0 .19.687.187.187 0 0 0 .32.644a.13.13 0 0 0 .048-.1A.134.134 0 0 0 .341.47.383.383 0 0 0 .23.38.623.623 0 0 0 .345.273.173.173 0 0 0 .382.169a.158.158 0 0 0-.053-.12A.197.197 0 0 0 .189 0a.187.187 0 0 0-.147.06A.153.153 0 0 0 0 .162C0 .192.01.22.03.25.05.278.082.31.13.345m.077.052A.35.35 0 0 1 .282.48a.15.15 0 0 1 .016.07c0 .034-.01.06-.029.08A.105.105 0 0 1 .19.66.115.115 0 0 1 .11.63.089.089 0 0 1 .077.563c0-.017.004-.034.013-.05a.187.187 0 0 1 .037-.05l.08-.066M.154.327a.228.228 0 0 1-.06-.075.196.196 0 0 1-.02-.087C.075.123.087.089.11.064A.114.114 0 0 1 .197.026c.035 0 .063.01.084.03.021.02.032.044.032.072a.111.111 0 0 1-.019.063.699.699 0 0 1-.14.136z"/></symbol><symbol id="o"><path d="M.063.676h.355V.657L.198 0H.143l.198.596H.159A.17.17 0 0 1 .08.583a.164.164 0 0 1-.066-.07L0 .52l.063.157z"/></symbol><use xlink:href="#j" transform="matrix(0 -15.92727 -15.92727 0 117.399 74.697)"/><use xlink:href="#k" transform="matrix(0 -15.92727 -15.92727 0 117.43 66.145)"/><use xlink:href="#n" transform="matrix(0 -15.92727 -15.92727 0 117.399 62.306)"/><use xlink:href="#o" transform="matrix(0 -15.92727 -15.92727 0 117.43 54.679)"/><use xlink:href="#j" transform="matrix(0 -15.92727 -15.92727 0 117.399 46.694)"/></g><clipPath id="p"><path transform="matrix(1 0 0 -1 0 397)" d="M0 1.436h771.054v395.128H0z"/></clipPath><g clip-path="url(#p)"><use xlink:href="#j" transform="matrix(0 -15.92727 -15.92727 0 200.603 77.752)"/><use xlink:href="#k" transform="matrix(0 -15.92727 -15.92727 0 200.634 69.2)"/><use xlink:href="#n" transform="matrix(0 -15.92727 -15.92727 0 200.603 65.36)"/><use xlink:href="#l" transform="matrix(0 -15.92727 -15.92727 0 200.603 57.64)"/><use xlink:href="#j" transform="matrix(0 -15.92727 -15.92727 0 200.603 49.748)"/></g><clipPath id="q"><path transform="matrix(1 0 0 -1 0 397)" d="M0 1.436h771.054v395.128H0z"/></clipPath><g clip-path="url(#q)"><symbol id="r"><path d="M.01.548A.268.268 0 0 0 .082.65a.162.162 0 0 0 .107.036.149.149 0 0 0 .123-.051.127.127 0 0 0 .032-.083c0-.048-.03-.098-.091-.15A.197.197 0 0 0 .345.336.177.177 0 0 0 .376.231.22.22 0 0 0 .322.082C.274.027.205 0 .115 0 .071 0 .04.006.024.017.008.027 0 .04 0 .052c0 .01.004.018.011.025a.04.04 0 0 0 .028.01.084.084 0 0 0 .025-.003.285.285 0 0 0 .038-.018.245.245 0 0 1 .04-.018.135.135 0 0 1 .039-.006c.033 0 .062.013.086.04a.127.127 0 0 1 .037.09A.176.176 0 0 1 .26.29a.199.199 0 0 1-.057.035.184.184 0 0 1-.075.016H.111v.015a.2.2 0 0 1 .077.028.147.147 0 0 1 .057.055.145.145 0 0 1 .018.07.108.108 0 0 1-.11.113C.103.621.06.594.026.54L.01.548z"/></symbol><use xlink:href="#j" transform="matrix(0 -15.92727 -15.92727 0 283.806 76.879)"/><use xlink:href="#k" transform="matrix(0 -15.92727 -15.92727 0 283.837 68.327)"/><use xlink:href="#n" transform="matrix(0 -15.92727 -15.92727 0 283.806 64.487)"/><use xlink:href="#l" transform="matrix(0 -15.92727 -15.92727 0 283.806 56.767)"/><use xlink:href="#r" transform="matrix(0 -15.92727 -15.92727 0 283.806 48.806)"/></g><clipPath id="s"><path transform="matrix(1 0 0 -1 0 397)" d="M0 1.436h771.054v395.128H0z"/></clipPath><g clip-path="url(#s)"><symbol id="t"><path d="M.437.127.391 0H0v.018c.115.105.196.19.243.257.047.066.07.127.07.182a.144.144 0 0 1-.039.104.123.123 0 0 1-.092.04.144.144 0 0 1-.088-.029A.165.165 0 0 1 .037.49H.02c.008.06.029.106.063.138a.176.176 0 0 0 .126.049.186.186 0 0 0 .134-.052.163.163 0 0 0 .054-.122.236.236 0 0 0-.023-.1.663.663 0 0 0-.117-.168 3.477 3.477 0 0 0-.152-.16h.173c.035 0 .06.001.074.004a.099.099 0 0 1 .038.015c.012.008.021.02.03.034h.018z"/></symbol><use xlink:href="#j" transform="matrix(0 -15.92727 -15.92727 0 367.01 74.043)"/><use xlink:href="#k" transform="matrix(0 -15.92727 -15.92727 0 367.041 65.49)"/><use xlink:href="#n" transform="matrix(0 -15.92727 -15.92727 0 367.01 61.651)"/><use xlink:href="#o" transform="matrix(0 -15.92727 -15.92727 0 367.041 54.024)"/><use xlink:href="#t" transform="matrix(0 -15.92727 -15.92727 0 366.824 46.273)"/></g><clipPath id="u"><path transform="matrix(1 0 0 -1 0 397)" d="M0 1.436h771.054v395.128H0z"/></clipPath><g clip-path="url(#u)"><use xlink:href="#j" transform="matrix(0 -15.92727 -15.92727 0 450.214 74.697)"/><use xlink:href="#k" transform="matrix(0 -15.92727 -15.92727 0 450.245 66.145)"/><use xlink:href="#n" transform="matrix(0 -15.92727 -15.92727 0 450.214 62.306)"/><use xlink:href="#o" transform="matrix(0 -15.92727 -15.92727 0 450.245 54.679)"/><use xlink:href="#j" transform="matrix(0 -15.92727 -15.92727 0 450.214 46.694)"/></g><clipPath id="v"><path transform="matrix(1 0 0 -1 0 397)" d="M0 1.436h771.054v395.128H0z"/></clipPath><g clip-path="url(#v)"><use xlink:href="#j" transform="matrix(0 -15.92727 -15.92727 0 533.418 74.043)"/><use xlink:href="#k" transform="matrix(0 -15.92727 -15.92727 0 533.449 65.49)"/><use xlink:href="#n" transform="matrix(0 -15.92727 -15.92727 0 533.418 61.651)"/><use xlink:href="#o" transform="matrix(0 -15.92727 -15.92727 0 533.449 54.024)"/><use xlink:href="#t" transform="matrix(0 -15.92727 -15.92727 0 533.23 46.273)"/></g><clipPath id="w"><path transform="matrix(1 0 0 -1 0 397)" d="M0 1.436h771.054v395.128H0z"/></clipPath><g clip-path="url(#w)"><use xlink:href="#j" transform="matrix(0 -15.92727 -15.92727 0 616.621 75.352)"/><use xlink:href="#k" transform="matrix(0 -15.92727 -15.92727 0 616.652 66.8)"/><use xlink:href="#n" transform="matrix(0 -15.92727 -15.92727 0 616.621 62.96)"/><use xlink:href="#l" transform="matrix(0 -15.92727 -15.92727 0 616.621 55.24)"/><use xlink:href="#n" transform="matrix(0 -15.92727 -15.92727 0 616.621 46.96)"/></g><clipPath id="x"><path transform="matrix(1 0 0 -1 0 397)" d="M0 1.436h771.054v395.128H0z"/></clipPath><g clip-path="url(#x)"><symbol id="y"><path d="M.013 0v.018c.043 0 .082.01.118.03.037.019.072.052.106.1.034.047.058.1.071.156A.263.263 0 0 0 .17.254.157.157 0 0 0 .05.31.204.204 0 0 0 0 .452c0 .058.017.11.05.155a.185.185 0 0 0 .296.015.306.306 0 0 0 .071-.206A.411.411 0 0 0 .363.21a.458.458 0 0 0-.15-.158A.305.305 0 0 0 .04 0H.013m.303.34a.78.78 0 0 1 .009.102.362.362 0 0 1-.016.102.191.191 0 0 1-.046.084.092.092 0 0 1-.067.03.097.097 0 0 1-.076-.04C.098.594.087.555.087.503.087.434.1.38.13.342A.095.095 0 0 1 .208.298C.223.3.241.303.262.31.282.317.3.327.316.34z"/></symbol><use xlink:href="#j" transform="matrix(0 -15.92727 -15.92727 0 699.825 56.152)"/><use xlink:href="#k" transform="matrix(0 -15.92727 -15.92727 0 699.856 47.6)"/><use xlink:href="#y" transform="matrix(0 -15.92727 -15.92727 0 699.856 44.095)"/><use xlink:href="#r" transform="matrix(0 -15.92727 -15.92727 0 699.825 36.079)"/><use xlink:href="#j" transform="matrix(0 -15.92727 -15.92727 0 699.825 28.148)"/></g><clipPath id="z"><path transform="matrix(1 0 0 -1 0 397)" d="M0 1.436h771.054v395.128H0z"/></clipPath><g clip-path="url(#z)"><symbol id="A"><path d="M.386.674.348.59h-.2L.106.502A.349.349 0 0 0 .311.406.216.216 0 0 0 .375.25.22.22 0 0 0 .354.153.257.257 0 0 0 .229.027.264.264 0 0 0 .114 0C.074 0 .045.007.027.02.009.034 0 .049 0 .065c0 .01.004.017.011.024a.04.04 0 0 0 .029.01.056.056 0 0 0 .022-.003.198.198 0 0 0 .032-.02A.13.13 0 0 1 .168.05c.039 0 .072.015.1.043A.144.144 0 0 1 .313.2c0 .04-.013.077-.039.112a.247.247 0 0 1-.106.08.432.432 0 0 1-.145.026l.127.257h.237z"/></symbol><symbol id="B"><path d="M.45.244v-.07H.36V0H.28v.175H0v.062l.307.439h.054V.244H.45m-.17 0v.329L.048.244H.28z"/></symbol><use xlink:href="#j" transform="matrix(0 -15.92727 -15.92727 0 46.319 176.588)"/><use xlink:href="#k" transform="matrix(0 -15.92727 -15.92727 0 46.35 168.036)"/><use xlink:href="#A" transform="matrix(0 -15.92727 -15.92727 0 46.319 164.399)"/><use xlink:href="#B" transform="matrix(0 -15.92727 -15.92727 0 46.132 156.912)"/></g><clipPath id="C"><path transform="matrix(1 0 0 -1 0 397)" d="M0 1.436h771.054v395.128H0z"/></clipPath><g clip-path="url(#C)"><use xlink:href="#j" transform="scale(15.92727) rotate(-90 8.644 .512)"/><use xlink:href="#k" transform="scale(15.92727) rotate(-90 8.376 .242)"/><use xlink:href="#l" transform="scale(15.92727) rotate(-90 8.264 .132)"/><use xlink:href="#B" transform="scale(15.92727) rotate(-90 8.02 -.1)"/></g><clipPath id="D"><path transform="matrix(1 0 0 -1 0 397)" d="M0 1.436h771.054v395.128H0z"/></clipPath><g clip-path="url(#D)"><use xlink:href="#j" transform="matrix(0 -15.92727 -15.92727 0 212.726 127.279)"/><use xlink:href="#k" transform="matrix(0 -15.92727 -15.92727 0 212.757 118.727)"/><use xlink:href="#o" transform="matrix(0 -15.92727 -15.92727 0 212.757 115.26)"/><use xlink:href="#j" transform="matrix(0 -15.92727 -15.92727 0 212.726 107.276)"/></g><clipPath id="E"><path transform="matrix(1 0 0 -1 0 397)" d="M0 1.436h771.054v395.128H0z"/></clipPath><g clip-path="url(#E)"><use xlink:href="#j" transform="matrix(0 -15.92727 -15.92727 0 295.93 139.497)"/><use xlink:href="#k" transform="matrix(0 -15.92727 -15.92727 0 295.96 130.945)"/><use xlink:href="#l" transform="matrix(0 -15.92727 -15.92727 0 295.93 127.386)"/><use xlink:href="#l" transform="matrix(0 -15.92727 -15.92727 0 295.93 119.385)"/></g><clipPath id="F"><path transform="matrix(1 0 0 -1 0 397)" d="M0 1.436h771.054v395.128H0z"/></clipPath><g clip-path="url(#F)"><use xlink:href="#j" transform="matrix(0 -15.92727 -15.92727 0 379.133 142.552)"/><use xlink:href="#k" transform="matrix(0 -15.92727 -15.92727 0 379.164 134)"/><use xlink:href="#l" transform="matrix(0 -15.92727 -15.92727 0 379.133 130.44)"/><use xlink:href="#A" transform="matrix(0 -15.92727 -15.92727 0 379.133 122.362)"/></g><clipPath id="G"><path transform="matrix(1 0 0 -1 0 397)" d="M0 1.436h771.054v395.128H0z"/></clipPath><g clip-path="url(#G)"><use xlink:href="#j" transform="matrix(0 -15.92727 -15.92727 0 462.337 133.388)"/><use xlink:href="#k" transform="matrix(0 -15.92727 -15.92727 0 462.368 124.836)"/><use xlink:href="#l" transform="matrix(0 -15.92727 -15.92727 0 462.337 121.276)"/><use xlink:href="#n" transform="matrix(0 -15.92727 -15.92727 0 462.337 112.996)"/></g><clipPath id="H"><path transform="matrix(1 0 0 -1 0 397)" d="M0 1.436h771.054v395.128H0z"/></clipPath><g clip-path="url(#H)"><use xlink:href="#j" transform="matrix(0 -15.92727 -15.92727 0 545.54 151.934)"/><use xlink:href="#k" transform="matrix(0 -15.92727 -15.92727 0 545.572 143.381)"/><use xlink:href="#l" transform="matrix(0 -15.92727 -15.92727 0 545.54 139.822)"/><use xlink:href="#t" transform="matrix(0 -15.92727 -15.92727 0 545.354 132.164)"/></g><clipPath id="I"><path transform="matrix(1 0 0 -1 0 397)" d="M0 1.436h771.054v395.128H0z"/></clipPath><g clip-path="url(#I)"><use xlink:href="#j" transform="matrix(0 -15.92727 -15.92727 0 628.745 127.279)"/><use xlink:href="#k" transform="matrix(0 -15.92727 -15.92727 0 628.776 118.727)"/><use xlink:href="#o" transform="matrix(0 -15.92727 -15.92727 0 628.776 115.26)"/><use xlink:href="#j" transform="matrix(0 -15.92727 -15.92727 0 628.745 107.276)"/></g><clipPath id="J"><path transform="matrix(1 0 0 -1 0 397)" d="M0 1.436h771.054v395.128H0z"/></clipPath><g clip-path="url(#J)"><use xlink:href="#j" transform="matrix(0 -15.92727 -15.92727 0 711.948 105.679)"/><use xlink:href="#k" transform="matrix(0 -15.92727 -15.92727 0 711.98 97.127)"/><use xlink:href="#o" transform="matrix(0 -15.92727 -15.92727 0 711.98 93.66)"/><use xlink:href="#o" transform="matrix(0 -15.92727 -15.92727 0 711.98 85.66)"/></g><clipPath id="K"><path transform="matrix(1 0 0 -1 0 397)" d="M0 1.436h771.054v395.128H0z"/></clipPath><g clip-path="url(#K)"><use xlink:href="#j" transform="matrix(0 -15.92727 -15.92727 0 58.442 164.152)"/><use xlink:href="#k" transform="matrix(0 -15.92727 -15.92727 0 58.473 155.6)"/><use xlink:href="#A" transform="matrix(0 -15.92727 -15.92727 0 58.442 151.962)"/><use xlink:href="#n" transform="matrix(0 -15.92727 -15.92727 0 58.442 143.76)"/></g><clipPath id="L"><path transform="matrix(1 0 0 -1 0 397)" d="M0 1.436h771.054v395.128H0z"/></clipPath><g clip-path="url(#L)"><use xlink:href="#j" transform="scale(15.92727) rotate(-90 9.216 .323)"/><use xlink:href="#k" transform="scale(15.92727) rotate(-90 8.949 .054)"/><use xlink:href="#l" transform="matrix(0 -15.92727 -15.92727 0 141.646 139.822)"/><use xlink:href="#t" transform="scale(15.92727) rotate(-90 8.59 -.292)"/></g><clipPath id="M"><path transform="matrix(1 0 0 -1 0 397)" d="M0 1.436h771.054v395.128H0z"/></clipPath><g clip-path="url(#M)"><use xlink:href="#j" transform="matrix(0 -15.92727 -15.92727 0 224.85 130.334)"/><use xlink:href="#k" transform="matrix(0 -15.92727 -15.92727 0 224.88 121.781)"/><use xlink:href="#l" transform="matrix(0 -15.92727 -15.92727 0 224.85 118.222)"/><use xlink:href="#y" transform="matrix(0 -15.92727 -15.92727 0 224.88 110.276)"/></g><clipPath id="N"><path transform="matrix(1 0 0 -1 0 397)" d="M0 1.436h771.054v395.128H0z"/></clipPath><g clip-path="url(#N)"><use xlink:href="#j" transform="matrix(0 -15.92727 -15.92727 0 308.053 136.443)"/><use xlink:href="#k" transform="matrix(0 -15.92727 -15.92727 0 308.084 127.89)"/><use xlink:href="#l" transform="matrix(0 -15.92727 -15.92727 0 308.053 124.331)"/><use xlink:href="#o" transform="matrix(0 -15.92727 -15.92727 0 308.084 116.424)"/></g><clipPath id="O"><path transform="matrix(1 0 0 -1 0 397)" d="M0 1.436h771.054v395.128H0z"/></clipPath><g clip-path="url(#O)"><use xlink:href="#j" transform="matrix(0 -15.92727 -15.92727 0 391.257 145.825)"/><use xlink:href="#k" transform="matrix(0 -15.92727 -15.92727 0 391.288 137.272)"/><use xlink:href="#l" transform="matrix(0 -15.92727 -15.92727 0 391.257 133.713)"/><use xlink:href="#B" transform="matrix(0 -15.92727 -15.92727 0 391.07 126.148)"/></g><clipPath id="P"><path transform="matrix(1 0 0 -1 0 397)" d="M0 1.436h771.054v395.128H0z"/></clipPath><g clip-path="url(#P)"><use xlink:href="#j" transform="matrix(0 -15.92727 -15.92727 0 474.46 133.388)"/><use xlink:href="#k" transform="matrix(0 -15.92727 -15.92727 0 474.491 124.836)"/><use xlink:href="#l" transform="matrix(0 -15.92727 -15.92727 0 474.46 121.276)"/><use xlink:href="#n" transform="matrix(0 -15.92727 -15.92727 0 474.46 112.996)"/></g><clipPath id="Q"><path transform="matrix(1 0 0 -1 0 397)" d="M0 1.436h771.054v395.128H0z"/></clipPath><g clip-path="url(#Q)"><use xlink:href="#j" transform="matrix(0 -15.92727 -15.92727 0 557.664 145.825)"/><use xlink:href="#k" transform="matrix(0 -15.92727 -15.92727 0 557.695 137.272)"/><use xlink:href="#l" transform="matrix(0 -15.92727 -15.92727 0 557.664 133.713)"/><use xlink:href="#B" transform="matrix(0 -15.92727 -15.92727 0 557.477 126.148)"/></g><clipPath id="R"><path transform="matrix(1 0 0 -1 0 397)" d="M0 1.436h771.054v395.128H0z"/></clipPath><g clip-path="url(#R)"><use xlink:href="#j" transform="matrix(0 -15.92727 -15.92727 0 640.868 127.279)"/><use xlink:href="#k" transform="matrix(0 -15.92727 -15.92727 0 640.9 118.727)"/><use xlink:href="#o" transform="matrix(0 -15.92727 -15.92727 0 640.9 115.26)"/><use xlink:href="#j" transform="matrix(0 -15.92727 -15.92727 0 640.868 107.276)"/></g><clipPath id="S"><path transform="matrix(1 0 0 -1 0 397)" d="M0 1.436h771.054v395.128H0z"/></clipPath><g clip-path="url(#S)"><symbol id="T"><path d="m0 .597.161.079h.016v-.56C.177.08.18.057.182.048a.037.037 0 0 1 .02-.02A.164.164 0 0 1 .26.017V0H.01v.018c.032 0 .052.003.061.008.01.005.016.011.02.019a.262.262 0 0 1 .005.072v.357c0 .048-.002.08-.005.093A.038.038 0 0 1 .079.59a.032.032 0 0 1-.021.007.13.13 0 0 1-.05-.015L0 .597z"/></symbol><use xlink:href="#j" transform="matrix(0 -15.92727 -15.92727 0 724.07 93.243)"/><use xlink:href="#k" transform="matrix(0 -15.92727 -15.92727 0 724.102 84.69)"/><use xlink:href="#n" transform="matrix(0 -15.92727 -15.92727 0 724.07 80.851)"/><use xlink:href="#T" transform="matrix(0 -15.92727 -15.92727 0 723.884 71.949)"/></g><clipPath id="U"><path transform="matrix(1 0 0 -1 0 397)" d="M0 1.436h771.054v395.128H0z"/></clipPath><g clip-path="url(#U)"><use xlink:href="#j" transform="matrix(0 -15.92727 -15.92727 0 70.565 179.643)"/><use xlink:href="#k" transform="matrix(0 -15.92727 -15.92727 0 70.596 171.09)"/><use xlink:href="#A" transform="matrix(0 -15.92727 -15.92727 0 70.565 167.453)"/><use xlink:href="#r" transform="matrix(0 -15.92727 -15.92727 0 70.565 159.57)"/></g><clipPath id="V"><path transform="matrix(1 0 0 -1 0 397)" d="M0 1.436h771.054v395.128H0z"/></clipPath><g clip-path="url(#V)"><use xlink:href="#j" transform="scale(15.92727) rotate(-90 9.693 .038)"/><use xlink:href="#k" transform="matrix(0 -15.92727 -15.92727 0 153.8 146.436)"/><use xlink:href="#l" transform="matrix(0 -15.92727 -15.92727 0 153.769 142.876)"/><use xlink:href="#T" transform="matrix(0 -15.92727 -15.92727 0 153.582 133.694)"/></g><clipPath id="W"><path transform="matrix(1 0 0 -1 0 397)" d="M0 1.436h771.054v395.128H0z"/></clipPath><g clip-path="url(#W)"><use xlink:href="#j" transform="matrix(0 -15.92727 -15.92727 0 236.972 130.334)"/><use xlink:href="#k" transform="matrix(0 -15.92727 -15.92727 0 237.004 121.781)"/><use xlink:href="#l" transform="matrix(0 -15.92727 -15.92727 0 236.972 118.222)"/><use xlink:href="#y" transform="matrix(0 -15.92727 -15.92727 0 237.004 110.276)"/></g><clipPath id="X"><path transform="matrix(1 0 0 -1 0 397)" d="M0 1.436h771.054v395.128H0z"/></clipPath><g clip-path="url(#X)"><use xlink:href="#j" transform="matrix(0 -15.92727 -15.92727 0 320.176 139.497)"/><use xlink:href="#k" transform="matrix(0 -15.92727 -15.92727 0 320.207 130.945)"/><use xlink:href="#l" transform="matrix(0 -15.92727 -15.92727 0 320.176 127.386)"/><use xlink:href="#l" transform="matrix(0 -15.92727 -15.92727 0 320.176 119.385)"/></g><clipPath id="Y"><path transform="matrix(1 0 0 -1 0 397)" d="M0 1.436h771.054v395.128H0z"/></clipPath><g clip-path="url(#Y)"><use xlink:href="#j" transform="matrix(0 -15.92727 -15.92727 0 403.38 142.552)"/><use xlink:href="#k" transform="matrix(0 -15.92727 -15.92727 0 403.411 134)"/><use xlink:href="#l" transform="matrix(0 -15.92727 -15.92727 0 403.38 130.44)"/><use xlink:href="#A" transform="matrix(0 -15.92727 -15.92727 0 403.38 122.362)"/></g><clipPath id="Z"><path transform="matrix(1 0 0 -1 0 397)" d="M0 1.436h771.054v395.128H0z"/></clipPath><g clip-path="url(#Z)"><use xlink:href="#j" transform="matrix(0 -15.92727 -15.92727 0 486.584 133.388)"/><use xlink:href="#k" transform="matrix(0 -15.92727 -15.92727 0 486.615 124.836)"/><use xlink:href="#l" transform="matrix(0 -15.92727 -15.92727 0 486.584 121.276)"/><use xlink:href="#n" transform="matrix(0 -15.92727 -15.92727 0 486.584 112.996)"/></g><clipPath id="aa"><path transform="matrix(1 0 0 -1 0 397)" d="M0 1.436h771.054v395.128H0z"/></clipPath><g clip-path="url(#aa)"><use xlink:href="#j" transform="matrix(0 -15.92727 -15.92727 0 569.787 151.934)"/><use xlink:href="#k" transform="matrix(0 -15.92727 -15.92727 0 569.818 143.381)"/><use xlink:href="#l" transform="matrix(0 -15.92727 -15.92727 0 569.787 139.822)"/><use xlink:href="#t" transform="matrix(0 -15.92727 -15.92727 0 569.6 132.164)"/></g><clipPath id="ab"><path transform="matrix(1 0 0 -1 0 397)" d="M0 1.436h771.054v395.128H0z"/></clipPath><g clip-path="url(#ab)"><use xlink:href="#j" transform="matrix(0 -15.92727 -15.92727 0 652.991 127.279)"/><use xlink:href="#k" transform="matrix(0 -15.92727 -15.92727 0 653.022 118.727)"/><use xlink:href="#o" transform="matrix(0 -15.92727 -15.92727 0 653.022 115.26)"/><use xlink:href="#j" transform="matrix(0 -15.92727 -15.92727 0 652.991 107.276)"/></g><clipPath id="ac"><path transform="matrix(1 0 0 -1 0 397)" d="M0 1.436h771.054v395.128H0z"/></clipPath><g clip-path="url(#ac)"><use xlink:href="#j" transform="matrix(0 -15.92727 -15.92727 0 736.195 108.734)"/><use xlink:href="#k" transform="matrix(0 -15.92727 -15.92727 0 736.226 100.181)"/><use xlink:href="#o" transform="matrix(0 -15.92727 -15.92727 0 736.226 96.715)"/><use xlink:href="#l" transform="matrix(0 -15.92727 -15.92727 0 736.195 88.622)"/></g><clipPath id="ad"><path transform="matrix(1 0 0 -1 0 397)" d="M0 1.436h771.054v395.128H0z"/></clipPath><g clip-path="url(#ad)"><symbol id="ae"><path d="M0 .339c0 .075.011.14.034.195a.273.273 0 0 0 .091.122c.03.02.06.031.09.031C.268.688.313.662.354.61A.41.41 0 0 0 .428.35.514.514 0 0 0 .395.152.26.26 0 0 0 .31.036.173.173 0 0 0 .21 0C.149 0 .096.037.054.112A.455.455 0 0 0 0 .339M.096.327c0-.091.01-.166.033-.223C.148.055.176.03.212.03.23.03.248.039.267.054a.152.152 0 0 1 .043.08.965.965 0 0 1 .023.237.648.648 0 0 1-.024.189.168.168 0 0 1-.045.08.077.077 0 0 1-.107-.014.249.249 0 0 1-.049-.128A1.185 1.185 0 0 1 .096.327z"/></symbol><symbol id="af"><path d="M.054.108A.052.052 0 0 0 .093.092.052.052 0 0 0 .108.054.053.053 0 0 0 .092.016.052.052 0 0 0 .054 0 .053.053 0 0 0 0 .054C0 .07.005.082.016.093c.01.01.023.015.038.015z"/></symbol><symbol id="ag"><path d="M.386.674.348.59h-.2L.106.502A.349.349 0 0 0 .311.406.216.216 0 0 0 .375.25.22.22 0 0 0 .354.153.257.257 0 0 0 .229.027.264.264 0 0 0 .114 0C.074 0 .045.007.027.02.009.034 0 .049 0 .065c0 .01.004.017.011.024a.04.04 0 0 0 .029.01.056.056 0 0 0 .022-.003.198.198 0 0 0 .032-.02A.13.13 0 0 1 .168.05c.039 0 .072.015.1.043A.144.144 0 0 1 .313.2c0 .04-.013.077-.039.112a.247.247 0 0 1-.106.08.432.432 0 0 1-.145.026l.127.257h.237z"/></symbol><symbol id="ah"><path d="M.45.244v-.07H.36V0H.28v.175H0v.062l.307.439h.054V.244H.45m-.17 0v.329L.048.244H.28z"/></symbol><use xlink:href="#ae" transform="matrix(0 -13.96364 -13.96364 0 82.028 176.66)"/><use xlink:href="#af" transform="matrix(0 -13.96364 -13.96364 0 82.055 169.175)"/><use xlink:href="#ag" transform="matrix(0 -13.96364 -13.96364 0 82.028 166)"/><use xlink:href="#ah" transform="matrix(0 -13.96364 -13.96364 0 81.864 159.45)"/></g><clipPath id="ai"><path transform="matrix(1 0 0 -1 0 397)" d="M0 1.436h771.054v395.128H0z"/></clipPath><g clip-path="url(#ai)"><symbol id="aj"><path d="M.405.688V.668A.32.32 0 0 1 .3.644.295.295 0 0 1 .22.585.38.38 0 0 1 .152.497.53.53 0 0 1 .11.38.248.248 0 0 0 .25.43.154.154 0 0 0 .369.375a.2.2 0 0 0 .05-.14.25.25 0 0 0-.05-.152A.189.189 0 0 0 .207 0a.161.161 0 0 0-.115.045A.297.297 0 0 0 0 .27a.438.438 0 0 0 .264.395c.04.014.078.021.113.021h.028M.102.346a.843.843 0 0 1-.01-.107C.093.208.099.174.11.137A.201.201 0 0 1 .162.05a.086.086 0 0 1 .06-.023c.028 0 .054.014.076.04a.173.173 0 0 1 .034.115.298.298 0 0 1-.034.144C.276.366.245.387.204.387A.118.118 0 0 1 .164.38.395.395 0 0 1 .102.346z"/></symbol><use xlink:href="#ae" transform="matrix(0 -13.96364 -13.96364 0 165.231 145.895)"/><use xlink:href="#af" transform="matrix(0 -13.96364 -13.96364 0 165.259 138.411)"/><use xlink:href="#aj" transform="matrix(0 -13.96364 -13.96364 0 165.231 135.305)"/><use xlink:href="#ah" transform="matrix(0 -13.96364 -13.96364 0 165.068 128.687)"/></g><clipPath id="ak"><path transform="matrix(1 0 0 -1 0 397)" d="M0 1.436h771.054v395.128H0z"/></clipPath><g clip-path="url(#ak)"><symbol id="al"><path d="M.131.345A.463.463 0 0 0 .03.45a.16.16 0 0 0-.023.08c0 .044.017.08.05.112A.185.185 0 0 0 .19.687.187.187 0 0 0 .32.644a.13.13 0 0 0 .048-.1A.134.134 0 0 0 .341.47.383.383 0 0 0 .23.38.623.623 0 0 0 .345.273.173.173 0 0 0 .382.169a.158.158 0 0 0-.053-.12A.197.197 0 0 0 .189 0a.187.187 0 0 0-.147.06A.153.153 0 0 0 0 .162C0 .192.01.22.03.25.05.278.082.31.13.345m.077.052A.35.35 0 0 1 .282.48a.15.15 0 0 1 .016.07c0 .034-.01.06-.029.08A.105.105 0 0 1 .19.66.115.115 0 0 1 .11.63.089.089 0 0 1 .077.563c0-.017.004-.034.013-.05a.187.187 0 0 1 .037-.05l.08-.066M.154.327a.228.228 0 0 1-.06-.075.196.196 0 0 1-.02-.087C.075.123.087.089.11.064A.114.114 0 0 1 .197.026c.035 0 .063.01.084.03.021.02.032.044.032.072a.111.111 0 0 1-.019.063.699.699 0 0 1-.14.136z"/></symbol><use xlink:href="#ae" transform="matrix(0 -13.96364 -13.96364 0 248.435 133.459)"/><use xlink:href="#af" transform="matrix(0 -13.96364 -13.96364 0 248.462 125.975)"/><use xlink:href="#aj" transform="matrix(0 -13.96364 -13.96364 0 248.435 122.869)"/><use xlink:href="#al" transform="matrix(0 -13.96364 -13.96364 0 248.435 115.623)"/></g><clipPath id="am"><path transform="matrix(1 0 0 -1 0 397)" d="M0 1.436h771.054v395.128H0z"/></clipPath><g clip-path="url(#am)"><use xlink:href="#ae" transform="matrix(0 -13.96364 -13.96364 0 331.639 139.568)"/><use xlink:href="#af" transform="matrix(0 -13.96364 -13.96364 0 331.666 132.084)"/><use xlink:href="#aj" transform="matrix(0 -13.96364 -13.96364 0 331.639 128.978)"/><use xlink:href="#aj" transform="matrix(0 -13.96364 -13.96364 0 331.639 121.978)"/></g><clipPath id="an"><path transform="matrix(1 0 0 -1 0 397)" d="M0 1.436h771.054v395.128H0z"/></clipPath><g clip-path="url(#an)"><use xlink:href="#ae" transform="matrix(0 -13.96364 -13.96364 0 414.842 142.623)"/><use xlink:href="#af" transform="matrix(0 -13.96364 -13.96364 0 414.87 135.139)"/><use xlink:href="#aj" transform="matrix(0 -13.96364 -13.96364 0 414.842 132.032)"/><use xlink:href="#ag" transform="matrix(0 -13.96364 -13.96364 0 414.842 124.964)"/></g><clipPath id="ao"><path transform="matrix(1 0 0 -1 0 397)" d="M0 1.436h771.054v395.128H0z"/></clipPath><g clip-path="url(#ao)"><symbol id="ap"><path d="M.013 0v.018c.043 0 .082.01.118.03.037.019.072.052.106.1.034.047.058.1.071.156A.263.263 0 0 0 .17.254.157.157 0 0 0 .05.31.204.204 0 0 0 0 .452c0 .058.017.11.05.155a.185.185 0 0 0 .296.015.306.306 0 0 0 .071-.206A.411.411 0 0 0 .363.21a.458.458 0 0 0-.15-.158A.305.305 0 0 0 .04 0H.013m.303.34a.78.78 0 0 1 .009.102.362.362 0 0 1-.016.102.191.191 0 0 1-.046.084.092.092 0 0 1-.067.03.097.097 0 0 1-.076-.04C.098.594.087.555.087.503.087.434.1.38.13.342A.095.095 0 0 1 .208.298C.223.3.241.303.262.31.282.317.3.327.316.34z"/></symbol><use xlink:href="#ae" transform="matrix(0 -13.96364 -13.96364 0 498.046 130.405)"/><use xlink:href="#af" transform="matrix(0 -13.96364 -13.96364 0 498.074 122.92)"/><use xlink:href="#aj" transform="matrix(0 -13.96364 -13.96364 0 498.046 119.814)"/><use xlink:href="#ap" transform="matrix(0 -13.96364 -13.96364 0 498.074 112.862)"/></g><clipPath id="aq"><path transform="matrix(1 0 0 -1 0 397)" d="M0 1.436h771.054v395.128H0z"/></clipPath><g clip-path="url(#aq)"><symbol id="ar"><path d="M.437.127.391 0H0v.018c.115.105.196.19.243.257.047.066.07.127.07.182a.144.144 0 0 1-.039.104.123.123 0 0 1-.092.04.144.144 0 0 1-.088-.029A.165.165 0 0 1 .037.49H.02c.008.06.029.106.063.138a.176.176 0 0 0 .126.049.186.186 0 0 0 .134-.052.163.163 0 0 0 .054-.122.236.236 0 0 0-.023-.1.663.663 0 0 0-.117-.168 3.477 3.477 0 0 0-.152-.16h.173c.035 0 .06.001.074.004a.099.099 0 0 1 .038.015c.012.008.021.02.03.034h.018z"/></symbol><use xlink:href="#ae" transform="matrix(0 -13.96364 -13.96364 0 581.25 152.005)"/><use xlink:href="#af" transform="matrix(0 -13.96364 -13.96364 0 581.277 144.52)"/><use xlink:href="#aj" transform="matrix(0 -13.96364 -13.96364 0 581.25 141.414)"/><use xlink:href="#ar" transform="matrix(0 -13.96364 -13.96364 0 581.086 134.714)"/></g><clipPath id="as"><path transform="matrix(1 0 0 -1 0 397)" d="M0 1.436h771.054v395.128H0z"/></clipPath><g clip-path="url(#as)"><symbol id="at"><path d="M.063.676h.355V.657L.198 0H.143l.198.596H.159A.17.17 0 0 1 .08.583a.164.164 0 0 1-.066-.07L0 .52l.063.157z"/></symbol><use xlink:href="#ae" transform="matrix(0 -13.96364 -13.96364 0 664.454 127.35)"/><use xlink:href="#af" transform="matrix(0 -13.96364 -13.96364 0 664.481 119.866)"/><use xlink:href="#at" transform="matrix(0 -13.96364 -13.96364 0 664.481 116.841)"/><use xlink:href="#ae" transform="matrix(0 -13.96364 -13.96364 0 664.454 109.855)"/></g><clipPath id="au"><path transform="matrix(1 0 0 -1 0 397)" d="M0 1.436h771.054v395.128H0z"/></clipPath><g clip-path="url(#au)"><use xlink:href="#ae" transform="matrix(0 -13.96364 -13.96364 0 747.657 111.859)"/><use xlink:href="#af" transform="matrix(0 -13.96364 -13.96364 0 747.684 104.375)"/><use xlink:href="#at" transform="matrix(0 -13.96364 -13.96364 0 747.684 101.35)"/><use xlink:href="#ag" transform="matrix(0 -13.96364 -13.96364 0 747.657 94.2)"/></g><clipPath id="av"><path transform="matrix(1 0 0 -1 0 397)" d="M0 1.436h771.054v395.128H0z"/></clipPath><g clip-path="url(#av)"><symbol id="aw"><path d="M.424.351A.338.338 0 0 0 .556.298.142.142 0 0 0 .611.183C.61.133.59.092.55.059A.336.336 0 0 0 .336 0H0v.018c.03 0 .051.003.062.008A.05.05 0 0 1 .085.05C.09.058.092.08.092.116v.43a.195.195 0 0 1-.007.067.047.047 0 0 1-.023.023A.156.156 0 0 1 0 .644v.018h.317c.076 0 .13-.007.162-.02a.166.166 0 0 0 .074-.06.149.149 0 0 0 .028-.086A.123.123 0 0 0 .546.41.25.25 0 0 0 .424.351M.246.364A.25.25 0 0 1 .348.38c.022.01.04.025.05.044a.135.135 0 0 1 .019.072C.417.526.41.55.399.568a.108.108 0 0 1-.05.043.263.263 0 0 1-.103.014v-.26m0-.039V.09C.246.072.25.06.259.05.268.041.28.036.299.036c.026 0 .05.006.072.017a.12.12 0 0 1 .05.05.155.155 0 0 1 .018.074C.439.208.432.236.417.26a.116.116 0 0 1-.059.052.32.32 0 0 1-.112.014z"/></symbol><symbol id="ax"><path d="M.702.662V.644a.098.098 0 0 1-.05-.019.508.508 0 0 1-.077-.112L.43.273v-.16A.22.22 0 0 1 .437.05a.052.052 0 0 1 .02-.022A.085.085 0 0 1 .5.018h.037V0H.166v.018H.2a.09.09 0 0 1 .047.01.047.047 0 0 1 .02.024.201.201 0 0 1 .005.061v.133L.116.53a.41.41 0 0 1-.065.098A.081.081 0 0 1 0 .644v.018h.317V.644H.303C.284.644.271.641.263.636.255.63.25.624.25.618c0-.012.013-.041.04-.088L.41.31l.118.2c.03.05.045.081.045.097C.574.617.569.624.56.63.55.638.53.642.5.644v.018h.202z"/></symbol><symbol id="ay"><path d="M.347.687A.33.33 0 0 0 .703.349.353.353 0 0 0 .63.127.328.328 0 0 0 .354 0 .335.335 0 0 0 0 .348a.33.33 0 0 0 .347.339M.353.655C.293.655.246.625.215.562A.496.496 0 0 1 .176.345c0-.113.02-.197.06-.25A.136.136 0 0 1 .352.036.14.14 0 0 1 .436.06a.2.2 0 0 1 .067.1.557.557 0 0 1 .024.179.592.592 0 0 1-.025.196.19.19 0 0 1-.062.092.146.146 0 0 1-.087.027z"/></symbol><symbol id="az"><path d="M.613.232.588 0H0v.018h.022c.02 0 .035.003.046.01a.044.044 0 0 1 .02.024.201.201 0 0 1 .005.061V.55a.218.218 0 0 1-.005.063.048.048 0 0 1-.022.022.085.085 0 0 1-.044.01H0v.018h.353V.644H.324a.092.092 0 0 1-.046-.01.047.047 0 0 1-.02-.024A.201.201 0 0 1 .252.55V.127c0-.034.002-.056.006-.065a.04.04 0 0 1 .023-.02.232.232 0 0 1 .06-.005h.055C.43.037.46.043.483.056a.162.162 0 0 1 .06.058.468.468 0 0 1 .05.118h.02z"/></symbol><use xlink:href="#aw" transform="matrix(13.96364 0 0 -13.96364 30.988 370.69)"/><use xlink:href="#ax" transform="matrix(13.96364 0 0 -13.96364 41.358 370.69)"/><use xlink:href="#ay" transform="matrix(13.96364 0 0 -13.96364 53.088 370.902)"/><use xlink:href="#az" transform="matrix(13.96364 0 0 -13.96364 64.892 370.69)"/></g><clipPath id="aA"><path transform="matrix(1 0 0 -1 0 397)" d="M0 1.436h771.054v395.128H0z"/></clipPath><g clip-path="url(#aA)"><symbol id="aB"><path d="m.457.226.18.436h.269V.644H.884a.093.093 0 0 1-.047-.01.048.048 0 0 1-.02-.023A.199.199 0 0 1 .814.55V.113C.813.08.814.058.818.05A.05.05 0 0 1 .84.027.091.091 0 0 1 .884.018h.022V0H.56v.018h.022c.02 0 .035.003.046.01a.048.048 0 0 1 .02.024.201.201 0 0 1 .005.061v.491L.4 0H.388L.13.6V.133c0-.032 0-.052.002-.06A.071.071 0 0 1 .16.033C.174.023.196.018.227.018V0H0v.018h.007c.014 0 .028.002.04.007a.068.068 0 0 1 .03.02c.006.009.011.02.015.036V.55a.21.21 0 0 1-.005.062.048.048 0 0 1-.022.022.087.087 0 0 1-.044.01H0v.018h.27L.458.226z"/></symbol><symbol id="aC"><path d="M.628.692v-.23h-.02a.244.244 0 0 1-.08.139A.204.204 0 0 1 .208.52.422.422 0 0 1 .176.355c0-.059.007-.113.022-.162a.217.217 0 0 1 .07-.11.197.197 0 0 1 .125-.037c.041 0 .08.009.114.027.035.018.071.05.11.094V.11A.364.364 0 0 0 .5.026.353.353 0 0 0 .36 0 .406.406 0 0 0 .17.042a.302.302 0 0 0-.127.123.352.352 0 0 0 .005.35.364.364 0 0 0 .46.148.227.227 0 0 1 .058-.018c.01 0 .02.003.027.01.008.009.013.02.015.037h.019z"/></symbol><use xlink:href="#aB" transform="matrix(13.96364 0 0 -13.96364 111.466 370.69)"/><use xlink:href="#ay" transform="matrix(13.96364 0 0 -13.96364 126.147 370.902)"/><use xlink:href="#aC" transform="matrix(13.96364 0 0 -13.96364 138.236 370.902)"/><use xlink:href="#ay" transform="matrix(13.96364 0 0 -13.96364 149.544 370.902)"/></g><clipPath id="aD"><path transform="matrix(1 0 0 -1 0 397)" d="M0 1.436h771.054v395.128H0z"/></clipPath><g clip-path="url(#aD)"><symbol id="aE"><path d="m.418.693.005-.22h-.02a.224.224 0 0 1-.07.132.174.174 0 0 1-.12.051A.113.113 0 0 1 .136.63.08.08 0 0 1 .106.57c0-.015.003-.028.01-.04A.166.166 0 0 1 .162.484c.015-.01.05-.03.106-.057A.471.471 0 0 0 .424.319.188.188 0 0 0 .4.059.232.232 0 0 0 .235 0c-.02 0-.04.002-.059.006a.446.446 0 0 0-.07.024.106.106 0 0 1-.038.01A.048.048 0 0 1 .04.03.068.068 0 0 1 .018 0H0v.25h.018A.289.289 0 0 1 .101.09.195.195 0 0 1 .233.033c.036 0 .065.01.087.03.022.02.033.043.033.07A.09.09 0 0 1 .34.178.138.138 0 0 1 .302.22a.555.555 0 0 1-.09.052.776.776 0 0 0-.13.076.235.235 0 0 0-.06.07A.175.175 0 0 0 0 .501C0 .555.02.6.06.637a.203.203 0 0 0 .146.056.25.25 0 0 0 .118-.03A.135.135 0 0 1 .37.647c.008 0 .015.003.02.008C.395.66.4.673.403.693h.015z"/></symbol><symbol id="aF"><path d="M.346.018V0H0v.018h.022c.02 0 .035.003.046.01a.044.044 0 0 1 .02.024.201.201 0 0 1 .005.061V.55a.218.218 0 0 1-.005.063.048.048 0 0 1-.022.022.085.085 0 0 1-.044.01H0v.018h.346V.644H.324a.092.092 0 0 1-.046-.01.047.047 0 0 1-.02-.024A.201.201 0 0 1 .252.55V.113C.252.08.254.058.258.05A.053.053 0 0 1 .28.027.091.091 0 0 1 .324.018h.022z"/></symbol><symbol id="aG"><path d="M.247.302V.116C.247.08.25.058.253.048A.05.05 0 0 1 .277.026.156.156 0 0 1 .339.018V0H0v.018c.03 0 .051.003.062.008A.05.05 0 0 1 .085.05C.09.058.092.08.092.116v.43a.195.195 0 0 1-.007.067.047.047 0 0 1-.023.023A.156.156 0 0 1 0 .644v.018h.308c.08 0 .138-.005.175-.016A.177.177 0 0 0 .574.584.163.163 0 0 0 .61.479.156.156 0 0 0 .557.36.218.218 0 0 0 .462.312l.16-.224A.339.339 0 0 1 .666.035.083.083 0 0 1 .712.018V0H.504L.29.302H.247m0 .324v-.29h.028C.32.336.354.34.376.35.4.357.416.372.43.394c.013.021.02.05.02.085 0 .05-.012.087-.036.111C.39.614.352.626.3.626H.247z"/></symbol><use xlink:href="#aE" transform="matrix(13.96364 0 0 -13.96364 188.46 370.91)"/><use xlink:href="#aF" transform="matrix(13.96364 0 0 -13.96364 197.003 370.69)"/><use xlink:href="#aB" transform="matrix(13.96364 0 0 -13.96364 203.656 370.69)"/><use xlink:href="#aC" transform="matrix(13.96364 0 0 -13.96364 218.347 370.902)"/><use xlink:href="#az" transform="matrix(13.96364 0 0 -13.96364 229.37 370.69)"/><use xlink:href="#aG" transform="matrix(13.96364 0 0 -13.96364 239.907 370.69)"/></g><clipPath id="aH"><path transform="matrix(1 0 0 -1 0 397)" d="M0 1.436h771.054v395.128H0z"/></clipPath><g clip-path="url(#aH)"><symbol id="aI"><path d="M.982.677V.66a.063.063 0 0 1-.03-.01.075.075 0 0 1-.023-.027A2.706 2.706 0 0 1 .898.546L.69 0H.671L.507.427.327 0H.309L.09.54a.58.58 0 0 1-.047.1C.036.65.021.656 0 .66v.017h.287V.66C.264.66.25.655.241.65A.03.03 0 0 1 .229.624C.23.613.237.586.253.546l.13-.32.104.25-.027.07a.512.512 0 0 1-.035.077.074.074 0 0 1-.028.028.102.102 0 0 1-.046.008v.018h.32V.66A.177.177 0 0 1 .623.654.031.031 0 0 1 .607.642.03.03 0 0 1 .6.624c0-.007.007-.03.022-.069l.12-.313.109.283c.011.03.018.05.02.06.003.011.004.021.004.03a.038.038 0 0 1-.013.031C.853.654.836.66.81.66v.018h.171z"/></symbol><symbol id="aJ"><path d="M.408.188H.174L.146.124A.143.143 0 0 1 .133.071C.133.052.14.039.155.03A.189.189 0 0 1 .22.018V0H0v.018a.1.1 0 0 1 .059.03c.015.016.034.049.056.1l.237.528h.01L.6.133A.33.33 0 0 1 .656.036.077.077 0 0 1 .703.018V0h-.32v.018h.013c.026 0 .044.004.054.01.007.006.01.014.01.023A.06.06 0 0 1 .459.07a.456.456 0 0 1-.015.037L.408.188M.392.225.293.453.191.225h.2z"/></symbol><symbol id="aK"><path d="M.704.677V.66A.107.107 0 0 1 .64.621.595.595 0 0 1 .579.506L.35 0H.334L.107.526a.649.649 0 0 1-.055.112C.043.65.026.656 0 .66v.018h.317V.66h-.01C.278.66.258.656.248.65A.024.024 0 0 1 .237.626.07.07 0 0 1 .24.606C.243.598.252.576.267.542l.141-.33.131.294c.016.035.025.06.029.071a.111.111 0 0 1 .005.03.044.044 0 0 1-.03.044.154.154 0 0 1-.056.008v.018h.217z"/></symbol><use xlink:href="#aE" transform="matrix(13.96364 0 0 -13.96364 281.544 370.91)"/><use xlink:href="#aI" transform="matrix(13.96364 0 0 -13.96364 289.93 370.902)"/><use xlink:href="#aJ" transform="matrix(13.96364 0 0 -13.96364 303.565 370.69)"/><use xlink:href="#aK" transform="matrix(13.96364 0 0 -13.96364 313.068 370.902)"/></g><clipPath id="aL"><path transform="matrix(1 0 0 -1 0 397)" d="M0 1.436h771.054v395.128H0z"/></clipPath><g clip-path="url(#aL)"><symbol id="aM"><path d="M.39 0H0v.01C.12.154.192.25.217.299a.31.31 0 0 1 .039.144c0 .034-.01.062-.032.085A.102.102 0 0 1 .146.56C.096.561.057.536.03.486L.012.492a.27.27 0 0 0 .08.139c.036.03.077.045.124.045A.183.183 0 0 0 .308.652.17.17 0 0 0 .373.588.153.153 0 0 0 .396.512.276.276 0 0 0 .36.38 1.251 1.251 0 0 0 .145.128h.143c.035 0 .058.001.068.004.01.003.02.008.026.015A.2.2 0 0 1 .41.191h.018L.39 0z"/></symbol><use xlink:href="#aE" transform="matrix(13.96364 0 0 -13.96364 345.358 370.91)"/><use xlink:href="#aF" transform="matrix(13.96364 0 0 -13.96364 353.9 370.69)"/><use xlink:href="#aB" transform="matrix(13.96364 0 0 -13.96364 360.554 370.69)"/><use xlink:href="#aC" transform="matrix(13.96364 0 0 -13.96364 375.244 370.902)"/><use xlink:href="#az" transform="matrix(13.96364 0 0 -13.96364 386.268 370.69)"/><use xlink:href="#aG" transform="matrix(13.96364 0 0 -13.96364 396.804 370.69)"/><use xlink:href="#aK" transform="matrix(13.96364 0 0 -13.96364 407.469 370.902)"/><use xlink:href="#aM" transform="matrix(13.96364 0 0 -13.96364 419.018 370.69)"/></g><clipPath id="aN"><path transform="matrix(1 0 0 -1 0 397)" d="M0 1.436h771.054v395.128H0z"/></clipPath><g clip-path="url(#aN)"><use xlink:href="#aB" transform="matrix(13.96364 0 0 -13.96364 434.526 370.69)"/><use xlink:href="#ay" transform="matrix(13.96364 0 0 -13.96364 449.206 370.902)"/><use xlink:href="#aC" transform="matrix(13.96364 0 0 -13.96364 461.296 370.902)"/><use xlink:href="#ay" transform="matrix(13.96364 0 0 -13.96364 472.604 370.902)"/><use xlink:href="#aK" transform="matrix(13.96364 0 0 -13.96364 484.25 370.902)"/><use xlink:href="#aM" transform="matrix(13.96364 0 0 -13.96364 495.797 370.69)"/></g><clipPath id="aO"><path transform="matrix(1 0 0 -1 0 397)" d="M0 1.436h771.054v395.128H0z"/></clipPath><g clip-path="url(#aO)"><symbol id="aP"><path d="M.132.346v.017c.037.011.063.021.077.03.014.01.027.024.037.043a.12.12 0 0 1 .016.058c0 .027-.01.05-.03.069a.1.1 0 0 1-.073.03C.113.592.074.567.042.52L.024.526a.294.294 0 0 0 .09.123.2.2 0 0 0 .123.04A.158.158 0 0 0 .35.649.13.13 0 0 0 .374.479a.179.179 0 0 0-.065-.06.228.228 0 0 0 .087-.068.166.166 0 0 0 .03-.102.236.236 0 0 0-.075-.177.276.276 0 0 0-.2-.072C.093 0 .053.01.027.028A.06.06 0 0 0 0 .078c0 .015.005.028.016.038.01.011.023.016.037.016.011 0 .021-.002.03-.007A.61.61 0 0 0 .14.083a.146.146 0 0 1 .089-.04c.024 0 .045.01.062.03.017.018.026.043.026.072a.188.188 0 0 1-.047.123.245.245 0 0 1-.137.078z"/></symbol><use xlink:href="#aB" transform="matrix(13.96364 0 0 -13.96364 517.73 370.69)"/><use xlink:href="#ay" transform="matrix(13.96364 0 0 -13.96364 532.41 370.902)"/><use xlink:href="#aC" transform="matrix(13.96364 0 0 -13.96364 544.5 370.902)"/><use xlink:href="#ay" transform="matrix(13.96364 0 0 -13.96364 555.808 370.902)"/><use xlink:href="#aK" transform="matrix(13.96364 0 0 -13.96364 567.454 370.902)"/><use xlink:href="#aP" transform="matrix(13.96364 0 0 -13.96364 578.884 370.889)"/></g><clipPath id="aQ"><path transform="matrix(1 0 0 -1 0 397)" d="M0 1.436h771.054v395.128H0z"/></clipPath><g clip-path="url(#aQ)"><use xlink:href="#aE" transform="matrix(13.96364 0 0 -13.96364 600.379 370.91)"/><use xlink:href="#aF" transform="matrix(13.96364 0 0 -13.96364 608.921 370.69)"/><use xlink:href="#aB" transform="matrix(13.96364 0 0 -13.96364 615.575 370.69)"/><use xlink:href="#aE" transform="matrix(13.96364 0 0 -13.96364 630.436 370.91)"/><use xlink:href="#aF" transform="matrix(13.96364 0 0 -13.96364 638.978 370.69)"/><use xlink:href="#aJ" transform="matrix(13.96364 0 0 -13.96364 645.461 370.69)"/><use xlink:href="#aB" transform="matrix(13.96364 0 0 -13.96364 656.95 370.69)"/></g><clipPath id="aR"><path transform="matrix(1 0 0 -1 0 397)" d="M0 1.436h771.054v395.128H0z"/></clipPath><g clip-path="url(#aR)"><symbol id="aS"><path d="M.595.662v-.18H.577a.28.28 0 0 1-.035.09.133.133 0 0 1-.052.043.167.167 0 0 1-.065.009H.376v-.51C.376.078.378.057.381.05A.053.053 0 0 1 .403.027.092.092 0 0 1 .448.018H.47V0H.124v.018h.022c.019 0 .034.003.046.01a.047.047 0 0 1 .02.024.201.201 0 0 1 .005.061v.511H.17C.125.624.092.614.072.596A.187.187 0 0 1 .02.483H0v.18h.595z"/></symbol><use xlink:href="#aK" transform="matrix(13.96364 0 0 -13.96364 683.014 370.902)"/><use xlink:href="#aF" transform="matrix(13.96364 0 0 -13.96364 694.495 370.69)"/><use xlink:href="#aS" transform="matrix(13.96364 0 0 -13.96364 701.366 370.69)"/></g><clipPath id="aT"><path transform="matrix(1 0 0 -1 0 397)" d="M0 1.436h771.054v395.128H0z"/></clipPath><g clip-path="url(#aT)"><symbol id="aU"><path d="M.285 0H0v.101h.285V0z"/></symbol><use xlink:href="#aU" transform="matrix(13.96364 0 0 -13.96364 710.46 368.189)"/></g><clipPath id="aV"><path transform="matrix(1 0 0 -1 0 397)" d="M0 1.436h771.054v395.128H0z"/></clipPath><g clip-path="url(#aV)"><symbol id="aW"><path d="M.245.3V.116C.245.08.247.058.25.048A.05.05 0 0 1 .274.026.158.158 0 0 1 .336.018V0H0v.018c.03 0 .051.003.062.008A.05.05 0 0 1 .085.05C.09.058.092.08.092.116v.43a.195.195 0 0 1-.007.067.047.047 0 0 1-.023.023A.156.156 0 0 1 0 .644v.018h.289c.095 0 .163-.017.204-.05A.158.158 0 0 0 .555.483a.162.162 0 0 0-.04-.11.204.204 0 0 0-.11-.062A.754.754 0 0 0 .245.3m0 .324V.338L.269.337c.04 0 .07.012.092.035.021.024.032.06.032.11S.383.567.361.59C.339.613.307.624.265.624h-.02z"/></symbol><symbol id="aX"><path d="m.235.677.327-.41V.55c0 .04-.006.067-.018.08C.53.652.503.66.466.66v.018h.219V.66A.164.164 0 0 1 .628.645.056.056 0 0 1 .605.617.193.193 0 0 1 .598.551V0H.58L.133.551v-.42C.133.091.142.066.16.052a.097.097 0 0 1 .06-.02h.016V.015H0v.018c.036 0 .062.008.076.023C.09.07.098.096.098.13v.468L.083.615A.129.129 0 0 1 .046.65.112.112 0 0 1 0 .66v.017h.235z"/></symbol><symbol id="aY"><path d="M0 0z"/></symbol><use xlink:href="#aM" transform="matrix(13.96364 0 0 -13.96364 716.32 370.69)"/><use xlink:href="#aE" transform="matrix(13.96364 0 0 -13.96364 724.902 370.91)"/><use xlink:href="#aW" transform="matrix(13.96364 0 0 -13.96364 733.515 370.69)"/><use xlink:href="#aX" transform="matrix(13.96364 0 0 -13.96364 743.108 370.902)"/><use xlink:href="#aY" transform="matrix(13.96364 0 0 -13.96364 754.223 370.69)"/></g><clipPath id="aZ"><path transform="matrix(1 0 0 -1 0 397)" d="M0 1.436h771.054v395.128H0z"/></clipPath><g clip-path="url(#aZ)"><symbol id="ba"><path d="M.281.877V.855A.295.295 0 0 1 .207.79.326.326 0 0 1 .155.677.947.947 0 0 1 .13.438c0-.096.007-.17.021-.224A.382.382 0 0 1 .21.084a.225.225 0 0 1 .071-.06V0a.391.391 0 0 0-.2.162.49.49 0 0 0-.081.28.48.48 0 0 0 .082.276c.054.08.12.133.2.16z"/></symbol><symbol id="bb"><path d="M0 .678h.342V.66H.325A.118.118 0 0 1 .27.65.046.046 0 0 1 .251.63.248.248 0 0 1 .245.56V.234C.245.175.25.136.258.117A.113.113 0 0 1 .303.069.145.145 0 0 1 .38.049c.036 0 .067.009.092.025A.148.148 0 0 1 .528.14a.4.4 0 0 1 .02.148v.27c0 .03-.004.05-.01.063a.056.056 0 0 1-.023.026.139.139 0 0 1-.062.012v.018h.229V.66H.668A.088.088 0 0 1 .622.648.064.064 0 0 1 .595.615.169.169 0 0 1 .588.559V.307A.644.644 0 0 0 .573.14.186.186 0 0 0 .498.043.27.27 0 0 0 .335 0a.309.309 0 0 0-.132.023.195.195 0 0 0-.09.08.277.277 0 0 0-.027.131V.56a.227.227 0 0 1-.006.07.047.047 0 0 1-.022.023A.133.133 0 0 1 0 .66v.018z"/></symbol><symbol id="bc"><path d="M0 0v.022a.302.302 0 0 1 .075.066A.34.34 0 0 1 .126.2.953.953 0 0 1 .15.44a.905.905 0 0 1-.022.224.376.376 0 0 1-.057.129.225.225 0 0 1-.071.06v.024A.389.389 0 0 0 .2.716.488.488 0 0 0 .28.436.477.477 0 0 0 .2.16.39.39 0 0 0 0 0z"/></symbol><use xlink:href="#ba" transform="matrix(13.96364 0 0 -13.96364 691.419 388.977)"/><use xlink:href="#ay" transform="matrix(13.96364 0 0 -13.96364 697.266 386.393)"/><use xlink:href="#bb" transform="matrix(13.96364 0 0 -13.96364 709.136 386.4)"/><use xlink:href="#aG" transform="matrix(13.96364 0 0 -13.96364 720.374 386.182)"/><use xlink:href="#aE" transform="matrix(13.96364 0 0 -13.96364 732.144 386.4)"/><use xlink:href="#bc" transform="matrix(13.96364 0 0 -13.96364 740.58 388.977)"/></g><clipPath id="bd"><path transform="matrix(1 0 0 -1 0 397)" d="M0 1.436h771.054v395.128H0z"/></clipPath><g clip-path="url(#bd)"><path d="M194.309 14.527h7.855v7.855h-7.855z" fill="#156082"/></g><clipPath id="be"><path transform="matrix(1 0 0 -1 0 397)" d="M0 1.436h771.054v395.128H0z"/></clipPath><g clip-path="url(#be)"><symbol id="bf"><path d="M.156.365c.032.033.052.052.057.056.015.013.03.022.048.03.017.006.033.01.05.01A.112.112 0 0 0 .383.435a.12.12 0 0 0 .04-.07C.458.403.487.43.51.441A.15.15 0 0 0 .58.46.11.11 0 0 0 .643.442a.12.12 0 0 0 .044-.06.27.27 0 0 0 .01-.089V.101C.698.073.7.054.705.043A.043.043 0 0 1 .722.025.093.093 0 0 1 .765.018V0h-.22v.018h.009c.019 0 .034.003.045.01a.044.044 0 0 1 .016.026A.313.313 0 0 1 .617.1v.192a.163.163 0 0 1-.013.078C.59.39.57.4.542.4A.116.116 0 0 1 .49.39.278.278 0 0 1 .427.34V.1c0-.03.002-.05.005-.057a.044.044 0 0 1 .02-.02A.114.114 0 0 1 .5.019V0H.274v.018c.025 0 .042.003.05.008.01.006.017.015.02.027A.26.26 0 0 1 .347.1v.192C.347.33.34.356.33.373a.069.069 0 0 1-.06.03A.108.108 0 0 1 .218.39.201.201 0 0 1 .156.341V.1c0-.03.002-.048.006-.057A.045.045 0 0 1 .18.024.122.122 0 0 1 .229.018V0H.007v.018c.02 0 .035.002.043.006a.044.044 0 0 1 .019.02c.004.01.006.03.006.057v.171a.62.62 0 0 1-.004.095C.069.377.065.385.06.39A.03.03 0 0 1 .04.396.094.094 0 0 1 .007.388L0 .406.135.46h.02V.365z"/></symbol><symbol id="bg"><path d="M.45.222H.193L.148.117A.165.165 0 0 1 .132.06c0-.01.005-.02.014-.027C.156.025.176.02.208.018V0H0v.018c.028.005.046.011.054.02a.3.3 0 0 1 .055.094l.233.545h.017l.23-.55A.258.258 0 0 1 .64.04.105.105 0 0 1 .704.018V0H.442v.018C.468.02.486.024.495.031.505.04.51.048.51.06a.202.202 0 0 1-.02.067L.45.222M.437.258.324.525.208.258h.228z"/></symbol><symbol id="bh"><path d="M.472.66v.018h.234V.66H.681a.067.067 0 0 1-.06-.033C.614.617.611.593.611.557V.288A.472.472 0 0 0 .59.133.194.194 0 0 0 .513.04.277.277 0 0 0 .356 0a.297.297 0 0 0-.165.038.204.204 0 0 0-.08.1.561.561 0 0 0-.015.164V.56C.096.6.09.628.08.64.068.653.05.66.025.66H0v.018h.286V.66H.261C.233.66.214.65.202.634.194.622.19.598.19.56V.272C.19.246.192.217.197.184A.19.19 0 0 1 .223.106.14.14 0 0 1 .276.06a.236.236 0 0 1 .202.01.15.15 0 0 1 .07.073c.013.03.019.08.019.15V.56C.567.6.562.628.553.638.541.653.522.66.497.66H.472z"/></symbol><symbol id="bi"><path d="M.566.692.58.467H.566a.283.283 0 0 1-.087.146.21.21 0 0 1-.134.044.218.218 0 0 1-.12-.033.221.221 0 0 1-.083-.107.479.479 0 0 1-.03-.182C.111.275.12.223.14.179a.216.216 0 0 1 .087-.1.25.25 0 0 1 .132-.036c.043 0 .08.01.114.027A.379.379 0 0 1 .58.18L.596.17A.348.348 0 0 0 .48.041.294.294 0 0 0 .322 0C.212 0 .128.04.067.122A.349.349 0 0 0 0 .336a.38.38 0 0 0 .044.182.33.33 0 0 0 .292.174A.312.312 0 0 0 .48.657a.077.077 0 0 1 .029-.01C.517.646.524.65.53.655a.076.076 0 0 1 .018.036h.017z"/></symbol><use xlink:href="#bf" transform="matrix(15.92727 0 0 -15.92727 205.96 23.127)" fill="#595959"/><use xlink:href="#bg" transform="matrix(15.92727 0 0 -15.92727 218.388 23.127)" fill="#595959"/><use xlink:href="#bh" transform="matrix(15.92727 0 0 -15.92727 229.91 23.376)" fill="#595959"/><use xlink:href="#bi" transform="matrix(15.92727 0 0 -15.92727 241.96 23.368)" fill="#595959"/></g><clipPath id="bj"><path transform="matrix(1 0 0 -1 0 397)" d="M0 1.436h771.054v395.128H0z"/></clipPath><g clip-path="url(#bj)"><path d="M268.055 14.527h7.854v7.855h-7.854z" fill="#e97132"/></g><clipPath id="bk"><path transform="matrix(1 0 0 -1 0 397)" d="M0 1.436h771.054v395.128H0z"/></clipPath><g clip-path="url(#bk)"><symbol id="bl"><path d="M.377.184a.244.244 0 0 0-.07-.137A.17.17 0 0 0 .188 0a.172.172 0 0 0-.132.064A.251.251 0 0 0 0 .237c0 .07.02.127.063.171a.201.201 0 0 0 .15.066C.257.474.293.462.322.44.35.416.364.392.364.367a.04.04 0 0 0-.012-.03A.046.046 0 0 0 .32.324c-.02 0-.034.006-.044.019C.27.35.266.364.265.383a.063.063 0 0 1-.02.044.07.07 0 0 1-.048.014A.097.097 0 0 1 .12.405.192.192 0 0 1 .079.28c0-.054.013-.1.04-.142a.121.121 0 0 1 .106-.06c.032 0 .06.01.086.032A.22.22 0 0 1 .363.19L.377.184z"/></symbol><symbol id="bm"><path d="M.422.46V.19c0-.052.002-.084.004-.095C.428.083.432.075.438.07A.03.03 0 0 1 .457.064c.01 0 .021.003.034.008L.498.055.364 0H.342v.095A.407.407 0 0 0 .254.016.134.134 0 0 0 .19 0a.104.104 0 0 0-.065.021.114.114 0 0 0-.039.057.338.338 0 0 0-.01.096v.2a.098.098 0 0 1-.007.044.044.044 0 0 1-.02.019A.113.113 0 0 1 0 .443V.46h.157v-.3C.157.12.164.094.178.08A.077.077 0 0 1 .231.06c.014 0 .03.004.047.013.018.009.04.026.064.05v.254c0 .025-.005.042-.014.051C.318.438.299.442.27.443V.46h.152z"/></symbol><symbol id="bn"><path d="M.156.46v-.1c.037.067.076.1.115.1A.062.062 0 0 0 .315.444.05.05 0 0 0 .333.406.045.045 0 0 0 .32.374.04.04 0 0 0 .29.361C.279.36.266.366.251.377.237.39.227.395.221.395.213.395.207.39.2.385A.235.235 0 0 1 .156.319V.104C.156.08.159.061.165.048A.05.05 0 0 1 .187.026.099.099 0 0 1 .234.018V0h-.23v.018c.024 0 .04.003.052.01a.042.042 0 0 1 .017.025.251.251 0 0 1 .002.048v.173a.663.663 0 0 1-.003.093.035.035 0 0 1-.012.022.032.032 0 0 1-.02.007.097.097 0 0 1-.035-.008L0 .406.135.46h.02z"/></symbol><symbol id="bo"><path d="M.249.074A.737.737 0 0 0 .163.012.132.132 0 0 0 .106 0C.076 0 .05.01.03.032A.117.117 0 0 0 0 .115c0 .022.005.04.015.057a.194.194 0 0 0 .069.062c.033.02.088.044.165.072v.017c0 .045-.007.075-.021.092C.214.432.193.44.166.44A.07.07 0 0 1 .117.423.05.05 0 0 1 .1.385V.357C.1.342.097.33.089.322A.039.039 0 0 0 .058.31a.039.039 0 0 0-.03.013.05.05 0 0 0-.01.034c0 .028.013.054.042.078A.186.186 0 0 0 .18.47.21.21 0 0 0 .279.45.092.092 0 0 0 .321.402.267.267 0 0 0 .33.316V.165c0-.043 0-.07.002-.08C.334.077.336.07.34.068A.02.02 0 0 1 .353.062c.005 0 .01.001.014.003l.04.036V.074C.37.024.334 0 .301 0a.047.047 0 0 0-.038.017C.254.028.249.047.249.074m0 .031v.17a.964.964 0 0 1-.095-.04.164.164 0 0 1-.055-.046.087.087 0 0 1-.017-.05c0-.024.007-.044.021-.06A.064.064 0 0 1 .151.058C.176.057.21.073.25.105z"/></symbol><symbol id="bp"><path d="M0 .663h.208V.645h-.01C.184.645.173.642.165.635a.03.03 0 0 1-.01-.023C.154.599.16.582.17.559L.28.333l.1.248a.103.103 0 0 1 .008.04c0 .005-.001.01-.004.012a.025.025 0 0 1-.012.009.086.086 0 0 1-.03.003v.018h.146V.645A.07.07 0 0 1 .46.637.08.08 0 0 1 .44.615.305.305 0 0 1 .422.578L.24.13A.23.23 0 0 0 .17.033.135.135 0 0 0 .09 0a.068.068 0 0 0-.047.017.05.05 0 0 0-.02.038c0 .013.005.024.014.033C.046.096.058.1.073.1.084.1.1.097.117.09A.105.105 0 0 1 .142.081c.01 0 .02.005.031.015.012.01.024.03.035.059L.24.233.08.571a.27.27 0 0 1-.044.06A.11.11 0 0 1 0 .645v.018z"/></symbol><use xlink:href="#bg" transform="matrix(15.92727 0 0 -15.92727 279.669 23.127)" fill="#595959"/><use xlink:href="#bl" transform="matrix(15.92727 0 0 -15.92727 291.652 23.345)" fill="#595959"/><use xlink:href="#bl" transform="matrix(15.92727 0 0 -15.92727 298.851 23.345)" fill="#595959"/><use xlink:href="#bm" transform="matrix(15.92727 0 0 -15.92727 305.298 23.345)" fill="#595959"/><use xlink:href="#bn" transform="matrix(15.92727 0 0 -15.92727 313.46 23.127)" fill="#595959"/><use xlink:href="#bo" transform="matrix(15.92727 0 0 -15.92727 319.166 23.275)" fill="#595959"/><use xlink:href="#bl" transform="matrix(15.92727 0 0 -15.92727 326.342 23.345)" fill="#595959"/><use xlink:href="#bp" transform="matrix(15.92727 0 0 -15.92727 332.867 26.565)" fill="#595959"/></g><clipPath id="bq"><path transform="matrix(1 0 0 -1 0 397)" d="M0 1.436h771.054v395.128H0z"/></clipPath><g clip-path="url(#bq)"><path d="M356.636 14.527h8.073v7.855h-8.073z" fill="#196b24"/></g><clipPath id="br"><path transform="matrix(1 0 0 -1 0 397)" d="M0 1.436h771.054v395.128H0z"/></clipPath><g clip-path="url(#br)"><symbol id="bs"><path d="M.188.31V.117C.188.076.193.05.202.04.215.025.233.018.258.018h.026V0H0v.018h.025c.028 0 .048.01.06.027.006.01.01.034.01.072v.428C.095.587.09.612.082.623.069.637.05.644.025.644H0v.018h.243c.059 0 .106-.006.14-.018A.191.191 0 0 0 .469.582.159.159 0 0 0 .504.479.173.173 0 0 0 .451.347C.415.313.365.297.3.297A.426.426 0 0 0 .188.31m0 .028a.723.723 0 0 1 .08-.01c.034 0 .064.013.088.04.025.026.037.06.037.101a.182.182 0 0 1-.018.08.12.12 0 0 1-.05.055.144.144 0 0 1-.073.019.289.289 0 0 1-.064-.01V.338z"/></symbol><symbol id="bt"><path d="M.07.292A.23.23 0 0 1 .117.136.147.147 0 0 1 .232.08c.03 0 .055.008.077.024a.18.18 0 0 1 .054.083l.015-.01a.234.234 0 0 0-.06-.122A.16.16 0 0 0 .196 0c-.053 0-.1.02-.138.063A.242.242 0 0 0 0 .23c0 .077.02.137.059.18.039.042.088.064.148.064.05 0 .09-.017.123-.05A.18.18 0 0 0 .378.292H.07m0 .029h.207a.191.191 0 0 1-.01.06.096.096 0 0 1-.037.043.09.09 0 0 1-.05.016.101.101 0 0 1-.073-.032A.136.136 0 0 1 .07.321z"/></symbol><symbol id="bu"><path d="M.116.694A.046.046 0 0 0 .15.68.046.046 0 0 0 .165.645.048.048 0 0 0 .15.61.046.046 0 0 0 .116.595.048.048 0 0 0 .08.61a.048.048 0 0 0-.015.035C.066.659.07.67.08.68c.01.01.022.014.036.014M.156.46V.101c0-.028.002-.047.006-.056A.045.045 0 0 1 .18.025.098.098 0 0 1 .224.017V0H.007v.018C.029.018.043.02.05.024a.042.042 0 0 1 .017.02c.005.01.007.03.007.057v.172a.61.61 0 0 1-.004.095C.069.378.065.385.06.389A.03.03 0 0 1 .04.396.098.098 0 0 1 .007.388L0 .406.135.46h.021z"/></symbol><symbol id="bv"><path d="M.271.474V.322H.255C.243.37.227.402.208.419a.106.106 0 0 1-.074.026.082.082 0 0 1-.055-.018C.065.415.058.402.058.387.058.37.063.353.073.34A.174.174 0 0 1 .135.298L.206.263c.066-.032.1-.075.1-.127A.12.12 0 0 0 .258.037.16.16 0 0 0 .156 0a.355.355 0 0 0-.094.015.095.095 0 0 1-.026.005C.028.02.022.015.018.007H.002v.16h.016A.182.182 0 0 1 .07.063.126.126 0 0 1 .157.03c.022 0 .04.006.054.02.015.013.022.029.022.047a.075.075 0 0 1-.024.057.407.407 0 0 1-.094.058.28.28 0 0 0-.093.063.11.11 0 0 0-.022.07c0 .038.013.068.038.093a.135.135 0 0 0 .098.037A.23.23 0 0 0 .2.463.151.151 0 0 1 .233.456a.02.02 0 0 1 .012.003.047.047 0 0 1 .01.015h.016z"/></symbol><symbol id="bw"><path d="M.216.474A.198.198 0 0 0 .38.397.237.237 0 0 0 .432.246c0-.04-.01-.081-.03-.122A.21.21 0 0 0 .324.031.208.208 0 0 0 .211 0a.19.19 0 0 0-.16.08A.25.25 0 0 0 0 .234c0 .04.01.082.03.122a.208.208 0 0 0 .186.12M.201.441A.102.102 0 0 1 .15.427.107.107 0 0 1 .107.373a.26.26 0 0 1-.016-.1C.09.21.104.154.129.106.155.058.19.035.232.035.264.035.29.048.31.074.33.1.34.144.34.208.34.288.325.35.29.396A.106.106 0 0 1 .2.442z"/></symbol><symbol id="bx"><path d="M.156.366C.208.429.258.46.306.46A.107.107 0 0 0 .369.442.121.121 0 0 0 .41.382c.007-.02.01-.05.01-.09v-.19A.16.16 0 0 1 .428.042.04.04 0 0 1 .445.024.1.1 0 0 1 .49.018V0H.269v.018h.009c.02 0 .035.003.043.009A.05.05 0 0 1 .34.055C.34.06.34.075.34.101v.183c0 .04-.006.07-.016.089C.315.39.297.4.27.4.233.4.194.38.156.337V.1c0-.03.002-.049.005-.056A.047.047 0 0 1 .18.024.122.122 0 0 1 .229.018V0H.007v.018h.01c.023 0 .038.005.046.017C.071.046.075.069.075.1v.166a.677.677 0 0 1-.004.098C.07.377.065.385.061.39A.03.03 0 0 1 .04.396.094.094 0 0 1 .007.388L0 .406.135.46h.02V.366z"/></symbol><use xlink:href="#bs" transform="matrix(15.92727 0 0 -15.92727 368.586 23.127)" fill="#595959"/><use xlink:href="#bn" transform="matrix(15.92727 0 0 -15.92727 377.367 23.127)" fill="#595959"/><use xlink:href="#bt" transform="matrix(15.92727 0 0 -15.92727 383.09 23.345)" fill="#595959"/><use xlink:href="#bl" transform="matrix(15.92727 0 0 -15.92727 390.253 23.345)" fill="#595959"/><use xlink:href="#bu" transform="matrix(15.92727 0 0 -15.92727 397.16 23.127)" fill="#595959"/><use xlink:href="#bv" transform="matrix(15.92727 0 0 -15.92727 402.052 23.345)" fill="#595959"/><use xlink:href="#bu" transform="matrix(15.92727 0 0 -15.92727 407.851 23.127)" fill="#595959"/><use xlink:href="#bw" transform="matrix(15.92727 0 0 -15.92727 412.502 23.345)" fill="#595959"/><use xlink:href="#bx" transform="matrix(15.92727 0 0 -15.92727 419.92 23.127)" fill="#595959"/></g><clipPath id="by"><path transform="matrix(1 0 0 -1 0 397)" d="M0 1.436h771.054v395.128H0z"/></clipPath><g clip-path="url(#by)"><path d="M443.69 14.527h8.074v7.855h-8.073z" fill="#0f9ed5"/></g><clipPath id="bz"><path transform="matrix(1 0 0 -1 0 397)" d="M0 1.436h771.054v395.128H0z"/></clipPath><g clip-path="url(#bz)"><symbol id="bA"><path d="M.188.626v-.26H.31c.028 0 .048.006.06.018.014.012.022.036.027.073h.018V.232H.396a.128.128 0 0 1-.01.057.06.06 0 0 1-.027.027.105.105 0 0 1-.05.01H.19V.116A.22.22 0 0 1 .194.051.044.044 0 0 1 .215.03.093.093 0 0 1 .26.018h.024V0H0v.018h.023c.028 0 .048.008.06.024.008.01.012.035.012.075v.428A.22.22 0 0 1 .088.61a.044.044 0 0 1-.02.021.09.09 0 0 1-.045.012H0v.018h.493L.499.517H.482a.194.194 0 0 1-.03.067.094.094 0 0 1-.041.032.22.22 0 0 1-.077.01H.188z"/></symbol><symbol id="bB"><path d="M0 .074h.252V0H0v.074z"/></symbol><symbol id="bC"><path d="M.396.692V.463H.378a.282.282 0 0 1-.032.105.179.179 0 0 1-.151.085.118.118 0 0 1-.084-.03.094.094 0 0 1-.033-.071c0-.02.007-.039.02-.055A.54.54 0 0 1 .244.399.951.951 0 0 0 .369.322.18.18 0 0 0 .44.184C.44.134.42.091.382.054A.211.211 0 0 0 .231 0a.318.318 0 0 0-.117.022.275.275 0 0 1-.06.016.026.026 0 0 1-.02-.008C.03.025.028.015.025 0H.006v.227h.018A.324.324 0 0 1 .06.12.165.165 0 0 1 .124.062.205.205 0 0 1 .221.038c.04 0 .073.01.096.032a.1.1 0 0 1 .036.076.102.102 0 0 1-.014.05.144.144 0 0 1-.041.046C.285.252.25.272.194.304A1.047 1.047 0 0 0 .073.38a.206.206 0 0 0-.054.063.162.162 0 0 0 .036.198.194.194 0 0 0 .139.051.28.28 0 0 0 .112-.025.115.115 0 0 1 .038-.013c.009 0 .016.003.02.008.006.005.01.015.014.03h.018z"/></symbol><use xlink:href="#bA" transform="matrix(15.92727 0 0 -15.92727 455.615 23.127)" fill="#595959"/><use xlink:href="#T" transform="matrix(15.92727 0 0 -15.92727 466.17 23.127)" fill="#595959"/><use xlink:href="#bB" transform="matrix(15.92727 0 0 -15.92727 472.81 20.14)" fill="#595959"/><use xlink:href="#bC" transform="matrix(15.92727 0 0 -15.92727 478.617 23.368)" fill="#595959"/><use xlink:href="#bl" transform="matrix(15.92727 0 0 -15.92727 487.11 23.345)" fill="#595959"/><use xlink:href="#bw" transform="matrix(15.92727 0 0 -15.92727 494.088 23.345)" fill="#595959"/><use xlink:href="#bn" transform="matrix(15.92727 0 0 -15.92727 501.721 23.127)" fill="#595959"/><use xlink:href="#bt" transform="matrix(15.92727 0 0 -15.92727 507.445 23.345)" fill="#595959"/></g><clipPath id="bD"><path transform="matrix(1 0 0 -1 0 397)" d="M0 1.436h771.054v395.128H0z"/></clipPath><g clip-path="url(#bD)"><path d="M529.873 14.527h8.072v7.855h-8.072z" fill="#a02b93"/></g><clipPath id="bE"><path transform="matrix(1 0 0 -1 0 397)" d="M0 1.436h771.054v395.128H0z"/></clipPath><g clip-path="url(#bE)"><symbol id="bF"><path d="M.659 0H.482L.258.31.218.309h-.03V.118C.188.076.193.05.202.04.215.025.233.018.258.018h.026V0H0v.018h.025c.028 0 .048.01.06.027.007.01.01.034.01.072v.428c0 .042-.004.067-.013.078C.069.637.05.644.025.644H0v.018h.241c.07 0 .122-.005.155-.016A.174.174 0 0 0 .481.59.146.146 0 0 0 .517.492a.154.154 0 0 0-.04-.106.223.223 0 0 0-.123-.064L.49.132A.34.34 0 0 1 .57.045.203.203 0 0 1 .66.018V0m-.47.34a.23.23 0 0 0 .016 0h.01C.28.34.327.354.359.38a.131.131 0 0 1 .049.105.135.135 0 0 1-.04.1.138.138 0 0 1-.102.04.43.43 0 0 1-.077-.01V.34z"/></symbol><symbol id="bG"><path d="M.155.694V.101c0-.028.002-.046.006-.056a.046.046 0 0 1 .02-.02.112.112 0 0 1 .047-.007V0h-.22v.018c.02 0 .035.002.042.006a.042.042 0 0 1 .018.02c.004.01.006.03.006.057v.406c0 .05 0 .082-.003.093C.069.612.065.62.06.624A.028.028 0 0 1 .04.63.091.091 0 0 1 .009.623L0 .64l.133.054h.022z"/></symbol><use xlink:href="#bF" transform="matrix(15.92727 0 0 -15.92727 541.782 23.127)" fill="#595959"/><use xlink:href="#bt" transform="matrix(15.92727 0 0 -15.92727 552.791 23.345)" fill="#595959"/><use xlink:href="#bl" transform="matrix(15.92727 0 0 -15.92727 559.724 23.345)" fill="#595959"/><use xlink:href="#bo" transform="matrix(15.92727 0 0 -15.92727 566.95 23.275)" fill="#595959"/><use xlink:href="#bG" transform="matrix(15.92727 0 0 -15.92727 574.059 23.127)" fill="#595959"/><use xlink:href="#bG" transform="matrix(15.92727 0 0 -15.92727 578.426 23.127)" fill="#595959"/></g><path stroke-width=".762" stroke-linejoin="round" fill="none" stroke="#d9d9d9" d="M.455.673H771.29V395.8H.455z"/></svg>