<?xml version="1.0" standalone="no"?>
<!DOCTYPE svg PUBLIC "-//W3C//DTD SVG 20010904//EN"
 "http://www.w3.org/TR/2001/REC-SVG-20010904/DTD/svg10.dtd">
<svg version="1.0" xmlns="http://www.w3.org/2000/svg"
 width="1364.000000pt" height="515.000000pt" viewBox="0 0 1364.000000 515.000000"
 preserveAspectRatio="xMidYMid meet">

<g transform="translate(0.000000,515.000000) scale(0.100000,-0.100000)"
fill="#000000" stroke="none">
<path d="M300 4815 c0 -13 728 -15 6490 -15 5762 0 6490 2 6490 15 0 13 -728
15 -6490 15 -5762 0 -6490 -2 -6490 -15z"/>
<path d="M7954 4500 c0 -118 2 -167 3 -107 2 59 2 155 0 215 -1 59 -3 10 -3
-108z"/>
<path d="M526 4639 c-31 -24 -35 -68 -7 -93 10 -9 37 -22 61 -29 51 -15 70
-38 51 -61 -28 -33 -111 -9 -111 32 0 7 -4 12 -10 12 -5 0 -10 -17 -10 -37 l0
-38 66 -3 c81 -3 104 12 104 68 0 44 -21 66 -75 77 -42 9 -62 31 -52 57 12 32
97 6 97 -30 0 -8 5 -14 10 -14 6 0 10 19 10 41 0 33 -3 39 -13 31 -8 -7 -18
-7 -27 -2 -25 16 -66 11 -94 -11z"/>
<path d="M890 4651 c0 -6 5 -13 10 -16 6 -3 10 -48 10 -101 0 -56 -4 -94 -10
-94 -5 0 -10 -4 -10 -10 0 -5 18 -10 40 -10 22 0 40 5 40 10 0 6 -4 10 -10 10
-6 0 -10 43 -10 110 l0 110 -30 0 c-16 0 -30 -4 -30 -9z"/>
<path d="M1042 4644 c-12 -8 -22 -26 -22 -39 0 -13 -8 -28 -17 -34 -17 -9 -17
-10 0 -16 23 -10 25 -115 2 -115 -8 0 -15 -4 -15 -10 0 -5 23 -10 50 -10 28 0
50 5 50 10 0 6 -7 10 -15 10 -11 0 -15 13 -15 54 0 47 3 55 23 61 l22 8 -23 4
c-19 4 -23 10 -20 36 2 17 9 33 17 35 8 3 11 0 7 -7 -10 -15 22 -27 36 -13 8
8 8 15 -2 27 -16 19 -49 19 -78 -1z"/>
<path d="M1285 4648 c-27 -15 -35 -28 -35 -60 0 -38 29 -64 79 -73 73 -12 78
-75 6 -75 -31 0 -65 25 -65 48 0 7 -4 12 -10 12 -5 0 -10 -17 -10 -38 l0 -38
65 -2 c53 -2 68 1 85 18 20 20 26 54 14 85 -7 18 -55 45 -80 45 -10 0 -26 7
-35 16 -24 22 -8 54 26 54 25 0 65 -31 65 -50 0 -5 5 -10 10 -10 6 0 10 17 10
38 l0 37 -53 2 c-28 1 -61 -3 -72 -9z"/>
<path d="M2460 4644 c-11 -12 -10 -18 3 -32 16 -15 18 -15 34 0 13 14 14 20 3
32 -7 9 -16 16 -20 16 -4 0 -13 -7 -20 -16z"/>
<path d="M2986 4652 c-3 -6 1 -12 9 -16 9 -3 15 -18 15 -36 0 -26 -4 -31 -22
-30 -73 6 -108 -18 -108 -75 0 -57 25 -74 114 -74 42 0 76 4 76 10 0 5 -4 9
-10 9 -5 0 -11 47 -12 108 l-3 107 -27 3 c-14 2 -29 -1 -32 -6z m-2 -98 c25
-10 22 -100 -4 -114 -32 -17 -64 22 -56 68 7 45 26 59 60 46z"/>
<path d="M4344 4646 c-9 -24 4 -48 23 -44 12 2 18 12 18 28 0 29 -32 41 -41
16z"/>
<path d="M4667 4654 c-13 -13 -7 -42 10 -48 21 -8 36 6 31 30 -3 19 -29 30
-41 18z"/>
<path d="M6450 4651 c0 -6 5 -13 10 -16 6 -3 10 -48 10 -101 0 -56 -4 -94 -10
-94 -5 0 -10 -4 -10 -10 0 -5 18 -10 40 -10 22 0 40 5 40 10 0 6 -4 10 -10 10
-6 0 -10 43 -10 110 l0 110 -30 0 c-16 0 -30 -4 -30 -9z"/>
<path d="M8420 4644 c-11 -12 -10 -18 3 -32 16 -15 18 -15 34 0 13 14 14 20 3
32 -7 9 -16 16 -20 16 -4 0 -13 -7 -20 -16z"/>
<path d="M9717 4654 c-13 -13 -7 -42 10 -48 21 -8 36 6 31 30 -3 19 -29 30
-41 18z"/>
<path d="M12156 4651 c-3 -5 1 -11 9 -15 23 -8 22 -196 -1 -196 -8 0 -12 -4
-9 -10 3 -5 24 -10 46 -10 21 0 39 5 39 10 0 6 -4 10 -10 10 -6 0 -10 43 -10
110 l0 110 -29 0 c-17 0 -32 -4 -35 -9z"/>
<path d="M3238 4640 c21 -9 22 -15 22 -105 0 -88 -1 -95 -20 -95 -11 0 -20 -4
-20 -10 0 -6 26 -10 59 -10 33 0 63 5 66 10 3 6 -3 10 -14 10 -18 0 -21 6 -21
39 l0 38 50 5 c59 6 90 30 90 69 0 46 -31 59 -140 58 -67 0 -88 -3 -72 -9z
m136 -10 c20 -7 26 -17 26 -38 0 -37 -17 -52 -57 -52 -33 0 -33 0 -33 50 0 55
10 61 64 40z"/>
<path d="M6005 4641 c12 -5 36 -46 65 -112 26 -57 53 -105 61 -107 10 -2 29
31 59 102 28 65 53 109 65 115 16 8 12 10 -24 10 -36 1 -41 -1 -32 -13 9 -10
4 -29 -20 -82 l-32 -69 -33 70 c-39 83 -39 82 -16 88 9 3 -12 5 -48 5 -40 0
-57 -2 -45 -7z"/>
<path d="M8155 4640 c3 -5 13 -10 21 -10 11 0 14 -19 14 -95 0 -88 -1 -95 -20
-95 -11 0 -20 -4 -20 -10 0 -6 30 -10 70 -10 40 0 70 4 70 10 0 6 -11 10 -25
10 -23 0 -25 4 -25 45 0 25 4 45 9 45 21 0 41 -13 41 -26 0 -8 5 -14 10 -14 6
0 10 23 10 50 0 50 -13 67 -23 30 -3 -12 -14 -20 -26 -20 -18 0 -21 6 -21 40
0 40 0 40 39 40 41 0 71 -20 71 -46 0 -8 5 -14 10 -14 11 0 13 24 4 58 -6 21
-11 22 -111 22 -67 0 -102 -4 -98 -10z"/>
<path d="M9036 4634 c-9 -22 -7 -64 2 -64 4 0 13 14 19 30 9 24 17 30 42 30
l31 0 0 -95 c0 -95 0 -95 -25 -95 -14 0 -25 -4 -25 -10 0 -6 32 -10 75 -10 43
0 75 4 75 10 0 6 -11 10 -25 10 -25 0 -25 0 -25 95 0 92 1 95 23 95 27 0 47
-17 47 -40 0 -8 9 -22 20 -30 16 -11 20 -26 20 -67 0 -40 4 -55 18 -62 22 -12
152 -12 152 0 0 5 -4 9 -10 9 -6 0 -10 28 -10 65 l0 65 -30 0 c-16 0 -30 -4
-30 -10 0 -5 5 -10 10 -10 11 0 13 -80 2 -96 -12 -17 -39 -23 -51 -11 -6 6
-11 38 -11 72 0 60 0 61 -27 60 -25 0 -28 4 -31 38 l-3 37 -114 0 c-94 0 -114
-3 -119 -16z"/>
<path d="M11711 4643 c10 -2 37 -50 65 -114 31 -71 53 -109 61 -107 8 2 35 50
60 106 31 68 54 107 67 112 16 7 8 9 -29 9 -37 0 -46 -2 -33 -9 15 -9 13 -17
-15 -80 -17 -38 -34 -67 -38 -65 -3 3 -19 34 -35 71 -23 55 -25 67 -13 75 9 6
-7 8 -46 8 -33 -1 -53 -3 -44 -6z"/>
<path d="M3870 4625 c0 -9 -11 -27 -25 -41 -29 -29 -31 -34 -10 -34 12 0 15
-13 15 -60 0 -56 2 -60 27 -66 14 -4 33 -2 42 3 18 12 28 53 12 53 -6 0 -11
-9 -11 -20 0 -11 -7 -20 -15 -20 -12 0 -15 13 -15 55 0 48 3 55 19 55 11 0 23
5 26 10 4 6 -5 10 -19 10 -23 0 -26 4 -26 35 0 19 -4 35 -10 35 -5 0 -10 -7
-10 -15z"/>
<path d="M764 4573 c-57 -11 -76 -92 -32 -133 36 -34 128 -22 128 17 0 15 -2
15 -18 0 -25 -23 -69 -22 -82 2 -15 30 -14 31 45 31 52 0 55 2 55 24 0 24 -23
56 -40 56 -5 0 -14 2 -22 4 -7 2 -23 1 -34 -1z m56 -32 c15 -29 13 -31 -30
-31 -22 0 -40 3 -40 6 0 18 24 44 40 44 11 0 24 -9 30 -19z"/>
<path d="M1488 4572 c-26 -3 -41 -22 -18 -22 6 0 10 -25 10 -55 0 -41 4 -56
18 -64 22 -12 152 -12 152 0 0 5 -4 9 -10 9 -6 0 -10 28 -10 65 l0 65 -30 0
c-16 0 -30 -4 -30 -10 0 -5 5 -10 10 -10 11 0 13 -80 2 -96 -12 -18 -40 -24
-51 -11 -5 7 -11 40 -13 72 -3 59 -4 60 -30 57z"/>
<path d="M1698 4572 c-26 -3 -41 -22 -18 -22 15 0 13 -177 -2 -183 -7 -3 10
-5 37 -5 28 0 44 2 38 5 -7 2 -13 17 -13 32 0 25 3 27 36 23 27 -3 41 1 60 19
30 28 33 88 5 113 -18 16 -85 25 -143 18z m108 -37 c30 -46 -5 -117 -48 -94
-22 12 -26 104 -5 112 25 11 37 6 53 -18z"/>
<path d="M1954 4573 c-57 -11 -76 -92 -32 -133 36 -34 128 -22 128 17 0 15 -2
15 -18 0 -25 -23 -69 -22 -82 2 -15 30 -14 31 45 31 52 0 55 2 55 24 0 24 -23
56 -40 56 -5 0 -14 2 -22 4 -7 2 -23 1 -34 -1z m56 -32 c15 -29 13 -31 -30
-31 -22 0 -40 3 -40 6 0 18 24 44 40 44 11 0 24 -9 30 -19z"/>
<path d="M2095 4569 c-24 -5 -27 -7 -12 -13 23 -11 25 -116 2 -116 -8 0 -15
-4 -15 -10 0 -5 24 -10 53 -10 45 1 50 2 35 14 -22 16 -25 98 -4 115 11 9 15
7 19 -9 6 -24 25 -26 34 -4 4 11 -1 22 -12 30 -16 12 -22 12 -41 -1 -17 -11
-23 -12 -26 -2 -2 8 -13 10 -33 6z"/>
<path d="M2573 4570 c-15 -6 -23 -18 -23 -33 0 -29 12 -40 63 -56 40 -14 47
-25 20 -39 -23 -12 -44 -5 -65 22 -18 21 -18 21 -18 -10 0 -30 1 -31 50 -33
42 -1 52 2 65 23 23 34 6 62 -45 76 -48 13 -55 40 -11 40 16 0 31 -6 35 -15 8
-23 28 -18 24 6 -2 17 -11 23 -38 25 -19 1 -45 -1 -57 -6z"/>
<path d="M2744 4565 c-77 -33 -48 -145 38 -145 38 0 68 16 68 37 0 15 -2 15
-18 0 -27 -25 -71 -22 -81 6 -8 21 -6 22 48 27 53 5 56 6 53 30 -5 47 -55 68
-108 45z m70 -27 c14 -23 5 -30 -37 -26 -31 3 -34 5 -26 26 10 27 46 27 63 0z"/>
<path d="M3704 4573 c-57 -11 -76 -92 -32 -133 36 -34 128 -22 128 17 0 15 -2
15 -18 0 -25 -23 -69 -22 -82 2 -15 30 -14 31 45 31 52 0 55 2 55 24 0 24 -23
56 -40 56 -5 0 -14 2 -22 4 -7 2 -23 1 -34 -1z m56 -32 c15 -29 13 -31 -30
-31 -22 0 -40 3 -40 6 0 18 24 44 40 44 11 0 24 -9 30 -19z"/>
<path d="M4172 4570 c-14 -6 -22 -17 -20 -27 5 -25 29 -28 35 -4 8 30 47 25
51 -6 3 -19 -1 -23 -22 -23 -60 0 -101 -44 -69 -75 17 -17 74 -20 90 -4 8 8
13 8 17 0 9 -14 56 -15 56 -1 0 6 -4 10 -9 10 -5 0 -11 23 -13 51 -3 28 -12
57 -19 65 -19 18 -69 26 -97 14z m68 -95 c0 -25 -26 -46 -47 -38 -21 8 -15 39
10 51 33 16 37 14 37 -13z"/>
<path d="M4535 4572 c-11 -2 -26 -9 -32 -14 -9 -7 -13 -7 -13 1 0 6 -15 11
-32 11 -30 -1 -31 -2 -15 -14 23 -18 25 -116 2 -116 -8 0 -15 -4 -15 -10 0 -5
20 -10 45 -10 25 0 45 5 45 10 0 6 -4 10 -10 10 -17 0 -12 87 6 104 32 32 44
20 44 -44 0 -33 -4 -60 -10 -60 -5 0 -10 -4 -10 -10 0 -5 20 -10 45 -10 25 0
45 5 45 10 0 6 -4 10 -10 10 -5 0 -10 18 -10 39 0 75 -23 104 -75 93z"/>
<path d="M4678 4572 c-26 -3 -41 -22 -18 -22 6 0 10 -25 10 -55 0 -30 -4 -55
-10 -55 -5 0 -10 -4 -10 -10 0 -5 18 -10 40 -10 22 0 40 5 40 10 0 6 -4 10
-10 10 -5 0 -10 30 -12 68 -3 67 -3 67 -30 64z"/>
<path d="M4846 4565 c-14 -8 -26 -10 -26 -4 0 5 -13 9 -30 9 -16 0 -30 -4 -30
-10 0 -5 5 -10 10 -10 6 0 10 -25 10 -55 0 -30 -4 -55 -10 -55 -5 0 -10 -4
-10 -10 0 -5 18 -10 40 -10 22 0 40 5 40 10 0 6 -4 10 -10 10 -18 0 -11 86 8
103 37 33 52 16 52 -59 0 -32 -4 -44 -15 -44 -8 0 -15 -4 -15 -10 0 -5 20 -10
45 -10 25 0 45 5 45 10 0 6 -4 10 -10 10 -5 0 -10 24 -10 54 0 31 -5 58 -12
63 -25 19 -46 21 -72 8z"/>
<path d="M5024 4571 c-38 -7 -44 -21 -41 -87 2 -35 0 -64 -5 -64 -5 0 -8 -10
-6 -22 4 -32 44 -50 97 -43 49 6 71 19 71 44 0 33 -19 46 -76 51 -65 6 -85 25
-25 25 50 0 74 20 69 57 -4 22 -2 25 9 16 10 -8 17 -8 25 0 7 7 9 15 5 18 -8
8 -91 11 -123 5z m41 -46 c0 -23 -5 -31 -22 -33 -19 -3 -23 1 -23 26 0 33 8
44 30 40 9 -2 15 -14 15 -33z m26 -116 c29 -15 6 -39 -36 -39 -39 0 -67 26
-44 41 19 12 56 11 80 -2z"/>
<path d="M6292 4570 c-14 -6 -22 -17 -20 -27 5 -25 29 -28 35 -4 8 30 47 25
51 -6 3 -19 -1 -23 -22 -23 -60 0 -101 -44 -69 -75 17 -17 74 -20 90 -4 8 8
13 8 17 0 9 -14 56 -15 56 -1 0 6 -4 10 -9 10 -5 0 -11 23 -13 51 -3 28 -12
57 -19 65 -19 18 -69 26 -97 14z m68 -95 c0 -25 -26 -46 -47 -38 -21 8 -15 39
10 51 33 16 37 14 37 -13z"/>
<path d="M6814 4565 c-77 -33 -48 -145 38 -145 38 0 68 16 68 37 0 15 -2 15
-18 0 -27 -25 -71 -22 -81 6 -8 21 -6 22 48 27 53 5 56 6 53 30 -5 47 -55 68
-108 45z m70 -27 c14 -23 5 -30 -37 -26 -31 3 -34 5 -26 26 10 27 46 27 63 0z"/>
<path d="M8538 4572 c-26 -3 -41 -22 -18 -22 6 0 10 -25 10 -55 0 -30 -4 -55
-10 -55 -5 0 -10 -4 -10 -10 0 -5 20 -10 45 -10 25 0 45 5 45 10 0 6 -7 10
-16 10 -14 0 -16 8 -11 46 5 51 27 80 51 71 12 -5 16 -21 16 -62 0 -30 -4 -55
-10 -55 -5 0 -10 -4 -10 -10 0 -5 18 -10 40 -10 22 0 40 5 40 10 0 6 -4 10
-10 10 -5 0 -10 24 -10 53 0 28 -4 58 -9 65 -10 17 -66 19 -85 3 -11 -9 -15
-9 -18 1 -2 8 -14 12 -30 10z"/>
<path d="M8764 4565 c-77 -32 -46 -145 39 -145 36 0 88 32 75 46 -5 4 -16 0
-26 -9 -34 -31 -82 -17 -82 23 0 5 24 10 52 12 59 3 72 20 41 55 -24 28 -61
35 -99 18z m64 -17 c23 -23 13 -38 -23 -38 -22 0 -35 5 -35 13 0 16 20 37 35
37 6 0 16 -5 23 -12z"/>
<path d="M9585 4572 c-11 -2 -26 -9 -32 -14 -9 -7 -13 -7 -13 1 0 6 -15 11
-32 11 -30 -1 -31 -2 -15 -14 23 -18 25 -116 2 -116 -8 0 -15 -4 -15 -10 0 -5
20 -10 45 -10 25 0 45 5 45 10 0 6 -4 10 -10 10 -17 0 -12 87 6 104 32 32 44
20 44 -44 0 -33 -4 -60 -10 -60 -5 0 -10 -4 -10 -10 0 -5 20 -10 45 -10 25 0
45 5 45 10 0 6 -4 10 -10 10 -5 0 -10 18 -10 39 0 75 -23 104 -75 93z"/>
<path d="M9728 4572 c-26 -3 -41 -22 -18 -22 6 0 10 -25 10 -55 0 -30 -4 -55
-10 -55 -5 0 -10 -4 -10 -10 0 -5 18 -10 40 -10 22 0 40 5 40 10 0 6 -4 10
-10 10 -5 0 -10 30 -12 68 -3 67 -3 67 -30 64z"/>
<path d="M9896 4565 c-14 -8 -26 -10 -26 -4 0 5 -13 9 -30 9 -16 0 -30 -4 -30
-10 0 -5 5 -10 10 -10 6 0 10 -25 10 -55 0 -30 -4 -55 -10 -55 -5 0 -10 -4
-10 -10 0 -5 18 -10 40 -10 22 0 40 5 40 10 0 6 -4 10 -10 10 -18 0 -11 86 8
103 37 33 52 16 52 -59 0 -32 -4 -44 -15 -44 -8 0 -15 -4 -15 -10 0 -5 20 -10
45 -10 25 0 45 5 45 10 0 6 -4 10 -10 10 -5 0 -10 24 -10 54 0 31 -5 58 -12
63 -25 19 -46 21 -72 8z"/>
<path d="M10074 4571 c-38 -7 -44 -21 -41 -87 2 -35 0 -64 -5 -64 -5 0 -8 -10
-6 -22 4 -32 44 -50 97 -43 49 6 71 19 71 44 0 33 -19 46 -76 51 -65 6 -85 25
-25 25 50 0 74 20 69 57 -4 22 -2 25 9 16 10 -8 17 -8 25 0 7 7 9 15 5 18 -8
8 -91 11 -123 5z m41 -46 c0 -23 -5 -31 -22 -33 -19 -3 -23 1 -23 26 0 33 8
44 30 40 9 -2 15 -14 15 -33z m26 -116 c29 -15 6 -39 -36 -39 -39 0 -67 26
-44 41 19 12 56 11 80 -2z"/>
<path d="M11998 4570 c-23 -14 -24 -50 -2 -50 9 0 18 9 21 21 8 28 47 22 51
-8 3 -19 -1 -23 -22 -23 -62 0 -107 -50 -70 -77 22 -16 76 -17 91 -2 8 8 13 8
17 0 9 -13 56 -15 56 -2 0 5 -7 11 -15 15 -11 4 -15 20 -15 54 0 28 -6 54 -12
60 -20 16 -81 23 -100 12z m72 -95 c0 -25 -26 -46 -47 -38 -21 8 -15 43 10 53
34 13 37 12 37 -15z"/>
<path d="M12398 4572 c-26 -3 -41 -22 -18 -22 6 0 10 -22 10 -50 0 -39 -4 -51
-20 -60 -32 -17 -40 -4 -40 66 l0 64 -35 0 c-19 0 -35 -4 -35 -10 0 -5 4 -10
9 -10 5 0 11 -25 13 -56 3 -32 11 -59 19 -64 17 -11 159 -12 159 -1 0 5 -7 11
-15 14 -10 4 -15 25 -17 69 -3 62 -3 63 -30 60z"/>
<path d="M12533 4573 c-29 -6 -63 -49 -63 -80 0 -62 103 -99 145 -53 10 11 15
23 11 27 -4 5 -12 0 -17 -10 -18 -32 -89 -16 -89 20 0 9 17 13 55 13 51 0 55
2 55 23 0 40 -48 69 -97 60z m45 -25 c23 -23 13 -38 -23 -38 -22 0 -35 5 -35
13 0 16 20 37 35 37 6 0 16 -5 23 -12z"/>
<path d="M2230 4560 c0 -5 6 -10 13 -10 6 0 25 -30 41 -65 16 -36 34 -65 41
-65 7 0 26 29 41 65 16 36 34 65 41 65 7 0 13 5 13 10 0 6 -14 10 -31 10 -24
0 -29 -4 -25 -17 3 -10 -3 -33 -13 -52 l-18 -33 -13 33 c-8 18 -13 41 -13 51
1 15 -6 18 -38 18 -21 0 -39 -4 -39 -10z"/>
<path d="M2453 4552 c22 -25 24 -112 2 -112 -8 0 -15 -4 -15 -10 0 -5 21 -10
48 -10 41 1 45 2 30 14 -14 10 -18 28 -18 75 l0 61 -32 0 c-29 0 -30 -1 -15
-18z"/>
<path d="M3490 4559 c0 -5 5 -9 10 -9 6 0 10 -25 10 -55 0 -30 -4 -55 -10 -55
-5 0 -10 -4 -10 -10 0 -5 20 -10 45 -10 25 0 45 5 45 10 0 6 -7 10 -15 10 -11
0 -15 11 -15 43 0 57 12 76 35 53 13 -12 20 -14 30 -6 8 6 11 18 9 25 -6 16
-134 20 -134 4z"/>
<path d="M3980 4559 c0 -5 5 -9 10 -9 6 0 10 -25 10 -55 0 -30 -4 -55 -10 -55
-5 0 -10 -4 -10 -10 0 -5 20 -10 45 -10 25 0 45 5 45 10 0 6 -7 10 -15 10 -11
0 -15 11 -15 43 0 57 12 76 35 53 13 -12 20 -14 30 -6 8 6 11 18 9 25 -6 16
-134 20 -134 4z"/>
<path d="M4330 4560 c0 -5 5 -10 10 -10 6 0 10 -25 10 -55 0 -30 -4 -55 -10
-55 -5 0 -10 -4 -10 -10 0 -5 18 -10 40 -10 22 0 40 5 40 10 0 6 -4 10 -10 10
-6 0 -10 28 -10 65 l0 65 -30 0 c-16 0 -30 -4 -30 -10z"/>
<path d="M6560 4560 c0 -5 5 -10 10 -10 6 0 10 -24 10 -54 0 -31 5 -58 13 -64
15 -13 157 -14 157 -1 0 5 -4 9 -10 9 -6 0 -10 28 -10 65 l0 65 -37 0 c-34 -1
-36 -2 -20 -14 24 -18 23 -80 -3 -106 -34 -34 -50 -16 -50 56 l0 64 -30 0
c-16 0 -30 -4 -30 -10z"/>
<path d="M8413 4552 c22 -25 24 -112 2 -112 -8 0 -15 -4 -15 -10 0 -5 21 -10
48 -10 41 1 45 2 30 14 -14 10 -18 28 -18 75 l0 61 -32 0 c-29 0 -30 -1 -15
-18z"/>
<path d="M1100 4495 c0 -12 13 -15 55 -15 42 0 55 3 55 15 0 12 -13 15 -55 15
-42 0 -55 -3 -55 -15z"/>
<path d="M8890 4495 c0 -12 13 -15 55 -15 42 0 55 3 55 15 0 12 -13 15 -55 15
-42 0 -55 -3 -55 -15z"/>
<path d="M300 4220 c0 -7 2170 -10 6490 -10 4320 0 6490 3 6490 10 0 7 -2170
10 -6490 10 -4320 0 -6490 -3 -6490 -10z"/>
<path d="M7955 2655 c0 -808 1 -1138 2 -732 2 406 2 1068 0 1470 -1 403 -2 71
-2 -738z"/>
<path d="M5585 4036 c-37 -40 -47 -81 -29 -131 16 -49 30 -63 74 -76 71 -22
140 36 140 118 0 108 -114 163 -185 89z m120 -1 c34 -33 36 -128 4 -169 -59
-76 -153 25 -119 128 21 65 73 84 115 41z"/>
<path d="M5868 4054 c-58 -31 -77 -127 -36 -179 21 -27 73 -55 102 -55 21 0
73 46 79 70 3 11 1 20 -4 20 -5 0 -9 -7 -9 -15 0 -25 -38 -55 -70 -55 -50 0
-80 38 -80 102 0 56 16 90 51 109 32 17 76 -6 91 -47 15 -43 28 -34 28 22 0
41 -13 59 -23 32 -3 -10 -9 -10 -26 0 -27 16 -70 15 -103 -4z"/>
<path d="M7002 4054 c-15 -10 -22 -25 -22 -48 0 -39 23 -63 68 -72 38 -8 55
-26 50 -55 -8 -53 -80 -50 -103 4 l-14 32 0 -50 c-1 -29 3 -45 7 -37 6 9 16
10 40 1 40 -14 83 5 96 44 15 42 -9 78 -63 97 -59 20 -73 43 -44 72 19 19 26
20 48 10 14 -7 32 -27 40 -45 l14 -32 1 49 c0 41 -2 47 -14 37 -10 -8 -16 -9
-21 -1 -9 15 -57 12 -83 -6z"/>
<path d="M11301 4045 c-78 -66 -57 -188 38 -216 48 -14 85 1 118 50 74 110
-57 249 -156 166z m113 -16 c52 -61 22 -189 -44 -189 -56 0 -91 66 -76 145 7
36 46 75 76 75 10 0 30 -14 44 -31z"/>
<path d="M11555 4037 c-41 -41 -52 -90 -32 -140 19 -45 56 -69 108 -71 33 -1
46 5 65 27 13 16 24 38 23 50 -1 21 -1 20 -12 -4 -20 -44 -38 -59 -71 -59 -44
0 -77 37 -83 93 -13 114 101 172 143 72 8 -19 16 -35 19 -35 3 0 5 23 5 51 0
44 -2 50 -14 40 -11 -9 -20 -9 -35 -2 -39 21 -81 13 -116 -22z"/>
<path d="M12705 4050 c-38 -41 -12 -103 49 -116 41 -8 56 -22 56 -48 0 -29
-18 -46 -50 -46 -30 0 -60 27 -60 54 0 9 -4 14 -10 11 -5 -3 -10 -22 -10 -42
0 -27 3 -34 15 -29 8 3 28 0 44 -5 63 -22 118 39 89 98 -9 18 -25 31 -50 38
-49 13 -72 37 -64 63 15 45 77 35 99 -16 l11 -27 4 39 c4 40 -4 58 -16 39 -5
-8 -13 -9 -22 -3 -25 16 -66 11 -85 -10z"/>
<path d="M503 4053 c15 -4 17 -18 17 -103 0 -84 -3 -101 -17 -109 -24 -14 115
-15 151 -1 71 26 86 139 27 192 -29 26 -37 28 -114 27 -45 -1 -74 -3 -64 -6z
m152 -28 c19 -18 25 -35 25 -69 0 -64 -14 -92 -51 -105 -68 -24 -69 -23 -69
94 l0 105 35 0 c25 0 44 -8 60 -25z"/>
<path d="M6050 4043 c0 -10 -3 -29 -7 -42 -4 -17 -3 -22 5 -17 7 4 12 16 12
27 0 22 41 45 64 36 13 -5 16 -24 16 -101 0 -94 0 -94 -27 -104 -23 -9 -16
-10 42 -10 58 0 65 1 43 10 -28 10 -28 10 -28 109 0 97 1 99 23 99 31 0 55
-20 60 -50 3 -16 5 -9 6 18 l1 42 -105 0 c-93 0 -105 -2 -105 -17z"/>
<path d="M6303 4053 c15 -4 17 -17 17 -100 0 -80 -3 -98 -17 -109 -16 -12 -13
-13 27 -13 40 0 43 1 28 13 -15 11 -18 29 -18 97 l1 84 35 -90 c19 -49 39 -94
43 -98 5 -5 25 35 46 88 20 53 35 98 32 101 -2 2 -17 -29 -33 -71 -16 -41 -31
-71 -35 -67 -3 4 -21 44 -39 90 l-32 82 -37 -1 c-20 -1 -28 -3 -18 -6z"/>
<path d="M6508 3958 c4 -89 2 -103 -14 -115 -16 -11 -11 -13 37 -12 42 0 49 2
32 9 -22 9 -23 15 -23 109 0 95 1 100 23 104 12 2 5 5 -18 6 l-41 1 4 -102z"/>
<path d="M6608 4053 c21 -4 22 -9 22 -104 0 -79 -3 -99 -14 -99 -8 0 -18 -4
-21 -10 -4 -6 12 -10 42 -10 48 0 48 0 25 18 -21 16 -23 24 -20 101 l3 83 70
-103 70 -102 2 89 c4 110 8 131 31 137 9 3 -3 5 -27 6 -39 1 -42 -1 -27 -12
14 -10 16 -25 14 -81 l-3 -69 -55 82 c-54 80 -55 81 -95 80 -23 -1 -30 -4 -17
-6z"/>
<path d="M6863 4053 c15 -4 17 -18 17 -103 0 -84 -3 -101 -17 -109 -14 -8 -5
-10 37 -10 42 0 51 2 38 10 -15 8 -18 25 -18 109 0 85 2 99 18 103 9 3 -8 5
-38 5 -30 0 -47 -2 -37 -5z"/>
<path d="M7161 4018 c1 -41 1 -41 9 -14 10 34 25 46 58 46 22 0 23 -2 20 -102
-3 -99 -4 -102 -28 -109 -16 -4 1 -7 45 -7 51 -1 64 2 48 8 -22 9 -23 15 -23
110 l0 101 28 -3 c19 -2 32 -13 45 -38 l18 -35 -3 40 -3 40 -107 3 -108 3 1
-43z"/>
<path d="M8168 4050 c21 -9 22 -15 22 -105 0 -90 -1 -96 -22 -105 -17 -6 0 -9
61 -9 81 -1 84 0 117 33 28 28 34 42 34 76 0 47 -13 77 -44 102 -16 14 -40 17
-106 17 -61 0 -79 -3 -62 -9z m147 -22 c21 -19 26 -32 27 -75 2 -65 -19 -98
-67 -107 -19 -4 -40 -4 -45 -1 -6 3 -10 51 -10 106 l0 99 34 0 c22 0 45 -9 61
-22z"/>
<path d="M11756 4044 c-3 -9 -6 -28 -6 -42 0 -26 1 -26 18 8 12 25 25 36 45
38 l27 3 0 -101 c0 -95 -1 -101 -22 -110 -17 -6 -4 -9 47 -8 44 0 61 3 45 7
-24 7 -25 10 -28 109 -3 100 -2 102 20 102 33 0 48 -12 58 -46 8 -27 8 -27 9
14 l1 42 -104 0 c-85 0 -105 -3 -110 -16z"/>
<path d="M12008 4050 c20 -9 22 -15 22 -98 0 -82 -2 -91 -22 -105 -22 -15 -22
-16 25 -16 30 -1 46 3 42 9 -3 6 -13 10 -21 10 -11 0 -14 18 -13 93 l0 92 41
-102 c22 -57 43 -101 47 -98 5 2 23 44 41 92 18 48 37 92 42 98 4 5 8 -30 8
-77 0 -78 -2 -88 -22 -102 -21 -15 -20 -16 32 -16 42 1 51 3 38 11 -15 8 -18
25 -18 109 0 85 2 99 18 103 9 3 -1 5 -22 4 l-39 -2 -31 -82 c-17 -45 -34 -84
-37 -88 -4 -3 -22 35 -40 85 l-33 90 -41 -1 c-34 0 -37 -2 -17 -9z"/>
<path d="M12318 4053 c21 -4 22 -9 22 -97 0 -86 -2 -95 -22 -109 -22 -16 -22
-16 20 -16 23 -1 42 4 42 9 0 6 -7 10 -15 10 -12 0 -15 17 -15 92 l0 92 55
-79 c31 -44 64 -91 75 -105 l19 -25 0 108 c1 102 2 108 24 117 17 7 12 9 -28
9 -40 0 -45 -2 -27 -9 20 -8 22 -16 22 -80 0 -39 -4 -69 -9 -66 -4 3 -30 39
-57 81 -48 73 -50 75 -89 74 -23 -1 -30 -4 -17 -6z"/>
<path d="M12568 4053 c21 -4 22 -9 22 -104 0 -94 -1 -100 -22 -109 -18 -7 -9
-9 37 -9 50 0 56 2 38 11 -21 10 -23 17 -23 105 0 88 1 94 23 103 16 6 7 9
-38 8 -33 0 -50 -3 -37 -5z"/>
<path d="M12871 4018 c1 -41 1 -41 9 -14 10 34 25 46 58 46 21 0 22 -3 22 -99
0 -99 0 -99 -27 -109 -23 -9 -16 -10 42 -10 59 0 66 1 42 10 l-28 10 3 96 c3
93 4 97 26 100 28 4 52 -14 52 -39 0 -11 5 -19 11 -19 7 0 9 9 5 23 -3 12 -6
28 -6 35 0 9 -28 12 -105 12 l-105 0 1 -42z"/>
<path d="M952 4023 c-1 -12 -11 -28 -22 -36 -18 -12 -18 -15 -5 -20 11 -5 15
-20 15 -56 0 -64 7 -81 34 -81 28 0 46 18 45 45 0 16 -2 15 -11 -7 -13 -38
-36 -35 -43 5 -11 58 -3 90 25 98 l25 7 -27 1 c-22 1 -27 6 -31 34 -2 18 -4
22 -5 10z"/>
<path d="M1533 4018 c-7 -14 -20 -31 -30 -37 -17 -10 -17 -10 0 -11 14 0 17
-10 17 -58 0 -62 11 -82 46 -82 22 0 35 18 33 48 -1 10 -4 6 -8 -8 -4 -14 -13
-25 -21 -25 -11 0 -16 16 -18 62 -3 57 -1 62 20 66 22 4 22 4 1 6 -17 1 -23 8
-25 34 l-4 32 -11 -27z"/>
<path d="M8616 4017 c-5 -15 -16 -32 -25 -37 -9 -6 -11 -10 -3 -10 8 0 12 -17
12 -53 0 -63 16 -90 51 -85 19 2 24 9 26 33 2 28 1 28 -5 5 -5 -14 -14 -25
-22 -25 -11 0 -16 16 -18 62 -3 61 -2 62 25 66 l28 4 -27 2 c-22 1 -27 6 -30
34 l-4 32 -8 -28z"/>
<path d="M9202 4028 c-1 -10 -11 -27 -21 -37 -15 -15 -17 -21 -6 -25 9 -3 15
-26 17 -68 3 -58 5 -63 27 -66 15 -3 30 3 38 14 15 21 17 44 3 44 -5 0 -10 -9
-10 -19 0 -11 -5 -23 -11 -27 -18 -11 -29 18 -27 71 3 43 6 50 28 56 l25 7
-27 1 c-22 1 -27 6 -31 34 -2 17 -5 24 -5 15z"/>
<path d="M772 3968 c-17 -17 -15 -38 3 -38 8 0 15 9 15 20 0 27 36 27 50 0 9
-17 8 -21 -7 -26 -76 -24 -98 -49 -73 -79 14 -17 66 -20 75 -5 4 6 13 5 26 -3
17 -10 22 -9 35 7 16 23 18 36 4 36 -5 0 -10 -9 -10 -21 0 -11 -4 -17 -10 -14
-5 3 -10 30 -10 59 0 60 -12 76 -55 76 -17 0 -36 -5 -43 -12z m78 -67 c0 -29
-21 -61 -40 -61 -31 0 -37 30 -11 52 25 19 51 24 51 9z"/>
<path d="M1072 3968 c-17 -17 -15 -38 3 -38 8 0 15 9 15 20 0 27 36 27 50 0 9
-17 8 -21 -7 -26 -76 -24 -98 -49 -73 -79 14 -17 66 -20 75 -5 4 6 13 5 26 -3
17 -10 22 -9 35 7 11 15 14 16 14 4 0 -11 12 -15 50 -17 40 -1 51 2 60 19 17
32 3 57 -40 74 -47 19 -54 46 -12 46 20 0 32 -7 40 -22 10 -23 11 -23 11 5 1
25 -1 27 -44 27 -78 0 -81 -59 -4 -84 45 -15 49 -51 5 -51 -25 0 -40 13 -52
43 -5 11 -34 -14 -34 -30 0 -10 -4 -16 -10 -13 -5 3 -10 30 -10 59 0 60 -12
76 -55 76 -17 0 -36 -5 -43 -12z m78 -67 c0 -29 -21 -61 -40 -61 -31 0 -37 30
-11 52 25 19 51 24 51 9z"/>
<path d="M1370 3960 c-44 -44 -9 -130 52 -130 28 0 58 23 57 43 0 7 -7 2 -16
-10 -19 -28 -44 -29 -66 -5 -32 36 -22 52 33 52 43 0 50 3 50 19 0 48 -72 69
-110 31z m81 -17 c8 -21 6 -23 -31 -23 -44 0 -45 2 -29 31 14 26 49 21 60 -8z"/>
<path d="M8430 3965 c-9 -11 -10 -19 -2 -27 14 -14 33 -1 25 17 -6 18 27 21
45 3 21 -21 13 -36 -22 -42 -44 -8 -74 -41 -59 -64 8 -13 26 -17 74 -18 64 -2
79 6 78 36 0 8 -5 4 -10 -10 -14 -35 -29 -9 -29 51 0 25 -5 50 -12 57 -17 17
-73 15 -88 -3z m80 -78 c0 -28 -17 -47 -42 -47 -30 0 -34 31 -9 52 31 25 51
23 51 -5z"/>
<path d="M8730 3965 c-9 -11 -10 -19 -2 -27 14 -14 33 -1 25 17 -6 18 27 21
45 3 21 -21 13 -36 -22 -42 -44 -8 -74 -41 -59 -64 8 -13 26 -17 74 -18 64 -2
79 6 78 36 0 8 -5 4 -10 -10 -14 -35 -29 -9 -29 51 0 25 -5 50 -12 57 -17 17
-73 15 -88 -3z m80 -78 c0 -28 -17 -47 -42 -47 -30 0 -34 31 -9 52 31 25 51
23 51 -5z"/>
<path d="M8892 3968 c-25 -25 -13 -48 34 -68 52 -23 58 -53 11 -58 -21 -3 -29
2 -37 22 -12 34 -20 33 -20 -2 0 -27 3 -29 41 -30 48 -2 69 11 69 43 0 26 -13
38 -55 52 -38 12 -39 37 -2 41 21 3 29 -2 36 -20 10 -23 10 -22 10 5 1 25 -2
27 -37 27 -21 0 -43 -5 -50 -12z"/>
<path d="M9044 3972 c-16 -10 -34 -48 -34 -70 0 -11 9 -31 21 -46 33 -41 109
-32 109 13 0 11 -5 9 -16 -7 -8 -12 -24 -22 -34 -22 -20 0 -50 35 -50 57 0 9
16 13 50 13 53 0 61 10 40 51 -11 19 -63 27 -86 11z m66 -23 c15 -27 10 -31
-33 -27 -31 3 -34 5 -26 26 11 28 45 29 59 1z"/>
<path d="M8972 3641 c-11 -7 -11 -9 2 -14 25 -10 23 -192 -1 -206 -14 -8 -8
-10 27 -10 35 0 41 2 28 10 -15 9 -18 26 -18 119 0 112 -4 123 -38 101z"/>
<path d="M9157 3644 c-3 -4 0 -13 8 -21 8 -8 15 -27 15 -43 0 -27 -2 -28 -35
-23 -70 11 -113 -73 -65 -124 16 -18 31 -22 87 -22 50 0 63 3 51 10 -16 9 -18
26 -18 119 0 100 -2 110 -18 110 -10 0 -21 -3 -25 -6z m-3 -100 c19 -7 22 -94
4 -112 -31 -31 -68 -1 -68 53 0 52 24 74 64 59z"/>
<path d="M496 3624 c-3 -9 -6 -28 -6 -42 0 -26 1 -26 18 8 12 25 25 36 45 38
l27 3 0 -101 c0 -95 -1 -101 -22 -110 -17 -6 -4 -9 47 -8 44 0 61 3 45 7 -24
7 -25 10 -28 109 l-3 102 25 0 c31 0 56 -25 56 -56 0 -14 7 -27 15 -30 23 -9
21 -110 -2 -123 -14 -8 -7 -10 32 -11 49 0 49 0 26 16 -20 14 -22 22 -17 57 9
54 24 73 41 51 8 -12 14 -14 19 -6 17 28 -28 44 -52 20 -9 -9 -12 -9 -12 0 0
7 -9 12 -20 12 -17 0 -20 7 -20 40 l0 40 -104 0 c-85 0 -105 -3 -110 -16z"/>
<path d="M1024 3629 c-10 -17 13 -36 27 -22 12 12 4 33 -11 33 -5 0 -12 -5
-16 -11z"/>
<path d="M6037 3619 c-24 -18 -28 -28 -25 -62 4 -51 43 -86 77 -68 19 10 21 9
21 -13 0 -13 -7 -32 -16 -40 -21 -22 -52 -21 -50 2 0 9 -6 17 -14 17 -25 0
-17 -28 12 -44 25 -14 29 -14 55 5 50 37 67 149 30 197 -21 28 -60 30 -90 6z
m57 -5 c16 -15 21 -69 10 -98 -3 -9 -16 -16 -29 -16 -26 0 -35 17 -35 65 0 28
20 65 35 65 2 0 11 -7 19 -16z"/>
<path d="M6185 3622 c-3 -7 -5 -23 -5 -35 1 -20 2 -20 11 -4 7 12 23 17 56 17
l45 0 -18 -27 c-34 -52 -48 -87 -48 -123 -2 -61 17 -48 29 20 7 41 21 81 39
108 16 23 27 44 25 46 -2 2 -32 6 -66 8 -47 3 -64 1 -68 -10z"/>
<path d="M6525 3623 c-5 -10 -7 -46 -6 -80 l3 -63 -36 0 c-35 0 -36 1 -25 23
7 12 21 35 32 50 10 16 17 30 15 33 -5 4 -78 -100 -78 -111 0 -3 20 -5 45 -5
38 0 45 -3 45 -20 0 -10 -8 -24 -17 -29 -14 -8 -7 -10 32 -10 39 0 46 2 33 10
-10 5 -18 18 -18 29 0 10 8 21 18 23 16 4 16 5 0 6 -16 1 -18 12 -18 81 0 77
-9 100 -25 63z"/>
<path d="M6615 3622 c-3 -7 -5 -23 -5 -35 1 -20 2 -20 11 -4 7 12 23 17 56 17
l45 0 -18 -27 c-34 -52 -48 -87 -48 -123 -2 -61 17 -48 29 20 7 41 21 81 39
108 16 23 27 44 25 46 -2 2 -32 6 -66 8 -47 3 -64 1 -68 -10z"/>
<path d="M6785 3622 c-3 -7 -5 -23 -5 -35 1 -20 2 -20 11 -4 7 12 23 17 56 17
l45 0 -18 -27 c-34 -52 -48 -87 -48 -123 -2 -61 17 -48 29 20 7 41 21 81 39
108 16 23 27 44 25 46 -2 2 -32 6 -66 8 -47 3 -64 1 -68 -10z"/>
<path d="M8203 3625 c-37 -10 -45 -28 -10 -23 21 3 22 0 22 -82 0 -80 -1 -85
-25 -97 -23 -12 -20 -13 35 -12 50 0 56 2 38 11 -21 10 -23 19 -25 112 l-3
101 -32 -10z"/>
<path d="M8361 3623 c-38 -31 -48 -130 -19 -185 25 -51 98 -41 117 14 40 114
-26 229 -98 171z m66 -24 c15 -28 17 -117 4 -152 -12 -31 -36 -40 -56 -21 -23
24 -21 179 3 193 23 14 35 9 49 -20z"/>
<path d="M8618 3630 c21 -9 22 -15 22 -103 0 -88 -2 -95 -22 -105 -19 -9 -13
-11 37 -11 46 0 55 2 38 9 -19 8 -23 17 -23 55 0 42 2 45 25 45 17 0 29 -7 35
-22 7 -18 9 -13 9 27 -1 28 -3 43 -6 35 -8 -19 -23 -30 -45 -30 -15 0 -18 9
-18 50 l0 50 38 0 c45 0 62 -10 78 -47 10 -22 13 -24 13 -8 0 11 -2 30 -5 43
-6 21 -11 22 -103 21 -68 0 -89 -3 -73 -9z"/>
<path d="M9361 3598 c1 -41 1 -41 9 -14 10 34 25 46 58 46 22 0 23 -2 20 -102
-3 -99 -4 -102 -28 -109 -16 -4 1 -7 45 -7 51 -1 64 2 48 8 -22 9 -23 15 -23
110 0 99 0 100 24 100 27 0 56 -33 56 -63 0 -9 7 -20 15 -23 23 -9 21 -110 -2
-123 -14 -8 -9 -10 26 -11 40 0 43 1 26 13 -14 11 -17 23 -13 61 7 59 22 78
41 51 10 -12 16 -14 21 -7 17 28 -28 44 -52 20 -9 -9 -12 -9 -12 0 0 7 -9 12
-19 12 -16 0 -20 8 -23 38 l-3 37 -107 3 -108 3 1 -43z"/>
<path d="M9890 3620 c0 -11 7 -20 15 -20 8 0 15 9 15 20 0 11 -7 20 -15 20 -8
0 -15 -9 -15 -20z"/>
<path d="M11885 3623 c-5 -10 -7 -46 -6 -80 l3 -63 -36 0 c-35 0 -36 1 -25 23
7 12 21 35 32 50 10 16 17 30 15 33 -5 4 -78 -100 -78 -111 0 -3 20 -5 45 -5
38 0 45 -3 45 -20 0 -10 -8 -24 -17 -29 -14 -8 -7 -10 32 -10 39 0 46 2 33 10
-10 5 -18 18 -18 29 0 10 8 21 18 23 16 4 16 5 0 6 -16 1 -18 12 -18 81 0 77
-9 100 -25 63z"/>
<path d="M12080 3576 c0 -50 2 -57 14 -46 8 6 25 10 38 8 19 -2 23 -10 26 -46
5 -62 -25 -89 -67 -63 -13 8 -13 12 -1 26 12 14 12 18 -1 25 -7 5 -18 5 -22 1
-14 -14 -4 -43 23 -63 51 -38 121 19 105 85 -10 37 -29 50 -70 45 -33 -4 -35
-2 -35 24 0 25 4 28 33 28 29 0 57 14 57 30 0 3 -22 5 -50 5 l-50 0 0 -59z"/>
<path d="M12261 3623 c-38 -31 -48 -130 -19 -185 25 -51 98 -41 117 14 40 114
-26 229 -98 171z m66 -24 c15 -28 17 -117 4 -152 -12 -31 -36 -40 -56 -21 -23
24 -21 179 3 193 23 14 35 9 49 -20z"/>
<path d="M12431 3623 c-38 -31 -48 -130 -19 -185 25 -51 98 -41 117 14 40 114
-26 229 -98 171z m66 -24 c15 -28 17 -117 4 -152 -12 -31 -36 -40 -56 -21 -23
24 -21 179 3 193 23 14 35 9 49 -20z"/>
<path d="M862 3548 c-17 -17 -15 -38 3 -38 8 0 15 9 15 20 0 27 36 27 50 0 9
-17 8 -21 -7 -26 -76 -24 -98 -49 -73 -79 14 -17 66 -20 75 -5 4 6 13 5 26 -3
17 -10 22 -9 35 7 16 23 18 36 4 36 -5 0 -10 -9 -10 -21 0 -11 -4 -17 -10 -14
-5 3 -10 30 -10 59 0 60 -12 76 -55 76 -17 0 -36 -5 -43 -12z m78 -67 c0 -29
-21 -61 -40 -61 -31 0 -37 30 -11 52 25 19 51 24 51 9z"/>
<path d="M1010 3550 c0 -5 5 -10 10 -10 6 0 10 -25 10 -55 0 -41 -4 -56 -17
-64 -14 -8 -9 -10 27 -11 34 0 41 3 32 12 -7 7 -12 39 -12 75 0 61 -1 63 -25
63 -14 0 -25 -4 -25 -10z"/>
<path d="M1100 3551 c0 -5 7 -11 15 -15 23 -8 21 -102 -2 -115 -14 -8 -8 -10
27 -10 35 0 41 2 28 10 -26 15 -25 90 2 114 33 30 50 13 50 -49 0 -42 -4 -57
-17 -65 -14 -8 -9 -10 27 -11 34 0 41 3 32 12 -7 7 -12 29 -12 49 0 61 -15 89
-48 89 -15 0 -33 -5 -40 -12 -9 -9 -12 -9 -12 0 0 7 -11 12 -25 12 -14 0 -25
-4 -25 -9z"/>
<path d="M8815 3540 c-11 -12 -19 -36 -19 -55 0 -45 28 -75 71 -75 63 0 96 73
57 128 -20 30 -83 31 -109 2z m84 -4 c18 -21 10 -97 -11 -110 -25 -15 -50 3
-62 42 -16 56 40 108 73 68z"/>
<path d="M9727 3553 c-13 -13 -7 -43 9 -43 12 0 15 6 11 21 -5 17 -1 20 21 17
19 -2 28 -10 30 -24 2 -17 -4 -23 -29 -28 -18 -3 -38 -11 -46 -17 -18 -16 -16
-56 3 -63 25 -9 62 -7 69 4 5 8 11 7 21 -1 20 -16 44 -3 43 23 -1 17 -2 18 -6
6 -10 -37 -23 -16 -23 37 0 43 -4 56 -19 65 -22 11 -74 14 -84 3z m71 -95 c-2
-28 -7 -33 -28 -33 -30 0 -38 26 -15 49 28 27 47 20 43 -16z"/>
<path d="M9883 3546 c12 -10 17 -27 17 -64 0 -38 -4 -54 -17 -61 -14 -8 -8
-10 27 -10 35 0 41 2 28 10 -14 8 -18 24 -18 74 0 64 0 65 -27 65 -25 -1 -26
-2 -10 -14z"/>
<path d="M9970 3550 c0 -5 5 -10 10 -10 14 0 12 -104 -2 -118 -9 -9 -3 -12 27
-12 30 0 36 3 27 12 -15 15 -16 82 -2 109 15 26 46 24 54 -3 12 -46 7 -97 -11
-107 -14 -8 -9 -10 26 -11 38 0 42 2 28 13 -11 8 -17 30 -19 72 -3 58 -4 60
-31 63 -16 2 -35 -2 -43 -9 -10 -8 -14 -8 -14 0 0 6 -11 11 -25 11 -14 0 -25
-4 -25 -10z"/>
<path d="M8487 3494 c-13 -14 6 -24 44 -24 28 0 39 4 39 15 0 11 -11 15 -38
15 -21 0 -42 -3 -45 -6z"/>
<path d="M6360 3431 c0 -11 7 -21 15 -23 13 -3 13 -6 1 -30 -8 -16 -11 -28 -7
-28 14 0 33 57 26 79 -8 26 -35 28 -35 2z"/>
<path d="M11987 3444 c-12 -13 -7 -34 8 -34 19 0 19 -10 -1 -38 -8 -12 -11
-22 -5 -22 16 0 33 38 29 67 -3 27 -18 39 -31 27z"/>
<path d="M1970 3220 c-13 -8 -12 -10 3 -10 15 0 17 -11 17 -100 0 -84 -3 -101
-17 -109 -14 -8 -9 -10 27 -11 34 0 41 3 32 12 -7 7 -12 33 -12 58 0 49 13 70
42 70 15 0 18 -9 18 -58 0 -32 -5 -63 -12 -70 -9 -9 -2 -12 33 -12 35 1 40 3
27 11 -14 7 -18 23 -18 63 0 63 -15 81 -59 73 -29 -6 -30 -6 -33 41 -3 49 -18
62 -48 42z"/>
<path d="M2291 3204 c-38 -49 -20 -85 53 -110 50 -17 69 -51 46 -79 -26 -31
-100 -6 -100 33 0 6 -4 14 -10 17 -6 4 -10 -12 -10 -41 0 -38 2 -44 14 -35 9
8 22 8 44 0 51 -18 92 11 92 67 0 37 -21 58 -75 76 -32 10 -41 18 -43 40 -7
58 80 60 94 3 10 -39 24 -29 24 15 0 22 -4 40 -10 40 -5 0 -10 -5 -10 -10 0
-7 -6 -7 -19 0 -34 18 -68 12 -90 -16z"/>
<path d="M8972 3221 c-11 -7 -11 -9 2 -14 25 -10 23 -192 -1 -206 -14 -8 -8
-10 27 -10 35 0 41 2 28 10 -15 9 -18 26 -18 119 0 112 -4 123 -38 101z"/>
<path d="M9157 3224 c-3 -4 0 -13 8 -21 8 -8 15 -27 15 -43 0 -27 -2 -28 -35
-23 -70 11 -113 -73 -65 -124 16 -18 31 -22 87 -22 50 0 63 3 51 10 -16 9 -18
26 -18 119 0 100 -2 110 -18 110 -10 0 -21 -3 -25 -6z m-3 -100 c19 -7 22 -94
4 -112 -31 -31 -68 -1 -68 53 0 52 24 74 64 59z"/>
<path d="M9756 3221 c-3 -5 1 -11 9 -15 12 -4 15 -25 15 -100 0 -80 -3 -97
-17 -105 -14 -8 -8 -10 27 -10 35 0 41 2 28 10 -15 9 -18 26 -18 119 0 102 -1
110 -19 110 -11 0 -22 -4 -25 -9z"/>
<path d="M10037 3224 c-3 -4 0 -13 8 -21 8 -8 15 -27 15 -43 0 -27 -2 -28 -35
-23 -70 11 -113 -73 -65 -124 16 -18 31 -22 87 -22 50 0 63 3 51 10 -16 9 -18
26 -18 119 0 100 -2 110 -18 110 -10 0 -21 -3 -25 -6z m-3 -100 c19 -7 22 -94
4 -112 -31 -31 -68 -1 -68 53 0 52 24 74 64 59z"/>
<path d="M508 3210 c20 -9 22 -16 22 -98 0 -82 -2 -91 -22 -105 -22 -16 -22
-16 20 -16 23 -1 42 4 42 9 0 6 -7 10 -15 10 -12 0 -15 16 -14 88 0 95 0 95
48 -28 16 -41 33 -74 37 -72 5 1 25 44 44 95 l35 92 3 -85 c2 -71 0 -87 -14
-97 -15 -11 -10 -13 37 -12 46 0 51 2 32 11 -21 10 -23 17 -23 105 0 88 1 94
23 103 18 8 15 9 -18 7 l-39 -2 -33 -84 c-18 -46 -35 -86 -37 -88 -2 -2 -19
35 -38 84 l-34 88 -40 2 c-32 2 -35 1 -16 -7z"/>
<path d="M817 3206 c-7 -16 1 -26 20 -26 7 0 13 9 13 20 0 23 -25 27 -33 6z"/>
<path d="M1097 3206 c-7 -16 1 -26 20 -26 7 0 13 9 13 20 0 23 -25 27 -33 6z"/>
<path d="M1303 3213 c15 -4 17 -18 17 -103 0 -84 -3 -101 -17 -109 -25 -14
132 -15 158 0 40 21 41 79 2 102 -12 8 -11 12 6 28 26 25 27 43 1 69 -17 17
-32 20 -102 19 -46 -1 -75 -3 -65 -6z m140 -25 c8 -12 7 -24 -1 -42 -10 -22
-18 -26 -52 -26 l-40 0 0 46 0 45 41 -3 c26 -2 46 -10 52 -20z m-3 -98 c39
-39 15 -82 -46 -84 l-39 -1 -3 53 -3 52 35 0 c23 0 44 -8 56 -20z"/>
<path d="M2470 3200 c0 -11 7 -20 15 -20 8 0 15 9 15 20 0 11 -7 20 -15 20 -8
0 -15 -9 -15 -20z"/>
<path d="M6285 3210 c-3 -5 -15 -10 -26 -10 -10 0 -19 -5 -19 -11 0 -6 9 -8
20 -4 19 6 20 2 20 -85 0 -85 -1 -91 -22 -100 -18 -7 -9 -9 37 -9 46 0 55 2
38 9 -22 9 -23 15 -23 115 0 95 -7 123 -25 95z"/>
<path d="M6425 3208 c-40 -22 -50 -68 -15 -68 11 0 20 7 20 15 0 8 -5 15 -11
15 -8 0 -8 5 1 15 27 32 70 10 70 -35 0 -27 -39 -89 -79 -124 -11 -11 -21 -23
-21 -28 0 -4 29 -8 65 -8 49 0 65 3 65 14 0 8 3 23 6 33 5 17 5 17 -9 1 -9
-12 -28 -18 -52 -18 l-38 0 52 54 c57 61 62 85 26 121 -26 27 -49 31 -80 13z"/>
<path d="M6592 3204 c-26 -18 -30 -65 -7 -84 14 -12 13 -15 -5 -35 -62 -66 33
-138 103 -77 23 20 22 53 -3 85 -17 22 -18 26 -5 37 33 28 2 90 -45 90 -9 0
-26 -7 -38 -16z m59 -4 c23 -13 26 -58 3 -67 -22 -8 -64 17 -64 38 0 10 8 23
18 28 21 13 20 13 43 1z m6 -134 c23 -20 26 -28 17 -43 -13 -22 -60 -29 -80
-12 -27 22 -11 79 22 79 7 0 26 -11 41 -24z"/>
<path d="M8203 3205 c-37 -10 -45 -28 -10 -23 21 3 22 0 22 -82 0 -80 -1 -85
-25 -97 -23 -12 -20 -13 35 -12 50 0 56 2 38 11 -21 10 -23 19 -25 112 l-3
101 -32 -10z"/>
<path d="M8361 3203 c-38 -31 -48 -130 -19 -185 25 -51 98 -41 117 14 40 114
-26 229 -98 171z m66 -24 c15 -28 17 -117 4 -152 -12 -31 -36 -40 -56 -21 -23
24 -21 179 3 193 23 14 35 9 49 -20z"/>
<path d="M8618 3210 c21 -9 22 -15 22 -103 0 -88 -2 -95 -22 -105 -19 -9 -13
-11 37 -11 46 0 55 2 38 9 -19 8 -23 17 -23 55 0 42 2 45 25 45 17 0 29 -7 35
-22 7 -18 9 -13 9 27 -1 28 -3 43 -6 35 -8 -19 -23 -30 -45 -30 -15 0 -18 9
-18 50 l0 50 38 0 c45 0 62 -10 78 -47 10 -22 13 -24 13 -8 0 11 -2 30 -5 43
-6 21 -11 22 -103 21 -68 0 -89 -3 -73 -9z"/>
<path d="M9364 3211 c13 -5 33 -43 61 -117 22 -60 45 -108 50 -107 5 1 26 50
48 108 29 77 46 109 61 115 16 7 10 9 -24 9 -25 -1 -39 -3 -32 -6 6 -2 12 -11
12 -18 0 -26 -53 -156 -60 -148 -6 7 -60 148 -60 158 0 2 8 6 18 8 9 3 -8 5
-38 5 -35 0 -48 -2 -36 -7z"/>
<path d="M9864 3209 c-10 -17 13 -36 27 -22 12 12 4 33 -11 33 -5 0 -12 -5
-16 -11z"/>
<path d="M10444 3209 c-10 -17 13 -36 27 -22 12 12 4 33 -11 33 -5 0 -12 -5
-16 -11z"/>
<path d="M11944 3211 c-2 -2 -4 -26 -4 -52 0 -46 12 -70 25 -49 10 16 52 12
59 -6 11 -29 6 -81 -8 -94 -8 -6 -25 -10 -38 -8 -17 2 -23 10 -23 28 0 29 -19
39 -23 13 -5 -30 22 -56 56 -56 45 0 72 28 72 74 0 49 -23 72 -67 67 -30 -4
-33 -2 -33 24 0 23 4 28 26 28 27 0 64 16 64 28 0 7 -99 10 -106 3z"/>
<path d="M12131 3203 c-38 -31 -48 -130 -19 -185 25 -51 98 -41 117 14 40 114
-26 229 -98 171z m66 -24 c15 -28 17 -117 4 -152 -12 -31 -36 -40 -56 -21 -23
24 -21 179 3 193 23 14 35 9 49 -20z"/>
<path d="M12291 3201 c-43 -43 -40 -161 4 -198 32 -28 45 -29 77 -3 18 13 28
34 32 64 17 110 -55 195 -113 137z m64 -4 c14 -11 18 -28 19 -78 2 -106 -19
-144 -61 -114 -15 11 -18 27 -18 93 0 52 5 84 14 95 16 21 22 21 46 4z"/>
<path d="M1732 3188 c-1 -10 -11 -27 -21 -37 -15 -15 -17 -21 -6 -25 9 -3 15
-26 17 -68 3 -58 5 -63 27 -66 15 -3 30 3 38 14 15 21 17 44 3 44 -5 0 -10 -9
-10 -19 0 -11 -5 -23 -11 -27 -18 -11 -29 18 -27 71 3 43 6 50 28 56 l25 7
-27 1 c-22 1 -27 6 -31 34 -2 17 -5 24 -5 15z"/>
<path d="M10332 3188 c-1 -10 -11 -27 -21 -37 -15 -15 -17 -21 -6 -25 9 -3 15
-26 17 -68 3 -58 5 -63 27 -66 15 -3 30 3 38 14 15 21 17 44 3 44 -5 0 -10 -9
-10 -19 0 -11 -5 -23 -11 -27 -18 -11 -29 18 -27 71 3 43 6 50 28 56 l25 7
-27 1 c-22 1 -27 6 -31 34 -2 17 -5 24 -5 15z"/>
<path d="M813 3122 c24 -26 23 -107 0 -121 -15 -8 -10 -10 22 -11 30 0 36 3
27 12 -7 7 -12 39 -12 75 0 62 -1 63 -27 63 -25 0 -25 -1 -10 -18z"/>
<path d="M903 3126 c12 -10 17 -27 17 -64 0 -38 -4 -54 -17 -61 -14 -8 -9 -10
26 -11 40 0 43 1 26 13 -36 27 -1 139 39 124 20 -8 23 -106 4 -125 -9 -9 -3
-12 27 -12 30 0 36 3 27 12 -7 7 -12 32 -12 56 0 24 -5 52 -10 63 -12 22 -59
26 -78 7 -9 -9 -12 -9 -12 0 0 7 -12 12 -27 12 -25 -1 -26 -2 -10 -14z"/>
<path d="M1093 3122 c24 -26 23 -107 0 -121 -15 -8 -10 -10 22 -11 30 0 36 3
27 12 -7 7 -12 39 -12 75 0 62 -1 63 -27 63 -25 0 -25 -1 -10 -18z"/>
<path d="M1547 3133 c-13 -13 -7 -43 9 -43 12 0 15 6 11 21 -5 17 -1 20 21 17
19 -2 28 -10 30 -24 2 -17 -4 -23 -29 -28 -18 -3 -38 -11 -46 -17 -18 -16 -16
-56 3 -63 25 -9 62 -7 69 4 5 8 11 7 21 -1 20 -16 44 -3 43 23 -1 17 -2 18 -6
6 -10 -37 -23 -16 -23 37 0 43 -4 56 -19 65 -22 11 -74 14 -84 3z m71 -95 c-2
-28 -7 -33 -28 -33 -30 0 -38 26 -15 49 28 27 47 20 43 -16z"/>
<path d="M1846 3118 c-24 -34 -21 -93 6 -112 27 -19 69 -21 86 -4 19 19 14 33
-6 15 -39 -36 -72 -10 -72 55 0 39 15 58 46 58 17 0 21 -4 17 -20 -4 -14 0
-20 12 -20 11 0 15 7 13 23 -2 18 -10 23 -45 25 -33 2 -44 -1 -57 -20z"/>
<path d="M2463 3126 c12 -10 17 -27 17 -64 0 -38 -4 -54 -17 -61 -14 -8 -8
-10 27 -10 35 0 41 2 28 10 -14 8 -18 24 -18 74 0 64 0 65 -27 65 -25 -1 -26
-2 -10 -14z"/>
<path d="M2550 3108 l0 -33 13 25 c11 23 67 43 67 24 0 -4 -17 -30 -38 -58
-60 -80 -61 -76 12 -76 l66 0 -1 38 c-1 36 -1 37 -11 9 -9 -26 -43 -44 -68
-35 -6 2 9 30 34 63 25 33 46 63 46 68 0 4 -27 7 -60 7 l-60 0 0 -32z"/>
<path d="M2715 3120 c-27 -30 -25 -88 4 -111 26 -22 71 -25 89 -7 20 20 13 32
-7 14 -25 -23 -52 -17 -68 14 -17 34 -9 40 48 40 48 0 50 1 43 23 -3 12 -11
28 -16 35 -16 19 -73 15 -93 -8z m73 -2 c23 -23 13 -38 -23 -38 -35 0 -40 5
-29 34 7 19 35 21 52 4z"/>
<path d="M8815 3120 c-11 -12 -19 -36 -19 -55 0 -45 28 -75 71 -75 63 0 96 73
57 128 -20 30 -83 31 -109 2z m84 -4 c18 -21 10 -97 -11 -110 -25 -15 -50 3
-62 42 -16 56 40 108 73 68z"/>
<path d="M9607 3133 c-13 -13 -7 -43 9 -43 11 0 15 6 11 20 -4 16 0 20 18 20
20 0 35 -17 35 -40 0 -4 -15 -11 -34 -14 -41 -8 -59 -27 -54 -58 2 -18 10 -24
36 -26 18 -2 40 2 48 9 11 9 14 9 14 0 0 -7 10 -11 23 -9 15 2 23 11 24 28 l3
25 -12 -25 c-11 -23 -12 -20 -17 38 -4 40 -11 66 -21 72 -17 11 -73 13 -83 3z
m73 -86 c0 -28 -17 -47 -42 -47 -24 0 -24 45 0 59 28 17 42 13 42 -12z"/>
<path d="M9850 3130 c0 -5 5 -10 10 -10 6 0 10 -25 10 -55 0 -41 -4 -56 -17
-64 -14 -8 -9 -10 27 -11 34 0 41 3 32 12 -7 7 -12 39 -12 75 0 61 -1 63 -25
63 -14 0 -25 -4 -25 -10z"/>
<path d="M10147 3133 c-13 -13 -7 -43 9 -43 12 0 15 6 11 21 -5 17 -1 20 21
17 19 -2 28 -10 30 -24 2 -17 -4 -23 -29 -28 -18 -3 -38 -11 -46 -17 -18 -16
-16 -56 3 -63 25 -9 62 -7 69 4 5 8 11 7 21 -1 20 -16 44 -3 43 23 -1 17 -2
18 -6 6 -10 -37 -23 -16 -23 37 0 43 -4 56 -19 65 -22 11 -74 14 -84 3z m71
-95 c-2 -28 -7 -33 -28 -33 -30 0 -38 26 -15 49 28 27 47 20 43 -16z"/>
<path d="M10430 3130 c0 -5 5 -10 10 -10 6 0 10 -25 10 -55 0 -41 -4 -56 -17
-64 -14 -8 -9 -10 27 -11 34 0 41 3 32 12 -7 7 -12 39 -12 75 0 61 -1 63 -25
63 -14 0 -25 -4 -25 -10z"/>
<path d="M10540 3120 c-12 -12 -20 -33 -20 -55 0 -45 29 -75 73 -75 39 0 64
23 73 66 13 67 -77 113 -126 64z m89 -22 c27 -48 -16 -117 -56 -92 -22 13 -30
89 -12 110 18 22 51 13 68 -18z"/>
<path d="M10690 3130 c0 -5 5 -10 10 -10 14 0 12 -104 -2 -118 -9 -9 -3 -12
27 -12 30 0 36 3 27 12 -15 15 -16 82 -2 109 15 26 46 24 54 -3 12 -46 7 -97
-11 -107 -14 -8 -9 -10 26 -11 38 0 42 2 28 13 -11 8 -17 30 -19 72 -3 58 -4
60 -31 63 -16 2 -35 -2 -43 -9 -10 -8 -14 -8 -14 0 0 6 -11 11 -25 11 -14 0
-25 -4 -25 -10z"/>
<path d="M1165 3070 c-3 -5 0 -13 8 -16 23 -8 82 0 82 11 0 14 -82 19 -90 5z"/>
<path d="M8487 3074 c-13 -14 6 -24 44 -24 28 0 39 4 39 15 0 11 -11 15 -38
15 -21 0 -42 -3 -45 -6z"/>
<path d="M503 2793 c15 -4 17 -18 17 -103 0 -84 -3 -101 -17 -109 -13 -8 7
-10 75 -11 89 0 92 1 92 23 0 12 3 33 7 46 4 17 3 22 -5 17 -7 -4 -12 -15 -12
-25 0 -25 -21 -41 -64 -48 l-36 -6 0 106 c0 102 1 106 23 110 12 2 -5 4 -38 4
-33 1 -52 -1 -42 -4z"/>
<path d="M1354 2789 c-10 -17 13 -36 27 -22 12 12 4 33 -11 33 -5 0 -12 -5
-16 -11z"/>
<path d="M1913 2793 c15 -4 17 -18 17 -103 0 -84 -3 -101 -17 -109 -14 -8 -5
-10 37 -10 42 0 51 2 38 10 -13 7 -18 23 -18 54 0 43 1 45 30 45 34 0 50 -23
50 -70 0 -24 6 -33 26 -40 31 -12 64 3 64 28 0 13 -4 12 -20 -8 l-19 -25 -10
28 c-6 16 -11 36 -11 46 0 10 -7 24 -15 31 -13 11 -12 15 10 36 31 29 31 39 0
69 -22 23 -32 25 -102 24 -43 -1 -70 -3 -60 -6z m131 -19 c34 -33 3 -84 -51
-84 -21 0 -23 5 -23 50 0 49 1 50 29 50 16 0 37 -7 45 -16z"/>
<path d="M6031 2781 c-43 -43 -40 -161 4 -198 32 -28 45 -29 77 -3 18 13 28
34 32 64 17 110 -55 195 -113 137z m64 -4 c14 -11 18 -28 19 -78 2 -106 -19
-144 -61 -114 -15 11 -18 27 -18 93 0 52 5 84 14 95 16 21 22 21 46 4z"/>
<path d="M6301 2783 c-38 -31 -48 -130 -19 -185 25 -51 98 -41 117 14 40 114
-26 229 -98 171z m66 -24 c15 -28 17 -117 4 -152 -12 -31 -36 -40 -56 -21 -23
24 -21 179 3 193 23 14 35 9 49 -20z"/>
<path d="M6471 2783 c-38 -31 -48 -130 -19 -185 25 -51 98 -41 117 14 40 114
-26 229 -98 171z m66 -24 c15 -28 17 -117 4 -152 -12 -31 -36 -40 -56 -21 -23
24 -21 179 3 193 23 14 35 9 49 -20z"/>
<path d="M6631 2781 c-43 -43 -40 -161 4 -198 32 -28 45 -29 77 -3 18 13 28
34 32 64 17 110 -55 195 -113 137z m64 -4 c14 -11 18 -28 19 -78 2 -106 -19
-144 -61 -114 -15 11 -18 27 -18 93 0 52 5 84 14 95 16 21 22 21 46 4z"/>
<path d="M6823 2785 c-18 -5 -33 -13 -33 -18 0 -4 9 -5 20 -2 19 6 20 2 20
-85 0 -85 -1 -91 -22 -100 -18 -7 -9 -9 37 -9 50 0 56 2 38 11 -21 10 -23 19
-25 112 l-3 101 -32 -10z"/>
<path d="M8160 2783 c0 -10 -3 -29 -7 -42 -4 -17 -3 -22 5 -17 7 4 12 16 12
27 0 22 41 45 64 36 13 -5 16 -24 16 -101 0 -94 0 -94 -27 -104 -23 -9 -16
-10 42 -10 58 0 65 1 43 10 -28 10 -28 10 -28 109 0 97 1 99 23 99 31 0 55
-20 60 -50 3 -16 5 -9 6 18 l1 42 -105 0 c-93 0 -105 -2 -105 -17z"/>
<path d="M11944 2791 c-2 -2 -4 -26 -4 -52 0 -46 12 -70 25 -49 10 16 52 12
59 -6 11 -29 6 -81 -8 -94 -8 -6 -25 -10 -38 -8 -17 2 -23 10 -23 28 0 29 -19
39 -23 13 -5 -30 22 -56 56 -56 45 0 72 28 72 74 0 49 -23 72 -67 67 -30 -4
-33 -2 -33 24 0 23 4 28 26 28 27 0 64 16 64 28 0 7 -99 10 -106 3z"/>
<path d="M12131 2783 c-38 -31 -48 -130 -19 -185 25 -51 98 -41 117 14 40 114
-26 229 -98 171z m66 -24 c15 -28 17 -117 4 -152 -12 -31 -36 -40 -56 -21 -23
24 -21 179 3 193 23 14 35 9 49 -20z"/>
<path d="M12291 2781 c-43 -43 -40 -161 4 -198 32 -28 45 -29 77 -3 18 13 28
34 32 64 17 110 -55 195 -113 137z m64 -4 c14 -11 18 -28 19 -78 2 -106 -19
-144 -61 -114 -15 11 -18 27 -18 93 0 52 5 84 14 95 16 21 22 21 46 4z"/>
<path d="M2353 2758 c-7 -14 -20 -31 -30 -37 -17 -10 -17 -10 0 -11 14 0 17
-10 17 -58 0 -62 11 -82 46 -82 22 0 35 18 33 48 -1 10 -4 6 -8 -8 -4 -14 -13
-25 -21 -25 -11 0 -16 16 -18 62 -3 57 -1 62 20 66 22 4 22 4 1 6 -17 1 -23 8
-25 34 l-4 32 -11 -27z"/>
<path d="M8692 2768 c-1 -10 -11 -27 -21 -37 -15 -15 -17 -21 -6 -25 9 -3 15
-26 17 -68 3 -58 5 -63 27 -66 15 -3 30 3 38 14 15 21 17 44 3 44 -5 0 -10 -9
-10 -19 0 -11 -5 -23 -11 -27 -18 -11 -29 18 -27 71 3 43 6 50 28 56 l25 7
-27 1 c-22 1 -27 6 -31 34 -2 17 -5 24 -5 15z"/>
<path d="M1746 2723 c-3 -3 -22 -6 -42 -5 -64 3 -75 -10 -70 -80 3 -37 0 -68
-7 -80 -10 -16 -8 -22 12 -39 43 -35 131 -15 131 30 0 26 -18 38 -72 46 -28 4
-48 13 -48 20 0 8 9 10 25 7 37 -7 68 24 61 61 -5 25 -3 27 14 22 11 -4 20 -2
20 4 0 13 -15 22 -24 14z m-38 -47 c4 -30 -12 -48 -35 -39 -14 5 -18 54 -6 67
15 15 38 -1 41 -28z m26 -112 c36 -14 0 -54 -48 -54 -23 0 -49 27 -43 44 7 16
59 22 91 10z"/>
<path d="M720 2700 c-44 -44 -9 -130 52 -130 28 0 58 23 57 43 0 7 -7 2 -16
-10 -19 -28 -44 -29 -66 -5 -32 36 -22 52 33 52 43 0 50 3 50 19 0 48 -72 69
-110 31z m81 -17 c8 -21 6 -23 -31 -23 -44 0 -45 2 -29 31 14 26 49 21 60 -8z"/>
<path d="M870 2705 c-9 -11 -10 -19 -2 -27 14 -14 33 -1 25 17 -6 18 27 21 45
3 21 -21 13 -36 -22 -42 -44 -8 -74 -41 -59 -64 8 -13 26 -17 74 -18 64 -2 79
6 78 36 0 8 -5 4 -10 -10 -14 -35 -29 -9 -29 51 0 25 -5 50 -12 57 -17 17 -73
15 -88 -3z m80 -78 c0 -28 -17 -47 -42 -47 -30 0 -34 31 -9 52 31 25 51 23 51
-5z"/>
<path d="M1020 2710 c0 -5 5 -10 10 -10 14 0 12 -104 -2 -118 -9 -9 -2 -12 32
-12 37 1 42 3 27 11 -15 9 -18 22 -17 62 2 29 2 58 1 65 -1 14 -51 17 -51 2z"/>
<path d="M1080 2709 c0 -5 4 -8 9 -5 5 3 12 -1 15 -10 7 -18 26 -10 26 12 0 8
-10 14 -25 14 -14 0 -25 -5 -25 -11z"/>
<path d="M1150 2711 c0 -5 7 -11 15 -15 23 -8 21 -102 -2 -115 -14 -8 -8 -10
27 -10 35 0 41 2 28 10 -26 15 -25 90 2 114 33 30 50 13 50 -49 0 -42 -4 -57
-17 -65 -14 -8 -9 -10 27 -11 34 0 41 3 32 12 -7 7 -12 29 -12 49 0 61 -15 89
-48 89 -15 0 -33 -5 -40 -12 -9 -9 -12 -9 -12 0 0 7 -11 12 -25 12 -14 0 -25
-4 -25 -9z"/>
<path d="M1340 2710 c0 -5 5 -10 10 -10 14 0 12 -104 -2 -118 -9 -9 -3 -12 27
-12 30 0 36 3 27 12 -7 7 -12 39 -12 75 0 61 -1 63 -25 63 -14 0 -25 -4 -25
-10z"/>
<path d="M1443 2706 c12 -10 17 -27 17 -64 0 -38 -4 -54 -17 -61 -14 -8 -9
-10 26 -11 40 0 43 1 26 13 -36 27 -1 139 39 124 20 -8 23 -106 4 -125 -9 -9
-3 -12 27 -12 30 0 36 3 27 12 -7 7 -12 32 -12 56 0 24 -5 52 -10 63 -12 22
-59 26 -78 7 -9 -9 -12 -9 -12 0 0 7 -12 12 -27 12 -25 -1 -26 -2 -10 -14z"/>
<path d="M2172 2708 c-17 -17 -15 -38 3 -38 8 0 15 9 15 20 0 27 36 27 50 0 9
-17 8 -21 -7 -26 -76 -24 -98 -49 -73 -79 14 -17 66 -20 75 -5 4 6 13 5 26 -3
17 -10 22 -9 35 7 16 23 18 36 4 36 -5 0 -10 -9 -10 -21 0 -11 -4 -17 -10 -14
-5 3 -10 30 -10 59 0 60 -12 76 -55 76 -17 0 -36 -5 -43 -12z m78 -67 c0 -29
-21 -61 -40 -61 -31 0 -37 30 -11 52 25 19 51 24 51 9z"/>
<path d="M2466 2698 c-37 -53 -6 -128 52 -128 27 0 62 26 62 45 0 5 -9 -1 -20
-13 -26 -27 -56 -28 -70 -3 -21 41 -13 51 40 51 54 0 61 10 34 48 -10 15 -25
22 -49 22 -24 0 -39 -7 -49 -22z m78 -4 c11 -29 6 -34 -29 -34 -36 0 -46 15
-23 38 17 17 45 15 52 -4z"/>
<path d="M8386 2698 c-37 -53 -6 -128 52 -128 27 0 62 26 62 45 0 5 -9 -1 -20
-13 -26 -27 -56 -28 -70 -3 -21 41 -13 51 40 51 54 0 61 10 34 48 -10 15 -25
22 -49 22 -24 0 -39 -7 -49 -22z m78 -4 c11 -29 6 -34 -29 -34 -36 0 -46 15
-23 38 17 17 45 15 52 -4z"/>
<path d="M8533 2713 c-7 -2 -13 -15 -13 -28 0 -26 10 -35 55 -50 40 -13 42
-49 3 -53 -21 -3 -30 3 -42 25 l-15 28 -1 -31 c0 -28 2 -30 41 -33 47 -2 69
12 69 44 0 26 -13 38 -55 52 -42 14 -46 43 -5 43 22 0 33 -6 40 -22 8 -22 9
-22 9 5 1 25 -2 27 -36 26 -21 0 -44 -3 -50 -6z"/>
<path d="M6197 2603 c-4 -3 -7 -12 -7 -20 0 -17 26 -17 33 1 8 21 -11 35 -26
19z"/>
<path d="M8842 2381 c-11 -7 -11 -9 2 -14 25 -10 23 -192 -1 -206 -14 -8 -9
-10 26 -11 40 0 43 1 26 13 -36 27 -1 139 39 124 20 -8 23 -106 4 -125 -9 -9
-3 -12 27 -12 30 0 36 3 27 12 -7 7 -12 32 -12 56 0 24 -5 52 -10 63 -12 22
-59 26 -78 7 -9 -9 -12 1 -12 45 0 57 -8 67 -38 48z"/>
<path d="M9160 2370 c-39 -39 -20 -93 40 -111 56 -17 77 -42 62 -74 -20 -43
-86 -32 -108 19 l-13 31 -1 -49 c0 -39 3 -46 13 -37 10 8 22 7 45 -1 27 -11
35 -10 59 8 20 15 29 32 31 56 4 40 -15 61 -73 80 -43 14 -58 46 -34 74 19 23
51 13 76 -25 l23 -34 0 43 c0 35 -2 41 -14 31 -10 -8 -16 -9 -21 -1 -11 17
-64 11 -85 -10z"/>
<path d="M508 2370 c20 -9 22 -16 22 -98 0 -82 -2 -91 -22 -105 -22 -16 -22
-16 20 -16 23 -1 42 4 42 9 0 6 -7 10 -15 10 -12 0 -15 16 -14 88 0 95 0 95
48 -28 16 -41 33 -74 37 -72 5 1 25 44 44 95 l35 92 3 -85 c2 -71 0 -87 -14
-97 -15 -11 -10 -13 37 -12 46 0 51 2 32 11 -21 10 -23 17 -23 105 0 88 1 94
23 103 18 8 15 9 -18 7 l-39 -2 -33 -84 c-18 -46 -35 -86 -37 -88 -2 -2 -19
35 -38 84 l-34 88 -40 2 c-32 2 -35 1 -16 -7z"/>
<path d="M2303 2373 c15 -4 17 -18 17 -103 0 -84 -3 -101 -17 -109 -14 -8 -5
-10 37 -11 52 0 53 1 32 16 -16 11 -22 25 -22 55 0 36 2 39 28 39 39 0 49 -10
57 -58 7 -45 32 -67 64 -57 20 6 37 35 22 35 -5 0 -12 -8 -16 -17 -6 -17 -7
-17 -21 1 -8 11 -14 29 -14 41 0 11 -7 30 -15 42 -14 21 -14 23 5 35 27 17 26
62 -2 82 -16 11 -44 16 -98 15 -41 -1 -67 -3 -57 -6z m132 -23 c15 -16 16 -25
7 -44 -11 -24 -62 -44 -82 -31 -11 7 -14 78 -3 88 14 14 61 6 78 -13z"/>
<path d="M6119 2361 c-18 -14 -23 -31 -27 -79 -6 -78 2 -108 33 -128 62 -40
110 17 103 124 -3 53 -8 68 -27 83 -29 24 -53 24 -82 0z m65 -13 c24 -34 22
-149 -3 -179 -19 -23 -19 -24 -40 -5 -18 16 -21 31 -21 97 0 57 4 82 16 93 21
21 30 20 48 -6z"/>
<path d="M6375 2355 c-41 -40 -29 -106 21 -125 17 -7 32 -6 46 1 19 10 20 9
14 -17 -10 -39 -24 -54 -51 -54 -19 0 -22 4 -18 21 4 16 2 20 -8 17 -25 -8
-22 -37 5 -48 60 -22 106 32 106 125 0 46 -4 60 -25 80 -13 14 -33 25 -45 25
-11 0 -32 -11 -45 -25z m85 -52 c0 -35 -18 -63 -41 -63 -40 0 -49 97 -11 120
22 12 52 -21 52 -57z"/>
<path d="M6545 2355 c-41 -40 -29 -106 21 -125 17 -7 32 -6 46 1 19 10 20 9
14 -17 -10 -39 -24 -54 -51 -54 -19 0 -22 4 -18 21 4 16 2 20 -8 17 -25 -8
-22 -37 5 -48 60 -22 106 32 106 125 0 46 -4 60 -25 80 -13 14 -33 25 -45 25
-11 0 -32 -11 -45 -25z m85 -52 c0 -35 -18 -63 -41 -63 -40 0 -49 97 -11 120
22 12 52 -21 52 -57z"/>
<path d="M6716 2359 c-59 -46 -7 -161 57 -127 27 14 30 5 13 -36 -11 -27 -21
-36 -39 -36 -17 0 -24 5 -23 16 0 9 -5 19 -11 21 -25 9 -13 -37 12 -49 21 -10
30 -8 53 9 36 27 52 59 52 111 0 94 -54 138 -114 91z m79 -38 c8 -38 -10 -81
-34 -81 -42 0 -55 76 -20 111 24 24 44 13 54 -30z"/>
<path d="M8168 2370 c21 -9 22 -15 22 -105 0 -90 -1 -96 -22 -105 -17 -6 1 -9
62 -9 62 -1 92 3 108 15 30 21 29 67 -2 91 -23 19 -23 20 -5 31 24 15 24 54 1
75 -14 13 -38 17 -103 16 -60 0 -78 -3 -61 -9z m136 -16 c33 -33 6 -74 -50
-74 -34 0 -34 0 -34 45 0 45 0 45 34 45 19 0 42 -7 50 -16z m8 -102 c14 -14
13 -61 0 -74 -6 -6 -28 -11 -49 -12 l-38 -1 -3 54 -3 54 42 -6 c23 -3 46 -10
51 -15z"/>
<path d="M9337 2366 c-7 -16 1 -26 20 -26 7 0 13 9 13 20 0 23 -25 27 -33 6z"/>
<path d="M12075 2370 c-3 -5 -15 -10 -26 -10 -10 0 -19 -5 -19 -11 0 -6 9 -8
20 -4 19 6 20 2 20 -85 0 -85 -1 -91 -22 -100 -18 -7 -9 -9 37 -9 46 0 55 2
38 9 -22 9 -23 15 -23 115 0 95 -7 123 -25 95z"/>
<path d="M12228 2363 c-14 -9 -31 -27 -37 -40 -16 -34 -14 -109 4 -142 40 -78
148 -17 119 66 -13 37 -56 58 -85 42 -20 -10 -21 -9 -15 17 11 48 76 87 68 41
-4 -21 17 -32 24 -13 8 20 -13 46 -35 46 -9 0 -28 -8 -43 -17z m62 -140 c0
-35 -18 -63 -40 -63 -41 0 -54 76 -18 112 l21 21 19 -23 c10 -12 18 -33 18
-47z"/>
<path d="M1613 2338 c-7 -14 -20 -31 -30 -37 -17 -10 -17 -10 0 -11 14 0 17
-10 17 -58 0 -62 11 -82 46 -82 22 0 35 18 33 48 -1 10 -4 6 -8 -8 -4 -14 -13
-25 -21 -25 -11 0 -16 16 -18 62 -3 57 -1 62 20 66 22 4 22 4 1 6 -17 1 -23 8
-25 34 l-4 32 -11 -27z"/>
<path d="M2742 2343 c-1 -12 -11 -28 -22 -36 -18 -12 -18 -15 -5 -20 11 -5 15
-20 15 -56 0 -64 7 -81 34 -81 28 0 46 18 45 45 0 16 -2 15 -11 -7 -13 -38
-36 -35 -43 5 -11 58 -3 90 25 98 l25 7 -27 1 c-22 1 -27 6 -31 34 -2 18 -4
22 -5 10z"/>
<path d="M8596 2337 c-5 -15 -16 -32 -25 -37 -9 -6 -11 -10 -3 -10 8 0 12 -17
12 -53 0 -63 16 -90 51 -85 19 2 24 9 26 33 2 28 1 28 -5 5 -5 -14 -14 -25
-22 -25 -11 0 -16 16 -18 62 -3 61 -2 62 25 66 l28 4 -27 2 c-22 1 -27 6 -30
34 l-4 32 -8 -28z"/>
<path d="M820 2278 c-45 -48 -9 -128 57 -128 36 0 73 38 73 75 0 12 -9 34 -21
49 -27 34 -79 36 -109 4z m90 -7 c14 -28 12 -63 -6 -89 -30 -43 -74 -18 -74
43 0 40 18 65 45 65 14 0 29 -8 35 -19z"/>
<path d="M970 2290 c0 -5 5 -10 10 -10 14 0 12 -104 -2 -118 -9 -9 -3 -12 27
-12 30 0 36 3 27 12 -15 15 -16 82 -2 109 15 26 46 24 54 -3 12 -46 7 -97 -11
-107 -14 -8 -8 -10 27 -10 35 0 41 2 28 10 -41 23 -7 142 35 126 25 -9 24
-112 0 -126 -14 -8 -9 -10 27 -11 34 0 41 3 32 12 -7 7 -12 32 -12 56 0 58
-14 82 -48 82 -16 0 -33 -5 -39 -11 -8 -8 -13 -8 -17 0 -9 15 -59 14 -74 -1
-9 -9 -12 -9 -12 0 0 7 -11 12 -25 12 -14 0 -25 -4 -25 -10z"/>
<path d="M1266 2278 c-37 -53 -6 -128 52 -128 27 0 62 26 62 45 0 5 -9 -1 -20
-13 -26 -27 -56 -28 -70 -3 -21 41 -13 51 40 51 54 0 61 10 34 48 -10 15 -25
22 -49 22 -24 0 -39 -7 -49 -22z m78 -4 c11 -29 6 -34 -29 -34 -36 0 -46 15
-23 38 17 17 45 15 52 -4z"/>
<path d="M1400 2290 c0 -5 5 -10 10 -10 14 0 12 -104 -2 -118 -9 -9 -3 -12 27
-12 30 0 36 3 27 12 -15 15 -16 82 -2 109 15 26 46 24 54 -3 12 -46 7 -97 -11
-107 -14 -8 -9 -10 26 -11 38 0 42 2 28 13 -11 8 -17 30 -19 72 -3 58 -4 60
-31 63 -16 2 -35 -2 -43 -9 -10 -8 -14 -8 -14 0 0 6 -11 11 -25 11 -14 0 -25
-4 -25 -10z"/>
<path d="M1710 2290 c0 -5 5 -10 10 -10 6 0 10 -21 10 -46 0 -74 9 -83 87 -82
56 0 64 2 50 13 -13 9 -17 27 -17 74 0 60 0 61 -27 61 -25 -1 -26 -2 -10 -14
19 -15 22 -60 7 -101 -7 -20 -16 -26 -33 -23 -20 3 -22 9 -25 71 -3 64 -4 67
-27 67 -14 0 -25 -4 -25 -10z"/>
<path d="M1903 2286 c12 -10 17 -27 17 -64 0 -38 -4 -54 -17 -61 -14 -8 -9
-10 27 -11 34 0 41 3 32 12 -7 7 -12 33 -12 58 0 49 13 70 42 70 15 0 18 -9
18 -58 0 -32 -5 -63 -12 -70 -9 -9 -2 -12 33 -12 35 1 40 3 27 11 -38 22 -16
129 27 129 30 0 37 -112 8 -129 -14 -8 -9 -10 26 -11 41 0 43 1 28 18 -9 10
-17 40 -19 72 -3 52 -5 55 -31 58 -16 2 -34 -2 -42 -8 -10 -8 -19 -8 -34 2
-16 10 -27 10 -51 1 -16 -6 -30 -7 -30 -2 0 5 -12 9 -27 9 -25 -1 -26 -2 -10
-14z"/>
<path d="M2562 2288 c-17 -17 -15 -38 3 -38 8 0 15 9 15 20 0 27 36 27 50 0 9
-17 8 -21 -7 -26 -76 -24 -98 -49 -73 -79 14 -17 66 -20 75 -5 4 6 13 5 26 -3
17 -10 22 -9 35 7 16 23 18 36 4 36 -5 0 -10 -9 -10 -21 0 -11 -4 -17 -10 -14
-5 3 -10 30 -10 59 0 60 -12 76 -55 76 -17 0 -36 -5 -43 -12z m78 -67 c0 -29
-21 -61 -40 -61 -31 0 -37 30 -11 52 25 19 51 24 51 9z"/>
<path d="M2856 2278 c-37 -53 -6 -128 52 -128 27 0 62 26 62 45 0 5 -9 -1 -20
-13 -26 -27 -56 -28 -70 -3 -21 41 -13 51 40 51 54 0 61 10 34 48 -10 15 -25
22 -49 22 -24 0 -39 -7 -49 -22z m78 -4 c11 -29 6 -34 -29 -34 -36 0 -46 15
-23 38 17 17 45 15 52 -4z"/>
<path d="M8417 2293 c-13 -13 -7 -43 9 -43 11 0 15 6 11 20 -4 16 0 20 18 20
20 0 35 -17 35 -40 0 -4 -15 -11 -34 -14 -41 -8 -59 -27 -54 -58 2 -18 10 -24
36 -26 18 -2 40 2 48 9 11 9 14 9 14 0 0 -7 10 -11 23 -9 15 2 23 11 24 28 l3
25 -12 -25 c-11 -23 -12 -20 -17 38 -4 40 -11 66 -21 72 -17 11 -73 13 -83 3z
m73 -86 c0 -28 -17 -47 -42 -47 -24 0 -24 45 0 59 28 17 42 13 42 -12z"/>
<path d="M8717 2282 c-47 -51 -18 -132 47 -132 35 0 56 15 56 39 0 11 -5 9
-16 -7 -31 -44 -76 -19 -76 43 0 41 16 65 43 65 12 0 19 -7 19 -20 0 -11 7
-20 15 -20 18 0 20 21 3 38 -18 18 -73 14 -91 -6z"/>
<path d="M9333 2282 c24 -26 23 -107 0 -121 -15 -8 -10 -10 22 -11 30 0 36 3
27 12 -7 7 -12 39 -12 75 0 62 -1 63 -27 63 -25 0 -25 -1 -10 -18z"/>
<path d="M9420 2268 l0 -33 13 25 c11 22 67 43 67 25 0 -4 -20 -33 -45 -65
-25 -32 -45 -61 -45 -64 0 -3 27 -6 59 -6 62 0 72 7 70 53 0 21 -1 21 -12 -3
-6 -14 -16 -28 -22 -32 -12 -9 -55 -11 -55 -2 0 3 20 32 45 64 25 32 45 61 45
64 0 3 -27 6 -60 6 l-60 0 0 -32z"/>
<path d="M9594 2292 c-16 -10 -34 -48 -34 -70 0 -11 9 -31 21 -46 33 -41 109
-32 109 13 0 11 -5 9 -16 -7 -8 -12 -24 -22 -34 -22 -20 0 -50 35 -50 57 0 9
16 13 50 13 53 0 61 10 40 51 -11 19 -63 27 -86 11z m66 -23 c15 -27 10 -31
-33 -27 -31 3 -34 5 -26 26 11 28 45 29 59 1z"/>
<path d="M6274 2179 c-10 -17 13 -36 27 -22 12 12 4 33 -11 33 -5 0 -12 -5
-16 -11z"/>
<path d="M1240 1960 c-13 -8 -12 -10 3 -10 15 0 17 -11 17 -100 0 -84 -3 -101
-17 -109 -14 -8 -9 -10 26 -11 35 0 42 3 33 12 -7 7 -12 33 -12 58 0 49 13 70
42 70 15 0 18 -9 18 -58 0 -32 -5 -63 -12 -70 -9 -9 -2 -12 33 -12 35 1 40 3
27 11 -14 7 -18 23 -18 63 0 63 -15 81 -59 73 -29 -6 -30 -6 -33 41 -3 49 -18
62 -48 42z"/>
<path d="M8905 1960 c-3 -5 -1 -10 4 -10 16 0 14 -193 -1 -208 -9 -9 -3 -12
27 -12 30 0 36 3 27 12 -15 15 -16 82 -2 109 15 26 46 24 54 -3 12 -46 7 -97
-11 -107 -14 -8 -9 -10 26 -11 38 0 42 2 28 13 -11 8 -17 30 -19 72 -3 58 -4
60 -31 63 -16 2 -35 -2 -43 -9 -12 -10 -14 -3 -14 45 0 49 -2 56 -19 56 -11 0
-23 -4 -26 -10z"/>
<path d="M503 1953 c15 -4 17 -18 17 -103 0 -84 -3 -101 -17 -109 -13 -8 10
-10 85 -11 80 0 102 3 102 14 0 7 2 29 5 47 l5 34 -15 -33 c-16 -35 -48 -52
-96 -52 -28 0 -29 1 -29 50 0 46 2 50 25 50 13 0 29 -8 34 -17 8 -14 10 -7 10
32 0 40 -2 45 -9 28 -6 -16 -18 -23 -35 -23 -23 0 -25 3 -25 46 l0 45 48 -3
c43 -3 49 -6 64 -38 17 -34 18 -34 18 -8 0 56 -4 58 -109 57 -53 -1 -88 -3
-78 -6z"/>
<path d="M6320 1898 c0 -32 2 -58 5 -58 3 0 14 6 25 12 28 18 54 -1 58 -40 4
-42 -13 -72 -42 -72 -27 0 -55 25 -35 32 8 3 10 11 6 22 -9 23 -27 11 -27 -19
0 -32 39 -58 74 -49 34 8 56 40 56 80 0 39 -27 64 -68 64 -27 0 -32 4 -32 25
0 20 5 25 26 25 27 0 64 16 64 28 0 4 -25 7 -55 7 l-55 0 0 -57z"/>
<path d="M6501 1941 c-43 -43 -40 -161 4 -198 32 -28 45 -29 77 -3 18 13 28
34 32 64 17 110 -55 195 -113 137z m64 -4 c14 -11 18 -28 19 -78 2 -106 -19
-144 -61 -114 -15 11 -18 27 -18 93 0 52 5 84 14 95 16 21 22 21 46 4z"/>
<path d="M8168 1950 c21 -9 22 -15 22 -103 0 -88 -2 -95 -22 -105 -18 -8 -2
-11 78 -11 111 -1 114 0 114 69 0 23 -2 22 -18 -10 -13 -26 -26 -37 -53 -44
-56 -14 -69 -4 -69 49 0 43 1 45 30 45 20 0 30 -5 30 -15 0 -8 5 -15 10 -15
12 0 13 77 1 84 -5 3 -11 -3 -14 -14 -3 -14 -14 -20 -31 -20 -24 0 -26 3 -26
45 l0 45 43 0 c43 0 67 -15 80 -50 3 -8 6 2 6 23 l1 37 -102 -1 c-72 0 -96 -3
-80 -9z"/>
<path d="M12030 1898 c0 -54 10 -72 25 -48 3 6 15 10 26 10 48 0 49 -111 1
-118 -32 -5 -56 16 -41 35 15 17 0 36 -19 24 -9 -6 -10 -15 -3 -34 28 -73 131
-46 131 35 0 42 -27 68 -71 68 -35 0 -39 3 -39 25 0 22 4 25 33 25 20 0 41 7
50 18 15 16 12 17 -39 17 l-54 0 0 -57z"/>
<path d="M12209 1941 c-18 -14 -23 -31 -27 -79 -6 -78 2 -108 33 -128 62 -40
110 17 103 124 -3 53 -8 68 -27 83 -29 24 -53 24 -82 0z m65 -13 c24 -34 22
-149 -3 -179 -19 -23 -19 -24 -40 -5 -18 16 -21 31 -21 97 0 57 4 82 16 93 21
21 30 20 48 -6z"/>
<path d="M720 1869 c0 -5 5 -9 10 -9 15 0 13 -177 -2 -183 -7 -3 7 -5 32 -5
25 0 37 2 28 5 -12 3 -18 14 -18 32 0 25 3 27 33 23 47 -5 81 25 81 71 0 58
-25 76 -100 76 -35 -1 -64 -5 -64 -10z m120 -14 c6 -8 12 -30 12 -50 0 -56
-38 -85 -70 -53 -16 16 -16 90 0 106 16 16 43 15 58 -3z"/>
<path d="M935 1860 c-11 -12 -19 -36 -19 -55 0 -45 28 -75 71 -75 63 0 96 73
57 128 -20 30 -83 31 -109 2z m84 -4 c18 -21 10 -97 -11 -110 -25 -15 -50 3
-62 42 -16 56 40 108 73 68z"/>
<path d="M1116 1858 c-24 -34 -21 -93 6 -112 27 -19 69 -21 86 -4 19 19 14 33
-6 15 -39 -36 -72 -10 -72 55 0 39 15 58 46 58 17 0 21 -4 17 -20 -4 -14 0
-20 12 -20 11 0 15 7 13 23 -2 18 -10 23 -45 25 -33 2 -44 -1 -57 -20z"/>
<path d="M8393 1865 c25 -18 25 -169 0 -184 -14 -8 -8 -10 27 -10 35 0 41 2
28 10 -10 5 -18 20 -18 32 0 20 4 22 39 19 32 -3 42 1 60 23 26 35 27 65 1 98
-18 23 -27 25 -87 25 -56 0 -64 -2 -50 -13z m116 -27 c11 -20 13 -34 6 -54
-23 -65 -78 -56 -83 13 -5 70 46 97 77 41z"/>
<path d="M8600 1858 c-45 -48 -9 -128 57 -128 36 0 73 38 73 75 0 12 -9 34
-21 49 -27 34 -79 36 -109 4z m90 -7 c14 -28 12 -63 -6 -89 -30 -43 -74 -18
-74 43 0 40 18 65 45 65 14 0 29 -8 35 -19z"/>
<path d="M8781 1861 c-45 -45 -11 -131 51 -131 28 0 58 23 57 43 0 7 -7 2 -16
-10 -43 -63 -110 18 -73 88 13 24 58 26 56 3 0 -9 5 -19 12 -22 10 -3 13 3 10
19 -4 34 -68 39 -97 10z"/>
<path d="M1045 1551 c-3 -6 -1 -11 4 -11 16 0 14 -193 -1 -208 -9 -9 -3 -12
27 -12 30 0 36 3 27 12 -14 14 -16 58 -4 58 17 0 44 -39 39 -55 -5 -12 1 -15
31 -15 31 1 34 3 22 13 -9 7 -26 27 -39 45 -22 32 -22 34 -6 53 10 10 24 19
32 19 7 0 13 5 13 10 0 6 -14 10 -31 10 -23 0 -30 -4 -26 -14 5 -13 -21 -46
-36 -46 -3 0 -7 33 -9 72 -2 58 -6 73 -20 76 -9 2 -19 -2 -23 -7z"/>
<path d="M1222 1551 c-11 -7 -11 -9 2 -14 13 -5 16 -25 16 -109 l0 -103 47 -3
c36 -2 51 2 70 20 53 49 10 137 -62 125 l-35 -6 0 50 c0 49 -9 59 -38 40z
m118 -110 c26 -50 2 -115 -41 -109 -22 3 -24 8 -27 57 -3 56 5 71 40 71 10 0
22 -9 28 -19z"/>
<path d="M508 1540 c20 -9 22 -15 22 -99 0 -82 -2 -91 -22 -105 -21 -15 -18
-16 58 -16 67 0 86 4 108 21 33 26 34 62 2 86 -23 19 -23 20 -5 31 24 15 24
54 1 75 -14 13 -38 17 -103 16 -60 0 -78 -3 -61 -9z m138 -25 c21 -32 -6 -65
-52 -65 -34 0 -34 0 -34 46 l0 45 36 -3 c23 -2 42 -10 50 -23z m-8 -91 c46
-32 13 -94 -50 -94 -27 0 -28 2 -28 55 0 53 1 55 28 55 15 0 38 -7 50 -16z"/>
<path d="M6181 1543 c10 -2 33 -46 59 -113 23 -61 45 -112 50 -115 4 -2 26 45
49 105 23 60 50 114 59 120 13 7 9 9 -22 10 -32 0 -37 -2 -26 -15 9 -11 6 -29
-16 -89 -16 -41 -31 -73 -35 -71 -3 3 -19 39 -34 81 -23 63 -25 78 -14 85 9 6
-4 8 -36 8 -27 -1 -43 -3 -34 -6z"/>
<path d="M6444 1539 c-10 -17 13 -36 27 -22 12 12 4 33 -11 33 -5 0 -12 -5
-16 -11z"/>
<path d="M6526 1534 c-3 -9 -6 -28 -6 -42 0 -26 1 -26 18 8 12 25 25 36 45 38
l27 3 0 -101 c0 -95 -1 -101 -22 -110 -17 -6 -4 -9 47 -8 44 0 61 3 45 7 -24
7 -25 10 -28 109 -3 100 -2 102 20 102 33 0 48 -12 58 -46 8 -27 8 -27 9 14
l1 42 -104 0 c-85 0 -105 -3 -110 -16z"/>
<path d="M8168 1540 c21 -9 22 -15 22 -105 0 -90 -1 -96 -22 -105 -17 -6 0 -9
61 -9 81 -1 84 0 117 33 28 28 34 42 34 76 0 47 -13 77 -44 102 -16 14 -40 17
-106 17 -61 0 -79 -3 -62 -9z m147 -22 c21 -19 26 -32 27 -75 2 -65 -19 -98
-67 -107 -19 -4 -40 -4 -45 -1 -6 3 -10 51 -10 106 l0 99 34 0 c22 0 45 -9 61
-22z"/>
<path d="M9523 1543 c15 -4 17 -18 17 -103 0 -84 -3 -101 -17 -109 -14 -8 -5
-10 37 -11 52 0 53 1 32 16 -16 11 -22 25 -22 55 0 36 2 39 28 39 39 0 49 -10
57 -58 7 -45 32 -67 64 -57 20 6 37 35 22 35 -5 0 -12 -8 -16 -17 -6 -17 -7
-17 -21 1 -8 11 -14 29 -14 41 0 11 -7 30 -15 42 -14 21 -14 23 5 35 27 17 26
62 -2 82 -16 11 -44 16 -98 15 -41 -1 -67 -3 -57 -6z m132 -23 c15 -16 16 -25
7 -44 -11 -24 -62 -44 -82 -31 -11 7 -14 78 -3 88 14 14 61 6 78 -13z"/>
<path d="M11991 1531 c-43 -43 -40 -161 4 -198 32 -28 45 -29 77 -3 18 13 28
34 32 64 17 110 -55 195 -113 137z m64 -4 c14 -11 18 -28 19 -78 2 -106 -19
-144 -61 -114 -15 11 -18 27 -18 93 0 52 5 84 14 95 16 21 22 21 46 4z"/>
<path d="M12244 1541 c-2 -2 -4 -26 -4 -52 0 -46 12 -70 25 -49 10 16 52 12
59 -6 11 -29 6 -81 -8 -94 -8 -6 -25 -10 -38 -8 -17 2 -23 10 -23 28 0 29 -19
39 -23 13 -5 -30 22 -56 56 -56 45 0 72 28 72 74 0 49 -23 72 -67 67 -30 -4
-33 -2 -33 24 0 23 4 28 26 28 27 0 64 16 64 28 0 7 -99 10 -106 3z"/>
<path d="M9302 1513 c-1 -12 -11 -28 -22 -36 -18 -12 -18 -15 -5 -20 11 -5 15
-20 15 -56 0 -64 7 -81 34 -81 28 0 46 18 45 45 0 16 -2 15 -11 -7 -13 -38
-36 -35 -43 5 -11 58 -3 90 25 98 l25 7 -27 1 c-22 1 -27 6 -31 34 -2 18 -4
22 -5 10z"/>
<path d="M9962 1513 c-1 -12 -11 -28 -22 -36 -18 -12 -18 -15 -5 -20 11 -5 15
-20 15 -56 0 -64 7 -81 34 -81 28 0 46 18 45 45 0 16 -2 15 -11 -7 -13 -38
-36 -35 -43 5 -11 58 -3 90 25 98 l25 7 -27 1 c-22 1 -27 6 -31 34 -2 18 -4
22 -5 10z"/>
<path d="M752 1458 c-17 -17 -15 -38 3 -38 8 0 15 9 15 20 0 27 36 27 50 0 9
-17 8 -21 -7 -26 -76 -24 -98 -49 -73 -79 14 -17 66 -20 75 -5 4 6 13 5 26 -3
17 -10 22 -9 35 7 16 23 18 36 4 36 -5 0 -10 -9 -10 -21 0 -11 -4 -17 -10 -14
-5 3 -10 30 -10 59 0 60 -12 76 -55 76 -17 0 -36 -5 -43 -12z m78 -67 c0 -29
-21 -61 -40 -61 -31 0 -37 30 -11 52 25 19 51 24 51 9z"/>
<path d="M921 1451 c-45 -45 -11 -131 51 -131 28 0 58 23 57 43 0 7 -7 2 -16
-10 -43 -63 -110 18 -73 88 13 24 58 26 56 3 0 -9 5 -19 12 -22 10 -3 13 3 10
19 -4 34 -68 39 -97 10z"/>
<path d="M1431 1444 c-12 -15 -21 -37 -21 -49 0 -38 37 -75 76 -75 44 0 74 29
74 73 0 72 -86 106 -129 51z m87 4 c15 -15 16 -72 2 -99 -22 -41 -80 -6 -80
49 0 53 46 82 78 50z"/>
<path d="M1580 1461 c0 -5 7 -11 15 -15 23 -8 21 -102 -2 -115 -14 -8 -8 -10
27 -10 35 0 41 2 28 10 -26 15 -25 90 2 114 33 30 50 13 50 -49 0 -42 -4 -57
-17 -65 -14 -8 -9 -10 27 -11 34 0 41 3 32 12 -7 7 -12 29 -12 49 0 61 -15 89
-48 89 -15 0 -33 -5 -40 -12 -9 -9 -12 -9 -12 0 0 7 -11 12 -25 12 -14 0 -25
-4 -25 -9z"/>
<path d="M1786 1448 c-37 -53 -6 -128 52 -128 27 0 62 26 62 45 0 5 -9 -1 -20
-13 -26 -27 -56 -28 -70 -3 -21 41 -13 51 40 51 54 0 61 10 34 48 -10 15 -25
22 -49 22 -24 0 -39 -7 -49 -22z m78 -4 c11 -29 6 -34 -29 -34 -36 0 -46 15
-23 38 17 17 45 15 52 -4z"/>
<path d="M6430 1460 c0 -5 5 -10 10 -10 14 0 12 -104 -2 -118 -9 -9 -3 -12 27
-12 30 0 36 3 27 12 -7 7 -12 39 -12 75 0 61 -1 63 -25 63 -14 0 -25 -4 -25
-10z"/>
<path d="M8410 1460 c0 -5 5 -10 10 -10 14 0 12 -104 -2 -118 -9 -9 -2 -12 33
-12 36 1 41 3 26 11 -15 9 -18 22 -17 62 2 29 2 58 1 65 -1 14 -51 17 -51 2z"/>
<path d="M8470 1459 c0 -5 4 -8 9 -5 5 3 12 -1 15 -10 7 -18 26 -10 26 12 0 8
-10 14 -25 14 -14 0 -25 -5 -25 -11z"/>
<path d="M8561 1444 c-12 -15 -21 -37 -21 -49 0 -38 37 -75 76 -75 44 0 74 29
74 73 0 72 -86 106 -129 51z m87 4 c15 -15 16 -72 2 -99 -22 -41 -80 -6 -80
49 0 53 46 82 78 50z"/>
<path d="M8723 1455 c25 -18 25 -169 0 -184 -14 -8 -8 -10 27 -10 35 0 41 2
28 10 -10 5 -18 20 -18 32 0 20 4 22 39 19 32 -3 42 1 60 23 26 35 27 65 1 98
-18 23 -27 25 -87 25 -56 0 -64 -2 -50 -13z m116 -27 c11 -20 13 -34 6 -54
-23 -65 -78 -56 -83 13 -5 70 46 97 77 41z"/>
<path d="M8930 1450 c-12 -12 -20 -33 -20 -55 0 -45 29 -75 73 -75 39 0 64 23
73 66 13 67 -77 113 -126 64z m89 -22 c27 -48 -16 -117 -56 -92 -22 13 -30 89
-12 110 18 22 51 13 68 -18z"/>
<path d="M9080 1460 c0 -5 5 -10 10 -10 6 0 10 -21 10 -46 0 -74 9 -83 87 -82
56 0 64 2 50 13 -13 9 -17 27 -17 74 0 60 0 61 -27 61 -25 -1 -26 -2 -10 -14
19 -15 22 -60 7 -101 -7 -20 -16 -26 -33 -23 -20 3 -22 9 -25 71 -3 64 -4 67
-27 67 -14 0 -25 -4 -25 -10z"/>
<path d="M9777 1463 c-13 -13 -7 -43 9 -43 12 0 15 6 11 21 -5 17 -1 20 21 17
19 -2 28 -10 30 -24 2 -17 -4 -23 -29 -28 -18 -3 -38 -11 -46 -17 -18 -16 -16
-56 3 -63 25 -9 62 -7 69 4 5 8 11 7 21 -1 20 -16 44 -3 43 23 -1 17 -2 18 -6
6 -10 -37 -23 -16 -23 37 0 43 -4 56 -19 65 -22 11 -74 14 -84 3z m71 -95 c-2
-28 -7 -33 -28 -33 -30 0 -38 26 -15 49 28 27 47 20 43 -16z"/>
<path d="M10075 1450 c-27 -30 -25 -88 4 -111 26 -22 71 -25 89 -7 20 20 13
32 -7 14 -25 -23 -52 -17 -68 14 -17 34 -9 40 48 40 48 0 50 1 43 23 -3 12
-11 28 -16 35 -16 19 -73 15 -93 -8z m73 -2 c23 -23 13 -38 -23 -38 -35 0 -40
5 -29 34 7 19 35 21 52 4z"/>
<path d="M12157 1353 c-4 -3 -7 -12 -7 -20 0 -17 26 -17 33 1 8 21 -11 35 -26
19z"/>
<path d="M300 1115 c0 -13 728 -15 6490 -15 5762 0 6490 2 6490 15 0 13 -728
15 -6490 15 -5762 0 -6490 -2 -6490 -15z"/>
<path d="M512 481 c-11 -7 -11 -9 2 -14 13 -5 16 -25 16 -109 l0 -103 47 -3
c36 -2 51 2 70 20 53 49 10 137 -62 125 l-35 -6 0 50 c0 49 -9 59 -38 40z
m118 -110 c26 -50 2 -115 -41 -109 -22 3 -24 8 -27 57 -3 56 5 71 40 71 10 0
22 -9 28 -19z"/>
<path d="M702 481 c-11 -7 -11 -9 2 -14 25 -10 23 -192 -1 -206 -14 -8 -8 -10
27 -10 35 0 41 2 28 10 -15 9 -18 26 -18 119 0 112 -4 123 -38 101z"/>
<path d="M3375 480 c-3 -5 -1 -10 4 -10 16 0 14 -193 -1 -208 -9 -9 -2 -12 33
-12 35 1 40 3 27 11 -15 9 -18 26 -18 119 0 102 -1 110 -19 110 -11 0 -23 -4
-26 -10z"/>
<path d="M4867 484 c-3 -4 0 -13 8 -21 8 -8 15 -27 15 -43 0 -27 -2 -28 -35
-23 -70 11 -113 -73 -65 -124 16 -18 31 -22 87 -22 50 0 63 3 51 10 -16 9 -18
26 -18 119 0 100 -2 110 -18 110 -10 0 -21 -3 -25 -6z m-3 -100 c19 -7 22 -94
4 -112 -31 -31 -68 -1 -68 53 0 52 24 74 64 59z"/>
<path d="M5605 480 c-3 -5 -1 -10 4 -10 16 0 14 -193 -1 -208 -9 -9 -2 -12 33
-12 35 1 40 3 27 11 -15 9 -18 26 -18 119 0 102 -1 110 -19 110 -11 0 -23 -4
-26 -10z"/>
<path d="M7628 479 c-12 -6 -18 -22 -18 -44 0 -27 -4 -35 -17 -35 -17 -1 -17
-1 0 -11 13 -8 17 -23 17 -64 0 -41 -4 -56 -17 -64 -14 -8 -8 -10 27 -10 35 0
41 2 28 10 -14 8 -18 23 -18 65 0 47 3 56 23 64 l22 9 -22 0 c-18 1 -23 7 -23
30 0 16 7 34 15 41 12 10 15 10 15 -4 0 -9 7 -16 16 -16 23 0 13 35 -11 37
-11 2 -28 -2 -37 -8z"/>
<path d="M8660 470 c-39 -39 -20 -93 40 -111 56 -17 77 -42 62 -74 -20 -43
-86 -32 -108 19 l-13 31 -1 -49 c0 -39 3 -46 13 -37 10 8 22 7 45 -1 27 -11
35 -10 59 8 20 15 29 32 31 56 4 40 -15 61 -73 80 -43 14 -58 46 -34 74 19 23
51 13 76 -25 l23 -34 0 43 c0 35 -2 41 -14 31 -10 -8 -16 -9 -21 -1 -11 17
-64 11 -85 -10z"/>
<path d="M9956 481 c-3 -5 1 -11 9 -15 12 -4 15 -25 15 -100 0 -80 -3 -97 -17
-105 -14 -8 -8 -10 27 -10 35 0 41 2 28 10 -26 15 -25 90 2 114 33 30 50 13
50 -49 0 -42 -4 -57 -17 -65 -14 -8 -9 -10 27 -11 34 0 41 3 32 12 -7 7 -12
29 -12 49 0 61 -15 89 -48 89 -15 0 -33 -5 -40 -12 -9 -9 -12 1 -12 45 0 50
-2 57 -19 57 -11 0 -22 -4 -25 -9z"/>
<path d="M10415 456 c-37 -40 -47 -81 -29 -131 16 -49 30 -63 74 -76 71 -22
140 36 140 118 0 108 -114 163 -185 89z m120 -1 c34 -33 36 -128 4 -169 -59
-76 -153 25 -119 128 21 65 73 84 115 41z"/>
<path d="M10698 474 c-58 -31 -77 -127 -36 -179 21 -27 73 -55 102 -55 21 0
73 46 79 70 3 11 1 20 -4 20 -5 0 -9 -7 -9 -15 0 -25 -38 -55 -70 -55 -50 0
-80 38 -80 102 0 56 16 90 51 109 32 17 76 -6 91 -47 15 -43 28 -34 28 22 0
41 -13 59 -23 32 -3 -10 -9 -10 -26 0 -27 16 -70 15 -103 -4z"/>
<path d="M11830 470 c-39 -39 -20 -93 40 -111 56 -17 77 -42 62 -74 -20 -43
-86 -32 -108 19 l-13 31 -1 -49 c0 -39 3 -46 13 -37 10 8 22 7 45 -1 27 -11
35 -10 59 8 20 15 29 32 31 56 4 40 -15 61 -73 80 -43 14 -58 46 -34 74 19 23
51 13 76 -25 l23 -34 0 43 c0 35 -2 41 -14 31 -10 -8 -16 -9 -21 -1 -11 17
-64 11 -85 -10z"/>
<path d="M12410 480 c-13 -8 -12 -10 3 -10 13 0 17 -9 17 -38 0 -37 -1 -38
-33 -34 -67 8 -109 -67 -67 -120 19 -25 27 -27 86 -27 50 1 63 4 55 13 -6 7
-12 59 -13 116 -3 109 -11 125 -48 100z m8 -102 c7 -7 12 -30 12 -53 0 -44
-13 -65 -41 -65 -25 0 -43 28 -43 65 0 54 41 84 72 53z"/>
<path d="M130 463 c0 -10 -3 -29 -7 -42 -4 -17 -3 -22 5 -17 7 4 12 16 12 27
0 22 41 45 64 36 13 -5 16 -24 16 -101 0 -94 0 -94 -27 -104 -23 -9 -16 -10
42 -10 58 0 65 1 43 10 -28 10 -28 10 -28 109 0 97 1 99 23 99 31 0 55 -20 60
-50 3 -16 5 -9 6 18 l1 42 -105 0 c-93 0 -105 -2 -105 -17z"/>
<path d="M1070 418 c0 -32 2 -58 5 -58 3 0 14 6 25 12 28 18 54 -1 58 -40 4
-42 -13 -72 -42 -72 -27 0 -55 25 -35 32 8 3 10 11 6 22 -9 23 -27 11 -27 -19
0 -32 39 -58 74 -49 34 8 56 40 56 80 0 39 -27 64 -68 64 -27 0 -32 4 -32 25
0 20 5 25 26 25 27 0 64 16 64 28 0 4 -25 7 -55 7 l-55 0 0 -57z"/>
<path d="M1493 473 c15 -4 17 -18 17 -103 0 -84 -3 -101 -17 -109 -13 -8 10
-10 85 -11 80 0 102 3 102 14 0 7 2 29 5 47 l5 34 -15 -33 c-16 -35 -48 -52
-96 -52 -28 0 -29 1 -29 50 0 46 2 50 25 50 13 0 29 -8 34 -17 8 -14 10 -7 10
32 0 40 -2 45 -9 28 -6 -16 -18 -23 -35 -23 -23 0 -25 3 -25 46 l0 45 48 -3
c43 -3 49 -6 64 -38 17 -34 18 -34 18 -8 0 56 -4 58 -109 57 -53 -1 -88 -3
-78 -6z"/>
<path d="M2384 469 c-10 -17 13 -36 27 -22 12 12 4 33 -11 33 -5 0 -12 -5 -16
-11z"/>
<path d="M5054 469 c-10 -17 13 -36 27 -22 12 12 4 33 -11 33 -5 0 -12 -5 -16
-11z"/>
<path d="M6897 466 c-7 -16 1 -26 20 -26 7 0 13 9 13 20 0 23 -25 27 -33 6z"/>
<path d="M7772 470 c9 -6 36 -60 59 -120 23 -60 45 -107 49 -105 4 3 25 49 45
102 20 54 46 106 57 116 20 17 19 17 -17 17 -30 0 -35 -3 -26 -14 8 -10 5 -30
-15 -82 -14 -37 -28 -72 -31 -78 -6 -9 -63 127 -63 151 0 6 6 14 13 16 6 3
-10 6 -38 6 -38 0 -46 -2 -33 -9z"/>
<path d="M8034 469 c-10 -17 13 -36 27 -22 12 12 4 33 -11 33 -5 0 -12 -5 -16
-11z"/>
<path d="M8116 464 c-3 -9 -6 -28 -6 -42 0 -26 1 -26 18 8 12 25 25 36 45 38
l27 3 0 -101 c0 -95 -1 -101 -22 -110 -17 -6 -4 -9 47 -8 44 0 61 3 45 7 -24
7 -25 10 -28 109 -3 100 -2 102 20 102 33 0 48 -12 58 -46 8 -27 8 -27 9 14
l1 42 -104 0 c-85 0 -105 -3 -110 -16z"/>
<path d="M8505 468 c-40 -22 -50 -68 -15 -68 11 0 20 7 20 15 0 8 -5 15 -11
15 -8 0 -8 5 1 15 27 32 70 10 70 -35 0 -27 -39 -89 -79 -124 -11 -11 -21 -23
-21 -28 0 -4 29 -8 65 -8 49 0 65 3 65 14 0 8 3 23 6 33 5 17 5 17 -9 1 -9
-12 -28 -18 -52 -18 l-38 0 52 54 c57 61 62 85 26 121 -26 27 -49 31 -80 13z"/>
<path d="M8833 473 c15 -4 17 -18 17 -103 0 -84 -3 -101 -17 -109 -14 -8 -5
-10 37 -10 42 0 51 2 38 10 -13 7 -18 23 -18 54 l0 45 43 0 c55 0 87 22 87 60
0 46 -31 60 -125 59 -44 -1 -72 -3 -62 -6z m135 -15 c7 -7 12 -24 12 -38 0
-35 -17 -50 -57 -50 -33 0 -33 0 -33 50 0 50 0 50 33 50 18 0 38 -5 45 -12z"/>
<path d="M9063 473 c15 -4 17 -17 17 -100 0 -80 -3 -98 -17 -109 -16 -12 -13
-13 27 -13 40 0 43 1 28 13 -15 11 -18 29 -18 102 l0 89 68 -102 c37 -57 70
-103 75 -103 4 0 7 47 7 105 0 88 3 106 18 114 13 8 8 10 -28 11 -43 0 -44 0
-22 -16 19 -13 22 -24 22 -80 0 -42 -4 -63 -10 -59 -6 4 -33 40 -60 81 -48 71
-52 74 -88 73 -20 -1 -29 -3 -19 -6z"/>
<path d="M10881 438 c1 -41 1 -41 9 -14 10 34 25 46 58 46 21 0 22 -3 22 -99
0 -99 0 -99 -27 -109 -23 -9 -16 -10 42 -10 59 0 66 1 42 10 l-28 10 3 96 c3
93 4 97 26 100 28 4 52 -14 52 -39 0 -11 5 -19 11 -19 7 0 9 9 5 23 -3 12 -6
28 -6 35 0 9 -28 12 -105 12 l-105 0 1 -42z"/>
<path d="M11133 473 c15 -4 17 -17 17 -100 0 -80 -3 -98 -17 -109 -16 -12 -13
-13 27 -13 40 0 43 1 28 13 -15 11 -18 29 -18 97 l1 84 35 -90 c19 -49 39 -94
43 -98 5 -5 25 35 46 88 20 53 35 98 32 101 -2 2 -17 -29 -33 -71 -16 -41 -31
-71 -35 -67 -3 4 -21 44 -39 90 l-32 82 -37 -1 c-20 -1 -28 -3 -18 -6z"/>
<path d="M11338 378 c4 -89 2 -103 -14 -115 -16 -11 -11 -13 37 -12 42 0 49 2
32 9 -22 9 -23 15 -23 109 0 95 1 100 23 104 12 2 5 5 -18 6 l-41 1 4 -102z"/>
<path d="M11443 473 c15 -4 17 -18 17 -104 0 -81 -3 -99 -15 -99 -8 0 -15 -4
-15 -10 0 -5 19 -10 43 -10 l42 0 -23 18 c-21 16 -23 24 -20 102 l3 85 69
-102 c38 -57 73 -103 78 -103 4 0 8 47 8 105 0 88 3 106 18 114 13 8 7 10 -28
10 -35 0 -41 -2 -27 -10 14 -8 17 -24 17 -82 l0 -72 -57 83 c-54 78 -59 82
-92 81 -20 -1 -28 -3 -18 -6z"/>
<path d="M11693 473 c15 -4 17 -18 17 -103 0 -84 -3 -101 -17 -109 -14 -8 -5
-10 37 -10 42 0 51 2 38 10 -15 8 -18 25 -18 109 0 85 2 99 18 103 9 3 -8 5
-38 5 -30 0 -47 -2 -37 -5z"/>
<path d="M11991 438 c1 -41 1 -41 9 -14 10 34 25 46 58 46 22 0 23 -2 20 -102
-3 -99 -4 -102 -28 -109 -16 -4 1 -7 45 -7 51 -1 64 2 48 8 -22 9 -23 15 -23
110 l0 101 28 -3 c19 -2 32 -13 45 -38 l18 -35 -3 40 -3 40 -107 3 -108 3 1
-43z"/>
<path d="M3106 437 c-5 -15 -16 -32 -25 -37 -9 -6 -11 -10 -3 -10 8 0 12 -17
12 -53 0 -63 16 -90 51 -85 19 2 24 9 26 33 2 28 1 28 -5 5 -5 -14 -14 -25
-22 -25 -11 0 -16 16 -18 62 -3 61 -2 62 25 66 l28 4 -27 2 c-22 1 -27 6 -30
34 l-4 32 -8 -28z"/>
<path d="M3862 443 c-1 -12 -11 -28 -22 -36 -18 -12 -18 -15 -5 -20 11 -5 15
-20 15 -56 0 -64 7 -81 34 -81 28 0 46 18 45 44 0 17 -2 16 -11 -6 -13 -38
-36 -35 -43 5 -11 58 -3 90 25 98 l25 7 -27 1 c-22 1 -27 6 -31 34 -2 18 -4
22 -5 10z"/>
<path d="M6486 437 c-5 -15 -16 -32 -25 -37 -9 -6 -11 -10 -3 -10 8 0 12 -17
12 -53 0 -63 16 -90 51 -85 19 2 24 9 26 33 2 28 1 28 -5 5 -5 -14 -14 -25
-22 -25 -11 0 -16 16 -18 62 -3 61 -2 62 25 66 l28 4 -27 2 c-22 1 -27 6 -30
34 l-4 32 -8 -28z"/>
<path d="M6786 437 c-5 -15 -16 -32 -25 -37 -9 -6 -11 -10 -3 -10 8 0 12 -17
12 -53 0 -63 16 -90 51 -85 19 2 24 9 26 33 2 28 1 28 -5 5 -5 -14 -14 -25
-22 -25 -11 0 -16 16 -18 62 -3 61 -2 62 25 66 l28 4 -27 2 c-22 1 -27 6 -30
34 l-4 32 -8 -28z"/>
<path d="M9856 437 c-5 -15 -16 -32 -25 -37 -9 -6 -11 -10 -3 -10 8 0 12 -17
12 -53 0 -63 16 -90 51 -85 19 2 24 9 26 33 2 28 1 28 -5 5 -5 -14 -14 -25
-22 -25 -11 0 -16 16 -18 62 -3 61 -2 62 25 66 l28 4 -27 2 c-22 1 -27 6 -30
34 l-4 32 -8 -28z"/>
<path d="M12703 438 c-7 -14 -20 -31 -30 -37 -17 -10 -17 -10 0 -11 14 0 17
-10 17 -58 0 -62 11 -82 46 -82 22 0 35 18 33 48 -1 10 -4 6 -8 -8 -4 -14 -13
-25 -21 -25 -11 0 -16 16 -18 62 -3 57 -1 62 20 66 22 4 22 4 1 6 -17 1 -23 8
-25 34 l-4 32 -11 -27z"/>
<path d="M13286 437 c-5 -15 -16 -32 -25 -37 -9 -6 -11 -10 -3 -10 8 0 12 -17
12 -53 0 -63 16 -90 51 -85 19 2 24 9 26 33 2 28 1 28 -5 5 -5 -14 -14 -25
-22 -25 -11 0 -16 16 -18 62 -3 61 -2 62 25 66 l28 4 -27 2 c-22 1 -27 6 -30
34 l-4 32 -8 -28z"/>
<path d="M362 388 c-17 -17 -15 -38 3 -38 8 0 15 9 15 20 0 27 36 27 50 0 9
-17 8 -21 -7 -26 -76 -24 -98 -49 -73 -79 14 -17 66 -20 75 -5 4 6 13 5 26 -3
17 -10 22 -9 35 7 16 23 18 36 4 36 -5 0 -10 -9 -10 -21 0 -11 -4 -17 -10 -14
-5 3 -10 30 -10 59 0 60 -12 76 -55 76 -17 0 -36 -5 -43 -12z m78 -67 c0 -29
-21 -61 -40 -61 -31 0 -37 30 -11 52 25 19 51 24 51 9z"/>
<path d="M806 378 c-37 -53 -6 -128 52 -128 27 0 62 26 62 45 0 5 -9 -1 -20
-13 -26 -27 -56 -28 -70 -3 -21 41 -13 51 40 51 54 0 61 10 34 48 -10 15 -25
22 -49 22 -24 0 -39 -7 -49 -22z m78 -4 c11 -29 6 -34 -29 -34 -36 0 -46 15
-23 38 17 17 45 15 52 -4z"/>
<path d="M1240 380 c0 -11 7 -20 15 -20 8 0 15 9 15 20 0 11 -7 20 -15 20 -8
0 -15 -9 -15 -20z"/>
<path d="M1733 369 c20 -17 37 -36 37 -43 0 -13 -22 -38 -55 -61 -19 -14 -18
-14 17 -15 30 0 35 3 31 18 -2 10 2 24 11 31 12 10 17 9 26 -9 6 -11 8 -25 5
-30 -4 -6 11 -10 37 -9 36 0 40 2 23 11 -11 5 -31 23 -44 39 l-23 30 23 25
c12 13 28 24 36 24 7 0 13 5 13 10 0 6 -13 10 -29 10 -23 0 -30 -5 -33 -22 -2
-13 -10 -23 -18 -23 -9 0 -15 9 -14 23 0 19 -4 22 -40 22 l-41 0 38 -31z"/>
<path d="M1890 389 c0 -5 5 -9 10 -9 15 0 13 -177 -2 -183 -7 -3 5 -5 27 -5
22 0 34 2 28 5 -7 2 -13 17 -13 32 0 25 3 27 34 23 45 -5 76 25 76 73 0 54
-27 74 -99 74 -34 0 -61 -5 -61 -10z m120 -18 c22 -43 5 -111 -28 -111 -29 0
-42 21 -42 65 0 23 5 46 12 53 18 18 46 14 58 -7z"/>
<path d="M2105 380 c-27 -30 -25 -88 4 -111 26 -22 71 -25 89 -7 20 20 13 32
-7 14 -25 -23 -52 -17 -68 14 -17 34 -9 40 48 40 48 0 50 1 43 23 -3 12 -11
28 -16 35 -16 19 -73 15 -93 -8z m73 -2 c23 -23 13 -38 -23 -38 -35 0 -40 5
-29 34 7 19 35 21 52 4z"/>
<path d="M2243 386 c12 -10 17 -27 17 -64 0 -38 -4 -54 -17 -61 -14 -8 -7 -10
32 -11 49 0 49 0 26 16 -20 14 -22 22 -17 57 9 54 24 73 41 51 8 -12 14 -14
19 -6 17 28 -28 44 -52 20 -9 -9 -12 -9 -12 0 0 7 -12 12 -27 12 -25 -1 -26
-2 -10 -14z"/>
<path d="M2370 390 c0 -5 5 -10 10 -10 14 0 12 -104 -2 -118 -9 -9 -3 -12 27
-12 30 0 36 3 27 12 -7 7 -12 39 -12 75 0 61 -1 63 -25 63 -14 0 -25 -4 -25
-10z"/>
<path d="M2460 391 c0 -5 7 -11 15 -15 23 -8 21 -102 -2 -115 -14 -8 -8 -10
27 -10 35 0 41 2 28 10 -26 15 -25 90 2 114 33 30 50 13 50 -49 0 -42 -4 -57
-17 -65 -14 -8 -9 -10 27 -11 34 0 41 3 32 12 -7 7 -12 33 -12 59 0 49 18 76
45 65 19 -7 21 -106 3 -124 -9 -9 -2 -12 33 -12 35 1 40 3 27 11 -14 7 -18 23
-18 62 0 29 -5 58 -12 65 -15 15 -60 16 -75 1 -8 -8 -13 -8 -17 0 -9 15 -59
14 -74 -1 -9 -9 -12 -9 -12 0 0 7 -11 12 -25 12 -14 0 -25 -4 -25 -9z"/>
<path d="M2760 380 c-44 -44 -9 -130 52 -130 28 0 58 23 57 43 0 7 -7 2 -16
-10 -19 -28 -44 -29 -66 -5 -32 36 -22 52 33 52 43 0 50 3 50 19 0 48 -72 69
-110 31z m81 -17 c8 -21 6 -23 -31 -23 -44 0 -45 2 -29 31 14 26 49 21 60 -8z"/>
<path d="M2890 391 c0 -5 7 -11 15 -15 23 -8 21 -102 -2 -115 -14 -8 -8 -10
27 -10 35 0 41 2 28 10 -26 15 -25 90 2 114 33 30 50 13 50 -49 0 -42 -4 -57
-17 -65 -14 -8 -9 -10 27 -11 34 0 41 3 32 12 -7 7 -12 29 -12 49 0 61 -15 89
-48 89 -15 0 -33 -5 -40 -12 -9 -9 -12 -9 -12 0 0 7 -11 12 -25 12 -14 0 -25
-4 -25 -9z"/>
<path d="M3220 385 c-9 -11 -10 -19 -2 -27 14 -14 33 -1 25 17 -6 18 27 21 45
3 21 -21 13 -36 -22 -42 -44 -8 -74 -41 -59 -64 8 -13 26 -17 74 -18 64 -2 79
6 78 36 0 8 -5 4 -10 -10 -14 -35 -29 -9 -29 51 0 25 -5 50 -12 57 -17 17 -73
15 -88 -3z m80 -78 c0 -28 -17 -47 -42 -47 -30 0 -34 31 -9 52 31 25 51 23 51
-5z"/>
<path d="M3550 385 c-19 -23 -2 -53 38 -66 43 -14 55 -28 40 -46 -17 -21 -45
-15 -67 15 l-20 27 -1 -31 c0 -29 3 -31 38 -32 50 -2 69 5 75 28 7 26 -14 52
-54 65 -39 14 -45 38 -10 43 17 3 30 -4 43 -20 l18 -23 0 28 c0 25 -3 27 -44
27 -26 0 -48 -6 -56 -15z"/>
<path d="M3695 380 c-27 -30 -25 -88 4 -111 26 -22 71 -25 89 -7 20 20 13 32
-7 14 -25 -23 -52 -17 -68 14 -17 34 -9 40 48 40 48 0 50 1 43 23 -3 12 -11
28 -16 35 -16 19 -73 15 -93 -8z m73 -2 c23 -23 13 -38 -23 -38 -35 0 -40 5
-29 34 7 19 35 21 52 4z"/>
<path d="M3960 390 c0 -5 5 -10 10 -10 6 0 10 -21 10 -46 0 -74 9 -83 87 -82
56 0 64 2 50 13 -13 9 -17 27 -17 74 0 60 0 61 -27 61 -25 -1 -26 -2 -10 -14
19 -15 22 -60 7 -101 -7 -20 -16 -26 -33 -23 -20 3 -22 9 -25 71 -3 64 -4 67
-27 67 -14 0 -25 -4 -25 -10z"/>
<path d="M4153 385 c26 -18 25 -181 0 -188 -10 -3 2 -5 27 -5 25 0 39 2 33 5
-7 2 -13 17 -13 32 0 25 3 27 31 23 64 -9 107 80 60 127 -16 16 -33 19 -87 19
-57 0 -65 -2 -51 -13z m109 -12 c38 -35 9 -120 -39 -111 -14 2 -19 14 -21 51
-4 69 21 95 60 60z"/>
<path d="M4437 393 c-13 -13 -7 -43 9 -43 11 0 15 6 11 20 -4 16 0 20 18 20
20 0 35 -17 35 -40 0 -4 -15 -11 -34 -14 -41 -8 -59 -27 -54 -58 2 -18 10 -24
36 -26 18 -2 40 2 48 9 11 9 14 9 14 0 0 -7 10 -11 23 -9 15 2 23 11 24 28 l3
25 -12 -25 c-11 -23 -12 -20 -17 38 -4 40 -11 66 -21 72 -17 11 -73 13 -83 3z
m73 -86 c0 -28 -17 -47 -42 -47 -24 0 -24 45 0 59 28 17 42 13 42 -12z"/>
<path d="M4580 391 c0 -5 7 -11 15 -15 23 -8 21 -102 -2 -115 -14 -8 -8 -10
27 -10 35 0 41 2 28 10 -26 15 -25 90 2 114 33 30 50 13 50 -49 0 -42 -4 -57
-17 -65 -14 -8 -9 -10 27 -11 34 0 41 3 32 12 -7 7 -12 29 -12 49 0 61 -15 89
-48 89 -15 0 -33 -5 -40 -12 -9 -9 -12 -9 -12 0 0 7 -11 12 -25 12 -14 0 -25
-4 -25 -9z"/>
<path d="M5040 390 c0 -5 5 -10 10 -10 6 0 10 -25 10 -55 0 -41 -4 -56 -17
-64 -14 -8 -9 -10 27 -11 34 0 41 3 32 12 -7 7 -12 39 -12 75 0 61 -1 63 -25
63 -14 0 -25 -4 -25 -10z"/>
<path d="M5130 391 c0 -5 7 -11 15 -15 23 -8 21 -102 -2 -115 -14 -8 -8 -10
27 -10 35 0 41 2 28 10 -26 15 -25 90 2 114 33 30 50 13 50 -49 0 -42 -4 -57
-17 -65 -14 -8 -9 -10 27 -11 34 0 41 3 32 12 -7 7 -12 33 -12 59 0 49 18 76
45 65 19 -7 21 -106 3 -124 -9 -9 -2 -12 33 -12 35 1 40 3 27 11 -14 7 -18 23
-18 62 0 29 -5 58 -12 65 -15 15 -60 16 -75 1 -8 -8 -13 -8 -17 0 -9 15 -59
14 -74 -1 -9 -9 -12 -9 -12 0 0 7 -11 12 -25 12 -14 0 -25 -4 -25 -9z"/>
<path d="M5410 389 c0 -5 5 -9 10 -9 15 0 13 -177 -2 -183 -7 -3 7 -5 32 -5
25 0 37 2 28 5 -12 3 -18 14 -18 32 0 25 3 27 33 23 47 -5 81 25 81 71 0 58
-25 76 -100 76 -35 -1 -64 -5 -64 -10z m120 -14 c6 -8 12 -30 12 -50 0 -40
-16 -65 -41 -65 -28 0 -41 21 -41 65 0 59 39 87 70 50z"/>
<path d="M5710 380 c-44 -44 -9 -130 52 -130 28 0 58 23 57 43 0 7 -7 2 -16
-10 -19 -28 -44 -29 -66 -5 -32 36 -22 52 33 52 43 0 50 3 50 19 0 48 -72 69
-110 31z m81 -17 c8 -21 6 -23 -31 -23 -44 0 -45 2 -29 31 14 26 49 21 60 -8z"/>
<path d="M5840 391 c0 -5 7 -11 15 -15 23 -8 21 -102 -2 -115 -14 -8 -8 -10
27 -10 35 0 41 2 28 10 -26 15 -25 90 2 114 33 30 50 13 50 -49 0 -42 -4 -57
-17 -65 -14 -8 -9 -10 27 -11 34 0 41 3 32 12 -7 7 -12 33 -12 59 0 49 18 76
45 65 19 -7 21 -106 3 -124 -9 -9 -2 -12 33 -12 35 1 40 3 27 11 -14 7 -18 23
-18 62 0 29 -5 58 -12 65 -15 15 -60 16 -75 1 -8 -8 -13 -8 -17 0 -9 15 -59
14 -74 -1 -9 -9 -12 -9 -12 0 0 7 -11 12 -25 12 -14 0 -25 -4 -25 -9z"/>
<path d="M6154 392 c-16 -10 -34 -48 -34 -70 0 -11 9 -31 21 -46 33 -41 109
-32 109 13 0 11 -5 9 -16 -7 -8 -12 -24 -22 -34 -22 -20 0 -50 35 -50 57 0 9
16 13 50 13 53 0 61 10 40 51 -11 19 -63 27 -86 11z m66 -23 c15 -27 10 -31
-33 -27 -31 3 -34 5 -26 26 11 28 45 29 59 1z"/>
<path d="M6283 386 c12 -10 17 -27 17 -64 0 -38 -4 -54 -17 -61 -14 -8 -9 -10
26 -11 40 0 43 1 26 13 -36 27 -1 139 39 124 20 -8 23 -106 4 -125 -9 -9 -3
-12 27 -12 30 0 36 3 27 12 -7 7 -12 32 -12 56 0 24 -5 52 -10 63 -12 22 -59
26 -78 7 -9 -9 -12 -9 -12 0 0 7 -12 12 -27 12 -25 -1 -26 -2 -10 -14z"/>
<path d="M6600 385 c-9 -11 -10 -19 -2 -27 14 -14 33 -1 25 17 -6 18 27 21 45
3 21 -21 13 -36 -22 -42 -44 -8 -74 -41 -59 -64 8 -13 26 -17 74 -18 64 -2 79
6 78 36 0 8 -5 4 -10 -10 -14 -35 -29 -9 -29 51 0 25 -5 50 -12 57 -17 17 -73
15 -88 -3z m80 -78 c0 -28 -17 -47 -42 -47 -30 0 -34 31 -9 52 31 25 51 23 51
-5z"/>
<path d="M6893 382 c24 -26 23 -107 0 -121 -15 -8 -10 -10 22 -11 30 0 36 3
27 12 -7 7 -12 39 -12 75 0 62 -1 63 -27 63 -25 0 -25 -1 -10 -18z"/>
<path d="M6995 380 c-11 -12 -19 -36 -19 -55 0 -45 28 -75 71 -75 63 0 96 73
57 128 -20 30 -83 31 -109 2z m84 -4 c18 -21 10 -97 -11 -110 -25 -15 -50 3
-62 42 -16 56 40 108 73 68z"/>
<path d="M7153 386 c12 -10 17 -27 17 -64 0 -38 -4 -54 -17 -61 -14 -8 -9 -10
26 -11 40 0 43 1 26 13 -36 27 -1 139 39 124 20 -8 23 -106 4 -125 -9 -9 -3
-12 27 -12 30 0 36 3 27 12 -7 7 -12 32 -12 56 0 24 -5 52 -10 63 -12 22 -59
26 -78 7 -9 -9 -12 -9 -12 0 0 7 -12 12 -27 12 -25 -1 -26 -2 -10 -14z"/>
<path d="M7430 378 c-45 -48 -9 -128 57 -128 36 0 73 38 73 75 0 12 -9 34 -21
49 -27 34 -79 36 -109 4z m90 -7 c14 -28 12 -63 -6 -89 -30 -43 -74 -18 -74
43 0 40 18 65 45 65 14 0 29 -8 35 -19z"/>
<path d="M8020 390 c0 -5 5 -10 10 -10 6 0 10 -25 10 -55 0 -41 -4 -56 -17
-64 -14 -8 -9 -10 27 -11 34 0 41 3 32 12 -7 7 -12 39 -12 75 0 61 -1 63 -25
63 -14 0 -25 -4 -25 -10z"/>
<path d="M9401 374 c-12 -15 -21 -37 -21 -49 0 -38 37 -75 76 -75 44 0 74 29
74 73 0 72 -86 106 -129 51z m87 4 c15 -15 16 -72 2 -99 -22 -41 -80 -6 -80
49 0 53 46 82 78 50z"/>
<path d="M9563 386 c12 -10 17 -27 17 -64 0 -38 -4 -54 -17 -61 -14 -8 -9 -10
26 -11 40 0 43 1 26 13 -36 27 -1 139 39 124 20 -8 23 -106 4 -125 -9 -9 -3
-12 27 -12 30 0 36 3 27 12 -7 7 -12 32 -12 56 0 24 -5 52 -10 63 -12 22 -59
26 -78 7 -9 -9 -12 -9 -12 0 0 7 -12 12 -27 12 -25 -1 -26 -2 -10 -14z"/>
<path d="M10156 378 c-37 -53 -6 -128 52 -128 27 0 62 26 62 45 0 5 -9 -1 -20
-13 -26 -27 -56 -28 -70 -3 -21 41 -13 51 40 51 54 0 61 10 34 48 -10 15 -25
22 -49 22 -24 0 -39 -7 -49 -22z m78 -4 c11 -29 6 -34 -29 -34 -36 0 -46 15
-23 38 17 17 45 15 52 -4z"/>
<path d="M12520 385 c-9 -11 -10 -19 -2 -27 14 -14 33 -1 25 17 -6 18 27 21
45 3 21 -21 13 -36 -22 -42 -44 -8 -74 -41 -59 -64 8 -13 26 -17 74 -18 64 -2
79 6 78 36 0 8 -5 4 -10 -10 -14 -35 -29 -9 -29 51 0 25 -5 50 -12 57 -17 17
-73 15 -88 -3z m80 -78 c0 -28 -17 -47 -42 -47 -30 0 -34 31 -9 52 31 25 51
23 51 -5z"/>
<path d="M12820 385 c-9 -11 -10 -19 -2 -27 14 -14 33 -1 25 17 -6 18 27 21
45 3 21 -21 13 -36 -22 -42 -44 -8 -74 -41 -59 -64 8 -13 26 -17 74 -18 64 -2
79 6 78 36 0 8 -5 4 -10 -10 -14 -35 -29 -9 -29 51 0 25 -5 50 -12 57 -17 17
-73 15 -88 -3z m80 -78 c0 -28 -17 -47 -42 -47 -30 0 -34 31 -9 52 31 25 51
23 51 -5z"/>
<path d="M12983 393 c-7 -2 -13 -15 -13 -28 0 -26 10 -35 55 -50 40 -13 42
-49 3 -53 -21 -3 -30 3 -42 25 l-15 28 -1 -31 c0 -28 2 -30 41 -33 47 -2 69
12 69 44 0 26 -13 38 -55 52 -42 14 -46 43 -5 43 22 0 33 -6 40 -22 8 -22 9
-22 9 5 1 25 -2 27 -36 26 -21 0 -44 -3 -50 -6z"/>
<path d="M13120 380 c-44 -44 -9 -130 52 -130 28 0 58 23 57 43 0 7 -7 2 -16
-10 -19 -28 -44 -29 -66 -5 -32 36 -22 52 33 52 43 0 50 3 50 19 0 48 -72 69
-110 31z m81 -17 c8 -21 6 -23 -31 -23 -44 0 -45 2 -29 31 14 26 49 21 60 -8z"/>
<path d="M8345 330 c-3 -5 0 -13 8 -16 23 -8 82 0 82 11 0 14 -82 19 -90 5z"/>
<path d="M1240 270 c0 -11 7 -20 15 -20 8 0 15 9 15 20 0 11 -7 20 -15 20 -8
0 -15 -9 -15 -20z"/>
<path d="M13404 279 c-10 -17 13 -36 27 -22 12 12 4 33 -11 33 -5 0 -12 -5
-16 -11z"/>
</g>
</svg>
