<svg xmlns="http://www.w3.org/2000/svg" xmlns:xlink="http://www.w3.org/1999/xlink" xmlns:inkscape="http://www.inkscape.org/namespaces/inkscape" version="1.1" width="1040" height="476" viewBox="0 0 1040 476">
<defs>
<clipPath id="clip_0">
<path transform="matrix(1,0,0,-1,0,476)" d="M0 .1454534H1039.855V475.99995H0Z"/>
</clipPath>
<clipPath id="clip_1">
<path transform="matrix(1,0,0,-1,0,476)" d="M.2181818 1.018181H1038.9822V475.1273H.2181818Z"/>
</clipPath>
<clipPath id="clip_2">
<path transform="matrix(1,0,0,-1,0,476)" d="M11.34545 33.96364H1028.7274V412.50917H11.34545Z"/>
</clipPath>
<clipPath id="clip_3">
<path transform="matrix(1,0,0,-1,0,476)" d="M11.34545 33.96364H1028.7274V412.50917H11.34545Z"/>
</clipPath>
<clipPath id="clip_4">
<path transform="matrix(1,0,0,-1,0,476)" d="M11.34545 33.96364H1028.7274V412.50917H11.34545Z"/>
</clipPath>
<clipPath id="clip_5">
<path transform="matrix(1,0,0,-1,0,476)" d="M11.34545 33.96364H1028.7274V412.50917H11.34545Z"/>
</clipPath>
<clipPath id="clip_6">
<path transform="matrix(1,0,0,-1,0,476)" d="M11.34545 33.96364H1028.7274V412.50917H11.34545Z"/>
</clipPath>
<clipPath id="clip_7">
<path transform="matrix(1,0,0,-1,0,476)" d="M.2181818 1.018181H1038.9822V475.1273H.2181818Z"/>
</clipPath>
<clipPath id="clip_8">
<path transform="matrix(1,0,0,-1,0,476)" d="M.2181818 1.018181H1038.9822V475.1273H.2181818Z"/>
</clipPath>
<clipPath id="clip_9">
<path transform="matrix(1,0,0,-1,0,476)" d="M.2181818 1.018181H1038.9822V475.1273H.2181818Z"/>
</clipPath>
<clipPath id="clip_10">
<path transform="matrix(1,0,0,-1,0,476)" d="M.2181818 1.018181H1038.9822V475.1273H.2181818Z"/>
</clipPath>
<clipPath id="clip_11">
<path transform="matrix(1,0,0,-1,0,476)" d="M.2181818 1.018181H1038.9822V475.1273H.2181818Z"/>
</clipPath>
<clipPath id="clip_12">
<path transform="matrix(1,0,0,-1,0,476)" d="M.2181818 1.018181H1038.9822V475.1273H.2181818Z"/>
</clipPath>
<clipPath id="clip_13">
<path transform="matrix(1,0,0,-1,0,476)" d="M.2181818 1.018181H1038.9822V475.1273H.2181818Z"/>
</clipPath>
<clipPath id="clip_14">
<path transform="matrix(1,0,0,-1,0,476)" d="M.2181818 1.018181H1038.9822V475.1273H.2181818Z"/>
</clipPath>
<clipPath id="clip_15">
<path transform="matrix(1,0,0,-1,0,476)" d="M.2181818 1.018181H1038.9822V475.1273H.2181818Z"/>
</clipPath>
<clipPath id="clip_16">
<path transform="matrix(1,0,0,-1,0,476)" d="M.2181818 1.018181H1038.9822V475.1273H.2181818Z"/>
</clipPath>
<clipPath id="clip_17">
<path transform="matrix(1,0,0,-1,0,476)" d="M.2181818 1.018181H1038.9822V475.1273H.2181818Z"/>
</clipPath>
<clipPath id="clip_18">
<path transform="matrix(1,0,0,-1,0,476)" d="M.2181818 1.018181H1038.9822V475.1273H.2181818Z"/>
</clipPath>
<clipPath id="clip_19">
<path transform="matrix(1,0,0,-1,0,476)" d="M.2181818 1.018181H1038.9822V475.1273H.2181818Z"/>
</clipPath>
<clipPath id="clip_20">
<path transform="matrix(1,0,0,-1,0,476)" d="M.2181818 1.018181H1038.9822V475.1273H.2181818Z"/>
</clipPath>
<clipPath id="clip_21">
<path transform="matrix(1,0,0,-1,0,476)" d="M.2181818 1.018181H1038.9822V475.1273H.2181818Z"/>
</clipPath>
<clipPath id="clip_22">
<path transform="matrix(1,0,0,-1,0,476)" d="M.2181818 1.018181H1038.9822V475.1273H.2181818Z"/>
</clipPath>
<clipPath id="clip_23">
<path transform="matrix(1,0,0,-1,0,476)" d="M.2181818 1.018181H1038.9822V475.1273H.2181818Z"/>
</clipPath>
<clipPath id="clip_24">
<path transform="matrix(1,0,0,-1,0,476)" d="M.2181818 1.018181H1038.9822V475.1273H.2181818Z"/>
</clipPath>
<clipPath id="clip_25">
<path transform="matrix(1,0,0,-1,0,476)" d="M.2181818 1.018181H1038.9822V475.1273H.2181818Z"/>
</clipPath>
<clipPath id="clip_26">
<path transform="matrix(1,0,0,-1,0,476)" d="M.2181818 1.018181H1038.9822V475.1273H.2181818Z"/>
</clipPath>
<clipPath id="clip_27">
<path transform="matrix(1,0,0,-1,0,476)" d="M.2181818 1.018181H1038.9822V475.1273H.2181818Z"/>
</clipPath>
<clipPath id="clip_28">
<path transform="matrix(1,0,0,-1,0,476)" d="M.2181818 1.018181H1038.9822V475.1273H.2181818Z"/>
</clipPath>
<clipPath id="clip_29">
<path transform="matrix(1,0,0,-1,0,476)" d="M.2181818 1.018181H1038.9822V475.1273H.2181818Z"/>
</clipPath>
<clipPath id="clip_30">
<path transform="matrix(1,0,0,-1,0,476)" d="M.2181818 1.018181H1038.9822V475.1273H.2181818Z"/>
</clipPath>
<clipPath id="clip_31">
<path transform="matrix(1,0,0,-1,0,476)" d="M.2181818 1.018181H1038.9822V475.1273H.2181818Z"/>
</clipPath>
<clipPath id="clip_32">
<path transform="matrix(1,0,0,-1,0,476)" d="M.2181818 1.018181H1038.9822V475.1273H.2181818Z"/>
</clipPath>
<clipPath id="clip_33">
<path transform="matrix(1,0,0,-1,0,476)" d="M.2181818 1.018181H1038.9822V475.1273H.2181818Z"/>
</clipPath>
<clipPath id="clip_34">
<path transform="matrix(1,0,0,-1,0,476)" d="M.2181818 1.018181H1038.9822V475.1273H.2181818Z"/>
</clipPath>
<clipPath id="clip_35">
<path transform="matrix(1,0,0,-1,0,476)" d="M.2181818 1.018181H1038.9822V475.1273H.2181818Z"/>
</clipPath>
<clipPath id="clip_36">
<path transform="matrix(1,0,0,-1,0,476)" d="M.2181818 1.018181H1038.9822V475.1273H.2181818Z"/>
</clipPath>
<clipPath id="clip_37">
<path transform="matrix(1,0,0,-1,0,476)" d="M.2181818 1.018181H1038.9822V475.1273H.2181818Z"/>
</clipPath>
<clipPath id="clip_38">
<path transform="matrix(1,0,0,-1,0,476)" d="M.2181818 1.018181H1038.9822V475.1273H.2181818Z"/>
</clipPath>
<clipPath id="clip_39">
<path transform="matrix(1,0,0,-1,0,476)" d="M.2181818 1.018181H1038.9822V475.1273H.2181818Z"/>
</clipPath>
<clipPath id="clip_40">
<path transform="matrix(1,0,0,-1,0,476)" d="M.2181818 1.018181H1038.9822V475.1273H.2181818Z"/>
</clipPath>
<clipPath id="clip_41">
<path transform="matrix(1,0,0,-1,0,476)" d="M.2181818 1.018181H1038.9822V475.1273H.2181818Z"/>
</clipPath>
<clipPath id="clip_42">
<path transform="matrix(1,0,0,-1,0,476)" d="M.2181818 1.018181H1038.9822V475.1273H.2181818Z"/>
</clipPath>
<clipPath id="clip_43">
<path transform="matrix(1,0,0,-1,0,476)" d="M.2181818 1.018181H1038.9822V475.1273H.2181818Z"/>
</clipPath>
<clipPath id="clip_44">
<path transform="matrix(1,0,0,-1,0,476)" d="M.2181818 1.018181H1038.9822V475.1273H.2181818Z"/>
</clipPath>
<clipPath id="clip_45">
<path transform="matrix(1,0,0,-1,0,476)" d="M.2181818 1.018181H1038.9822V475.1273H.2181818Z"/>
</clipPath>
<clipPath id="clip_46">
<path transform="matrix(1,0,0,-1,0,476)" d="M.2181818 1.018181H1038.9822V475.1273H.2181818Z"/>
</clipPath>
<clipPath id="clip_47">
<path transform="matrix(1,0,0,-1,0,476)" d="M.2181818 1.018181H1038.9822V475.1273H.2181818Z"/>
</clipPath>
<clipPath id="clip_48">
<path transform="matrix(1,0,0,-1,0,476)" d="M.2181818 1.018181H1038.9822V475.1273H.2181818Z"/>
</clipPath>
<clipPath id="clip_49">
<path transform="matrix(1,0,0,-1,0,476)" d="M.2181818 1.018181H1038.9822V475.1273H.2181818Z"/>
</clipPath>
<clipPath id="clip_50">
<path transform="matrix(1,0,0,-1,0,476)" d="M.2181818 1.018181H1038.9822V475.1273H.2181818Z"/>
</clipPath>
<clipPath id="clip_51">
<path transform="matrix(1,0,0,-1,0,476)" d="M.2181818 1.018181H1038.9822V475.1273H.2181818Z"/>
</clipPath>
<clipPath id="clip_52">
<path transform="matrix(1,0,0,-1,0,476)" d="M.2181818 1.018181H1038.9822V475.1273H.2181818Z"/>
</clipPath>
<clipPath id="clip_53">
<path transform="matrix(1,0,0,-1,0,476)" d="M.2181818 1.018181H1038.9822V475.1273H.2181818Z"/>
</clipPath>
<clipPath id="clip_54">
<path transform="matrix(1,0,0,-1,0,476)" d="M.2181818 1.018181H1038.9822V475.1273H.2181818Z"/>
</clipPath>
<clipPath id="clip_55">
<path transform="matrix(1,0,0,-1,0,476)" d="M.2181818 1.018181H1038.9822V475.1273H.2181818Z"/>
</clipPath>
<clipPath id="clip_56">
<path transform="matrix(1,0,0,-1,0,476)" d="M.2181818 1.018181H1038.9822V475.1273H.2181818Z"/>
</clipPath>
<clipPath id="clip_57">
<path transform="matrix(1,0,0,-1,0,476)" d="M.2181818 1.018181H1038.9822V475.1273H.2181818Z"/>
</clipPath>
<clipPath id="clip_58">
<path transform="matrix(1,0,0,-1,0,476)" d="M.2181818 1.018181H1038.9822V475.1273H.2181818Z"/>
</clipPath>
<clipPath id="clip_59">
<path transform="matrix(1,0,0,-1,0,476)" d="M.2181818 1.018181H1038.9822V475.1273H.2181818Z"/>
</clipPath>
<clipPath id="clip_60">
<path transform="matrix(1,0,0,-1,0,476)" d="M.2181818 1.018181H1038.9822V475.1273H.2181818Z"/>
</clipPath>
<clipPath id="clip_61">
<path transform="matrix(1,0,0,-1,0,476)" d="M.2181818 1.018181H1038.9822V475.1273H.2181818Z"/>
</clipPath>
<clipPath id="clip_62">
<path transform="matrix(1,0,0,-1,0,476)" d="M.2181818 1.018181H1038.9822V475.1273H.2181818Z"/>
</clipPath>
<clipPath id="clip_63">
<path transform="matrix(1,0,0,-1,0,476)" d="M.2181818 1.018181H1038.9822V475.1273H.2181818Z"/>
</clipPath>
<clipPath id="clip_64">
<path transform="matrix(1,0,0,-1,0,476)" d="M.2181818 1.018181H1038.9822V475.1273H.2181818Z"/>
</clipPath>
<clipPath id="clip_65">
<path transform="matrix(1,0,0,-1,0,476)" d="M.2181818 1.018181H1038.9822V475.1273H.2181818Z"/>
</clipPath>
</defs>
<g clip-path="url(#clip_0)">
<path transform="matrix(1,0,0,-1,0,476)" d="M0 476H1039.855V.1454534H0Z" fill="#ffffff"/>
</g>
<path transform="matrix(1,0,0,-1,0,476)" d="M.5454324 475.091H1039.091V.9818178H.5454324Z" fill="#ffffff"/>
<g clip-path="url(#clip_1)">
<path transform="matrix(.00007874016,0,0,.00007874016,11.56362,63.636415)" stroke-width="9525" stroke-linecap="butt" stroke-linejoin="round" fill="none" stroke="#d9d9d9" d="M0 0V4796443M1612735 0V4796443M3225457 0V4796443M4840950 0V4796443M6453672 0V4796443M8066394 0V4796443M9681887 0V4796443M11294609 0V4796443M12909666 0V4796443"/>
</g>
<g clip-path="url(#clip_2)">
<path transform="matrix(1,0,0,-1,0,476)" d="M33.05622 343.7353H42.87472V34.80001H33.05622ZM160.2604 86.92686H169.8607V34.80001H160.2604ZM287.2464 96.30898H297.0649V34.80001H287.2464ZM414.2324 93.47253H424.0509V34.80001H414.2324ZM541.4365 84.96316H551.0368V34.80001H541.4365ZM668.4225 86.92686H678.241V34.80001H668.4225ZM795.4085 84.96316H805.227V34.80001H795.4085ZM922.6127 88.67237H932.213V34.80001H922.6127Z" fill="#156082"/>
</g>
<g clip-path="url(#clip_3)">
<path transform="matrix(1,0,0,-1,0,476)" d="M51.60228 356.3902H61.42079V34.80001H51.60228ZM178.8065 188.1665H188.4068V34.80001H178.8065ZM305.7924 110.2731H315.6109V34.80001H305.7924ZM432.7784 160.6747H442.5969V34.80001H432.7784ZM559.9826 174.2024H569.5829V34.80001H559.9826ZM686.9686 134.7102H696.7871V34.80001H686.9686ZM813.9546 217.4039H823.7731V34.80001H813.9546ZM941.1587 110.2731H950.7591V34.80001H941.1587Z" fill="#e97132"/>
</g>
<g clip-path="url(#clip_4)">
<path transform="matrix(1,0,0,-1,0,476)" d="M70.14835 334.3532H79.96685V34.80001H70.14835ZM197.1343 266.2782H206.9528V34.80001H197.1343ZM324.3385 166.1295H333.9388V34.80001H324.3385ZM451.3245 192.5303H461.143V34.80001H451.3245ZM578.3105 235.2954H588.129V34.80001H578.3105ZM705.5146 179.2208H715.115V34.80001H705.5146ZM832.5006 235.2954H842.3191V34.80001H832.5006ZM959.7048 153.4745H969.3051V34.80001H959.7048Z" fill="#196b24"/>
</g>
<g clip-path="url(#clip_5)">
<path transform="matrix(1,0,0,-1,0,476)" d="M88.69441 362.4995H98.51291V34.80001H88.69441ZM215.6804 220.4585H225.4989V34.80001H215.6804ZM342.8846 111.364H352.4849V34.80001H342.8846ZM469.8705 149.1107H479.6891V34.80001H469.8705ZM596.8565 162.6384H606.675V34.80001H596.8565ZM724.0607 123.5826H733.661V34.80001H724.0607ZM851.0467 205.1853H860.8652V34.80001H851.0467ZM978.0327 99.36363H987.8512V34.80001H978.0327Z" fill="#0f9ed5"/>
</g>
<g clip-path="url(#clip_6)">
<path transform="matrix(1,0,0,-1,0,476)" d="M107.2405 328.4621H116.8408V34.80001H107.2405ZM234.2265 164.6021H244.045V34.80001H234.2265ZM361.2124 112.455H371.0309V34.80001H361.2124ZM488.4166 137.7649H498.0169V34.80001H488.4166ZM615.4026 150.8562H625.2211V34.80001H615.4026ZM742.6068 100.4546H752.2071V34.80001H742.6068ZM869.5928 193.1849H879.4113V34.80001H869.5928ZM996.5787 88.67237H1006.397V34.80001H996.5787Z" fill="#a02b93"/>
</g>
<g clip-path="url(#clip_7)">
<path transform="matrix(.00007874016,0,0,.00007874016,11.56362,441.30906)" stroke-width="9525" stroke-linecap="butt" stroke-linejoin="round" fill="none" stroke="#d9d9d9" d="M0 0 12909666 1"/>
</g>
<g clip-path="url(#clip_8)">
<text xml:space="preserve" transform="matrix(0 -.2181818 .2181818 0 520.0359 126.3273)" font-size="82.99999" font-family="TimesNewRomanPSMT"><tspan y="-2181" x="0 41.250997 82.50199 103.16899 144.41999 185.67098">40.91%</tspan></text>
</g>
<g clip-path="url(#clip_9)">
<text xml:space="preserve" transform="matrix(0 -.2181818 .2181818 0 647.0984 383.12727)" font-size="82.99999" font-family="TimesNewRomanPSMT"><tspan y="-2181" x="0 41.250997 61.91799 103.16899 144.41999">6.90%</tspan></text>
</g>
<g clip-path="url(#clip_10)">
<text xml:space="preserve" transform="matrix(0 -.2181818 .2181818 0 774.1608 373.74549)" font-size="82.99999" font-family="TimesNewRomanPSMT"><tspan y="-2181" x="0 41.250997 61.91799 103.16899 144.41999">8.14%</tspan></text>
</g>
<g clip-path="url(#clip_11)">
<text xml:space="preserve" transform="matrix(0 -.2181818 .2181818 0 901.2233 376.58183)" font-size="82.99999" font-family="TimesNewRomanPSMT"><tspan y="-2181" x="0 41.250997 61.91799 103.16899 144.41999">7.77%</tspan></text>
</g>
<g clip-path="url(#clip_12)">
<text xml:space="preserve" transform="matrix(0 -.2181818 .2181818 0 1028.286 385.0909)" font-size="82.99999" font-family="TimesNewRomanPSMT"><tspan y="-2181" x="0 41.250997 61.91799 103.16899 144.41999">6.65%</tspan></text>
</g>
<g clip-path="url(#clip_13)">
<text xml:space="preserve" transform="matrix(0 -.2181818 .2181818 0 1155.348 383.12727)" font-size="82.99999" font-family="TimesNewRomanPSMT"><tspan y="-2181" x="0 41.250997 61.91799 103.16899 144.41999">6.90%</tspan></text>
</g>
<g clip-path="url(#clip_14)">
<text xml:space="preserve" transform="matrix(0 -.2181818 .2181818 0 1282.411 385.0909)" font-size="82.99999" font-family="TimesNewRomanPSMT"><tspan y="-2181" x="0 41.250997 61.91799 103.16899 144.41999">6.65%</tspan></text>
</g>
<g clip-path="url(#clip_15)">
<text xml:space="preserve" transform="matrix(0 -.2181818 .2181818 0 1409.473 381.16365)" font-size="82.99999" font-family="TimesNewRomanPSMT"><tspan y="-2181" x="0 41.250997 61.91799 103.16899 144.41999">7.15%</tspan></text>
</g>
<g clip-path="url(#clip_16)">
<text xml:space="preserve" transform="matrix(0 -.2181818 .2181818 0 538.5496 113.4545)" font-size="82.99999" font-family="TimesNewRomanPSMT"><tspan y="-2181" x="0 41.250997 82.50199 103.16899 144.41999 185.67098">42.59%</tspan></text>
</g>
<g clip-path="url(#clip_17)">
<text xml:space="preserve" transform="matrix(0 -.2181818 .2181818 0 665.6121 281.8909)" font-size="82.99999" font-family="TimesNewRomanPSMT"><tspan y="-2181" x="0 41.250997 82.50199 103.16899 144.41999 185.67098">20.31%</tspan></text>
</g>
<g clip-path="url(#clip_18)">
<text xml:space="preserve" transform="matrix(0 -.2181818 .2181818 0 792.6746 359.7818)" font-size="82.99999" font-family="TimesNewRomanPSMT"><tspan y="-2181" x="0 41.250997 82.50199 103.16899 144.41999 185.67098">10.00%</tspan></text>
</g>
<g clip-path="url(#clip_19)">
<text xml:space="preserve" transform="matrix(0 -.2181818 .2181818 0 919.737 309.3818)" font-size="82.99999" font-family="TimesNewRomanPSMT"><tspan y="-2181" x="0 41.250997 82.50199 103.16899 144.41999 185.67098">16.67%</tspan></text>
</g>
<g clip-path="url(#clip_20)">
<text xml:space="preserve" transform="matrix(0 -.2181818 .2181818 0 1046.8 295.8545)" font-size="82.99999" font-family="TimesNewRomanPSMT"><tspan y="-2181" x="0 41.250997 82.50199 103.16899 144.41999 185.67098">18.46%</tspan></text>
</g>
<g clip-path="url(#clip_21)">
<text xml:space="preserve" transform="matrix(0 -.2181818 .2181818 0 1173.862 335.34553)" font-size="82.99999" font-family="TimesNewRomanPSMT"><tspan y="-2181" x="0 41.250997 82.50199 103.16899 144.41999 185.67098">13.24%</tspan></text>
</g>
<g clip-path="url(#clip_22)">
<text xml:space="preserve" transform="matrix(0 -.2181818 .2181818 0 1300.925 252.6545)" font-size="82.99999" font-family="TimesNewRomanPSMT"><tspan y="-2181" x="0 41.250997 82.50199 103.16899 144.41999 185.67098">24.19%</tspan></text>
</g>
<g clip-path="url(#clip_23)">
<text xml:space="preserve" transform="matrix(0 -.2181818 .2181818 0 1427.987 359.7818)" font-size="82.99999" font-family="TimesNewRomanPSMT"><tspan y="-2181" x="0 41.250997 82.50199 103.16899 144.41999 185.67098">10.00%</tspan></text>
</g>
<g clip-path="url(#clip_24)">
<text xml:space="preserve" transform="matrix(0 -.2181818 .2181818 0 557.0633 135.7091)" font-size="82.99999" font-family="TimesNewRomanPSMT"><tspan y="-2181" x="0 41.250997 82.50199 103.16899 144.41999 185.67098">39.66%</tspan></text>
</g>
<g clip-path="url(#clip_25)">
<text xml:space="preserve" transform="matrix(0 -.2181818 .2181818 0 684.1258 203.7818)" font-size="82.99999" font-family="TimesNewRomanPSMT"><tspan y="-2181" x="0 41.250997 82.50199 103.16899 144.41999 185.67098">30.65%</tspan></text>
</g>
<g clip-path="url(#clip_26)">
<text xml:space="preserve" transform="matrix(0 -.2181818 .2181818 0 811.1883 303.9273)" font-size="82.99999" font-family="TimesNewRomanPSMT"><tspan y="-2181" x="0 41.250997 82.50199 103.16899 144.41999 185.67098">17.39%</tspan></text>
</g>
<g clip-path="url(#clip_27)">
<text xml:space="preserve" transform="matrix(0 -.2181818 .2181818 0 938.2507 277.30909)" font-size="82.99999" font-family="TimesNewRomanPSMT"><tspan y="-2181" x="0 41.250997 82.50199 103.16899 144.41999 185.67098">20.90%</tspan></text>
</g>
<g clip-path="url(#clip_28)">
<text xml:space="preserve" transform="matrix(0 -.2181818 .2181818 0 1065.313 234.5455)" font-size="82.99999" font-family="TimesNewRomanPSMT"><tspan y="-2181" x="0 41.250997 82.50199 103.16899 144.41999 185.67098">26.56%</tspan></text>
</g>
<g clip-path="url(#clip_29)">
<text xml:space="preserve" transform="matrix(0 -.2181818 .2181818 0 1192.376 290.8364)" font-size="82.99999" font-family="TimesNewRomanPSMT"><tspan y="-2181" x="0 41.250997 82.50199 103.16899 144.41999 185.67098">19.12%</tspan></text>
</g>
<g clip-path="url(#clip_30)">
<text xml:space="preserve" transform="matrix(0 -.2181818 .2181818 0 1319.438 234.5455)" font-size="82.99999" font-family="TimesNewRomanPSMT"><tspan y="-2181" x="0 41.250997 82.50199 103.16899 144.41999 185.67098">26.56%</tspan></text>
</g>
<g clip-path="url(#clip_31)">
<text xml:space="preserve" transform="matrix(0 -.2181818 .2181818 0 1446.501 316.5818)" font-size="82.99999" font-family="TimesNewRomanPSMT"><tspan y="-2181" x="0 41.250997 82.50199 103.16899 144.41999 185.67098">15.71%</tspan></text>
</g>
<g clip-path="url(#clip_32)">
<text xml:space="preserve" transform="matrix(0 -.2181818 .2181818 0 575.577 107.34549)" font-size="82.99999" font-family="TimesNewRomanPSMT"><tspan y="-2181" x="0 41.250997 82.50199 103.16899 144.41999 185.67098">43.40%</tspan></text>
</g>
<g clip-path="url(#clip_33)">
<text xml:space="preserve" transform="matrix(0 -.2181818 .2181818 0 702.6395 249.6)" font-size="82.99999" font-family="TimesNewRomanPSMT"><tspan y="-2181" x="0 41.250997 82.50199 103.16899 144.41999 185.67098">24.59%</tspan></text>
</g>
<g clip-path="url(#clip_34)">
<text xml:space="preserve" transform="matrix(0 -.2181818 .2181818 0 829.702 358.69093)" font-size="82.99999" font-family="TimesNewRomanPSMT"><tspan y="-2181" x="0 41.250997 82.50199 103.16899 144.41999 185.67098">10.14%</tspan></text>
</g>
<g clip-path="url(#clip_35)">
<text xml:space="preserve" transform="matrix(0 -.2181818 .2181818 0 956.7644 320.7273)" font-size="82.99999" font-family="TimesNewRomanPSMT"><tspan y="-2181" x="0 41.250997 82.50199 103.16899 144.41999 185.67098">15.15%</tspan></text>
</g>
<g clip-path="url(#clip_36)">
<text xml:space="preserve" transform="matrix(0 -.2181818 .2181818 0 1083.827 307.4182)" font-size="82.99999" font-family="TimesNewRomanPSMT"><tspan y="-2181" x="0 41.250997 82.50199 103.16899 144.41999 185.67098">16.92%</tspan></text>
</g>
<g clip-path="url(#clip_37)">
<text xml:space="preserve" transform="matrix(0 -.2181818 .2181818 0 1210.889 346.47273)" font-size="82.99999" font-family="TimesNewRomanPSMT"><tspan y="-2181" x="0 38.179998 79.43099 100.09799 141.34899 182.59998">11.76%</tspan></text>
</g>
<g clip-path="url(#clip_38)">
<text xml:space="preserve" transform="matrix(0 -.2181818 .2181818 0 1337.952 264.65449)" font-size="82.99999" font-family="TimesNewRomanPSMT"><tspan y="-2181" x="0 41.250997 82.50199 103.16899 144.41999 185.67098">22.58%</tspan></text>
</g>
<g clip-path="url(#clip_39)">
<text xml:space="preserve" transform="matrix(0 -.2181818 .2181818 0 1465.014 370.47273)" font-size="82.99999" font-family="TimesNewRomanPSMT"><tspan y="-2181" x="0 41.250997 61.91799 103.16899 144.41999">8.57%</tspan></text>
</g>
<g clip-path="url(#clip_40)">
<text xml:space="preserve" transform="matrix(0 -.2181818 .2181818 0 594.0906 141.6)" font-size="82.99999" font-family="TimesNewRomanPSMT"><tspan y="-2181" x="0 41.250997 82.50199 103.16899 144.41999 185.67098">38.89%</tspan></text>
</g>
<g clip-path="url(#clip_41)">
<text xml:space="preserve" transform="matrix(0 -.2181818 .2181818 0 721.1532 305.4545)" font-size="82.99999" font-family="TimesNewRomanPSMT"><tspan y="-2181" x="0 41.250997 82.50199 103.16899 144.41999 185.67098">17.19%</tspan></text>
</g>
<g clip-path="url(#clip_42)">
<text xml:space="preserve" transform="matrix(0 -.2181818 .2181818 0 848.2157 357.6)" font-size="82.99999" font-family="TimesNewRomanPSMT"><tspan y="-2181" x="0 41.250997 82.50199 103.16899 144.41999 185.67098">10.29%</tspan></text>
</g>
<g clip-path="url(#clip_43)">
<text xml:space="preserve" transform="matrix(0 -.2181818 .2181818 0 975.2782 332.2909)" font-size="82.99999" font-family="TimesNewRomanPSMT"><tspan y="-2181" x="0 41.250997 82.50199 103.16899 144.41999 185.67098">13.64%</tspan></text>
</g>
<g clip-path="url(#clip_44)">
<text xml:space="preserve" transform="matrix(0 -.2181818 .2181818 0 1102.341 319.2)" font-size="82.99999" font-family="TimesNewRomanPSMT"><tspan y="-2181" x="0 41.250997 82.50199 103.16899 144.41999 185.67098">15.38%</tspan></text>
</g>
<g clip-path="url(#clip_45)">
<text xml:space="preserve" transform="matrix(0 -.2181818 .2181818 0 1229.403 369.6)" font-size="82.99999" font-family="TimesNewRomanPSMT"><tspan y="-2181" x="0 41.250997 61.91799 103.16899 144.41999">8.70%</tspan></text>
</g>
<g clip-path="url(#clip_46)">
<text xml:space="preserve" transform="matrix(0 -.2181818 .2181818 0 1356.466 276.87269)" font-size="82.99999" font-family="TimesNewRomanPSMT"><tspan y="-2181" x="0 41.250997 82.50199 103.16899 144.41999 185.67098">20.97%</tspan></text>
</g>
<g clip-path="url(#clip_47)">
<text xml:space="preserve" transform="matrix(0 -.2181818 .2181818 0 1483.528 381.38185)" font-size="82.99999" font-family="TimesNewRomanPSMT"><tspan y="-2181" x="0 41.250997 61.91799 103.16899 144.41999">7.14%</tspan></text>
</g>
<g clip-path="url(#clip_48)">
<text xml:space="preserve" transform="matrix(.2181818 0 -0 .2181818 49.9613 940.8)" font-size="72.99999" font-family="TimesNewRomanPS" font-weight="bold"><tspan y="-2181" x="0 54.4069 112.901798 175.4117">BYOL</tspan></text>
</g>
<g clip-path="url(#clip_49)">
<text xml:space="preserve" transform="matrix(.2181818 0 -0 .2181818 173.9213 940.8)" font-size="72.99999" font-family="TimesNewRomanPS" font-weight="bold"><tspan y="-2181" x="0 74.7082 137.2254 195.6546">MOCO</tspan></text>
</g>
<g clip-path="url(#clip_50)">
<text xml:space="preserve" transform="matrix(.2181818 0 -0 .2181818 293.5537 940.8)" font-size="72.99999" font-family="TimesNewRomanPS" font-weight="bold"><tspan y="-2181" x="0 46.289304 80.314609 155.0009 213.4812 267.8735">SIMCLR</tspan></text>
</g>
<g clip-path="url(#clip_51)">
<text xml:space="preserve" transform="matrix(.2181818 0 -0 .2181818 431.7337 940.8)" font-size="72.99999" font-family="TimesNewRomanPS" font-weight="bold"><tspan y="-2181" x="0 46.289304 116.96059 165.9509">SWAV</tspan></text>
</g>
<g clip-path="url(#clip_52)">
<text xml:space="preserve" transform="matrix(.2181818 0 -0 .2181818 536.9838 940.8)" font-size="72.99999" font-family="TimesNewRomanPS" font-weight="bold"><tspan y="-2181" x="0 46.289304 80.314609 155.0009 213.4812 267.8735 323.7258 382.2061">SIMCLRV2</tspan></text>
</g>
<g clip-path="url(#clip_53)">
<text xml:space="preserve" transform="matrix(.2181818 0 -0 .2181818 671.1938 940.8)" font-size="72.99999" font-family="TimesNewRomanPS" font-weight="bold"><tspan y="-2181" x="0 74.7082 137.2254 195.6546 258.1718 316.601">MOCOV2</tspan></text>
</g>
<g clip-path="url(#clip_54)">
<text xml:space="preserve" transform="matrix(.2181818 0 -0 .2181818 798.2562 940.8)" font-size="72.99999" font-family="TimesNewRomanPS" font-weight="bold"><tspan y="-2181" x="0 74.7082 137.2254 195.6546 258.1718 316.601">MOCOV3</tspan></text>
</g>
<g clip-path="url(#clip_55)">
<text xml:space="preserve" transform="matrix(.2181818 0 -0 .2181818 924.2662 940.8)" font-size="72.99999" font-family="TimesNewRomanPS" font-weight="bold"><tspan y="-2181" x="0 46.289304 80.314609 155.0009 201.2902 235.3155 293.7958">SIMSIAM</tspan></text>
</g>
<g clip-path="url(#clip_56)">
<path transform="matrix(1,0,0,-1,0,476)" d="M38.72724 450.2182H46.8V442.1454H38.72724Z" fill="#156082"/>
</g>
<g clip-path="url(#clip_57)">
<text fill="#595959" xml:space="preserve" transform="matrix(.2181818 0 -0 .2181818 50.37952 510.32725)" font-size="72.99999" font-family="TimesNewRomanPSMT"><tspan y="-2181" x="0 56.998399 109.9818 162.9652 211.9336 229.94998 254.97438 311.97279 347.94718 372.97157 408.94596 445.94236 478.92375 535.9221 567.9545 604.9509 624.93838 643.97677 667.9791 728.99258">mAUC Improvement (%)</tspan></text>
</g>
<g clip-path="url(#clip_58)">
<path transform="matrix(1,0,0,-1,0,476)" d="M232.6909 450.2182H240.7636V442.1454H232.6909Z" fill="#e97132"/>
</g>
<g clip-path="url(#clip_59)">
<text fill="#595959" xml:space="preserve" transform="matrix(.2181818 0 -0 .2181818 244.2782 510.32725)" font-size="72.99999" font-family="TimesNewRomanPSMT"><tspan y="-2181" x="0 52.998 85.993999 117.967998 154.97899 178.99599 211.99199 243.96599 280.977 299.008 324.047 381.06 417.04899 442.08796 478.07695 515.08798 548.0839 605.0969 637.0709 674.0819 694.0839 713.0639 737.08096 798.10897">Accuracy Improvement (%)</tspan></text>
</g>
<g clip-path="url(#clip_60)">
<path transform="matrix(1,0,0,-1,0,476)" d="M441.7091 450.2182H449.5636V442.1454H441.7091Z" fill="#196b24"/>
</g>
<g clip-path="url(#clip_61)">
<text fill="#595959" xml:space="preserve" transform="matrix(.2181818 0 -0 .2181818 453.2367 510.32725)" font-size="72.99999" font-family="TimesNewRomanPSMT"><tspan y="-2181" x="0 40.9968 64.9846 98.0244 130.0422 151.03702 179.03983 200.03464 236.06743 273.04924 291.051 316.0608 373.0446 409.07737 434.08717 470.11994 507.1017 540.1415 597.1253 629.1431 666.12496 686.0978 705.1216 729.1094 790.10818">Precision Improvement (%)</tspan></text>
</g>
<g clip-path="url(#clip_62)">
<path transform="matrix(1,0,0,-1,0,476)" d="M648.7636 450.2182H656.8364V442.1454H648.7636Z" fill="#0f9ed5"/>
</g>
<g clip-path="url(#clip_63)">
<text fill="#595959" xml:space="preserve" transform="matrix(.2181818 0 -0 .2181818 660.4554 510.32725)" font-size="72.99999" font-family="TimesNewRomanPSMT"><tspan y="-2181" x="0 40.9968 77.029598 102.03939 143.0362 175.054 212.0358 236.0236 269.06343 287.06523 312.075 369.0588 405.09159 430.10139 466.13417 503.11595 536.15579 593.1396 625.1574 662.1392 682.11209 701.13589 725.12368 786.12246">F1-Score Improvement (%)</tspan></text>
</g>
<g clip-path="url(#clip_64)">
<path transform="matrix(1,0,0,-1,0,476)" d="M855.1636 450.2182H863.2364V442.1454H855.1636Z" fill="#a02b93"/>
</g>
<g clip-path="url(#clip_65)">
<text fill="#595959" xml:space="preserve" transform="matrix(.2181818 0 -0 .2181818 866.7889 510.32725)" font-size="72.99999" font-family="TimesNewRomanPSMT"><tspan y="-2181" x="0 48.997598 80.9862 113.9968 147.00742 167.02402 187.04062 206.03522 230.06682 287.09443 324.12 348.15159 385.1772 422.20277 454.19136 511.21894 544.22958 580.23318 601.1987 619.1713 643.20297 705.1945">Recall Improvement (%)</tspan></text>
</g>
<path transform="matrix(.00007874016,0,0,.00007874016,.6545663,1.0181885)" stroke-width="9525" stroke-linecap="butt" stroke-linejoin="round" fill="none" stroke="#d9d9d9" d="M0 0H13189527V6021185H0Z"/>
</svg>
